<mxfile host="app.diagrams.net" agent="Mozilla/5.0 (Windows NT 10.0; Win64; x64) AppleWebKit/537.36 (KHTML, like Gecko) Chrome/133.0.0.0 Safari/537.36" version="26.0.16">
  <diagram id="C5RBs43oDa-KdzZeNtuy" name="Page-1">
    <mxGraphModel dx="948" dy="545" grid="1" gridSize="10" guides="1" tooltips="1" connect="1" arrows="1" fold="1" page="1" pageScale="1" pageWidth="827" pageHeight="1169" math="0" shadow="0">
      <root>
        <mxCell id="WIyWlLk6GJQsqaUBKTNV-0" />
        <mxCell id="WIyWlLk6GJQsqaUBKTNV-1" parent="WIyWlLk6GJQsqaUBKTNV-0" />
        <mxCell id="WIyWlLk6GJQsqaUBKTNV-2" value="" style="rounded=0;html=1;jettySize=auto;orthogonalLoop=1;fontSize=11;endArrow=block;endFill=0;endSize=8;strokeWidth=1;shadow=0;labelBackgroundColor=none;edgeStyle=orthogonalEdgeStyle;" parent="WIyWlLk6GJQsqaUBKTNV-1" source="WIyWlLk6GJQsqaUBKTNV-3" target="WIyWlLk6GJQsqaUBKTNV-6" edge="1">
          <mxGeometry relative="1" as="geometry" />
        </mxCell>
        <mxCell id="WIyWlLk6GJQsqaUBKTNV-3" value="" style="rounded=1;whiteSpace=wrap;html=1;fontSize=12;glass=0;strokeWidth=1;shadow=0;" parent="WIyWlLk6GJQsqaUBKTNV-1" vertex="1">
          <mxGeometry x="160" y="80" width="120" height="40" as="geometry" />
        </mxCell>
        <mxCell id="WIyWlLk6GJQsqaUBKTNV-4" value="Yes" style="rounded=0;html=1;jettySize=auto;orthogonalLoop=1;fontSize=11;endArrow=block;endFill=0;endSize=8;strokeWidth=1;shadow=0;labelBackgroundColor=none;edgeStyle=orthogonalEdgeStyle;" parent="WIyWlLk6GJQsqaUBKTNV-1" source="WIyWlLk6GJQsqaUBKTNV-6" target="WIyWlLk6GJQsqaUBKTNV-10" edge="1">
          <mxGeometry y="20" relative="1" as="geometry">
            <mxPoint as="offset" />
          </mxGeometry>
        </mxCell>
        <mxCell id="WIyWlLk6GJQsqaUBKTNV-5" value="No" style="edgeStyle=orthogonalEdgeStyle;rounded=0;html=1;jettySize=auto;orthogonalLoop=1;fontSize=11;endArrow=block;endFill=0;endSize=8;strokeWidth=1;shadow=0;labelBackgroundColor=none;" parent="WIyWlLk6GJQsqaUBKTNV-1" source="WIyWlLk6GJQsqaUBKTNV-6" target="WIyWlLk6GJQsqaUBKTNV-7" edge="1">
          <mxGeometry y="10" relative="1" as="geometry">
            <mxPoint as="offset" />
          </mxGeometry>
        </mxCell>
        <mxCell id="WIyWlLk6GJQsqaUBKTNV-6" value="Lamp&lt;br&gt;plugged in?" style="rhombus;whiteSpace=wrap;html=1;shadow=0;fontFamily=Helvetica;fontSize=12;align=center;strokeWidth=1;spacing=6;spacingTop=-4;" parent="WIyWlLk6GJQsqaUBKTNV-1" vertex="1">
          <mxGeometry x="170" y="170" width="100" height="80" as="geometry" />
        </mxCell>
        <mxCell id="WIyWlLk6GJQsqaUBKTNV-7" value="Plug in lamp" style="rounded=1;whiteSpace=wrap;html=1;fontSize=12;glass=0;strokeWidth=1;shadow=0;" parent="WIyWlLk6GJQsqaUBKTNV-1" vertex="1">
          <mxGeometry x="320" y="190" width="120" height="40" as="geometry" />
        </mxCell>
        <mxCell id="WIyWlLk6GJQsqaUBKTNV-8" value="No" style="rounded=0;html=1;jettySize=auto;orthogonalLoop=1;fontSize=11;endArrow=block;endFill=0;endSize=8;strokeWidth=1;shadow=0;labelBackgroundColor=none;edgeStyle=orthogonalEdgeStyle;" parent="WIyWlLk6GJQsqaUBKTNV-1" source="WIyWlLk6GJQsqaUBKTNV-10" target="WIyWlLk6GJQsqaUBKTNV-11" edge="1">
          <mxGeometry x="0.3333" y="20" relative="1" as="geometry">
            <mxPoint as="offset" />
          </mxGeometry>
        </mxCell>
        <mxCell id="WIyWlLk6GJQsqaUBKTNV-9" value="Yes" style="edgeStyle=orthogonalEdgeStyle;rounded=0;html=1;jettySize=auto;orthogonalLoop=1;fontSize=11;endArrow=block;endFill=0;endSize=8;strokeWidth=1;shadow=0;labelBackgroundColor=none;" parent="WIyWlLk6GJQsqaUBKTNV-1" source="WIyWlLk6GJQsqaUBKTNV-10" target="WIyWlLk6GJQsqaUBKTNV-12" edge="1">
          <mxGeometry y="10" relative="1" as="geometry">
            <mxPoint as="offset" />
          </mxGeometry>
        </mxCell>
        <mxCell id="WIyWlLk6GJQsqaUBKTNV-10" value="Bulb&lt;br&gt;burned out?" style="rhombus;whiteSpace=wrap;html=1;shadow=0;fontFamily=Helvetica;fontSize=12;align=center;strokeWidth=1;spacing=6;spacingTop=-4;" parent="WIyWlLk6GJQsqaUBKTNV-1" vertex="1">
          <mxGeometry x="170" y="290" width="100" height="80" as="geometry" />
        </mxCell>
        <mxCell id="WIyWlLk6GJQsqaUBKTNV-11" value="Repair Lamp" style="rounded=1;whiteSpace=wrap;html=1;fontSize=12;glass=0;strokeWidth=1;shadow=0;" parent="WIyWlLk6GJQsqaUBKTNV-1" vertex="1">
          <mxGeometry x="160" y="430" width="120" height="40" as="geometry" />
        </mxCell>
        <mxCell id="WIyWlLk6GJQsqaUBKTNV-12" value="Replace Bulb" style="rounded=1;whiteSpace=wrap;html=1;fontSize=12;glass=0;strokeWidth=1;shadow=0;" parent="WIyWlLk6GJQsqaUBKTNV-1" vertex="1">
          <mxGeometry x="320" y="310" width="120" height="40" as="geometry" />
        </mxCell>
        <mxCell id="yOlltbZVxZX-zZ10FpWM-0" value="" style="rounded=0;whiteSpace=wrap;html=1;" vertex="1" parent="WIyWlLk6GJQsqaUBKTNV-1">
          <mxGeometry x="40" y="550" width="250" height="60" as="geometry" />
        </mxCell>
        <mxCell id="yOlltbZVxZX-zZ10FpWM-1" value="PCI" style="rounded=0;whiteSpace=wrap;html=1;" vertex="1" parent="WIyWlLk6GJQsqaUBKTNV-1">
          <mxGeometry x="50" y="570" width="40" height="25" as="geometry" />
        </mxCell>
        <mxCell id="yOlltbZVxZX-zZ10FpWM-2" value="CCI" style="rounded=0;whiteSpace=wrap;html=1;" vertex="1" parent="WIyWlLk6GJQsqaUBKTNV-1">
          <mxGeometry x="110" y="570" width="40" height="25" as="geometry" />
        </mxCell>
        <mxCell id="yOlltbZVxZX-zZ10FpWM-4" value="ACI" style="rounded=0;whiteSpace=wrap;html=1;" vertex="1" parent="WIyWlLk6GJQsqaUBKTNV-1">
          <mxGeometry x="170" y="570" width="40" height="25" as="geometry" />
        </mxCell>
        <mxCell id="yOlltbZVxZX-zZ10FpWM-5" value="VCI" style="rounded=0;whiteSpace=wrap;html=1;" vertex="1" parent="WIyWlLk6GJQsqaUBKTNV-1">
          <mxGeometry x="230" y="570" width="40" height="25" as="geometry" />
        </mxCell>
        <mxCell id="yOlltbZVxZX-zZ10FpWM-7" value="" style="rounded=0;whiteSpace=wrap;html=1;" vertex="1" parent="WIyWlLk6GJQsqaUBKTNV-1">
          <mxGeometry x="105" y="870" width="120" height="60" as="geometry" />
        </mxCell>
        <mxCell id="yOlltbZVxZX-zZ10FpWM-9" value="" style="endArrow=classic;html=1;rounded=0;exitX=0.441;exitY=1.006;exitDx=0;exitDy=0;exitPerimeter=0;" edge="1" parent="WIyWlLk6GJQsqaUBKTNV-1" source="yOlltbZVxZX-zZ10FpWM-0">
          <mxGeometry width="50" height="50" relative="1" as="geometry">
            <mxPoint x="530" y="700" as="sourcePoint" />
            <mxPoint x="150" y="690" as="targetPoint" />
          </mxGeometry>
        </mxCell>
        <mxCell id="yOlltbZVxZX-zZ10FpWM-10" value="TCF CI-ONE System" style="rounded=1;whiteSpace=wrap;html=1;" vertex="1" parent="WIyWlLk6GJQsqaUBKTNV-1">
          <mxGeometry x="90" y="690" width="120" height="50" as="geometry" />
        </mxCell>
        <mxCell id="yOlltbZVxZX-zZ10FpWM-11" value="采集流水线信息及关键日志" style="text;html=1;align=center;verticalAlign=middle;whiteSpace=wrap;rounded=0;" vertex="1" parent="WIyWlLk6GJQsqaUBKTNV-1">
          <mxGeometry x="150" y="650" width="105" height="30" as="geometry" />
        </mxCell>
        <mxCell id="yOlltbZVxZX-zZ10FpWM-15" value="Zmail" style="rounded=0;whiteSpace=wrap;html=1;" vertex="1" parent="WIyWlLk6GJQsqaUBKTNV-1">
          <mxGeometry x="440" y="570" width="40" height="25" as="geometry" />
        </mxCell>
        <mxCell id="yOlltbZVxZX-zZ10FpWM-19" value="" style="points=[];aspect=fixed;html=1;align=center;shadow=0;dashed=0;fillColor=#FF6A00;strokeColor=none;shape=mxgraph.alibaba_cloud.user_feedback_02;" vertex="1" parent="WIyWlLk6GJQsqaUBKTNV-1">
          <mxGeometry x="480" y="450" width="43.199999999999996" height="50.099999999999994" as="geometry" />
        </mxCell>
        <mxCell id="yOlltbZVxZX-zZ10FpWM-20" value="" style="endArrow=classic;html=1;rounded=0;exitX=0.482;exitY=1.021;exitDx=0;exitDy=0;exitPerimeter=0;entryX=0.5;entryY=0;entryDx=0;entryDy=0;" edge="1" parent="WIyWlLk6GJQsqaUBKTNV-1" source="yOlltbZVxZX-zZ10FpWM-19">
          <mxGeometry width="50" height="50" relative="1" as="geometry">
            <mxPoint x="540" y="650" as="sourcePoint" />
            <mxPoint x="500" y="550" as="targetPoint" />
          </mxGeometry>
        </mxCell>
        <mxCell id="yOlltbZVxZX-zZ10FpWM-27" value="" style="shape=image;verticalLabelPosition=bottom;labelBackgroundColor=default;verticalAlign=top;aspect=fixed;imageAspect=0;image=data:image/png,iVBORw0KGgoAAAANSUhEUgAAAJ8AAAChCAIAAABWCfpqAAAXOUlEQVR4Ae2deVQTV9vA/TMhLgFBIiBa2RQBZVFQQcXjhgJatQEX5KhFRbCpYlxoCyj1O74tioqI24c7VRGrBxWp4r6AIEEQ98oWRTYh0pCQZGY+2pw3J18ymcxklgxp+INzc5fnPs/zu3dm7p079/ZxHeF5+Mj/SiQSiJZ/v/zyC+OfPyaT6eLisnDhwpSUlAsXLpSWln78+FEqlZKhdXd3d2Nj49OnTy9evLh9+3Yul+vm5mZhYaHUJDk5WSaTkVEvfpkSieTQ4aOuIzzZVhy2FaeP6MsX/ELJkxAQEKD0qfp/Dofj7e0dGhoaGxt76NCh4uJikUgEgiAeNUAQ7OzsLC0tPXLkSFxcXFhYmI+PD4fDUa9XGR47dmxnZyeeusguK/ryZUnU8r/pkl0THvkvXrxQ9RhtLzMYDAsLCysrK3t7e2dn55iYmMuXLwuFQrlcjr5SuVz+4cOH/Pz8tWvXOjs7Ozg4DBw4UG+lT548QV+FUXKCILjjf/5DX7ogCCYlJcFCRYgcMGBAUFBQcnJyfn5+TU1Ne3u7VCpVdWsQBKVSaUdHR21t7ZUrV1JTU4ODgy0tLREEwiZt2rRJJdMo8FBWSl+67e3t7u7usM5FE8lkMp2cnL755ptt27YdP3780aNHjx8/PnnyZGpqakREhKurK3IHRa5ixIgRnz9/RuliI2ajL92ioiJkF6NPZTKZHh4enp6eLBYLfSnknAUFBUbEhrJq+tJNSEhA9q9xU1evXo3SxUbMRlO6jY2N48ePNy4/5No9PT2FQqERyaGpmqZ0L1++7OjoiOxf46ZyOJzffvsNjYuNmIeOdCUSSWJiIp6nHgrAW1hYrFu3TiwWGxGe3qrpSLe+vn727NkUEMJZRXBw8Nu3b/W62IgZ6Ej3wYMHsJNEOGEQXpzD4Vy/fp3OA1860k1PTyecBEkCU1NTaTvnDEEQ7ejK5fLp06eTBINwsVOmTBGJREa89iJXTTu6VVVVNH+eUm8iFhYWjx8/RnaxEVPpRbfnHpacnKzuPvqHN2/eTNtbL73oikQiNzc3+hNV19DFxYW2F2d60b19+7a643pLuLCw0IiXX4Sq6UV3yZIlvYWoup7h4eEILjZiEo3oNjQ0+Pv7q3utt4Q9PDxqa2uNSFFX1XShC4Jgfn7+0KFDewtRdT3t7Oxyc3Np+GxFF7oSieTHH38k8P2ruvfJDltYWPB4PBrOOdOF7sePH+fPn082BvLkz5o1i4YXZ7rQffjwYS+9LCtbjIODQ2FhId0uznShq1q3TF73IlsyDdc504KuQqEIDg4m2/tkyw8MDKTbtAYt6L5584Zs11Mj/+nTp7oGJ0aJpwXdrVu3UuN9smvZsGGDUSjqqtT4dEUiUa94V4+mZdja2tLqIxTj07158yYax/WWPNevX9fVk6iPNzJdAAA2btzYW8ih0TM2NhYAAOpBwtZoZLrNzc0RERFjTOgvPDy8sbER1tfURxqZrlgsfvnyZaUJ/VVXV//111/Ug4St0ch0YXUyRxLlATNdojxJRzlmunSkQpROZrpEeZKOcsx06UiFKJ2ooyuXy6urq3vp2ho0I11defz8/J4+fWqUTxaooAuC4KdPnzIyMgzYoUKXy3pXvKWl5e7duz9+/EjxC2Aq6FZVVUVHR1tbW/cuJMRqa2lpuXjx4uLiYqKuumjkkEsXAICLFy+OGDGily6YIhYwi8VydnY+e/YsZVOVZNEFQbC5uXnr1q19+/Yl1kcmIG39+vWfPn2igDEpdHvWWty9ezc8PNzcZWHbYs+3ZTNnzrxx4wamjdPQXIo18hBPt6WlZevWra6urrCGmSNVHnByckpISGhqatJAQuBPIumCIFhZWTlz5sx+/fqpbDAHEDzAYrEmT55cVlZG0rM0YXTFYnF+fv7IkSMRjDEnwXrA1dX1/PnzZCx2J4auWCxOTEyEVd0cidIDCQkJhL86JIbun3/++S8fzqJEiJztzZs3BN50Cds3QyqVrlu3Dll1cyqyB+Li4gjfA52YvktsizNLI8oDZrpEeZKOcsx06UiFKJ3MdInyJB3l9Bq6AADIZLLu7m6pVCqRSMRi8V///ZNKpTKZDOeEAAiCMplMKpX+V+pfYrFYIpFIpdLu7m6ZTEbBtDDhDYSOdGUyWXt7e01NTUVFxe3bt8+dO3fgwIFdu3alpKQkJiby+fyeCbzY2NiVK1fGxMSsWrWKz+cnJSXt2bPn999/Ly8vb2pqUigUaDwFAEBLS4tAILh8+fLevXuTk5P5fP7q1atjYmJWrly5du3ahIQEPp+fmJiYkpKSlpaWmZl59uzZW7duVVRUvH///vPnz93d3Ya1KuCfPzRK4slDR7rZ2dkhISGTJk3y8/Nzc3PjcDgod5+zt7f38fGZPn06j8e7cuWKLswKhaK5ubmgoGDDhg0zZszw9fUdMmQI8nBFmcpkMm1tbd3c3Hx9fYOCgkJCQrKysgxbdNHQ0NDa2oqHHJqydKS7YcMGNL5GyGNhYcFms4cNGxYZGcnT+lu0aNGwYcMsLS1RNhqEimJjYw048UqhUOTn5xM+d6HNm450169fj+BQWiWtWbPGALqfPn3asWPHq1evtHkQG0NHur3ou7G4uDgD6BYUFHC53JqaGmJZakujI9179+5NmDCBVn0UVhl/f/+bN2+ifIJTd31kZOTcuXMpODSDjnQBAMjJybGzs4P1qQGR7u7uFy9evHTpko+PjwHFYYsMGjTo6NGjAABgfWa+du0ai8VaunRpS0uLOnIywqTTraure/fuHVbVy8vLPT09Yd2KNdLPz0917ld7e7uvry9WCbD5nZycDFjg2NbW5uHhwWAwYmNjKdhChXS61dXVa9euxXpzevbs2ejRo2HdiimSxWKdP39evW1dvXqVkNVeLi4upaWl6pL1hru7u1UbN/F4PMLf5morQDrdurq64cOHYz308sWLF97e3phAwmYOCAjQeHhpamoKCgqCzYwp0s3N7dmzZ9oORYgpLS0dM2YMg8Ho27dvSkoK1haPIFlXEul0hUIhk8ncsGEDpqZaX19PyDcpW7Zs6erqUje+u7t7x44dmEDCZh41apRGu1GvRTssEonWrVvHZDIZDIa1tXVWVhYFU5uk021vb2cwGI6Ojrdu3dK2WVdMV1fXrFmzYN2KPnLw4MEXLlzQrqKgoADl5BRCXRMmTNBoN9oVqcfk5eWppNnZ2Z09exbr45i6NJRh0ulKJBLl50MLFy5EvzAMAIAffvhB5Q7DApMnT4bdmVMoFOI/zWrjxo3o8VRXVyuvyUpDhg8fTs3WOKTT7e7udnZ2ZjAY/fv3P3z4MMpGB0HQ/fv3DYOqLDVgwIBjx47BLgdXKBSnTp2ysbHBI7+oqAilLa2trRrD95EjR1JzEgrpdBUKhfppnOhHRxKJZOzYsQYDmDdvHsI8AwAAeHbpHzduHMrLskKhSEpK0vjcxtvb+8WLFygbB55spNOFIGjatGkqSAsWLFCNPvXqXVhYOHDgQFVZ9AF3d/cPHz4gy29sbDRsSG1tbZ2fn48sXJkql8vz8vKGDx+uoXlAQIBe9dDI15uHCrrqvYTD4WRmZqJf/Mfn87EOT/39/e/evavXcgiCSkpKsI6OWCwWj8dDOZgRCASwT/6TJk3q6OhAoyHOPFTQ1VgM6+XlVVJSglLvDx8+rF69esCAARrNH/Yni8WKjo4uKyuDvd1q16hQKCoqKmJiYlDK79+///Lly2tra9E8T4lEopCQEFg9Fy5ciFJDbZ0xxVBBV3sLVy6Xi15LmUx28OBBWDepR86dOxfr5JFKB4FAMHfuXHVpsOH9+/d3d3erSiEHVq5cCSuEwWDweDzkskSlUkF3//792nb+/PPPKB9MlKa2tLTk5OR8//33XC43ODh43rx5kZGRcXFx+/btu3btWn19PcIzFBpnAQAgFAqvX7++Z8+e+Pj4yMjI2bNnBwcHc7nc77777vTp0+j3B+zs7Ny5cyfCp3KHDh1CoxL+PFTQzc3N1abbM8WRnZ1twLIVAADEYrFcLkdzeTTYQSAIyuVysViMdUZJKpUeP34c+Vh39KMpg/VXFqSCbkFBASzd0aNH379/H6cBdCteVFT01VdfwdqriqysrKRGbSro3rp1S2WYRmDWrFl1dXXUmEpBLUKhUMNA2J/ox4Q4daaCblVVFcKVKioqijJrcToLobhCoSguLkZzAKmVlRU1D8yEfQOIYDYEQe/fv1e+soZtyAwGY8mSJe3t7chC6JwKAEBZWVlwcLDyFZAuM5Xx06ZNo8wWKvpuQ0ODxkSrtv08Ho9WJwpgAlBbWztjxgyN6UZtG5UxCQkJmITjyUwF3Z71/npHkzY2Nrt378Y0RsJjNlFlQRAUiURz5szRxVI7Pjs7m6ja9cqhgm5HR4f6ZKS2wcoYBweH7Oxsyu5Jel2DJsPr16/DwsJ0WQQbj36eDo0CyHmooCsWi+Pi4mBN1Yh0dHQ8cOBAr+jBIAhWV1dzuVysHzSQuoWRBmwq6Mpkss2bN2uA1PVTeYk2YJZDwzCyf9bV1YWHhyNMSMEa6OrqSqVpVNAFQTAzM9PKygrWYO1IW1vbrKws9DO6ZIPUkA+CYHt7O6Z7rcpGis9Qp4IuBEF5eXkODg4qI/UGOBzO3r170a/U0QBA3k8AAHq+O508ebJeE2AzUHyUHEV0S0pK3N3dYQ3WFcnhcDZu3NjW1kYeKqyS5XL5w4cPp06dimZcC2vX/v37sVaKJz9FdGtra8eNGwdrMEJk3759uVzux48f8VhIYNmysjJ/f3+sqwlUBrLZ7HPnzhGoj15RFNHt6uoy+ITd0NBQalYhIThLJpPduXNHxcmwwIgRIwz4OAVBK71JFNGFIIjL5RrmFAaDMXny5AcPHuB8g6vXF7oydHZ2nj592tbW1mD9lQUDAwNfvnypqxYy4qmjm5aWhsc7Hh4eJ0+eRL8giyhnSSSSjIyMoUOH4lFeWXbBggXolwAQoj91dK9evYrTQTY2NqmpqRQ/SKekpBi2LlPb2JiYGEyf2+AHTB3dly9fahtsQAyfz+/o6CB1YQYEQQAANDc3o5xiQ2MFm81OS0sjW22NBkEd3Y6ODqLOyO75dl0gEJA3I61QKAQCAZfLxToVhYDZ3t7+0qVLGt4n+yd1dAEAWLBgAYL96JOYTObEiRPz8/NJmtV78ODB+PHjDR7Uwhri7u7++vVrsnFqyKeOLgRB6enpsJYbEMlkMjkczpkzZzTswf8zLy/P3t7eAJWQi/j5+VE/t0op3bKyMmQXGJC6Z88ekUiE/34GgmBnZ2d6ejr6+XBM2i5atAh/y8MqgVK6IpGIqFuvyrMsFmvFihXPnz/HORquqamJj48n6vFYpZ4qkJOTg5UN/vyU0oUgKDw8XGUwUYF+/foFBgbi+SK2pKRk5syZBk8xojHk+fPn+GlhlUA1XUJ2NYD1JpvN/umnn7A+SAMAkJubi7BkE7YurJGjR4+mfh6GojWR6i0uNzeXvC7CZDLnzJlTXl6O8vmlqalp27Zt+KcY9cLm8/nqTqAsTHXfLS8vd3Fx0esOPBnGjBlz8OBBvZ9QVlVVoVnthUcTVVk8dw08TYFquh8+fNC7PlLlFIMDtra2X3/9dUVFBaxrJBJJbm5uYGCgwfIxFXR2dm5ubobVhOxIqul2dXVRtsmni4vL6dOnNa7SEokkNTWVzWZjIoQn89KlS41y0zXCfReCoBMnTlBwq1PxWL9+fU1Njfyfv3fv3q1YsUKVREGAyWRmZGRgfdYjqk9T3XchCCJql0D0bCZMmHDkyJHjx48HBASgL0VITkdHx6KiIvyTLYbxNgLdjo6O0NBQQnyHXsiMGTP4fD7KHRTQi9WbMyQkBHbPLMNoYS1lBLogCO7atUuvXwjMwGaz8/PzW1pasO6Bgl8HHo9nrMuyce67EAQ9efIEv+PQS5g6daryEzSBQED4VCiCGkOHDr1x4wbWDkdgfiP0XQiCxGKxl5cXgl8ITOrbt++jR49ULqPyshEcHEzBwSUq07QDxqELQdDhw4cJRIggasGCBeqvgYVCIWUj3czMTGM9TylJG42uWCxGQEJgksa+cAqFIjMzk0D5CKI+ffqk3Z+ojDEa3Z5v8pctW4bgGkKSJk2a1NDQoOFQgUCAZwdKlIqlp6dr1Ev9T2PSzcnJIe+NgpIB7Bbmnz9/joiIQAnJsGweHh7U7ASJ3GKMSffVq1fq278a5keEUk5OToWFhdp3PoVCsXPnTlLHvrt37zbiQEiF3Jh0ew7k3LJlCwIenEkzZ87UdSrMlStXyBsahYWFad8OVB6nMkA1XZlM1tbW9u7du4cPH2ZnZ8+fP5/AVaXqrUF5soSuDlRcXEzG0jilApMmTTp8+PD9+/ffvn3b2tpq8Dmf+NsBFXSVnzNXVFT0rC1KTk6Ojo4OCgoiezmElZXVnTt3dDmoqqoK/9EI6o1JO+zg4DBx4sSoqKgtW7acOnWqvLy8ra0N676EuvRHGU8WXeUSw+rq6hMnTqxduzYoKMjLywv9WavazsIa4+np+eXLF11eEAgEZNNVV5jD4Xh6egYGBn777bfHjh2rrKxsb2+ngDTBdOVyeUNDw6VLl1atWjVs2DB1CykOJyYm6kILQdDNmzcHDx5MsUrq1Tk6Oq5YseLixYt1dXXqky0IOhuQhIuuQqFoa2t7/fp1j7MOHTrE4/HGjx+vPMFE3RKjhO/du6fLHQAAZGRkkLRuGauxAwYM8Pf3j4+Pz8rK+uOPP169etXa2opz9a7KcMx0ZTJZU1OTQCA4e/ZsSkrKsmXLxo8fTxNPqTzL4XAQTtnr6OiIiooi9kMSVdV4Amw229/fPyoqKikpKScnp7y8vLGxEU/PRkv3y5cvZWVlBw8ejI6O9vLycnZ2HjRoEB5LSC07b948VfvVDpSVlRFyDB2pJtjY2Dg5OXl6ei5dujQzM7OkpAShvWrbqIzRSRcAAIlEIhQKL1y4EBkZadybKFY//vrrr7oMlsvl+/btwyqQDvkdHR0XL1587ty5+vp6iUSC5qEMhq5cLq+vrz937lxMTAymbYjo4AKlDgUFBbroCoVCvVuS0scQWE3s7OyWL19+5syZ2tpaXQN6+L7b1tZ29OjR0NDQ/v37w4qmf+SQIUOqq6t10UVzgAb9bWQwGCwWKyQk5MCBAwhbE/6/vltZWTllyhQqFyyS4cfp06frmsFvaWkhb4qKDFv0yrSxsQkKCtK1cvtvuiAISiSS48eP4zwaT68q1GRYunQp7B5mCoUiISGBGh0orqV///4HDx7s6urSeGXyN90eXyQnJxt3dE+gO/h8vvbmIyAIGn0Gg0AbtUXZ2tpu3bpVY71AH5FItGbNGlJfh2mrQmrM9u3bNb4/ULbgJUuWYN1tl1Q9CRfOZrNXrFih/gFVn4iICLJfoRNuBoLAgQMHHjlyRGOuBwCAnJwcuk25IFhhcBKLxQoLC1MdMtHHlHotg8Gwt7fPy8vTuP20trZS/xWCwYRwFmSxWJs2bVLuYN4Hpyy6FXdyctL4nFIsFsfHx9NNT1L1GTJkyMmTJ2UymanRHTlypPr7AwAAKFsBSSowrMJHjRpVWVlpanS9vb2fPn2qmsp4/Pgx1n2hsfqRtvlXrVplanR9fHzKy8uVg/impiY8G8vSFht6xUyNrp+fn3LiRiaTpaWl/RuekxFgmxrdcePGVVVVQRB069YtJycnBMv/DUmmRtfHx0cgEAiFQjs7u38DP2QbTY2ur6/vvXv3dB04j+wL00s1NbrDhw+fP3++tbW16aEywCJTo8tkMk17MhkTY1Oji8l4k89spmvKiM10zXRN2QOmbJu575rpmrIHTNk2c9810zVlD5iybea+a6Zryh4wZdvMfddM15Q9YMq2mfuuma4pe8CUbTP3XTNdU/aAKdtm7rtmuqbsAVO27f8AsQaxMHFntEYAAAAASUVORK5CYII=;" vertex="1" parent="WIyWlLk6GJQsqaUBKTNV-1">
          <mxGeometry x="620" y="235.04" width="74.03" height="74.96" as="geometry" />
        </mxCell>
        <mxCell id="yOlltbZVxZX-zZ10FpWM-31" value="" style="group" vertex="1" connectable="0" parent="WIyWlLk6GJQsqaUBKTNV-1">
          <mxGeometry x="667.09" y="630" width="32.90999999999997" height="36.76068137391792" as="geometry" />
        </mxCell>
        <mxCell id="yOlltbZVxZX-zZ10FpWM-28" value="" style="shape=image;verticalLabelPosition=bottom;labelBackgroundColor=default;verticalAlign=top;aspect=fixed;imageAspect=0;image=data:image/png,iVBORw0KGgoAAAANSUhEUgAAAXgAAAGkCAIAAAC0A6mlAAAgAElEQVR4AexdB3hUxdrePbubbAoJJJCEEEJJ6NKL9CJIR1CaFOklwAXpIBECCAqCly4gICAqikoTKUpRKUG6JEBogRDSSEjPZss5+/xc3t/vzj1bsrvZNLL78IQ5c+bMfG3e+aZLqlQNcvxzSMAhAYcEClQCEr3jV+olIAgCz/P0V6/Xa7Vanuf1er1KpTpy5MikSZNatWpVsWLFcuXKBQUFvfvuu5s3b05NTdXr9YIgqNVqBDQajV6v53ken+Ox1EvXIYD/SMABNA47+K8E1C9/giDo9XqNRnPw4MFGjRo5OzvLZDKJRCKVSiUSCcdxEolE8fK3YsUKIEtWVhaASRAE3csfYOu/WTtCpVsCDqAp3fp/yb1Go9G+/Ol0OngoqampYWFhFStWlPzzk8vl/wQlwB2JROLs7NypU6e4uDh4McI/P57nkRUwyyFihwQcQOOwgf+XAFBCo9Hk5uZ++umnFSpUgPNC+MJiDb3iOK5Hjx7Pnj1je14UhpvjELFDAg6gKe028I8X8v//a7XaI0eONGjQALAiffmTSP7jxaDrBNyhsEwmc3d3Dw0N1el0Wq1WlJsDaEq7ef3DvwNo/pFEaf0foyoajUatVut0uuTk5N69eysUChqUkUgk5MsolUqCHiQA4lSqVOnSpUuEMhhadvSbSqtNGeHbATRGhFKqoggd0N/Zv39/rVq1qLvEogzBDb11cnJCAldX1/fffx9Z0egMHkuVMB3MmpKAA2hMScZkPFt/2FqKBpyacTZAYUwDs48miynEF5gn0mq1Op1u3rx5ZcqUYd0ZghV21om6TjQPVbNmzZycHBoV5l/+ihunIqGy6sP0GRGMAJuAwqJMHI+WSMABNJZI6b9pBEHQaDTUNRC13nAKMDBBr6jKkaUWt5ELEMbzvEqlGjp0KCGLqQDbe6I0FStWjIqKwgoayAES+K/sijpE8id+gbCkKVazIhWzSixqPkpk+Q6gsU5tqEhkdjqdjsK05o0WsAmCoNVqNRoNKh7GSosbyhD/PM/HxcX169eP9VYIR/IMVKhQ4c8//2QhBmHKv8gDoIfUpNFodDqdWq1mNQiF4i/pCyorbuwUuTytIsABNFaJ6z+JDZ0atIQ05wLXIDk5OT09XaVSUftJLarVRRbwB0TY48eP+/TpI5pgyhNikMDHx+fEiROoxuQjFCtUBe4TbRgFJ955nkeTgL/Qpk6nwyIj0nsBq+KVzd4BNNaplla+0kJ7tIdoAzMyMu7cuXP69Olvv/12zZo1mzZt+u677y5evPjgwYOsrKxi2ySisun1+pSUlIEDB9IaGQshBskqVap0+fJlbDsonpyCTSwmxPxaVFTUxYsXz549+8cff5w9ezYiIiIpKYltMGikBgCKV9ZZjCP1Swk4gMY6Q6A1r7TQXvPyp9Pprl+//u9//7tbt27u7u6oexjLCAgIGDhw4FdffXX//n3YK404Wld2AaeGpzZlyhTMJVmFMhKJJCgoCLUUjT85DgVMtXXZA2sSExNPnz69ZMmSbt26BQYGenh4ODs7+/r6tm7deu7cuceOHYuPj4eDgwFy1ofV6XTWFelI/VICDqCxzhDI08ZgDVapqVSq06dPv/XWW05OTjTAgQD9rVChwoQJE65duwaEsq7UAk5NTT3P85s2bapUqRJxYSHcKJXKd955h3wBklJxg1SdTvf48eNVq1bVr1/fcLYezPr5+S1ZsuTevXvwUtVqNS01KmA9vMrZO4DGau3SaCIaOmw+fO2119DjoH1AFKC6qlQqe/bs+ddff1ldZAF/gN4f+IqIiOjcubMh8cSFYYDjuICAgMOHDxNgsYECpt267G/fvj1r1qwKFSpgVp46iaIAx3GDBw+OjIykfjHGd8CXdUU6Ur+UgANorDYEmniC8d28ebN169bmayY5CC4uLiNGjHj69ClGMajlt5oI+30ASjBqy/N8bm7uypUrK1WqZAgopmLc3NyGDx+OQSiWryIcCSbBspCXkpKyYMECHx8fo6uEwB0hjkQiGTduXHJyMvpQ8G6K59iT/WyhAHNyAI0twqVlaZmZmTNmzHB1dTVVCUU2LZVKAwMDN2zYQJ1/tJkY1yiSjgZbJzECFRMT8/7775ctW5ZlSi6XE1yy8RzHvfXWWxEREbbIscC+IXwBQODvjz/+WKdOHRHx7KMoLJfLt27dSmttCozYUpGxA2isVjOaNQx2RkZGNmjQQGSgokeRs6NQKHr37s1ud2arutXU2OkD4B2QTqPRvJh/mTRpUsWKFQlcaPiJYiQSSZkyZQYOHHju3LkidF4MBQB5YqUv1KTT6RISEiZNmuTi4sL6LCJNGT42bdr0hR9EY0+GZTliLJSAA2gsFNR/k2EsA3a8YcMGC3sZVD85jqtXr96FCxfgFiFfqhv/LaawQgRzNCOGynn//v3ly5e3bt3axcUFNZCtom5ubpijuXPnTnHrULDdN3Cn1WpPnjzZvn17mUwGLkgdhuDCxri7u584cQIZFiswLSzrsFs5DqCxWpQ0GMzz/KhRo0RdDNZMKcyu2VcoFIGBgV999ZWoPhB+WU1Q/j6gvhsC7Pqg9PT0M2fONGnSxNnZGbygfpYvX37FihVnz57NyclBa1/cJn1FshUEYdOmTYGBgaQRlh1RJPvo6uq6cOFCGqApwvYgf0ou+q8dQGOjDrAauE+fPpasOhHNpPr6+q5btw4tJDkURWXEbJ0kDKU2nOf5wYMHY5sl9/InlUrr1atHy2Swx6I4Aw1gYvHixVjfxK57ztOvUSgUw4YNA3ekKRstpnR/5gAaq/UPg0NN69GjB7X2bEsoCouApnLlyp9//jntPyySMWCWbcIaGqkh74bn+dGjR5crVw5nX4GvevXq6fV6SIBW7rMZFnmYpR8+2pIlSzw9PWmvOXUDzWONQqF4++23aTl4kfNVcglwAI3VugPQoPEfOXIkrQMWgYupR6lUGhQU9MMPP1CtLtqmktihykn0AErGjBnj6enJYiULNPS51XIsyA8wfYa/er0+MTFx+vTpHh4epBTgC9ulpVdswMnJKSQkhBY0FCTJr3jeDqCxWsFUtQRBWLt2LVZ/sdaZZ9jHx+eTTz5JSUmBL0MVm53kpiEbClhNqGUfUOkUoO8APWPGjHFzc2Nb/ho1auAVUuJD+qowA6KNkaAEEiN27t69O3/+/ODgYI7jWC5MqQmzhHB5lErl5s2bMQ5V0IooTLkVflkOoLFO5iIjvnr1av369clkzdsxuetOTk5169ZdsGBBVFQUzWXQsAihDzXLRdi3enF2xPjx40VeW5UqVTDwYZ3s7J0aEqOzikk15Jrl5OQcPXp0yJAhWKRHajIfgBKhLG9v78jISFwRAeQqbqNR9hZqQeXnABrrJEutNwaDMzIyJk2a5OrqahRiRJFSqZSwRiKRVKhQYdiwYUeOHFGpVPBlUFVQT8isCYmsI9ROqQVBmDRpEkY3qH5Wrly5+AAN69SwoPPo0aM1a9a0atUKI9kgXqQRqIONRAypqV+/fiqVijTCrkiwk4BLSzYOoLFO02TWGL/Q6XQRERGNGjWCv00DGaJFerSzRoQ17u7uDRo0WLJkyZMnT8h/oQCLPtZRadfUU6dOFU3h+/v7F4d+BDwa7J6nWXae57Oyso4fP96/f39/f39TozAEJYSebAB69PPz++OPP4D42FqJEu0q3dKSmQNorNM0zI7cjdzcXGyqrF27NjsEwDaSAB2pVMqiDxIg0t/ff/r06bdv30aDTH4NjUEWYddJr9eLhlElEomvry/176wTn71TA/fJ49DpdHfv3l26dGmjRo1oEbDs5Y/FEewLoVaBdMFqzdXVdcuWLRkZGXBd4cE5+k02K9ABNNaJjmyaBggEQcjOzj558mSnTp04jqPZbrJjmHi5cuWaN28ukUjYdTdk2Z6enlOnTo2NjaWag63h8JuKFmhmzZrFztdIJBIvLy9IrcjJgxbQo8nMzPz555+7devm7e3Nwgo5NVKptFatWiEhIc2bN5fL5VgWxKakjWkBAQE7d+7MyMiAurFWCGHrzMWR+h8JOIDmH0lY9j95NGjicnNzYX8qlSoiImLJkiV16tRRKBTwbmDi5cuXHz169NGjRy9evBgaGkrdEHJwkCwgIGDr1q25ubk4PpIQzTK6CjDVnDlzRGM0Hh4ewL4i3wREpzfExcUtWbLktddeI6AnEAeUODs79+zZ89ChQzExMRcvXpw1a5avry/HcbQpAepwcXEZOXLk0aNHMzMzAaO42qE4dBULUMcFn7UDaKyWMSCG2lLqROh0utTU1KioqGPHjm3YsGHp0qWrVq367rvvIiIi4uPjcT1bUlLS/v37O3XqhPWpbGXgOG7YsGG3bt1CB4qcBUCb1VTa4wMUPX/+fBHQuLm5FQegIacyKipq/PjxhODkpJDPUq1atcWLF9+6dQs4rtVqnz17duXKlc2bN48fP75Pnz49evQYNWrUmjVrzp07FxcXhwNJoQL2b9G6lvZQaZHl4QAaq0VPNZ8CyIIe1Wp1enp6SkpKampqTk4OrY5BgpycnBs3bkyfPt3wcIn69ev/+OOPdIIEKhJli3xg93QJEfuWBo+tZsnEB8h8zpw5WBlMsOjp6UmuBNIQVSZy+v9oEbVGE1MaCiAZKjlGTGhIXhCE+Pj4sWPHenh4UF+V6MRq5o4dOx48ePDZs2fsTgIIMCMjIy4u7vHjx48ePXr69GlaWhoYocZDpDsH0BhVmSWRDqCxREp2TqPT6aKjo5csWcKuT+E4ztvbe82aNWTrBDR6vV6j0aCbhupHfRY8ouLRh5aPJogqs4hPlLJgwYLy5cuTmyCRSCpWrIirAkAhESP6nJCR+h1UHCikeErJDlGxTAEXWHiF05GamvrZZ5/RjXfUD8JoS7ly5aZOnXr16tXs7GwHRhhqpzBjHEBTmNL+b1k8z//1119t27ZFlaCZqXnz5qlUKuqdIUDtKoZvCFyo3opiKP6/5ZkIiVKy+VChs2fP9vT0ZOeDOY6jNh9wYCL7/1xNQz82DUVS/WdjECYCkCY3NxcL5whPdTrd5cuXq1evTjuYIEyQ2rx58++++y41NZWdNmJpcIQLUwIOoClMaf9/WdiIGBUVNWTIEHgK5O1PnTr1+fPnmNjW6/U0w03QY1gh0dVCtUTOsbGx0dHRUVFRkZGRt27duv3yd+fOnQcPHsTHx2dkZGi1WpACl4Q8CzZzRL44Xy40NJTdZoFqjG4IfBnKjRUl5cxGUphW1lEMAgQxONdOtKQIb6kHlJCQsGzZMplMplAoCGukUqmXl9fo0aOvXLmSnZ0NbCo+I+sifkvPowNoikDXqDD37t0bPHgwdUmANSEhIXFxcajAhB1U/6nCUIWMiYn55ZdfPvnkk7Fjx7Zv37569epeXl7ly5f39PR0/+dX5n9/Hh4enp6eFSpUqFq1ap06dVq0aNGxY8fOnTt369atR48ePZlf+/btW7RoUa5cOcJBorZly5Z9+vQZOnTo5MmTp02bNmfOnHn//ObOnTtr1qzp06f/61//CgkJGTVq1PDhwwcPHvz222/37t27Z8+ePXr0GDhw4OjRoydOnDhr1qwVK1Z8/fXX586de/ToUW5uLts/grskCAIu/ySBAAQfPHjw5ptvEkkY+q1evfratWufPXtGHpB5yNM7foUiAQfQFIqY/7cQ1J979+6NGDFC5NGMHTs2Li4OCbD5gD2JCviSnZ194sSJuXPn1q1b18fHx9XV1dnZGQtDqNZZHsBiZUz0Ym0bhWkJoghoMB+vUCjkcrlCoXByclIqlU7MT/HPT/7PDznjL17St87Ozkql0s3NzdPTs1q1am+//fbq1asvXLiQmZkJfgl2VSoVwug93b59u0aNGiyncrl83LhxdDsoPle//FEf7X9V4XgqJAk4gKaQBG1YzOPHj8ePH496grqNk/cTEhLQCFPdoFGJiIiIOXPmBAYGSqVSJycnWolDHQe21uU/zOZPuWGhCvuKDVMymwM0eVS1atVJkyadPn0a6+UgQPgy6FJdv37d2dmZSuc4ztfXd82aNXiLE3NoloqEaagIR0whSMABNIUgZCNFCIIQHR09atQoYARcBqlUGhISkpSURGPAuIher9efOXNmyJAhovUsVJlFHgfF2z2AgtjFzXYvAhnSpjC5XN64cePvv/8+NTUVXSdC4YiICF9fXxZkAwMDN2/eDEyhqTdKb0QNjqjCkoADaApL0v9bjiAIMTExISEhooo6YcKExMRESsvz/N27d8eMGYOVLDT1Q8246PNX+DEoKGj79u3oTgI7jALN559/XuTOCzCOWgvSJhuAl0qrBLDjhE3wioUdQFM0ChUE4cmTJ5MnTxZBw7hx4+Li4vR6vUqliouLW7duXXBwsFKphCtB3YpCc2FE5BXhI7D19ddfP3PmDA5Fj4yMrFixIkuSv7//unXrigRoMB5Eo/U8z2NsKCcnJyMjIz09PSMjIzMzE2sXMNKEMH2IQNGYY8GX6gCagpexsRIEQXj69OnUqVPZeiKRSKZMmfL8+XONRnPr1q333nuPPUuFTVkKgYbYVygUc+bMSUlJ+fvvv/39/REPgfj4+KxevbpIgAYDQwALLJvOzs4+e/bs8uXLBwwY0LRp04YNG3bt2nXx4sUXLlxITU2lcTcE9Ho9tkcYM5ZXIc4BNEWjRUEQEhISZsyYQfUHgdGjR7+YTPnmm28aN26MFfSoQuzZ/aJPSskjx3FYLyORSORyeYMGDdauXSvaqO3t7b18+fIiARoaPxIEITMz8/jx44MGDcKud2oV4JA6Ozv37t37119/xYImtvdUNLZYKKU6gKZQxGyskKSkpLlz54pgonv37lOmTMFqV3ZBPSWjKWeKKQ0B6jPSZQwymczJyYmgB0IoW7ZsWFhYUZ0aA3cmMzNz9+7dtWvXZvVCg2sU6e3t/c0336SlpdFYNYafjFnKqxDnAJoi02JKSkpoaChZHgI0aU2OjKGNIiW1k6IcXtVHmodip5lEzHp6en744YdF5dHwPJ+dnb19+/batWuTdkw1DFKp1N3dfePGjTk5OUAo6kMVmUUWZMEOoClI6ZrN+/nz5wsXLhRVFTzCTM1jjSkAMprhKxCJm3mpAtMhVcQax3Hu7u7z5s0rQqAJDw9/4403iCQ2QPpiFwcEBQXdvXsXvSfaOGrWakrqyxIPNDRWT+NwZGeYMszOzmaH99m+NKUsZO2B1NTU1LCwMNYWDcNsvaK3dMwKxbzyAXSRRB0lEdZIpVIXF5eZM2dCrYb2UNBaTk1N/eijjwxP/zCqRFLZlClTsrKyaLtZQRNZVPmXbKBB/xZKojWgPM9nZmbeu3fvjz/++Omnn7Zt27Zz586ff/75r7/+evjwIVoPTEMa3Q1YCJoA2enp6cuXL4fBmbdFMkpHwJQE0ENxcXGZNWsWIAYqxl9qXQpUuRcvXuzZs6cI/kwRTPEeHh7R0dEOoClQ1eQ3c5gUdvqi9qrV6tu3b+/atWvgwIHYDahQKLA3p0qVKuPHjz927Bit8S+qUUPYfVpa2ooVK9hhTjI+R8AqCVCvxM3Nbc6cOai0ZBvsY34NzvT3giDs3bu3atWqVlEOVPrhhx9o16jpEkr2mxLs0bDD9Wi4srOzjx8//vbbb8N9pc4wGaJMJvPy8po9e3ZUVJROp8MdGkWiQEEQMjIyPvnkE6LNWgN1pCcJwB+UyWRubm4TJ07EFaCsL1MI/oJOp1uzZo1tzcaCBQuwEbRITLFwCi3BQEPbmumQ3f379+OAe8MV+hTDcZxSqRw/fvzDhw8BVYUjaFEpuH5o7dq1VFscgXxKAHDTuHHjb7/9NisrC0f50Lk2BY01Go1m5cqVNrAgk8lCQkJwBLrISF6lx5INNBj2Q9t19+7d5s2bE6AYqpzaPVwYsmDBgoyMjKLSJc/zz549+/DDDw3pdMRYLgHDsS0nJ6cuXbqcOnUKJ5+q1WqsuC1ooNFqtatXr7bBP+U4bvr06Q6gKaqamHe52LSGM+UyMzOnTJlCm5sJbjA6Y2i4HMcFBAQcOHCgSCaeBEHIzc399ddfmzRpYkibI8YGCUDR+Ovm5jZ48GC6MxsnYOVtT/lLIQjC9u3bRSuVLWTk888/x4lf+SOhWH9dgj0arDuAhxweHt6wYUNDvZpqYaRSqaur68CBA4tEwYIgPHjwYNKkSbZ16Q3ZdMTQXA98HG9v748++igjI0OtVtN0ZEFXxN9++61169ZEiYVKUSqVly9ffrVX6+n1+pINNDTftHjxYh8fH5Fqya+mAJtAKpXWqFHj9u3bBW1/mGNiXfesrKzt27f7+fmBMKPksaQ6wqYkYCg6imnTps1vv/2GbjUNDOdf1zQFYZhVTEzM9OnTaQrCQsTp1KlTWlqaHSk0JKw4xJRgoCEbEgRhyJAhhgulTFkn3BypVBoYGPjdd98VqBrILnEyANYQ3rhxo3PnzqbIsyGeeohUzWzI5BX7pEyZMtOnT3/27Bnmue2lZVIosmX/arXaQ4cO1a9f35QkDbVTtmzZ/fv3070X9iKyGOZT4oEGmn7jjTcs74ZA31KpFCc/FpxW6OhfYCIuS4mLiwsLC1MqlTSQZMouLYmnviExZclXhZnGsHaJSs8zgSi9JY/Is27duvv37zd/AJVt2ofVwUtlsSY5OfnDDz/08vIydGeITQSkUqlSqZwyZQr2cONkiSJc2GWbHCz/qgQDDQ6FxTkgnTp1IkWaN0TUTFRyb2/v9evXWy4sa1MCaKh/p9PpsrKyjh49GhwcjC2C7EZBC+lnuSNHBod+s68ozHGcm5tbxYoVg4OD67z81f7fX40aNapVq1a1atUq//wqV64cEBDg5+fn+/Ln4+NToUIFb2/vcuXKlS1b1uPlr0yZMm5ubq6ursqXP2dnZ+ylNtxxnidfeSYgXqwKcBzn5OQUEhLy6NEjO26MZmEFYVp2jDuRly1bJrpvD2SDTVKZi4vL2LFjb968Sa4uXZtjrZmViPQlGGhYf6Ffv35YAZynLVK/SSKRBAQE7Nmzp0D1hL4SNYCxsbHvvfceEclxHBwxU3t8KaXRALkzABqqsXDW2rRpM3To0Dlz5qxcuXLLli179uz5/vvvvzP4ffPNN7t37965c+eX//x27NjxxRdfbN68+fN/fhs3btywYcPatWvXrFnz2WefrX75W7Vq1cqVK1esWPHJy9/y5cuXLVv20UcfLVmyJIz5LVy48IMPPpg1a9a0adNGjRrVo0ePxo0bly9f3i4OnVGxIBJVumbNmjt37lSr1ewYWX40TuBC+ELQo1arjx079vrrr6No0g5LJHRUt27dmTNnRkVFYSqDVmnkh7Bi/m3JBhqqwB988IENM4s1atQIDw8vOA3BH4aJ63S6zMzMr7/+umzZskbdGaN2ydqo0TBtsIRxu7q6dujQITQ0dPv27WfPno2Ojs7KyqKaYIZTNg0NQ4jSs2lEr+iR0lAA6w+ysrLS0tJiY2OvX79+4sSJXbt2LVq0qHfv3lWqVMFWSUJJo2zaHCmTyd55553IyEh7AQ3LKXrExOmNGzcGDx5MFzOQ8+Lr6wufsU6dOr169Zo/f/6hQ4dedLJAEjwauOeU+asXKMFAQzeN8Tx/9OjRunXrWm6OuK6ka9euOFu/gPRKHW9cgRYREdG+fXu05GSFdLoKG2MVI0Aod3f37t27r1q16vfff3/+/Dl2V1DtAnZYziYqj+XpTaUU5cNCWHJy8sWLF/fu3fv+++83btzY8rF8y4WDlH5+fhs2bEhPTzdFpFXxBCvos6NTxvN8bGzsokWL4KnJ5XLCzSpVqixatAi+5P79+y9cuJCcnAxHBhBD7RApyyp6SkriEgw0ZLWCIKSkpLz77rvu7u4WWiHHcf7+/l9//XWB6onGaARBSExM/PDDD9lr3mCLtuGLiM327dtv3rz5+vXrOTk5xBHJh+bX6VWeARFA5JnewgRUS9lub1xc3JkzZ5YsWVK3bl3LR/RFEjDzKJVKu3Tp8ueff1pIpPlkLAuEEdnZ2Xv27MFtdlAoof+CBQtiY2NJntguQ5MDNEBDRw6bL73kvn1FgIbn+WPHjtWrV898B4TamTJlyowePTopKQmVEKP92DxFNmGzUskZRlVHtqdOnapSpYqZ+mDtK/Di7u4eEhJy7ty5jIwMFGcz2YX5IVtdEU5ISDh69OiYMWPoPHZSlrWSEaWXSqUvuqtLliyBulnHAWv5rGUcBFM+PM9funSpe/fu7KgTBt0GDRp0/fp1pKQ16PRILQFlaC0lJSh9yQYasletVpudnb1ly5bAwEDYmfnh1WrVqv3xxx+kcva2IJurKzVKyJYeBUF49uzZO++8k8+aw2Kok5OTVCqtVavWzp07nzx5AldcpVKh0OJvf6Q4kAqZa7Xahw8frlu3rkGDBiyz+ZQbXIwmTZr88ssvubm5ABdIDDPfBAHk+mGikBUjEUwBiFqj0Tx58mT+/Pk4ABCz2iC4UaNGP//8c5EsPWcpLybhEgw0qM8YRcMK7qSkpB07dojMlG3fqJ/i7e29YsUKclzJeqiRsVY9BC5ktTRSmJOT89VXX+FAfBqRYamyMMzWN5lM1rZt22PHjuGCagAl2Cmq07yskhgETp/gETJ8/vz58ePHX3/9dYVCQbNyFopIlIzUjUUr//rXvx4/fgyIYb1XUploIonIM4ynrl9ubu73339frVo1KhrD856ensuWLXtxWiubOZthaQuXYKDBzDE1SnhMS0s7c+bM1KlToXu2YWQruUwma9y48e+//447Z1mYENUBCw0COYAG8o8wGPz48eO2bduCEhYsyDStDcjl8nbt2h0/fpxu6sCxSRhyLrmWDcnrdLrc3Nzw8PAePXo4OzvnU2IkdplMFhQUdOjQIeyxpGbAjH5Bj0ie1BRh+WVkZGTv3r1F7rNUKh08ePC1a+FKLrMAACAASURBVNeoE22mlFLyqgQDDWadUMNpJ7dKpdJoNDExMZcuXXox1rto0aLZs2cvXry4atWqBDoIODs79+vXD7OMcIjIsGCFVlkAvqXuEtpAjUajUqmWLVuG/S9EgLXIwkKkXC5v1arV+fPnc3NzaVaLoM3Q57eKiyJPTNVYEIQbN27069eP3Tpkg9zIqcE9LSNGjKCpbhGCEO9kBhSgV6xro9Ppnjx5EhoaajgFUa9evf379+N4ClOlsHmWhnAJBhqyA+ACmndCHEEQcnJyEhMT79+/n5SUtGvXLsxo4CY2hHHfGDU7yJAFC6ssAD45DAvwp9Vq//7770qVKrFIYUNtwScYa6xbt+7Ro0fpOGsUpNFo6NaOEm3ZhPhYJhsZGdmqVSsbABr4Am+I9Ym8vLy2bt2ak5Pz7NmzyMjIq1evXrp0KTIy8t69e48fP05ISEhPT8fKAJoxhITJEhAvCEJSUtKyZctEd/JKJBLcxJCcnEy+Nn1bmgMlG2jYjg/0SjdXEHxgRikrK2v48OGiHSjOzs4NGzY8ceIEjAmAZYM7AwNCidR7wqT7yJEj2ckIw3P8LccduVxevnz5ffv2ZWdng2AgI5a9slW05Bo0VWNqMCIiIqxaIQV5AptYd4Z2e7Rt23bEiBEtW7asUaNGrVq1atSoERwcjHCdOnXq1atXv379Bi9/HTp06NSp0xtvvNGlS5du3bp1f/nr0aNH9+7dO3To0Lx5c9FWA47jZDJZ3759L126ROooubqwL+UlGGjQdaKdRPC6sQ6VnB2MjGo0Gr1eHxkZGRAQQK0c6r9SqezXr19SUhJZBnnv1goaOej1eoBdVlbWiRMnRH41mbvl+ELujFQqnTNnTlJSEtVGePLoN1H7WSI8GijIqITp+BhyMI8cOcJChiWiM5Pe2dnZzc3NEi8JwCGTyeT//BTMj3WUiKTatWvv3bsXvVozPBpl/NWOLNlAw/aZ2TAqG2kaj2q1+ocffhD1+TmO8/b2/vjjj4EvLNxYq3i2huj1+rS0NNyfTVZobQCmTLdud+nS5dq1a+TYI0BEErMUU5wDZqg1fPWC04ULFxqt2NaK1I7pDaHKx8dn6dKlaWlp1IkWdbuKs0YKmrYSDzSWC0gQhLS0tFGjRtH9zTA7hULRsmXLEydOwMRtW4pCtgXvSafTffLJJ/lZ54p6hZXEHMeVKVNm165dmMwmn6tEOC+WK8hMyqSkpIYNG1IjkR/QIeC2C+gQ3Hh4ePzrX/+KiYmhHjTMqfToyIz6SvwJe+Z5E73F6u/IyMhq1aqJLFWpVL777ruJiYlkHBQQZWLqEenRm9Pr9fHx8RUqVMgP0FA1AKkTJkzAtQ16vR4HWVOJpkh6leIFQdi/fz9kAqnSblISlLUBLHrEuRYie7A8K3zo4eExefLkhw8fwiPG+aHUHrxKirCZl1Lk0cCPzcnJ2bdvHzVE2F0pkUgqVKgQGhqKNOy4D0k2T+gRBIFu58HAs+X2aj5l9erVz58/r9Vq1Wo1XCfqQBF5r3YAE/l9+/a1y/wdwQqZgXn5m3nLcVyjRo127NiBeUCe53Nzc6EdGrB/tVVjIXelCGgwH4SJSfZQGDKj4ODgrVu30vVjgBvqZpsHGrIqQRDCw8Plcjk72URFWB7AGjAnJyeO40JDQ5OTk0EACqI5NQvVXNKTAWgiIiKwXDj/AAGsGTFiBI7XWbly5bJly8LCwubPnz9z5sypU6dOnjw5JCRk/Pjxo0aNGjp06MCBA/v27durV6/u3bu/+eabnTt37t2798yZM3/88ccnT54AXGj6DxOXtMqppAvfLvSXIqDBDBRu5r5z506tWrWo2sPsYMQSiaRs2bJVqlTBKXPe3t7u7u55TksrlUqFQlG2bNng4OCAgAC7dJpA3htvvHHlyhUa6qauE01y2cUOinkmdMbl5MmTIRYaryElWh7AzgapVNqrV687d+6Y4d1o64KZTSKJPqeFEQi82ifmEdcWBkoX0MBu9Hp9dnb2N998A/jALKZSqYSlkl9tueEipciLyX+ry3HcC8jbuXMn3buo0Wio01TaRhmxzeLRo0c2nHBGmhW5mXK5fPv27dnZ2ZYLEyMvbO3CagP1yx+1ByV9iTbLoF3CpQhoBEFgj5tLSEiYNm1a/uHAKB6JDNpomjwjpVLpu+++e+/ePWwcLc2Di1iapNFocnNzP/30U5sbA5I5jSU3bdr0zp07bM8XoGMeetAtAvaxjgzb3aZ4u1TUkp5J6QIatF1UYx88eNCxY0c7dnNgx/mvBsgnMDBw//79WI9X0u0s//SjVqvV6vT09KCgIIJyaiooQGhiYWDNmjUJCQnoitLgl0Ps+VcZm0MpAhq0WrR0GF3oK1eudOvWzcXFRS6Xo9uPlaDmbdRmmzafLd5KpVKsRJ07d+7jx48NxwJY/ZWSMC2Ghlu6ZcsWVk35VEe1atVu3LjB8zy6pej+lBLBFhqbpQhoMECDJgtuLQwrOTl5/fr1bdq08fPz8/T0dHd3d3V1dXFxcXJycnZ2ViqVLi4urq6ubm5u7u7uZcqU8fDw8GR+GC2mIR6CEtusn9bOt2jR4s8//6RBpUIziOJZEPwLDOcLgpCQkNCrVy8SNQVsk7lEInkxzURXzQmCkJ6ebr7rVDylVJypKl1Ag64+z/PY64yVKVgKnJOTc+3atU2bNoWGhk6cOHHw4MGDBg0aMmTIyJEjJ06c+P7778+dOzc0NPTjjz9evXr1v//9740bN65du3bVqlWLFy+eN29enTp10AWjfhMFqBpYGMC94EuXLk1PTy9VU0tm6gmqPS26zcnJ+eWXX1xcXGwWMqsLjuPKlSt37tw5HFWDshyOpBl12PCqdAENxvDgzsBZgFVh1AbNJhtvKFD48DTBiQ8TEhKaNGmCUQMyfQqwNp1nWCqV4oaQq1ev0liSo3UlCZAGnz9/Pnr0aNuEbFQLAwcOjImJobV2DqAxNP78xJQioEF7yHadsCkByMLufjYzX0AwRAGNRhMWFlauXDmR+drsxleuXPmrr76iLZoYWsqPjl+Bb6kNIKdGq9X+9ttvhsfBiLRg+aNUKv3+++/h6mL79Ssgt+LDQqkDGgAEVWPWa6Ajr6j9NKUn7AMABFy/fv21116zGVbYmsBxnKur64wZMx4/fkzwlycxpoh8leIB/Ri/p+N+k5KS5s2bl/9JQ3KLWrdufevWLai1RBy9XIJUbB+goeadagViaP0SxZNoKMbwW0pj9wBNXsCYaASEqKXjQc0UTZngEL/p06fTCfhADTJcFkQsDDdt2vS3334j96qA3BmSObFJEqBXpCBKk2eAzQSUs7mJwnnmJkpAbQP2x2NDybVr11577TULZWtJsrVr19JZhSCAZcoGmYi4KMxHoypgCWA1gqpKk/rEtb2EYE+gIY+AqivLCZEOZlDJEUnVnpVC8QzDAwLxOp3uzJkzwcHBlliwmTR0tLWHh8fChQtTU1MNTST/0iD5k0mxpWClGbijeMsLJccQrgecDgrDMChblhLLizCaMi0tbd26dc7OzmbEa/krmUxWo0aN+/fv024V1j5peM4oJcUqEmTDAaR2EepgsZLVGqyCPhElZlMSGFnFst2ABmZEzQ5RRqoi94GObiGDK1kqxIILnueTkpL69euXn7tc0eHClDbHcW+99VZ4eDgNQ8Am4N1YpVSjiVH5RfgOfIFGyI0iTRnNx2gkxmihR+wtpOKom0lFw1SM5mNtpCAI9+/f79ChQ/67rgT3H3zwQXZ2Nl0pCaZIOCWiSwVqCSzIAyAVoOoR6NCjTqfDcDg7lEn5wFqs1RHS2wdoRI0V8ZORkREdHX3lypXz58//8ccf586du3HjxuPHj9kTVQBJJUJ/QH1oUaPRbN++3ebBSLZiAGgqVaq0fv16Om2AkNqGam/UFJAhTllGGPYH2yLDonKNZmImEh8ScsF2WYuHvZLrZCYry18JgpCZmfnFF1+ULVsWnott/Vb6Si6XV6hQ4fz586hvxBTNdpWI2SiQzbonrAeQk5Pz9OnTGzduXLhw4ezL35UrV6KjozMyMmBshKqwEORDJ+cSPFmuJrsdfAUboklfnU4XExNz9OjRFStWjB07tkOHDg0aNKhVq1bdunU7d+48bty4Fwvkfvvtt6SkJCAU/bWK9CJJTM7XtWvXOnToYC+n3cXFZfjw4ffu3aPWA7ZCCJ5/ZkUZEsqw5iiyM6sKpapI/SbyZais/DSJRokBU/fv3x8yZAhWBljeUWJTEu7L5XKpVPrWW2/RRlZy1qAao2QUt0iqjwjQif0JCQlnz55dv3791KlTu3bt2rBhwzp16tStW7ddu3Zjxoz55JNPjhw5cv/+fVFrRP4OcitioAFkajSa1NTU48ePz549m72z3fBQ7mbNmi1atOjs2bO0iK5EtBV6vV6r1aanp8+cOVN0CD5ruJaEybglEkmDBg2+++47UiSrWtv0amj6LNCgIPpL6IkA/TXMxEwMZQJ8wQZI6JSgB02lmUysfQVBZWZmHjhwoEqVKvmfgcLBWu7u7ocOHdJoNHD00I2CP2svdVjLqbXpoQ4IHAtTL126FBYW1q5dO9bwwC+WgHEcFxwcPHny5F9//fX58+fQGrlC+dSdfbpO2F7M8/yTJ0/Wr19fq1YtS1Quk8latWq1fft2LIEtEUADcR8+fLhGjRq0r88SWDGVRiqVenh4zJ49Oz4+HpmTiRDcWGtkRtMDaAhu0tPTb9269eeff4aHh8fGxuK2MxpYgXkZzcdMJGaCwIVarU5JSfn999+3bdu2YcOGffv2RURE2H19CkTE83x8fPzUqVPRCaV+kCmZ5xkvk8latGiRmJhIHT0YJ4ozI4Fi8opAAXrMysras2dP586dLTnER6FQ1KlTZ9WqVY8ePYK3S34uArZBrX2ABub7+PHjsLCwypUri65Pgl4N1Y/dg5UqVVq7dm1qampJAZro6Ohhw4YZbm7K03wNE0ACrVu3/v333+EIEMqIvJv8WzA6tjjO9t69e59//vnw4cPfeOONHj16zJgx4/Dhw2jEqJtjrT2BcnCh0+ni4+O3bt36xhtvlCtXzsXFpWbNmmPGjDl79mxubq5t0xaGEiDQBMAdO3asXr16hkK2LUYqla5fvx41DQSjOEMyimEM4aNGo8nIyNiyZUuNGjVEjoxILFQ9EfD3958/f/6DBw/I7SWDtE191gENtbFUKswRl6WtWrXK398fhNLmQBE/9EiMSSSSgICAL7/8EjZKDiqZUREqkvilQG5u7po1awCmxEt+Ar6+vkuWLME0B3incRkq1No6z0oMmSBGq9WqVKro6Og5c+bg/kxQLpfLmzdvvnfv3ufPn8NG0WVg88kzzI5lZGdnHzx4sE6dOmhyYOJKpXL06NERERG2WaohAWQhCMTFxS1ZssReo2YSiaR27doPHjwAgJJqDMkonjGoobm5uXv37q1ataoNJurj47Ns2bLExESq7ORx28ByvoCGlvBrNJpvvvmmQYMGLD8slLDxCLNvFQpFgwYNTp48CZbwF1wVrZtD/gW66zzP//nnn61btzbfOBgyaypGqVQOGDAAt0HDL7VBhaJPWGQh1EYanueTk5M3bdpkdLKsXbt2p06dAtzbBjTUv4iPj39x5bkh11WqVNmxY0d+cJNlFvhCcKzVas+fP//6668bdagNibEkJjQ0lHy0EoQ1kAnMFXcKs9XNEsaRJjg4eNu2bZiAo8VxrAosD1sNNORGkqssCMLdu3cHDBhAvQlLuBINcLi4uAwaNCglJQX4AgfeXhZpuTjYlIR6mADWaDRJSUmTJk3y9PSEGixh07xS69Sp8/XXXxOk2oVfEdCAI7K8CxcudO3a1ShQurq6zpkzJyYmhg70Y6WRZxj2gILu3buHGwtE7Ds7Oy9dutQGFDNaOutrAOOSk5OXLVvm7e1tlEERMZY8BgUF/fXXX9QToRKN0lN8IqGF1NTU8ePHe3h42Iy8CoWie/fuERERyDA/9mk10LBFIqzRaDZt2hQQEED8WFIDRWk4jgsICNi/fz/5w0U+501gB8TRaDS7d+8OCgoyNFDbzNrT0/P999+Pj4+H/iDM/BurYT6I4Xk+IyNj3bp1np6euMyIZQTTgvXq1Tt8+DDNhlpODDkXkFVkZGSHDh3Y/BHmOG7BggV0KY3l+RtNSZxiDBs0XLp0qU+fPmSKhjRYHoP58sGDB6Nji+LyU9mMclFAkYIgHDlypFatWnkOYpgXiJ+f34oVK2hq2GZqrQMa8h4JBXief/r06ahRo3ABoAg+zPPAvpVKpUqlcty4cbSuNJ+ums0SwYdkVVSFbt++PWDAAKPj9jYADcdxzZo1+/3332kkHyLNJ9n0OdFPvSdBECIjI9966y1Dy4PWOI5zdnb+4IMPcJEeZWVJgIqDd3br1q3OnTuz+kVYLpcvWLDAqsPAzZdO2iGDTE9P37Ztm2hGwjazxFdeXl4//fQTeZ3m6Sk+b18swpg+fXqZMmXyeROWXC7v37//kydPSMW2Qa2NQINS0eafPHmyffv2ZFW2KRWft2zZMjo6mpQKM7LX2KFVRkBiRT9CpVItW7asYsWKIu5EjySEPAMVK1ZcunQpVoWhubBNf0aZIu2weapUqr1793p7e5unuWHDhufPn2c/NFqEYSTVeUEQ7ty507VrV0MhSKXSefPm5eTkGH5uWwwVSk2gIAj37t0bN24ci/60vcCQpDxjnJ2dmzdvnpaWhmk72+gs5K8EQYiNjWX7yKw08mRZlKB58+ZHjhxBi2hzc2gd0FDNp3rI8/y2bduCgoKs5YQ1dwrXqVPn+PHjABoMwsEVL2Q9sV4ACLhw4UK7du1oXIkIFqnEwkeZTNajR49bt26h809jqDZUb6OSYdVEvNy/f3/ixIlwZ0C/oWsjkUicnZ1XrVqFcy2NZm4qkh2jiYqK6tatG+44J1mhuHnz5tmr60SsEbCi5cvMzPzpp5/Ye7ss1IvRZBzHKZXKLVu2IPOinZ0wJXxRvCAIZ86cadq0aT7dGfRAAwICPvvsM0AMRC0qzpJHW4CGtWNBEJYvX+7l5YVOPlVFozpjI2F/lB6PgYGBW7duhUbJGbZX9bNEHJSGkFQQhBd7QEJDQ8Ejy4K12ErfVqpUadu2bbTmEoXarEKimQJEPOWs0WiOHz9erVo10CCCGMICvG3Xrt1ff/1lrdjJueB5PioqCmf6Us4ISKXS+fPn4xwGojY/ARIa2SSM5+nTp1OmTIF1EQ0kf6sCkFWLFi0w1V0k/rUNIvr2228BtflkXyKReHh4zJs3j4zKWsMA8dYBDfkXKBWPCxYswHyTtQ4q7UugGuvv77927Voa24P1wLVh7djMTDBLGCQC/8gGVVFWJ0+ebNu2rbXckTUTd2heXF1dhwwZQkdh20CY+U9ANlp7aoUSExPnzp3LUgL7K1u2bLly5US26OLism7dOhzQTaKmgJnSUbROp7t7927Pnj1JAmxgxowZaWlpZjKx6hXLLIXR2/3555/RpLOl2xwuU6bMnDlzUAT5btQWFkM3Z8eOHdWrV7eZX/ZDFxeX999/H/WIFbJVmrIOaNjaTka8cOFCHJUgsleWVqNhw/T+/v7r169nWycqEdoFtyia5ZN1glAlyCaQ2Nrd4cBQnudVKtWiRYvKli1rSK1RpkxFUutaq1atY8eOscTbNwzG2TogCMKVK1fq168PT5gYcXd3HzVq1DvvvCOimeO4N95449atW4Ig0EJeS4AG6GYeaKZNm5aSkmJflg1z02q1cXFxYWFhbm5uIu6seqSdNBzHvfbaazjImewTMoHtGdJQhDGCIHz55Ze4/YpYsIpxNrGbm9uMGTNQI2xzZ6zevU21l9wEQRA+++wzX19fUEZGzBJqNEydJvIUpFJp9erV9+zZQ+u+ybhpZSB0rNVqscGUwI4Io2rGAjA5Ypbrnozp4sWLnTp1yn9fF0Lw9PTEtIvllNiQkqQBSaakpGzYsEGhULDakUqljRo1OnTo0KZNm/z8/PAKfzmOc3Fx2b17d2ZmJi0hsdDO0B7cu3evd+/eRvU+derUggYaapPOnTvHTlMYpcd8JDndEonE3d0dTg2sjrVJm6ufDcq15BNBEL7//nv2hFlW9eZZNnzr5eW1aNEiGIDNvpvVHg3VZAp89913NhynSEDDMla/fv3w8HByTwhHaPss9QjoFRBBp9Oxe9uJNqpylqhHlAY9uLVr175Yi53/ZgFQ1ahRo1u3bokKsu8jtgKwgvr77787duzI9pskEolcLh81alR8fPy1a9fefPNNVgtwfPr373/37l2Il2A3zxqFlPfv3ze6YA83KBUC0EAIqampH3/8cX7u6mYbGKxIuHfvHrnVWHmYHxuzr+rZ3C5dutSqVSuRWm17DA4O3r59O2qczUNUtgANiqR1LtevX0eHnFCTAqYYI5ShAMdxCoWiU6dOKSkphB3EGwJoXalcw2SIgeJR02BwGOVh1WBJWBCER48ejR492nB5mym+zMRzHFehQoV///vf1nbiLCGVTUN2j2qQlpa2e/du2gFEqqlevfqWLVt0Ot2LfduhoaFly5YlXSCNh4fHvn37MjIy6ERBEi9bnCiM0h8+fDhgwABDaUil0sLpOqHh4Xn++vXr/fr1Ew1+GxJmKgbojL2vEomkfPnyK1asoDFE1mvOE4JFgirQR0EQsrOz+/Xrp1AoSK2meMwzvmPHjleuXCG7so1y64CGbSfJ7NLT02fNmkW3eVmlVCgSf18ckrZ48WJ4+yxXcHCoOHg35MkjpUqlSk1NZV19vV5P54ngWxsE9PPPPzdv3hwVj7p4eSrGaAK5XN6+ffuUlBSYqQ3EWPUJNjQLghAVFYWaBqqIl/79+0dERGDm68SJE61bt0YCls0hQ4bExsaS/FmlmCIGaaKjowcPHmwoB6lUWmhdJzKMrVu3Ytm6IT15xkBcZNJOTk5dunRRqVSsL0OmaEomhR8P3levXu3j45Mnj+YTODk5TZgwATMD4NQ2dmwBGrABLwN1+ODBg40aNRI55+YZwCILSiOVSuvXr09XILNdQRRHvSf4NRqNJisr6/Lly0uXLu3Vq1ejRo3q1avXsGHDli1bjhw58ptvvklISKAuGKYhrBWQVqtduXJl2bJlqVkjaq0NcBxXsWLF1atXk9CsJcby9KwTl5ube/DgwTJlypBqMOjw4haqxYsX40BVnudTUlKmTZtGXg/1F8qVK3fq1Ck6d9XC02QEQYiOjn733XeNSmnKlCnJycmWs2NDShgM/X348GH//v2NEmNJpEKhQDJ0n7H7iaoc7N/mDoUN3Fn4iVarvX37Ni3+AmJawi+b5sVdV3Xq1MGRbPnk1DqggfLYzgsckJycnPfffx/bt1hCTYWpXSW4eTEeuWTJktyXPzIRyBRKJdSAJ//bb78NGDCgcuXK7u7uIufQzc3Ny8urcePGO3bsyMjIoMlICzWEZIIgxMfHT5o0yTYNsYyjktevX//p06ckQKuIsSoxigCiPX36dMKECUQMBMVxXIcOHU6fPk2mw/P83r17a9euzeoFX02cOBFkU1fUfB8BeT58+HDIkCFULhuYPHkyTh6wiikbEpMVaTSaNWvWsMdisPRYG/by8lq1ahUrZCrIBiIL6BOQpNVqV69e7e/vby2PlN7V1XXMmDFZWVmYlkG2ttFsI9BQkRS4c+dO3759qeUkWilg+IpilErl22+/nZycTLlRgLVvVJ6MjIwNGzbUrl3b6LYjQi6O47y9vUeNGkVOBPIUObqINKw8giCEh4f37Nkz/0AjkUiUSuWkSZOIEttUZflXYEqn0126dEl0dA6GG0JCQjIzM1nenz592r9/f9IItCaVSitUqBAeHk7bLPGJUUoAMQQ0Q4cOJdWzgZCQkISEBEOBG80zn5E0ZXblyhWsVAYlIjZZ8vIMy+XyQYMG0RgCO0xjilpa4w6uYQZk2Ldv3/7888+nT58+fPjwQYMGzZgx48svv8TaAsoQ3W3qdJvRAj6hElNSUkaMGKFUKkVmLGqbwbUojUKhePPNN9HJoGaeSLI2YB3QmMod/ZrLly936NABxzuTwuBwEg/UqCKB7OWvTZs2CQkJarXaVP7U9qalpS1btszf3z9PW0G5SqVyyJAhVKNEATJEWABKQaROp8MEITaLilagEHcWBry8vH788UfYFtsrNMVvfuKpwicnJy9evJjGF8CCRCIJCgr6+uuvWdSD+tauXRsYGGjI0dy5c5OSkvKEBiqX5/lHjx4NGzbMMCuJRFIIQENtCZlNZmbm7Nmz3d3dQRJZo1EK84xs27ZtXFwca0vm9SUIglqtZo0NwgwPD+/du7eHh4ebm5tCoXBxceE4Ti6Xv9jx4Ofn17t375MnTyJnskziyHxnjUrEpqdu3bpRv5iaZ7lcjkrESgMxHMe5u7s3bNjw7NmzZCfgF8Bqnl+jb+0DNHRM5I0bN7p3745KbhQL8Ip06eTk1Ldv34cPH4INoySyGvr+++9r1qzJioayMhWQy+Vr1qyhloeKYA2FgIaNXL9+PU42QXFG2TFVqCi+cuXK6C/AUIiGggiABY1GExUVhTPuyMsDVb169YqOjiZOqWm9efNm165dDWVbtWrVK1eu0EEBphCHMhQE4fHjx++9955ICHgMCQmJj48vCMYpTwgZ9JAv8OWXX9aoUcMoSdZG1q1b98yZM8gfhbJhIoN9BReDOiAajWb58uU+Pj4ymQxjQKJ6AZX5+fl9+OGH2dnZ4IKVMNV/UXF4JK4xbv3o0aP+/fvTfarylz+Wa9BAbo5CoejSpQs8WVQcFrtNGYBRSijSPkCD7ECTWq3++OOPq1SpQtdfYHWmyIIVCoW3t/fGjRux84Wcc6JMFBAE4dKlS6aWgbFSYxEBQK5UKp88eYIMqU0Q5Y/6RuNBGo1m8eLFhupnC7IwLJfLO3XqkOqCiAAAIABJREFUhKElsn7D0u0bk5OTs3HjRolEAhsi4fv6+n700UfEJqEMRrIWL15coUIFQ74+/PBDjHaZMTKqBjzPx8TEjBo1yjAfqVQ6ceLEuLg4+zJrmBtbMTCkePXq1R49ehBJEAiJheItCVSuXPmLL76AxAyLFsXQJCkCWGw9YcIEd3d3unpQNN7MNgwuLi49e/bMzMwEF1gbQTZs3q8RUbJ582ZamYmFVKy3S4z7+vouXLgQa51w9isVbVVxotLtBjRAmezsbFyNHB0dvXLlyqCgIKqrpFS5XO7v7//BBx/ExMQAmC1hQBCE1atX0+l2JBdTASiPVDh//nxwDiXRmmOROOgxLS1t2rRp+ewxgTZXV9epU6daaJdEgM0BMBgfH9+yZUvqLlGgbdu2Z8+ehemIOnE8z2OTOovUaOWqVq0aGxuLYR1ThBHQ4Fav0aNHG6pGKpWOHz8+NjbWVCb2iocQQJJer1er1WlpaRMnThSRxHIqemXm0cfHZ8GCBZYrlOd5XDIBShYvXkxmTE6EUqlEo0gNAx5lMpmHh8fEiRM1Go1KpaKxEvMeDRwoKpT2kTx//nzhwoVGJ/s5jgsKClq0aNGjR48wS5ubmwt1sLgGBLdBTXYDGnAuooDn+bNnz9IJtRiRkUgk2AxKt7XjWzMr2XQ63dOnT8eNG4cKo1AoLDQRYLazs3PZsmUtnJ0FC/Hx8WPHjrUL0Hh6eq5bt456Z2bYFEnP5ke1Wv3LL78QyFKdwZoI2CsL7pg6xIml06ZNoyNZ6UOJRIJbNM2QZCHQjBkz5vHjx2bysdcralGApy+qaGhoqGhYlBo/ltM8w25ubqNGjSKgITjLk3KVSnXy5MmGDRtyL38oyFBNhgQEBgZ++eWX5HSDtTyLYxMAemCEW7duhYqxnE8qlbq6uv7++++09oq6eIAV3JwBjLOcWbZ0q/c6iT6mR3COES8iCIuaYmNjK1WqxOLCi37p8uXL8RZGgLEr827577//3qpVK6POnkgxbFn0SiaT7dmzZ9++fQcOHDj48nf48OFDhw7hcf/+/T/88MPevXv37Nmze/funTt3fvrppyiOcrDNKCUSibe394EDB8h3A7yS6OweEAQhMTFRtHIExAcHB3///fdQFtskEkbo9fqjR48aXloik8nq1av38OHDPD1BZB4TE2PKoxk5ciRGiOzOuChDMEV7U3Q63Zo1a/K/gA2djrfeegucigo1fAQZWPalUqn69+9Pw7E0QAsbQzz1AMjwENO6dWvc/IUMWfUZFoq3WPaNQQlaYajT6TZv3ixqS9zd3aOjoylPsEafUImUwLDEPGPs49GAFPrLlhoXFwdXjV1yumjRIpgsYSe1D+y3FBYE4eDBgzYcZcRuiiPNWR6wBNfyzM3Hx4e9kJOYyn+AFTjC6BNdvHiRrJk6TRKJpEePHsnJyTS4DgLoQwRSU1P79+9vaO5SqXT37t3khLKDO2wLgUxMAY1EIhk5ciTG/vPPfp45EKdomXft2kUXj1CzYbRZMq9TqVTapUuXzMzMrKys7OzsnJwcFfPDWrDc3Fz1P7/s7GyVSqXRaH7++WeyYRBA45jmS+Q4LjAwEHOFqP951nkMZaATBAVRXduyZYsIaDw9PZ88ecKO91P+AB1sJIR1sb5wniqgBPYBGsrOMPDkyRPDPmFYWJgpSzXMAex9++23hvmYVw9WuJJJ5ZlYlCCfIEW5+fr6njt3juqzUQZti0T9oa4BjCMnJyckJIRKB2TIZDJ/f/9PP/2UNSCQRL1uvNLpdDt27AgKChLJTS6Xt2jRAjvRYLK0w4MdyEeeT58+nTRpEtHABgrNoxEZmCAIL5xWHNZNS59ZFGaJzDNcvnz5AQMGjHr5mzBhwsyZM6dPnz579uzQ0NBFixaFhYUtX77805e/9evXf/HFF1u2bNm2bdt77733Yk12npkbTaBUKkNCQqiS22xOPM8b9WgePXrENhi2GaSZr0oG0Oh0uu+++46aI6OasG8k+TJU3yhgbUF+fn44sI4quRl9WPuKjsVEB1ur1cbExOBScLatxk6rq1evYu4DpaCxgslSWK/XP3z4sHv37uSBEuC+2L585MgRjBHS9AdcUbJR5BYXFzdlyhSjggLQWMumbenBFMTO8/wPP/xQu3ZtUEXapIBRao1GYgSXxnEtzAHpaX+m0ZzNRHIc17Nnz7S0NIgarNkgFgfQmBQaZGpb1wmaY6ucGV0avsICKps/R4bwaOA42GwfRqVDFUmv18OjVqlUS5YsYRtqOOdubm5Tp05FlTNs6oEO5FoLgrBixQrDeW6pVPrmm2/CqaEOvAg98wSaESNGPHz40Cg79ook6EQA2fI8v2/fPgIaQ13bEEMQbOZbwut8WpFEIunYsSOtOCM/1FqhOYDGpMRgLmfPnm3Tpg05GmZUS6/Q1FhiDfQJG5DL5dRq5cdKypcvf+jQIdYFMMmqlS+okiOgVqvj4uKCg4OJbLAjl8txoljCy19SUhICiYmJ8fHxcf/8EH4xvBITE/PLL78YDgnj7o5ff/0VjaposIBtaZ8+fTp58mRWmBQeNmzYvXv3rGTUuuTAX0IZwp2vv/46ODiYKMlPgOzBEnfGkjSWENO+ffs7d+6w3JEjabmAHEBjUlYAb6wBE1Uh8+qBgjFI4eLiUrly5apVq76ockEW/IKDg728vNhpSPNlmXlbtmzZzz//nEDBBuMwKRq9noZL9Hp9Zmbmjh07aAsIa9/+/v4hISEzZsyYPXv2rFmzZs6cOWfOnFmzZk2ZMmXixInjx4+f8PI3fvz4kSNHDh48eOjQoT4+PpQD6hUkOWDAAAzKELKIHnmej42NNTVG8+6776K2mGEq/6/Y2kjLZDdv3izaWkkMmlGf0Vds68WGTSU2Gm9tZKdOnbD0jOZqbbAlB9CYsy7Mf69bt47ODLVKSRzHdevW7dixY6dOnTp//vzly5evX79+4+XvuonftWvXpkyZ8uIKV9Qxmy0SR0BOmzYN7SpMxByr1rxjx0d4nk9MTGzWrBlIFRFMiEnxFDAjSTYNDSo7Oztfu3aNpp9o8QXhDu4UNDVGM3DgwMjISBtqiDWC0QNoWHDnef6jjz6iAwZY1sxIwOgrUWtH3o3RxGwkFUoB9q35MMdx/fv3x3YEB9AYMQa7zDrBbi5fvvzOO+/A4s1rRfTWx8fn4MGDokqOPEWRxIAgCOvWrfPy8mKzssE+sAmgS5cu8MtoHIQKyk8A4IXqpNVqDx06RHWA7WPi9EKWEfNh2kfKJmMXfUycOBEbR9iRGhr64Xk+Pj4e66rZHBAG0OSH6zy/hVgIazBrmZ2dPW3aNFY+hrRZGOPk5FSjRo1OnTp16NChXbt2bV7+WrVq9frrr7ds2bJFixbNmjV7celas2bNGr38NWzYsH79+nXr1g0MDHR2drbNisqVKxcWFsZCp21g7fBo8rSf/ywk/+abb2iG0kKzcHFxmTx5ct65/28KQRD27dvHnoVsm32AyODgYLpfBYjzv6XZ/gTLw7K0Xr16gUj6a6axzdPhZ8UrysfNzQ0XvwM30TcB0GC5ZkJCwsyZM41KrBCABhImoIHPdf/+/UGDBhFTRmmjt+YDVatW3bVrF+BMo9FgQU1aWlriy9+LG6IfP34cHR394MGD27dv37x58++//75y5cr58+e//PLLmjVrms/c1Ns6deqcPHmSGioCU2tNxwE05iQGo9FoNM+ePfv4449xj4QplbBzLnK5vG/fvlhSaa4Ag3eCIJw6dapTp05kkRQwU66pV+XLl//ll1+oKhqUlq8ItGzXr1+nVVgiUlnvxhSFVsVLpdIpU6ZQ7wlgBx6gqcTExFmzZonIQBGFADQkZ/IieZ4/evTo66+/bi2bsCURI3Xr1v3jjz8IZMmVM6VF2gCdlZU1evRoOq2CXc5jlDDCdzc3txEjRqSmprKdJmCNqUJNxTuAxpRk/hOPNhOqTUpK2rRpU4sWLWhTuMgOSGd+fn7Dhg2Lj4/XvPyZK8DgHc/zDx8+HDlyJHIzVQSVZSbAcRz2VVJzZFBafiN0Ot3YsWPJLqmDYBhjhk7RKxaeKB9K4+vri8OZYO7sQjKMFs2aNYsSs4H+/fvfvHnTNrffKjGBMKwbwqmsNuw/MGRcIpG0atUK+0Jpt435Oo+3OGI1PDy8Y8eOOO7ecObbaHFOTk5t27YFtFHXyWa/2AE0eVgRlAr5ZmdnHz58eMyYMQ0bNgTckIaACBUrVuzYsePHH39MJxLYYNkvTjAMDQ1l1/KzFcaqsEwma9KkSUxMDNlcHtxa/BqWd//+fRydI6LK2dm5QYMGjRo1wt8XFzk1bty4SZMmTZs2xThC8+bNW7Ro0fLlr9X//tq3b9+lS5d27doFBAQYzmThcltD6ASDiYmJs2fPFhGDx7fffvvGjRs2qMNikfwnIfWb0ErFxsaOHDmSjMQoYUYjCbLprUKheOedd2iiDfJnfTqjdBI9OTk5O3furFWrFkRKg/SUP+uPY19VzZo1t23bhi3BsH8q1GhZ5iMdQGNSPrBd7FvB3g2I++nTpwcOHJg5c+aAAQO6d+/erl27jh079uzZc8iQIZ988snly5fVajU2rcLyTBZg7AUmdLZt21alShXWCGwO+/n5bdu2ze5Ag+HYjz76yNDnksvlzZs3/+mnnw4ePPjTTz/t37//4MGDhw8fPnLkyIt+xLFjx44fP37ixInffvvt1KlTp0+fPnPmzO/M7+LFixhZmDVrFpYaowhUV47jAgICnjx5QhyxgaSkpLlz5xqVVd++fa9du1YIQEMdFp7nDx06ZJfrcaVSKa4AJOAgUDNmRP+JI7EAlLVarVqtXr9+fYMGDdDVJc+RxUGIWi6XN2nS5LPPPsNkE7KC8VO2pso1Fe8AGlOS+f/WiSRLJwkhRqfTPXv2LCIi4q+//rp+/fr9+/czMzMB+bSizNTUkski/7GP8+fP46xZw2pstBaZicRNHaiZZsq19pVOp4uPj69WrZrhaQO4Rgq9TqoYEBpbCgmWjWRrSGRkZIMGDcipYXk0unlKEITk5OQFCxawKSncp0+fK1euiMqy+yMxpdPpkpOTZ8yYYcPduGzNh6PBcVzlypWPHj0KedKICfUcDRkhXEBA+/KXm5v7448/Dhw40NShtDKZLDAwcNiwYQcOHMBpMqzziNLx17BE8zEOoDEnH7YzDKcG7RVbbUj6ZGT0FohjrgAT75KSkqZPn57P3hPNx/v6+m7cuBEWY6JAW6K3bdtmuH1UKpU2bdo0KiqKRAfwtdyVoA8FQZg8eTKWBRNeoMSGDRvi9Fxy5iHzF9sUFi5cyCZGWCqV9u7d+/Lly7bwaeU3sAee50+dOoUzwAzpsSSG2hi4Hs2aNYuPjwebVPnNSxUQA3myzeTNmzfXrl373nvvtWnTplatWlWqVAkICKhXr16rVq3GjRu3ceNGrGwkRkgjBF7myzUqMAfQGBXL/0eSZClAsEJtL5LCAthkUIYNKkHvadeuXTiWlAzOEutk09AxXQqFonXr1nfu3DHTAJqTgrF36enpbdq0QXFEoVQqdXFxmT17Nq1zIXFZLgeSoU6nu3r1qmhNLVp4Z2fnDRs2UOaEZc+fP8eWK1YOwKbevXtfunTJGCt2jkO1TEhI+OCDDwxRUkSY0UfIE8M0CHt4eEyYMIHwhURETZohDwRJhMV0BhV0kZCQ8Oeff/7444+7d+/etWvXoUOH/vjjj+TkZHJFWb8JJRIBhsXlGeMAmjxF9N8RPiiP6oyhmimGDeRdwP+mwLc3b97s0aOHyIs2apdmImlMsVy5ckuXLlWr1cic/Wsb+hw6dMjT05MgBjRIpVI/P7/z58+z+ZO4/pdLk0/UfsJ57NevH7tmDwXJZLJmzZphSzHb8AJoWKoQ5jiuT58+dvRoRAyiMlPbo9VqDxw40Lx5czOqMfOKpR/JqlSpcuDAAcpfVLpRUSINQQNhMeKNfsJGorVDibAQ6IVNY1XYATRWiavAE9OZSVlZWcuWLbNt64OhEctksqZNm+IMfWoPyZ22FmsEQaA7J9ha4eTk1KdPn+zsbKr8Fpq1SKxUK3Q63ZEjR7Cfm8VcjuNcXFy+/vprVCRAkk6nS0pKWrZsGbFPtHEc16tXr/DwcGs5FRFGjyIGRUDz8OHDUaNGGeIjEZZngGVWLpd37dr1+fPnVHpJDDiApnhpDY4r/oaHh7PXj+VpnaIEVM0Q7+npOWHChOfPnwNo6K8NWPD33397eXnRcdY0f1GuXLndu3ej8hOcWVu3UWnxV6fTpaWlde7cWaFQiNiRyWT9+vUDLhPcPHv27KOPPiI50CdSqbRXr144nccu+iagEeXG83x2dvauXbuM3lRFhOUZAOUYZfP09MTlB6KyStajA2iKnb6oimZlZa1atcrPzy9Pu7QkgVQqrV279s8//4zLsPJzfMSuXbvc3NxEN4FJpdLmzZvHxsairwT8ssHfZoEGl4Ts3LmT5m5QA/G3Vq1aarWaIEmj0WRnZ2/atIl1BziOQ/9x6NChd+/etZeyWaABp4jR6XTYGUedVktUYzQNDvSRy+UtW7aMi4uzYQbTXszaJR8H0NhFjHbLhPUvBEG4fft2jx49DKeQjZpmnpEuLi7Dhg178uQJrfWggFUMbNmyhWo+1ShnZ+fVq1fTCAscGVQ/qzLHSlYa2dHpdCkpKe3atQN8kJMik8kaNWpEA5woV6fTHT16tFq1arT8DFurXqy+X7x4sflrWywnkpCFwBRgJwhCSkrK0qVLX4yIEbVEcJ7aESVADuXLl9+yZYtGo7HWMbScncJJ6QCawpGzpaVQUwm/Jjc3d926ddWrVxdZoYWPhlZevXr1bdu2AV9w2wkKspS+l+kiIiL8/Pzg2KMIjuPatGmD818x5ZSfFhj1CtUYnaOjR48GBARQH02hUCiVyhUrVqCGY8wSKZ8+fbp06dKyZcuSiJydnQcOHHjp0iUWxK3iV5SYRU+EAYs8z585c+b111/HSn9D4RNJFgYwtJSQkFAIV+WIeLT7owNo7C7SfGVIhkv3dcTGxo4ePZo2Llpoo6JkZPRKpbJ79+63bt2iwSAMcFhFtFar3bNnD+0VdHd379OnD4ZaAV7EhQ3tMOWA5fagU61W//rrrwMHDqxVq1bNmjXbtm27du3ahIQEtiBCz9jY2N27dw8fPrxDhw59+/b99NNPb968SZ0sqzg1mpgFLIRBxoMHD6ZPn44DGUjgFBBpxPwjvvLz8zt16pRtXqdRyosw0gE0RSh8I0XTWd+wXbgb+/fvp+syzBuo4VsydASkUqmvr+/KlSsx1Y2JJyN0mI0SBCE7O/vChQv79u3bsmXL4cOHr1+/TiOyqHvUmzCbk5GX6AThL23twWzrrVu3fn/5++uvv7ClWFQWhKbT6bKysqKiol4Ml9y8eRNrQyBJ6pEZKdjKKMI4bGtSqVT79u0zPMee5G+oGvMxTk5OISEhOTk5NkvSSoYKNrkDaApWvjbkjiqBD1GR0tPTJ0+ebJdT2rB6rVOnTmfPniUss7n68TyP6xCoYUdWokdrhUCfU88InSM2H6QRLS0x9UjxbA75DBORyPzq1av9+vWzGVagF4IejuOqVauGQ44xaJVPaov8cwfQFLkKLCLgzJkzzZo1I0PMj0G/uGfWy8tr7ty56enptGzHIiIcif6RADAao1E8zz9//nzNmjV0szWpycIAOZtIL5fLlUrl+vXrcVkwyvqn5JL6vwNoSobmXqyCW7hwIU42wUQPTfdYaM1IRt82adJk//79tnWdSobICpJKuDPUHbt48SKNWFmuDmotSJUU06VLl8TEROqd0TrdguSpYPN2AE3BytdeuWu12tu3b3ft2tXQKC23bDalq6vre++9h3169iKytOWD+h8bGztv3jwnJyd2/Q4r6jzDhC+YyJPJZBgDRqcMg8E2d2+LiVIcQFNMFJEHGbiP4fPPP/f398/TcC1MEBQUhGuVbZgbyoPcV/01+RoqlerAgQOBgYE2o4zhh2PGjGFHvjAiXtIl6gCaEqNBnueTkpLyuX6PNWuO495+++2///67pLeWha9CWlUYHR397rvvWojsRpORO4NAlSpVcCIiu5gIi7kLn007lugAGjsKswCzUqvVcKH37NmT5xnpRg2aIlnLrlSp0qeffvoKrAcrQNEbyxqdpqysrN27d7u5udl8szUpBUuZXV1dP/74Y8y10bpHmuM3RkiJiXMATclQFdbXYM/e0KFDbd4ZDI+GxZquXbtevXq1ZEih2FCJrtPNmzdbt27NgoVtYShFJpPVrVs3PT2dkIU91qPYsG4jIQ6gsVFwhf8ZGjqdThceHh4UFMTaNNshooP12ASmwlKp1NXVdcmSJVlZWaxfA++p8HksbiWiU8nu26KFQs+fPw8LCzN60qgpaZuP5zju8OHDGABmF/7QiqHiJhyr6HEAjVXiKsrENPug0WjGjh3LbueBBRPc0MyUecumty1btvzll18wEICVNa/GatT8awtdJIzE4z4AAA12adPuTZI8idSGwKhRozIyMvKzRyz//BZcDg6gKTjZ2jlnatl4nr9//37NmjWxq5vjODpd2FqIofowadKkpKQkLAyhbVB2ZqAEZgdfBtdaAHRycnL0en18fPzEiRPZ5bw41YHkaWEACKVQKLy9ve/du/cKT/85gKZkmD/OQ6CdloIgLFu2jL17EJZt9L4eS4y+Vq1ahw4dwoZGulumZIimIKnErZjoyFAYU9p0JDMLN5aI2miasLCw3NxcoFhBMlRkeTuApshEb23B5MYjkJyc3LRpUycnJxrZZc9tMGrNpiKRw/Dhw+/cuUOjM+RAWUvnK5Yesz908I1Op4uKimrXrh0rzPx0nXD+8ePHj19tgTuApmTUC0EQVCqVyOj37NlTvnx5hUIBiKEOFFsHLA/7+vru2LED8+i0IK1kSKcgqcR6FuxNV6vVmZmZy5cvl0gk6LdaNfRuVBcKhWLfvn20Qq8gWSnKvB1AU5TSt7xsGp2F3eOvSqXq3r276DxdmUxGPo5RyzYTiTtJaEjCcvJe4ZS5ubnoOuFCtaioqIoVK5IM6ahQirE2MGTIkGfPnqG7+gqvnHQATUmqI4Ab9u/p06crV67MDhPYPB4skUhcXFwWL16clpZGM1zw52lO99V2742aAqaBMOWUlJQ0YcIEQInNaM4ikZ+fX3h4OG0ycAwGG1VBfiIl+fnYkm+fPHkSEBDAKlUikYSFhdEKhVemzowePdrV1VXEqVWPOFgXNad58+Znzpxhp5/oCL5S2J9iWdZqtUeOHDEcgLdK1EgMUctksvnz56enp8NXwiT6q+rUODwaS1CrWKe5efMmnBo6w9yGxlYul8MVkslkH3zwAS6cRQeNDkNgvZtiLRH7EQcXA1CbkJDQqVMnG2CFPpG9/NFj06ZNb968yZ5MiIUF9iO/GOXkAJpipAzbSHlR/xcuXMhOP5EpWxigQ7+Rvm7duvv378dIDc/zarUaTS6LOLaRWuK+Qi9Vr9fn5uZu3rzZQnmaSUYLZ9zd3bdt25aWlkbzWXRYcomTkiUEO4DGEikV6zSCICQmJtavX1+pVNrgyxjWCqlUOnTo0Pv375MLQxBDgWItEbsSh50Zf//9d/Xq1fMzjU2qAawPHDgwNjZWpVLR8kh0mtiNIHblo4gzcwBNESsg/8UDDvbs2SOXy6n3ZAgf5mNYp0Yqlfr4+Ozduzc7O5ttb1EQNfL5p7xE5KBSqXJzcydPnsyKyLwwzb/lOC4gIODQoUM0pY3eE0DcsQXBvlbhGAy2jzxptFKtVrds2dK8iZt5S+0tx3EI9+3b99q1axqNBtUABSFsH9JLQi7A1gsXLpQpUyaf6yEhfKlU6uTkNHfuXFw+SeCCjWY0/VQSZGMdjQ6Pxjp5FbfUBDQajeb06dO4KSE/Hj7qA8dxLi4un3766fPnz6kIOhPnVZ0ZMVQu7sns2bOnGYy28BU5RK1atbp06RI8FyBLbm4ueY6v6gx3cQcaGiYwNALzMaVnepvdmjBs2DDyTSysAEhm9KvWrVufP3+e1gqjMmB1snnhl9C31CuklUp6vX7z5s35B24Ssqen58aNG1NTUyEiFMT2SV9VEM8/0EBKItMS4YPoUa/XG+86UeNJHyDGBpgvPUCDxXWo/5GRkb6+vjiujbCD2lKroEcikchksnnz5mGqm52FFSn7FXiEvdFYiUajwRzQrVu3qlevDkmSPK0VI10ELpFI+vXrR6Psr4DcLGfBvkBjCBSghHCDCDMJNDQiIMqLvrQwUEqABu4M3ZrC8/ysWbNQJagdzk8NqVKlypEjR1jfHrq0UAslJRkZKMakcKGSRqOZNGmSzYcZsngEXQQEBOzdu5cunywpwrELnfYFGpr9NGWNFG8SaEjl8CHp0VpuSwnQ4OpYuDM8z+fm5t6/f79Bgwbkq7PmbkNYJpMNGjQoKiqKBhFIhdZqpJinRy8GV3TDnfn111+9vb3Z7R02CJA+USgUM2bMwC5t6qMVc5nYkTy7AA2LL1jiz8awlklhk0DDfomwbdyWEqCh4/iBOLm5uSqVatOmTbhmiJwaMndrAzKZzM3NbcWKFSkpKaQa2zRSzL8iDxqo/eDBgzfffJPt9VgrOja9VCpt3LjxqVOnXqVjgK1SqB2Bhh3YIkeEjFM0yGUR0NDWPscYjSml0tAJPA6s/nr69GmnTp0IZfLTdUJNq1Gjxk8//ZSVlYXiTBFTouPpdmDMNM2ZMwedJtqkarMYpVKph4fH0qVLU1JSqKUt0bKygXj7Ag0LK6Kuj0jCFgENvrHNryklHg11nWi6FJsGjh49Wr58eTSqNg8Gs5+3aNHi2LFjarXaBiMr/p/8H3vvHR9V0b4Pb0kjvQJJ6DUgEJDeq34RqQpIky6d0JUmCAIiKAJKUZqAPkgJIChFQQlIExApoQbeLWL2AAAgAElEQVRIISQkkF53z+bzAtfzXO/8ziabzWZDCrt/7GfOOXPm3HOXa+65p4GNgOm0tLSlS5e6uroSqcEH2aXosOSa7t69+4ULF9gqyFrdos+f/FNoXqDRd2RAId1SctgQ0Gg0msTExLCwsOvXrwcHB4eGhiYkJOS1qq8I0CAYDCxGSBi8TkxMHDRoEOMLWJ+dqz3klAGN+ZtvvvnXX39hw4S8iqOI54fvLElSUlLSunXrKlWqJLLCZF8Ghfj4+GzZsgUbj4tzEWgMRZw5ZiHPLEAD3U5OTg4PDw9+8bt//z4PqAGddHZw+V+gQXcLPSNJkqKjo/fu3bt48eIRI0b07dv37Re/vn37fvDBB0uWLPnll1/Cw8PFbhTdJBHhIL9XB2hYd/ZrsOHAiRMnKlasSCPJT4MMg1GpVJ06dcLWwpCiuDBHJgsD2kmCxTx8XbwppvP6Vrb5s7KyZIFYdvg1Gk1qaurSpUsrVqzI6dEi3JiWtrKy+uCDD+7du8cPkTAL0Dg6Oj548ECfDwAUSJ/pJ0+eBAUFrVy5cuzYsf369evWrVvXrl3ffffdkSNHfvLJJ4GBgQ8fPoQJiKz+L9CQ6UlJSbt37x4+fHjDhg3d3d0RGqBtqFQqd3f3xo0bDx8+fPfu3TExMVzqysYcpeM/KyvrFQEa0RSZRrMZExMzZ84chjPJTNMMBtNqVCpVixYttm3blpycjK9gazju8sNIB57qC5452fJQB6BwvGR1qHB4JN7Xv8OnUFC6KugcsXBs804aoDCfffaZr68vgzImMIqwzu6qv79/YGAgBrNYd33TItklNWG8R0MZQYI6nS4hIeHPP/+cNm1a27Ztvb29RU0Gw11cXOrXrz98+PBdu3ZFR0dD66CBz4EG7aEkSaGhoRMmTHjttdfEIvTFrFQqbW1ta9WqNXPmzBs3bkB1oEksmsS9ykADhc7IyAgODm7YsCE4aZi3+twW7+BdlUqF89KqVq06Y8aM27dvwyoA7oB+Bjtgw7Rkag8NiXfEhAFTFI2TxeZUGnAEysAWiCThPgfsJUn666+/hg4dWrp0aSKFWH3j03wdp6+4ubnNnz8/KioKNKCmoFlMsxYlOJFXoIGwtFpteHj4l19+2axZMwcHB4QCyGTIBcqpVCqtra39/PzGjRsXEhICZJck6TnQYF+lmzdv9u7d283NDe9n256waCS8vb3HjBlz6dIlDksRX6i1rzjQwGKTkpJWrlwpHgxivM3IckIuPJjR1dW1c+fOGzduTE9Pp9uCXi1EoG9aooGJZkY40IcP4g5Kox1Syjkl6L8Q+GRf4cE1jx49WrNmTadOnZ6d2Ek1o+7KmJDrpViCSqV6++23z5w5Q7aItRDTrFcJThgPNBA6+BMSEjJnzpxKlSqRsUxQFrjDrbLd3Nx69+59+fJlrCN7DjSSJD18+HDAgAF2dnZsb1kQEyyRCZVK5enpOWnSpNu3b2PSalZWFjAMSv+Kd51o0lqt9vr162+88YYBZpKr2SbYBRA3oGBpfn5+w4cP379/f3R0NLFDNH4sSobSyHpG9FDE/CyEJic+hQryEWFIzCOm6cIwgae4jI2N3bt37/DhwytXrowDJEQlZDpbthi4CeaoVCpvb+81a9YkJiai+mSCSKFYl5KdNh5o6DSEhobOnz/f19dXxm3Z4WWyVkGlUllbW/fs2fPatWv/9Wh0Ot3o0aPt7OzUajXlSiUWS1er1TzXgqrv5eX16aefsksmtqs6nc7i0cAOU1JSdu7c6eLiIvIzT2nZ9ggUBKI2OJr+3XffXbx48cWLF7naG+0J+sk0rVxtiTkJDQj6sP0gPLHdE8sUcYRpvAv11Wg0mZmZd+7c+e677/r06VOzZk045GQIh+ey9ayZLdeEWq0eOHDg7du3+XXQg/YVoCNSXuLTeQIanU4XHx+/atUqHx8fwArxIVvO46mYx87Obvz48UlJSc89mqNHj7q7u4uKq18KcQedXmTGoIBSqWzcuPGJEyc4rCvGa15xoOFO11qtNjQ0dPDgwRzq1mdyrndofggts9HmizY2NmXLlm3evHmfPn0++eSTn3766dy5c/fu3Xv8+HFKSopo87QxsS+DDLzDSzGBkAoMUryfbZqLv1Am5uBdvHhx8+bNAQEBnTp1qly5sp2dHeiXVSefEIMy69atu2PHDswDloEIMFRETFmGEnmZJ6CRJOnixYstWrSgghEHZO4MM4gDhehGeXl57d+/X6HT6dq1aycbXeJr2SbYDeNTW1vb+fPnYw8hjkNB815loIEfQV89MzPzxIkT+mdCkI0GEqL8ZNkoeyTwb2Vl5ebmVrFixddee+31119v2rRpq1at2gi/du3aderU6a0Xv86dO7/11ltdu3bt0aPHO++80/vF79133+3Tp0///v0HDRo0ZMiQYf/7DR8+fOzYsQEBAZMmTZo4ceL48eMnTZo0bdq02bNnz3rxmz179pw5c+bNm7dgwYKFCxd++umnCxYsmDlz5ujRo3v27NmqVau6detWqFDB0dGRlMtqJCpYfuDGwcFh5syZMTEx+qgK5eT9Eokp2VYqT0Dz+PHjpUuXYmZ2TsKSyY6X7PEoFIq2bdsqzp07R6+VQhWdH75pONGqVauTJ0+i4YIU8f+KAw0YgnE9bCr80UcfgZOQXF7lZ1gKeXoK/4guMfrF1tbWNsLP1tb22c5b9sLPwcHBycnJ5cXP+cXPxcXF1dXVXfh5eHh4enp6vfiVLl3ay8vL3d3d0dFRDDDliVQDmQ2wsWXLlkFBQYxD5xRLytYgS+rNPAHN33//3aZNGwPMN/LRc4T5+OOPRWfeZL13d3f/4Ycf0tLSOGPCAjSMjHDwJSMj448//mjSpImRErJky5UDbB2ZEzpcpkyZJUuWJCUlYXEm1LKkwofx9TIeaDQazd69e7GABgETctiUBDa4ZVOjLzYjC33WPC5cuDAuLo5Ghd6vxaMRvXRJkuCOMsgidhOMZLUlm8gBet9sI+Gpde/ePTg4GIEYhn6NN8iSmtN4oImPj1+6dKmBPrsoBQPp/wqodOnSYiZKS7xpZHr06NHh4eGcf4U4/6sMNPDVOd6BZZZarfbSpUutW7c2kquWbCZwoFq1alu3bhX3CXsFwzHZYqXxQBMZGTl+/HilUml4mMgY6TxHFfoy4gtsJcSbuaYHDx6sP474KgMNN6nR6XQYZoa6p6ambt682cnJKVeWWjIYyQE2kGq12s7ObujQoY8fP+boJ9j+qg0w5RNowsLCMEhK79tIWehnMw1P9Mv575333nvv1q1bECea8Vd8wh4iwfBrEClg1ObWrVvDhw+HAGgkOXLW8iBnDoB74n+jRo0OHTokxgrZgcrW9l6pm8Z7NA8ePBg0aBBVNL9a6urqmrMQ8/BErVYPGzbs/v374pCTBWjg1HDWHOduZGZmnjx50t/fP08TC/Igj1cjK7Ufg6kqlcrX1/fzzz/HggxgjRgje6UwJdvKGg806DqJk3ihqyZq1uuvv25yAFj2yblz53J+MMe5X/GuE2EXiwBEpU9OTl63bh2WyMs4abnMEwc4ZcPa2nrgwIEREREEdOihpetE0DEeaBISEpYuXQpBENDzJJf/J/O8efP+n2ujL2RQZ2VltXnzZi7Dx0LNrKysBw8eYIoaQkqgeP78+WjqMbuPXHhFEoCbrKys6OjouXPn6vdgaTlGS6PkZ8yWS6g2o5VNmzY9d+7cK6JFplVTp9OtXbvW7sVPofhviNbJyYkHkLO/r9VqAwMDHR0dqVvGwI2NjQ2yie7Lc9mdPXuWIqTAWLSRCbVa/frrrx85cgQLZBGgQTMSHh7u4+MjK+eTTz7B2hmMO/LwY9N4Vxzf4irH+/fvjxs3DvyhIMiunCZ6M8MrkhCXKYjqzvkdKpWqatWqmzdvJogXR614OTSvWbPGzs6Oy1nUarWjo2N4eDgHSTmz8fz58y1btsQ8O4KDyH9R/bijAG7KHJHna5041KpSqdRqda4H6BCxiF4KhSIgICAsLIw9BdIqAg1BDh4NB2U4APxyGF1EvsKm4+rVq127dqXMMHMhJ3Ey2yuYkI2Qiqrv6em5bNkyjUZTUndTNqPSrlmzplSpUqL+ODo63rlzBwqZmZmJb+l0utjY2OXLl1MVmRDfFdM5eeLPEUan0/3111+lSpUiCohvZpvW/56fn98vv/yCfpDozmi12ocPH6LrJL61aNGi1NRUDvqyI21Gbhblojj2xDbkwoULffv2pQiINSLTspXFq3OTzBGnOOKml5fXRx99xP3bsD98UVaAQqQtMzNz3bp1BBo40S4uLiEhITgXlDqJ3sa5c+fERZUG9E3fH0dma2vrI0eOKDDs+vHHH8PVgeRy0m+6W/yelZWVs7Pz3LlzeYQFB7bRdUpISChfvryswA8//BBAQ6eGzXshyuClfZp+HxFWp9P9888/PXr0sLW15VxMlUqFvTvI7Vc5IdNjKysr3AHKUJ0sk2UMq3FaWtqnn36KfX/oErq4uDx9+lS2/Su0NCUlZcOGDV5eXkb24m1sbFAsTF6tVgcEBKSmpv53h72UlJRBgwZxkz7DCk3UUCqVTk5O48aNo9/F8D67yhqNpnbt2sAv6krLli2Rk+6PYe6UvKfgT2ZmJsLnmhe/W7dujRo1ysnJiYwSl6EZFkrJfgqVE3Xd2tparVZXqlRp4cKFmD2A83PFfdpLntrkv0aSJHXp0kUMoKhUqrJly2InDc72gl+DwbuYmJjPP//c3d1d/eJnjKZBXg4ODn379o2KitLpdM+BBkofGxs7cuRIY0Zb4deo1WpXV9eAgICQkBCOJnL9AcrEf8+ePWVxH3t7+8ePH+t0OoSBSUP++VhcSuCKMDio2LdFo9E82yLv448/rlSpkrW1tSy6ZoyAS2oeIC/xV61WW1tb+/v7b9y4EYdAUQPRgBUXNXj5dEZHR/v6+lpZWbHvolKp2rZtC7AG0JAq2C82DF6yZImXlxedDAOahkiNk5PTsGHDIiMjMe7xPEbDTQzS09NXrlxZt25dAxvBAWWcnZ1ff/31r776ihNnYDBwXDG2zUjEwoULnZycZJG8b775hk4N4ROvE6QIQOJ9cAF5yJHimGBvEaDDyqanpwcGBr755psuLi7GyNWAyEvMI0AM/WI3N7du3bqdPn2aPESC/8VRHwzTTIWndTBh+EXqFSx0w4YNsm1hbGxsZs+eTV9G/BBAHHcSExM3bdrUuHFjw2qpUqmcnZ3r1q27fPnyhIQE9mSfAw3NGBssXr9+fdKkSa+99pqvr6+zs7PMe7exsalSpcqoUaPOnDmTlpYGUgyH34KCgsqWLcsOIbS/fv36ERER5ALIICVsl3hflmCGXLlcjDIAcVC14ODgqVOn1q5dGyO7sLESAxx5rQgB19raGmc/PH36VDxZrBhJ2QRSqfywF3HGMx/RpHGHBsIMWVlZoaGhrVu3BjOB3Yh+HDt2TNzqm6PA8BPRTcE28pcvX54yZYqfn5+trS37XyjK3t7e29u7bt26EyZMuHDhAla0kqrnQENrz3jx0+l06enpDx8+3LZt25AhQ+ivQjmqVq26du3a1NRUiDk9PT3bfRLJTRhPixYtqCsox8HBYfTo0fHx8WyFWD2RJJTDPPCSZA4ev1XcE5ArDwZISUk5evToO++8U6FCBXt7exni59VWi3t+a2trLy+vjh07/vHHH5IklciDOnNSYFH/CRyimRBW4LaAP+ipwFgkSYqPj58+fTrdGdq1v78/zDAjI4OZ+RVoI4rFsHJqaur27dtr1aolapRKperVq9e2bdvu378PQBDHebKyshRwRmjksqVoQUFBcGoIEzVr1vz++++ZDUNixC19TqHvt3nzZhyjgXLw/2zrtmXLlkVERPDrbNKBfSL7ULKM4/qfK9Z3EPYHEyBprVYbHx+/f//+/v3716lTBwdRU0VESZfsdKlSpdq1a/fdd98lJiZyFLZYyzpPxItmz0kksA4+ortAzUEGYMf9+/eXL1+OhY0YcoLC2Nrarlq1SsxJgBDDXqJro9Ppdu/eXbduXXHpk7Oz8y+//IJPZ2Rk0OeCaT8HGq73A0H4DJwlSZKCgoLESYQKhcLPzw9Aw5wo3QDjMPOnadOmspCwQqFwdnaeNm3a9evXcSKyjHeyS7ISpzKWPM+ZnASeQrpgQmJi4vHjx6dOndqyZUseS1KywUWsXbly5W7evEm5g1EGmjcD2lgcHzHcCZVgMywzEDbDOPUIkBQfH3/16tUPP/zQzc2NLOX4XZ06daKioggCVDxZgp4OEGTPnj3+/v50PhQKha2t7c8//wx6QB6+Thk9H3USHQqIEHcANHDaSWKNGjW2bt1KD42yz1Z+VAiNRnPkyBEeQS2SaG1t3bp161WrVgUFBd28efPhw4dPhV/8i59sQ0YWm+1Hi+9NqhEGoSA2Sgeyv3PnztatW729vUUeUjolOLF582YwBEMN1OniK27jKSeCyOwf/ZqkpKS4F7/4+Pi4uLinT5/GxsY+evTo1q1bz3okK1asaNasGWfo4XAehUJhZWXl7u6+Z88ecBIlc2EQoA0DRmzgoZ+SJNGj4Zwve3v7AwcOiEUBYiim5zEaTDoWURORIUmS/vzzT5DIEmvUqLFlyxYQRDwibsl4R74A3hYuXOjh4UFjEE3FxsamXr16/fv3nzlz5ooVK7766qtlL34rVqxYuXLlt99+u2vXrkOHDp0/fz4yMhJBaNm3SsYlMRQJyIk9SvDz+vXrPj4+r1R4WKlUzpgxQ4QYgnLJkLvhWoi9B0mSUlJSIiMjL126dOTIkR07dnz33XerV6/+6quvVqxY8cUXXyxbtuyzzz6bO3fu+++/X6tWLToKNDfGbqdMmcI+DvlJxcMd+jJQQhjy7t27/f39xS68vb39wYMHkUd/4t/zrhOKgwbDgwJ8IPfJkydlQ91+fn5btmwRfS3QmhOnaCqZmZlJSUnTpk1jOErs4xF9ckoolUoPD482bdpMmzZty5Ytly9fTk5Ozumjxfe+KA6CDiQCL1Kr1W7fvh1bRufEqxJ5v3fv3tR1Nr/FV9B5ohz11Wg0KSkpV69e3bx586RJk1q3bl26dOmc2htxoYa+Ptjb248ZM4azgcFY6hsvYbyAAmqmTqcLDAzEVkooWalUOjg4HDx4EHTC7WBpqOnzrhOxAD6S6OAEBQWJuIAYzfbt2/nVXPlF2MLnIyMjJ06c6O7uDjgUQZGIq88X2Z3SpUv37t1706ZNWKDBKjGRK1VFNgMZK3qelDeal5kzZ4oHVMuYUyIvlUpl8+bNqajwvousEPNPGCwW5UCrMzMzHzx4sHXr1v79+3t7exspZZlN4dLT03Po0KGYXJKWlkZq+VHakdhlIfpkZWXt2bOnTp06Ig2lSpU6cOCArGcDeaH850CT7Q8fO3nypAxoatasuW3bNrGIbF/HTVLM/BqNJiEhYf78+bVr12Z3TKTY+LSvr++ECRPOnz/PMxhFQDVAVbF7BBlnZmYidtO1a1dZe6VWq+3t7dG4yXTLeH4WkZxOTk4VKlTA+JpIUu3ataH3Mm0udtLMlWCoMd1YnU6Xmpp67ty5SZMmVapUiTtjmCBopVLp5+c3a9asyMhI9EPT09NNGFTZs2cPRp0oIHSdDFStYIGG+ELEycrKwrqe3bt3Dxo0qEqVKqBVn2vG3LGzs+vSpcu+ffuSkpLQj+UXDdS5OD5i1CwsLKxevXpgGv3BNm3azJ49e8aMGZNf/AJy/k2aNCkgIGDcuHGjR48e9eI3evToMWPG4HLEiBFDhw4d8r/f4MGD33///YEvfgMGDOj/4vfOi1+vXr169uzZrVu3rl27vv322126dOnUqVPHjh07dOjQvn37tm3btmnTpnXr1q1atWrevHmzZs2aZvdr0qRJs2bNWrVq1alTp549ew4YMGDcuHGLFi3avHnzm2++yT1oUNny5ctDuK8C0DAyotPpkpOT9+3b17lzZ3FJCoeNwBz865sM23KVSlW+fPnevXv/9NNPKSkpcGQQ9CgJQCOisqglQNMHDx6sX79+wIABTZo0kQUd9FmGgA7vYz0FLlu2bHno0KHk5GQUWxxxJFeaOVh48ODBChUqQLHYP//222/T09PR8+XUBPTC+E+sx6kvqampz0JmycnJKSkpqS9+ycnJ8fHxsbGxMS9+0dHRUVFRjx49ioyMfPjwYcT/frdv375169bNmzeDg4OvXbv277//Xr58+Z9//jl79uyZM2dOnz596tSpoKCgEydO/PHHH8ePHz969OiRI0cOHz586H+/wy9+uDp8+PDx48fPnj0bHBwsbvI2YcIEBwcHiluhUDg5ObEKubKrWGdAxxBYk5ycfPTo0ZYtW4IV/AeCiPwREYfRT7Va7enp2bRp00GDBq1evRqhBq1Wm5KSAhaZtga1SHs0BBq0SDAAjUYTGRn5+++/r1y5cs6cOcOHD+/bt2/Xrl27devWvXv3ri9+Xbp0adu2rZ+fn3g+CYAGDLWysmrTpk1QUJDhOcrFV/lgYODYxx9/LC58hapdu3YNKGOgjrRS8F+8FEWDr4hPxTQjejK3QswjewSSxAwgVbwjoiHSH330kZOTk2hIKpXqVeg6cfA3MzMzNTX1xIkTHTp0oMMiY4iTk1ONGjVat27dtWvX7t27d3vx69GjR7du3fr06TNixIhp06atXLny+PHjERERsA50wylxDmAb0Bz9R0UOaERlQpqaKuoWQg8ZGRlhYWHBwcEXLlz4+++/L1y4cPHF79kBwH/88cd//vOfBQsWdO/evUyZMkAZdBzQZVWr1QMGDIiIiOBX9LlTfO/odDpoRkZGRo8ePcSNDZVKpaenJ1aEGPaBRVnQ1GWwAhbxc+IrZCx1VOSnLCfLyRZ0+KL4lmgAWq120aJFmJIuNtQIxpF4llOSEoxzS5IUHh7ep08fLhIEykDt3d3du3TpMn/+/B9++OH333+/cOHCpUuXYDL//PPPxYsX//3337CwsOTkZKIzBIdLUYjcUs94NhZpoGE1oF4i0EB1MIqGbNB1WA7S8Pf+/ffflStXNm/enL0Ggo6Tk9O3334rLhjlF0tAAky4f/++LNqvUCi6desG+DYSaMhhMlkGN7gvExPlxZkXIlfFogguKEHMxjTzIzMuWbIkSV999ZVsXoVCoXj8+LGoEiytJCW47WRSUtI333zDRoUoY21tXa9evaVLl/7777/sARGyicKAEnIGGchhNO0ANcNqwxLERJEDGlabWkstJKYyQS5QC/mIzR3W/vz8889t2rTBkg3RmWzSpMn169dNYJzIxCKb1mq1u3fv1t/pffny5caYn0wXRXCRpZmTCaIMRUOAkOXBpT4PmQ2PcCnKF2k6vF9//bU4ZR5+TWhoKJbmIfCv/5UScAdLmrVa7dWrV/UbFVtb2xYtWuzevRsbWsrqSyaLjIWk6Mgg9MM5dbAsWTm5XhZFoAHRZAGBhvfJFJnuihmg6ESilJSUffv2NW3aVEQZzKpes2YNnBoUSwuUfTdXVpo3Q07V1/+Kfk7cwVKPyZMnyzoUSqXy77//RhSc7+oXK7uDnLRtPmUJRrLL+PzMyW8xIYIXEW3dunVubm4y+V69epVipdqI5cjINvBRvlXUEvBokpKSli9fzlFF4KxKpWrYsGFgYCBmxus3qKwvExQxE+xJseIypvG+gUTRBRoDROf6SOQamCtJUlJS0urVqzk6TpF07Njx3r170F12d1FCrh8yewaSwSrIErQW2X2RYKQ1Gk1UVFS7du1wUgUjF7Vq1eIh04wjmr0iL61A8mHr1q36Hs2ZM2eYgbwlbWSaiFzgCUbimLMoJwA0Dx8+bNKkCaTMGE3FihVXrVqVkpKCFlcfaF5avUom0KD/Jbr30KT79+8PGDAAK8IJNM7OzqdOnaLvQ0/7pclA/JDMKmRVEJ9mm2bzDmvZvXt31apVudsQtHDGjBnx8fH4aMnoUKDJ3bFjhzi4hsoeOnSIIMKWmawjE3gHCbJdFE2RTet0uoyMDBxMglpDt21sbPr16xceHo7ODutYKBV5JYCGjNZqtevWrcNcSYgE/99++21ycjKVjHGiQhEJv07NoKfKO6gRus369gPTysjIGDp0qGzlgUqlOn78OOfyIWdhVdNc3wUHAgMDZRPtn52rvWHDBkqf8EE2ggBeghsozZhgubnoz2c5mAf85ZdfYuoGW9Dy5ctjMTPETb3K5+dMe71kAg0bMZgoNUmSpMuXL+vv3Tdp0qSYmBhkpntpeLNR09id61ugHATTL8N+qdl2mngTJbPikiSdO3eOp6Rz9+V69ephRJ8zFfFKroQV5Qxg16lTp2RAY2VlNX36dFH6oj6INWIeJgrXLEXack1jKvCwYcPEtlOhUDRs2PDu3btQHioGG61cizVvhhILNNQYxrSQSElJwRmPYtSwV69eOOEB+xmDxUQc83LccGkkG9lwKTbFRB8ukBVfYTozM3PWrFncYQOVVSqVS5cuxXlGHEooGUAjSdKjR498fX05wxVW165du/DwcFQW/4Rm8kpkNdLc3MewsIrIU51Ol5SU1LZtWwINonJvv/02Q/6F7qCVZKABcxl8gYZJktSvXz9xDYhCoejUqdOzQ0uI+tS8l69J0H5+F5dw/tldkpmKRqOJi4u7f//+P//8c+zYscDAwK1bty5fvvy1116DI8PQYKlSpa5cucLXs7KyuHcHv1gcEwBijUbTtGlTLtXBfsmOjo4tW7Zs06bNW2+9NWDAgPHjx8+bN2/ZsmWbN28+ePDghQsXQkNDsdenDLgJ7kWfITqdLjExsU6dOuKGm/b29sOGDaP+yFD15VeqJAMNmStLjBgxQlx9p1Qq27VrFx0dTQssLPdSdNdxgtXjx49v3bp17ty548ePA0FWrVq1aNGiDz/8cNSoUf379+/SpUubNm2aN2/eqIu/FSQAACAASURBVFEjf3//2rVrV6tWrWLFit7e3uwusaHr3r17QkICqglVKxnHTlO+Y8eO5aZNDFXAm1Or1XZ2dk5OTp6enmXLlq1UqVKNGjXq1q3bqFGjli1bvvXWW0OGDJk6dernn3++b9+++/fvY6VYoXi1eUUBAI2fn5/opDs7O48fP15UaXApr4WbK38JBxp9Nul0upEjR4rbFCoUCgAN9VUEGozLyOI1HAVn+eK7eF20Z2ZjAk/T0tLCw8MvXLjwyy+/bN68edGiRVOmTBk8eHDXrl1btWpVt27d2rVrV69evUqVKpUrV/bx8SlTpoyHh4erq6ujo6OdnZ21tTXNiWgiS3A+tEKh2L9/P7oPrGCxMCQyzUAC/Fy0aJH+wJOMIdleKpVKW1tbR0dHd3f36tWr9+zZc+HChf/5z3/Onz//+PFjLCPMSaAUPcmDa8zhS3IbGWSOM9/KTyIxMVF2xoCzs/PEiRNBM6RsAZr8cDjP7+p0uhEjRmQLNKJDgXJ5CgSUA7tViKM8uAMRcnQDioWbnE+p0+kePXoUFBS0cePGefPmjRkz5o033mjSpEmtWrWqVq1avnz5smXLuru7u7m52dvb29jY5Iog2RqM/k1GZ9q2bRsSEiJT+jyzr+i9QDvX6XQffPABPRp9VuR6R6lU4jxGOzs7d3d3Hx+fqlWr1qlTp02bNiNGjFi2bNm+ffuuXbuWnJwMAxYFDQ3hDnCkSn8CCx+ZkZf6QOPi4hIQECACjRk/Z0JRJdOjMcCIPAENwYJBNdxhB55KQ5ThpzMyMm7fvh0YGDh37tyePXvidD0fHx8PDw8HBwdbW1uGTsQJdaL3S8MQvRLezFPCyspq1apV2IKHFJaMBESAujRp0kSM0eSJRSLnVS9+fB37Tnp4eHh5eXl7e1etWrVLly5jx45dt27d2bNnMbUfQMMJkGyZqCG4Q80xL/MtQPNcWHnaYc+8AtAvzQSgoa4wHMs7mZmZmKSAO0lJSZcuXVq3bt2gQYMaNGjg6+vr4eHh5ORka2sr6jE1OKcEMpvLqcFXdu3aJW7CqM+Z4nsHzI+NjcW2O/rBqZz4LN7Hwc2yO7KZKXxqbW1dqlQpV1fXMmXKlCtXrlmzZmPHjl2zZs2JEydwshqHIOhCEolArXm5bQGa56Ip1kCDkU72qkQtQVqSpIcPH27dunXgwIE1atRwd3e3tbW1trbOvxtCtc7PgZMEONnBxuZV9MItDYL4888/S5cuLTLN7GnZHGuUj11HrKysbG1tXVxcPDw8mjdvPm3atL1794aHhwNfcEgm0vSOzRggswDNc1kUX6CBCyPG0thAZWRk3LlzZ82aNR06dPD09LS3t7e1tTXsg3DnLdlcD2KBaBjAKTSzpjXRKI37qr333nuclFi4uGDerzNG+9lnn+mvdRJZaiANsJCJT5SXgXf5iE0LQstweZo2bTpz5szffvsNO3uziw3QMRcrLEDzXArFF2jQVKLjjYZIq9VGRUVt2bKlS5cuHh4ednZ2VC8qnD5wiFEYZtNP2NjYuLq61qhRo0mTJm+//fbAgQPHjx+PkWxOvdN/y5g7arW6WrVqYWFhBEpzqXihlwMZZWRkdOnSRRbjN4YzYh4gi5eXl6+vb7a9XVnsRnwXaZRAlVCr1dbW1jY2Ng4ODj4+Pp07d169evWNGzcwnmDxaA4ePGhAfwp2c3IDHzbLo7zGaDBslJWVlZqa+scffwwYMEAc19DHFH3l07/j5ub2+uuv9+3bd+rUqWvWrDl48ODly5ejo6Nlg+is7+XLlxs2bKhfjvF30FZfunTJjMpN8opCIiYmBtOCjeeJLCdE6erqunr16qysrEePHv3xxx9r1qwZPXp0s2bNXFxcKGsmZCXIHCI+leW3srKqU6fOvHnzrl+/bi7WWTya59wu+h5Nhw4dMGGPWwhznFKj0cTHx69bt65+/fo5aRJVKtuEvb197dq1BwwYsGLFit9++y08PJxfyVbPsI8RY4eSJN27d2/48OE8mTTbrxhzc8WKFWlpaRyUFcdos6WkCN7kqA32S2evdseOHfqb0RjDE+ZBL7VWrVr79u1jxdkvS01NDQkJ2bNnz8yZM3v16lWhQgX2Z03QCjg+NjY2TZo0+frrr8PCwmQNAGLJIAMuG9Lc5g5HZZNOC9A8l2PRB5o2bdqEhobS8NBLSklJuXnz5syZM728vHAmOWIrHJaGjortlVqtRkTQz8+vT58+33zzzfnz5+Pi4jh3i5+gBlNXqFWiLWG6YFxc3KpVq/A549VaJAxvderUiUeS00RzokRGWKFfwt7IHFxi1xitVjtgwABra2uxykSQPCU6d+589epVcWUQPsR/DAtgr5+goKDVq1cPGTLE39+fcTr0m9h7gs4YJszV1bVXr14///xzdHR0SkoKJlXilCFIR6w1Ds9ma4G53RageS7log80HTp0iIqKwsIfHFR89+7dUaNGiYtHoDGys/Fw09ra2sHBoVKlSu++++6qVasuX76MhYtarTYjI4MdIqgI5+ZmGy7hBjGckYG58MeOHXN0dMTnjLQcEZLQhNrZ2YWEhEB3ZdhX6DiSKwEwdTT1z5aMojEA0Ny4caNGjRr5GZsjS0eOHJmQkMBBRiTEZVCgE8TgfD74nqGhoX/++eeSJUu6du1apkwZR0dHW1tbmf7wK9kmrK2tmzVrtm7durt372LreKIbEjy5DRLENjSgxwI0z1la9IGmffv2YWFhGo0mNjb29OnTw4cPp2MMnRAbKN6xt7f39vbGWObx48c5cUumH9leGvAjmJ/6pNPp/v3338aNG9OZMtxCinrMnEgsW7YM+opp9fxWrnZe6BlkrTopf3Z/7ty5bm5ulBGrLPIh17RSqSxbtuznn3/O/WiIKeKn8V0uRmUPFwl0ijUazY0bN9asWdO/f/86deqUKVPGyckJshPRH82GbH2vQqEoX7789OnTL168GBsbiw/xiC58nZfUIgvQPJdvsQCaO3fuXLlyZfTo0a6urlRKmVrgvp2dnZeXV4MGDaZMmXLixAkc6EFQwEYT6JjwJrcdgDpyNle21is6NShBq9U+fPhwwoQJJMxkW3r99ddjYmIwyIoOAnQ3W0qK1E1aO7mXkZGBLkzjxo2zlRTZZUxCqVS2bNny2LFjhDAxQdARkYUGD05iPiQXxyHn06dP//777wULFrzxxhu+vr5ubm52dnb64sPSB9AJ6ClXrtyUKVP+/vtvdL059AlHGACE7lVWVpYFaJ6zrugDTf369ceOHStum0TfgTqqVqudnJwqV648dOjQvXv3Yv8aqp24pokKSqCR9ZKYIVtLhqYiD9dVpaWlbdmyxZhVlCSYCXHOq5WV1f79+7loG1+RRSKzpaoo3BRhGt1SjUazfv16Ly8vujMmh8yVSuXQoUOjo6O5og1wLHZ1KTgmRADiTYACQy3of2VmZt67d2/dunXdu3evXLky5kaIoqG8xESFChXmzJlz5cqV+Ph4GSUQIlTLAjTPmVb0gUYUrX7a1ta2XLly7du3X7Fixc2bN0X4EFWfs/vY5CIn/tnt5ysy9NFXWfF1nU73119/NWjQQJ+8nO6Itic2oW+//XZUVBTpEe2hKKBJTjSAb3Qi4ODcu3cPu6+LFcyJIYbve3l5rVixAuVDgqKgIVzivvgIDQPCRiLWiPIVha7RaEJCQr777ruePXtWrVrV3d1drVZjxqB+LSDEqlWrfv755xcvXkxOTk5PTwcZ7PxaPJr/SvblAw3kTVtiAvf1V2+DULjfEC1EbmtrW6FChbfeeuvHH3/EGhaYJYdsqEz8omgnMAYCDZSVr4g5maamciCTsPXgwYOJEycathbxqVgRMYqsUqmOHTvGXa+KC9AQdhEGliQpNTV16dKlZcuWpeCIrfoWK3Im23STJk2CgoIIZBAE+2sUkHgH8KEvUMIK32JC1JO0tLRLly598sknLVu29Pb2zjVy3KJFix07djx48ACsQO8JoGPxaJ7LtLCABvKWNT6SJOUENNA/NC/29vbVq1cfMmTIgQMHEOET43/Um5eWwOSanTt36g97ZWs2Od2Er/7GG2+kpqbi4CdR9V9adUz4EFGbAr18+XL9+vVzqqmB+4AhjMQhm42NzbBhw7ArGMe2C5ozxKPo6OidO3cicozT4nMCSltb23fffffEiRMxMTHEREmS4uPjuR8N3rVsE2GCjpnyCjsyhBvciY6O7t27N1oPfXFirYCfn1+/fv0OHDiQrQtdWBENSZLOnz/fpk0bAyZkzCPsLnj48GE6eqbw96W/AznC+LVa7dOnTydMmACzNKbWzCPiCx29atWqrV+/ngvxAWoFXUWEcugdJyUlnThx4oMPPqhbt644EZmUM+Ht7b1o0aIrV67AudPpdE+ePKlZsyYOREQ2V1dXy340BS3BLCilGNXTaDSpqanPzi2cO3duTnPVlUqln59f3759n20iw2YTo0jiTIrCApqsrKzY2Ni5c+fKht6pf3lKNG7c+OHDh0DSApeHOT7ALiREuXnz5urVq+s3FXliAjKrVKpu3brdvHmTWPZygIZAD/TER9PS0s6ePTtz5szmzZvL5jqjh4gqW1lZtW7deteuXVFRUTj0GR4N+19ubm4WoDGH3hksA20FY2ZarTY2NvbZkqIePXo4OTmhcwQlo6Z6eHi0b98ex+OiTwGsoc5RGxCEM/h98z9kS75//360XSZYlOyVTz75BFPOzE9ugZWIyOvp06fbtWtHo5LVy/hLmG7p0qUXLlyIxRmi0MHzAqvKf5tDwI2sJdNqtadOnZoyZUqDBg3ElaKy1bnu7u4ff/zxP//88/jxYwAN9FmpVHp6elqApuBk99+SoSJooDIzM+/fv7969erXXntNdJuRVqvVVlZWtWvXnjZt2s2bNzmsgLgMxympDYXlzrCxDQkJGTNmjPG2ZCBn2bJlT548yRkZBS4Vc3xAp9OFhoYOGzZMdqC4gWrqPwK+oN+kVCrbt29/9uxZcpjKU9BAwykRovtMpMPu9AcPHhwyZEj16tVtbGyw+wSqgyrgv1evXrt27apatSq2IkW9LDEac6hbbmVQV5KSkv76669Ro0aVLVuWCkeIUSqV3t7effr0OXDgAFcbIhbIsRjoH/x2ht9y+36BPAfqpaen79ixw8fHh9XJa4KNnkKhKF4bCWPf5Tlz5mCDK+JFXjkgvujh4TFnzhxM+Wczg4GkggYaqBZcZlHNxNiNVqt9NqK0c+fO3r17e3t7q1/8MFeItVAqlV5eXk5OTnTPFQqFBWgKxAhlhUJFnj59euDAgZ49e8qOhUXXydraukGDBosXL46IiMCSGY5TYmUw0QprlBi0YzbZRwv6EtEijUYTHBw8ePDgvFpXtvnt7OwmTZrEo7gLugr5KV+n08XHx3/99dfVq1dHXUS7yrZ2hm/i9caNG586dQqypmdB0eeH4Fzf5XgFsUacqw24Ybg3JCRk2bJlTZs2xZI3Me6LisimmFqAJlf+5y0DdALviE1ERETE2rVrGzRoIJtOAuVzc3Pr27fvwYMHxSO3iSDEFGhe3ggqmNxi1VJSUnbs2FG+fHnDhpTTU9E+lUqlq6vr8uXLMdotYyYZUjB1eh6k4Bf/l/z/7/CjuBUfH799+3b0f3OqWp7uK5VKd3f3adOmYZ9NWWiWhJGMgkhArCKfRbBj+4cMkiQdO3Zs3Lhxvr6+ECJFKbukRwPHnOW/nEply6jifQoCGCfigiRJmZmZt27dWrBggSxoygBN5cqVJ0+efO3atbS0NMo1W+4UnZt0p9Gxv3XrVv/+/UW7os7Roxaf6qeZ39ra2tfXNzAwUNzX9uWwhegpM3LZ1zFPZMeOHc2bN9dfgqhfNSPvqFSq1q1b//XXX4VofnlVMI1GEx0dvXLlytatW3NbDKIMZapUKuHREGjIUoJOXj+dz/zFHmhE/xNGeOXKlZEjR6Ibz92kEa5XqVSNGzdev379o0ePMGecksgnHwv6ddok3OzU1NQtW7ZUqVIFuiVuMUltM9Le4IQ3bNhwz549BG5EK7jBRUHUDt+ikYuXqCzHs58+fbpt27aGDRvKTMv4CspygkWenp6LFi3CWvYCram5uEeGZGRknDp1auLEidgpCbVjQAAuvKOj4wcffIA2GDZCVpuLnjyVU7yBhoNBgJjMzMyLFy+OGDGCK7BVKhW0U6lUOjo6du7cec+ePQkJCTqdDr1fbimSJ669/MywPdYX62XGjBmD2olAIzMqIy+trKxatGhx9OhRGjxYWnA15YfozjBUgUcwj0ePHn377beNGjVim8FZdkZWLdts1tbW7dq1w/a94p5BBVff/JeMVSmZmZkYlIiMjPzqq6/8/f2Bm1gtRSy2sbFp3rz54cOHUTvwFriTf0pMKKHYAw3qjE2Arly58v777zs7O4szZeDLuLi4DBw48OTJkykpKVRo2BK8ShN49zJfAdDQr8F0ksDAwFq1atGF4YEH2ZpWrjetra07dOhw+PBhMKSggYbcI6yI7j26ivfv31+6dGnt2rVBPGpqZN/QcH3LlSu3atUqfKVQJkax+sYnuHoTaqDRaDIyMvbt29etWzfM9uZSL2Cxvb19+/bt9+7di4MDofbGf868OYs90HAs5vLly++//z6XinAMW6VSlSlTZuLEidevX4f/AoWmP8mRbPNy1rylsf2ntkmSFBUVNWPGDBcXFysrKzg1+TFFpVJpY2PTokWLvXv3YhrRS+hQEGWQgHeDUb/z589PmDChXLlyMBvRo0F3z2TEKVWq1NChQzExmgSYV14FURpIZa+W+Hj58uWPPvoIEzjY6gBnS5Uq1aBBg6+//hpePJlcEOQZLrN4Aw2gPSMj4/Lly0OHDpWtfAHW+Pj4fPjhh7du3aL3KHNkIDnDbCoKT0WnBuMRkiSdOnWqU6dO8NoYKJVpm+G2nU/xlrW1dfPmzbds2RIXF/cSAof00cBhwCjmJXTr1s3d3Z11kZ11C5QR23BWxHACC01OnDgBd6YYAQ0hhpQDayRJioyMXLVqFXcR4UgrQgc1atRYuXJldHS0BWhMNGRw/Pbt2/BlqJRoA1UqVZUqVRYuXIgDA6lS9GVwp3gBjSy8l5ycvGHDhkqVKnHHXJEJ+iZn+Cny29nZVatWbebMmQ8ePDBRMEa/JgIN+r+3bt2aM2dO/fr1c1rSxSrkumuUfvUVCoWnp+fSpUs54Gg0pYWfUdRb7ijA/mZiYuLhw4d79eoF91bGpYoVK86fPz8iIqKwwjTFyaNh7ADMgo6GhoZOnDjRxcVFX6sqVKiwZMkSEWWALLJ/FFv4emQEBagy+xeoyJ07d3r06MHqU8N4J68JlODp6TlixIgTJ05wYA4ODj5KYnkp4ypDvMzAV8SE+NajR4++//77d999tyBOtkWlSpUq1adPn/DwcPS4yUmRpKKcpq6idSTKYEAqPT39/PnzQ4YMIUZTGZRKZbly5T7++ON79+5xHwy8zjILtOLFBmjQ8cFgJCbL6HS62NjYefPmiTs5krPe3t4fffTR/fv32ct4OQwtUGnpFw4mmGuisAySHB0dO3bsuGHDhocPH4qIwBgqWMqZ03RPAEncu0vWBUNR6MACxeLj4w8fPjx27Fg/Pz8aiYyYfF4iAlWvXr3jx4/DNaCZFVYjry9N0+5wcAN2ceXKlalTp7q6utIWyDpfX9/p06eHhIRAgkArdsRM+7qRbxUboKFyU00TEhK+/fZbbLAm46mPj8/cuXPDwsKgzWSoTOON5FERz/bkyZOhQ4dCmUyOj1IXZQm1Wl2hQoW+ffseOHAgMTGRnIRyoyGlSw/ThYDYbPISCf6jhMTExIMHDw4fPrxOnTr53NNLRjkuMTEf/15eXps2bUpLS+NumCAGlBRxKRsgD2BN3ExNTQ0NDV24cCGnkoEVsBEPD48pU6bcvHmTb3H+sYFP5P9RcQIasBIMysjIOHDgwGuvvaavXh4eHlOnTgVsazQarhahxuefa0WnBJ1Ol5SUtH79+n79+nXo0EGcwaXPGdPuYApSvXr1xo0bd+TIkYSEBOILdJQrdLjolG0sH8l6UmlpaY8ePdq8efOgQYPq1q3LpdiyiK9pBOMt2BX34rW3tw8ICHjy5An9L4JmcVcMdANhHWlpaWhcIyIivvjiC29vb1kbrFAoSpcuPXny5ODgYHAAUitolS5OQMNZdhqN5sqVK40aNdJnopub27Bhw+7du4dmFpbAKZUlz6OBoxcTE3Pnzp1//vlnyJAhXHSXHyvN9l0nJ6datWq9995727dvj4iIAILTixGZLHoKGEjiSHlkZOTPP/88duzYZs2alS9fPv97ymRLquymWq3u1q0bQqGgDVSxD1XQZlag5YPzaIDZIZUkCYsVypcvDz8Xg7BIu7m5jRkz5s6dO2KTUKBEFhugYdxOp9NFR0f37NmTOsp1q7a2tv369cN0T/gyiBqIbVeBcvPlF86wCGzm4sWLb7/9NhkiszezXNrb21epUqVDhw6TJk3at28f175TZdEecFtMnU6Xmpp6+fLl9evXf/DBB23btq1evTpdGLOQlFMhaIfUanXt2rX//vtv8oqdBQINcfDlSzD/XySsY2shCAJVi4mJWb9+Pc4Rkg3SeXh4zJgxA45//mnItYTiBDTA7Li4uFmzZtna2tKcODevXbt258+fZ18JsTFc4rCxEunRwKcAEGdkZPz2229mOVAtJ+vFfSsrKycnJ19f39q1a7/55pvTp0/fuHHjsWPHrl69eu/evX/++efXX3/dsGHD9OnT33777Xr16lWtWrV06dKlSpWSOaEMKsnuG/668U9x/uQff/yBfV3pzsATxPR8AFCuplJkM2DjetQCKM+N9CVJio2NXbduXZkyZWgmZLWLi8vs2bMfPXr0EuyiOAENmLhr1y5PT08qKHROqVQ2aNCAU1rZuoroToMsshpjAmG0HCyBgfuwZcsWbtpivE0akxPKKstpZWXl4uJStmzZSpUqVa9evWbNmlWrVq1QoULZsmVdXFxsbW2p2bIXOd2OCZlYZflNuCxVqtTWrVs56wQ9JroAaPbRgJnA/CLyCiCGHShUij0ASZJiYmKWLFni5uYmYyB2/Fy2bFlMTExB16UoAo2ICFAC4IVWq717926dOnUwVCkurqtQocKKFSu4uQw0SRaA5M2C5unLLJ+VQgL/CQkJy5YtEzcV5HQ+maqVyEvClkKh+PLLLxMTE0XmiGlqyMsUmdm/JdZITNOOJEl6NgI7Z86cbON3lSpV2rRpU2JiIvIjtIxogxlJLYpAw0omJSWh8mBfcnLye++9h+n24smnLi4uH374Ic8MBSqZkUfFsaj4+PgPP/wQA5zZuiElDGLgNBFi4BktWrSI6wmhQsVRlKbRjPoCNTAN+sGDB2PGjGHAgbuCKhSKGjVq7Nq1i/tk4920tDQz+npFDmhQSXH1I84Y1mq13333Hfd/oDtjbW39xhtv3Lt3T/R9XkKf0zTxv7S3MJEvICAADnNOnZeSBDfsdqGyM2bMwOGi0Cj8F+ugb56UhyEbDOdnZWVlZGScO3euT58+iArLdjho3br16dOngTVZWVniVKM8fTenzEUOaMQRIjH94MGDMmXKoAvAhkuhUNSqVQuhPuoTJqTmVOFX5z422Q0ICHg5QzyFiFmEUfpuc+bMwW7z6E3DLy5e5z3kU1FhDuwNYdg7IyPjxIkTrVq1EoVlZWWFlfFDhw7F4VYcTsknDeLrRQ5owCCQmJqaikMndDodkBgM4ix1Dw+PFStWwDPkqvniPoggiiefaUmSEhISxo0bh3XtdJtFPSvuaaAMNmTB9hHoR4N1bH4QBs4nP4vX6xhZY1QYHEhLS9u8eXPVqlXRJyBGq9VqBweHTz/9NDY2ljZYkrtOkCVdOFR19+7dcIzpHltZWdnY2Lz11lvx8fHYvsQSmpGZQUpKCsA3JSVl+vTp2a47Le4oA/rp4ZYqVWrevHnp6empqalseLiUCcPAMi6V1EugDEegNBoN1wmmp6evWLHC09OT0mc3ysPD49ChQ+JUTHPxpyh6NMRRRGqSkpKw4z/np2OqXvXq1a9duwbARt8bvgyZay4eFd9y0NPOysrKzMzEFlnUrRKZ+O6775KTkzmYgLYHLXlSUlLxlaNplNMcgDIsBINQ48aNk3m4wOs333zz2rVrcGrISb5rcqIoAg0ZhB7m3LlzRauAs+fk5PTFF19g+incHwa9TOZFSXqRq5DQr4TGrFixwtbWVmRmCUjDyXV1dd27d29KSgrGARhlYPehZIxkG6+irDg7j4zX4M7Zs2c7duwobsxIZViyZEl8fLwZUSYrK6vIAQ0VAuy4fv06RprYmUQ/vH379omJicbz3ZITHNi1axcXv1Cx0LKBw9A8dkaYpwgm2JuuUaPG0aNHCS6YumaReLYcEFdgbty4sUqVKvqS9fLyOnv2LHsJaPhlcx2zLdzAzaILNJgz3r9/fx5yjnOyFQqFj4/PkSNH2Pc2UD3LIxkHJEm6dOnS66+/DigRAYUb6OtrXmHdEVsXTmggMWq12tHRsUOHDsHBwRhjYmDCMr9BJndeov1GeCE+Pn7y5MlOTk6EbE7sHDx4MHaMEyfXZGVlmQziRRFo4LPpdLpDhw7Z29uLiqVQKBwcHCZNmkTPkBy0JIzhAPQsPDy8Z8+ezs7OooaBzxjslFk4RVBEEtj8wc3NLSAgIDQ0FEOT3P8BdTSGG69gHkYwca7Z1atXO3fuzGANGxs7O7tt27YlJyezw4UE3Zy8sq7IAQ20RKvVpqWl/d///R8sQdTvevXq3blzx9Jk5VXSyM/4l0ajWbZsmaenJ+cK6LNaZHtRSHP3dVtb25o1a3733XfcHAdYg34B6mgaf16Ft2Bi9P42bdpUvXp1fem3adPm5s2bYkBdfyDPeHYVOaAhggYGBsq2XMNQ/zfffENrPcrkowAAIABJREFUMb6elpwiB9LT06E0R48ebdSokZeXF/WMiaLj1IiUKJVKDw+PwYMHnz59Wgz9cuwWs/IyMzPF+lrSIgcAMZjXqtVqExISsOs2+cy2Z8WKFSkpKZxrAq6a1sYXOaDBnmwpKSn06Fh/pVLZrFmz2NhY9K3S09NF9lnSxnAAOE5d0Wq1MTExU6dOLV++PNSL3C4KLoxIg1KptLOzq1u37tKlS0NDQzEHAo0zGydxExxjuPEq50GnARH0oKCgdu3aKZVK9KFsbGygBg0aNLh79y51Bo2TaSBeFIEmIyPj0KFD+ntBODk5bd++nY6fJRhsgp2gwefIJWKoKSkpgYGBHTt29PDwwBwl6pxo6oWYtra29vHx6d69+59//om1b9R+BB0QpISr+wpOAjZeE2g+xGi4tytWrBAPn+AowZo1a5KSkgDrsDjT1ouZGWgkSTp58qSsy+Pn57d9+3b9eDWqKo5nI52YmChuoEf97tixIxbjmlZV44XxKuSkU4PKYufHpUuXYgffouDXYOGSUqksU6ZMu3bt1q1bFxUVJYqG+oOb6BFwFFbMaUmTA8QXBF+I12FhYd27d+eulTS6Jk2a3Lhxgz6jyfEvMwONVqsNCgpycHBgV1+hUNSuXfvHH3/kHsioKv9l2+VLkhQUFCRuso2ibGxs9u/fjwpzNhrZZ0nkhwPQHswfPX/+/OjRo2vWrJnt3iXUP3MlDCCaSqVyc3Nr1KjR7Nmzr127ZnFg8yPiXN/V6XQbN27Mdr+0TZs2cStC00Z7dTodgIarXpVKpYODw8GDBw0Qpsj2GZuXoKAgznyBOtasWfP7778ndhJi2KjiDvz51NTUESNG2NrailClVqvbtWuHgzLg9ViwJlspmHZTtv9jQkLCH3/8MXHiRH9/f/2V37KtZ3NFHEIJpgIyP++LyoebiPg2b958+vTply9fhpabVjXLW0ZyQJKkJ0+eDB482M7ODls+0QBbtmwZHR3NcXETEB9A4+/vD+lD4qYDDSjICWjQbMrgBlwQgebixYs1a9bkxCFQZmNjs2fPHjS5xClLB8pIHTImmyRJmDSBFao4xeXo0aMTJkxo1KhR6dKl0Wmn8hEvzJuwtrb29vZu167drFmzzp8/j/UT1BljKmLJYzIHJEnav3+/n58f4J6Ta9Rq9cGDBxEaMzn+FRgYKAKNQqGwt7c30aMB0Jw4ccLOzo7BJIVC4efnt23bNlmfkHghAlBGRsb06dPF3a0wH7RDhw7p6ekYU0CsB8pnMk8tL4ocoD8MWfAfOxCfP39+yZIl3bt3r1Onjr6DwzYqP4ijVCpdXV2fjXEMHDhwxYoVwcHBiD7iKAtKXKTZkjYvB4AgiYmJI0aMEKWMpqVHjx5xcXEQhAkNvE6nCwwMrFevnqgkJno0jOkCaMSmj0Ajggvys7FCv+n+/fsNGjQQ38XKpj179gDFGOrji+Zl96tZGrpORHxxOQxuZmZm3rt374cffpgwYcIbb7xRrVo1R0dHiomdIFGNjEmrVCoXF5fXXnute/fuM2bM+Pnnn7EjP5EFZ1fAaWdH+9WUUUHXGrYpSdKvv/5ar149mUwdHByCgoI4YS+vskDXyZxAo9VqT506JSKiQqGoUqXKt99+i5oQj5DgOCt2ANu2bZuPjw91FLWtU6dOQkICu4hEK7hIBS2AV6F8shRSIKaDw1Av8D81NfXatWubNm2aPHlyr169GjduXLlyZS5lELVTTFOg8E+dnZ2rV6/eokWLPn36zJw588cff7x79y7bSbQliMGhOeFJKa+CLAqrjmR1YmLiqFGjEGaFEPE/evRoWCsNOU+k/vjjj7Vq1WLj9GzfeCcnp19++cVAIdkHg+mhnDt3rly5cqJuubu7L168WGwwRVUG3RqNJiEhAUsoRR1VqVQrVqzAyBTmgED7OZZpgFDLIyM5wL4Secs7xCAkmCE9PT08PPzEiRObNm1asGDB2LFj33vvvc6dO7dq1apBgwa1atWqUaNG1apVq1WrVrNmzfr16zdr1qxz584DBgyYMGHCokWLfvrpp7/++isqKooeExpJXEKh4deQACPrYslmGgfoRep0uj///BOrukWgKVu27P379yGgvH5Cp9OtWbNGdiyHt7f3b7/9ZqCo7IGGivjs8LDGjRuLa22trKzGjRvHPh6VFa+w43f69Om6deuKLyoUisqVK9+5cwdAQyyzKJ8B8Zj8CDoktgF0P8FwAyUnJyeHhob+/fffx44d27t3748//vj9999vfvHbtm3b3r17jxw5cvHixYcPHyK+m1NR/BATOeW03DcvB2hTkiSlpKT069cP27/SY1CpVF9++SVUwvCnoUiEJEmS4uPjZ82aJZuk4+/v/9dffxkoyhDQ6HS6kJCQIUOGAC84otmiRYujR4/SM0etCDGIEcyaNUvcXhA1/Oijj5KTkw1QY3lk4YCFA/nnALoIcAIkSTp48GDlypWJMhgF9vPzwzbeOX2OhcDS6SUFBQV16tRJ7KkoFIq+ffveuHEjp6KysrKyBxq6G3FxcatWrcJQOffvcnNzmzJlyuPHjxnEJU0AnbCwsDfeeIMjaqihi4vLuXPnGIIyQJPlkYUDFg7kkwPABfQe4uLiunTpwi3fYY9qtfrw4cMGprAxoEHA0mq1sbGxc+fOdXd3F4FGqVQuXrw4NjbWAM3ZAw08Ja1Wm5GRcfLkyUqVKolwqFQqq1Spsnbt2qdPn2InYPrGoHvr1q0VK1YUX1EoFD179sQxgwaosTyycMDCgfxzgAENBMgyMzN/+OEHBlsRxFWpVG+++aYBoOF4Jbc3j4uL27p1a61atWSmXa5cuV9//dWwD2EIaDA2ERoaOmLECFnRSqWyfv36K1euDAsLA630r9LS0oYNGyZbIaVSqcTT8/LPSksJFg5YOJATB9DV4B56Go0mKiqqXbt2XGQLc3Z2dr506VJOhWDEEMfAY/Xc2rVrGzdujFMWGFpWqVQDBw4MCQnJqRzczx5oODCEOaZ79uzhdqTiB6pWrTp27NidO3eGhISkpaUBay5fvtyoUSPRs1IoFJUqVXr48CG7WoZpsjy1cMDCgXxygJ0MODWSJH322WcuLi7i5FuVSjV58uSc5tEAaNLT0x88eLBr164JEyb4+fnpOxzVq1f/4Ycf0tLSDBOcPdCw64QNdaKiohYsWFCqVClSSRyxs7Pz8/Pr0qXLsGHDJkyYMHny5O7du8tOHVKpVBMmTEhNTc3KyjLsXxmm1fLUwgELB4zhAFAGCMKNCm/evFmtWjWaMBI+Pj5TcvhNnjx54sSJI0aM6NKlS61atdhHwdar8GucnZ3nz58fGRkJODNAW45AA1oZBwoODu7Tpw96d0QZjEbhUq1W29ra2tvby2JOmA3822+/YRIXp3IZoMnyyMIBCwfywwECDa0YY8EDBw60t7eXWbF9zj87OzsO6cDMOS6kVCptbGz69Olz+fJlBJ5z8oxQkeyBBqNOAAV4N+np6adOnXrvvfdkZwllCzoy/6pZs2ZhYWGcoZcfDlretXDAwgEjOSCDG51O98svv5QuXRo2SwSBtYrTfGX2q3+JRf89e/Y8deoU9l3FtwwQZghoOF0dQ0vJyclnzpwZOHCgo6Mjj92kUwOow7+MsoULF3LZAVwkAwRZHlk4YOFAAXHg6dOnzZs3p29C4xUNloYs3pSlnZ2dBw0adPbsWZ6skF+gwftcn5Kenn7nzp2VK1c2aNCA5DIhowb37e3tOX2Gs9ELiI+WYi0csHDAAAckSVq0aBHGnrhpuUKhQLzGSKembt26X3zxxe3bt7EBA8CB41w5fd2QR8MAjRgbliTp6dOnp06dWrhwYePGjXF2jJWVFTt+MnKbNm368OFDmReXEzWW+xYOWDhQcBzQarVXrlxxc3PL1peBo6BWq2nCYsLGxsbf3//jjz8+depUTEwM9tgUIcIw2dkDDZCF+MJhaUwW1Gg0GRkZ0dHR//77786dO+fNmzdw4MDOnTtXrFiRlKEmCoVi7ty5T548EYHGMEGWpxYOWDhQQBzQ6XQpKSlt27blSiV0O1QqVePGjVu1atWoUaOWLVu2atWqWbNmLVu2bN68eceOHfv37//xxx/v3Lnz0qVLUVFRnL8HlEFcxUSPhj0uESCQloFOWlpabGxseHh4SEjIqFGjZGu3bG1tjxw5whNOsQFSATHRUqyFAxYOGOYApsasXbuWY9XwYkqVKrV8+fJ79+7dvXs3JCQEiXv37j1b6vjgwYOHDx8+ffpUPE4XM+bgiBjp1OTo0XD5Etc9oTOGb2A2sAg6kZGRHP+mO9OgQQOcj8fojOExMMNssjy1cMDCgfxwAAZ7+/Zt9p6wwNLKymrMmDGcBEyXAsNBABR8F48INMQa3DdAW/ZAA3DBy0BBIAXvMMG1W8ePH2/WrJlse+ApU6ZER0fLyDJAjeWRhQMWDhQcB2C2Go2GvSfGOmrWrInjj0TThlvAO3BecAnDN2YGDaqTI9CwtvwM74jAgadZWVmrVq3CQkr0+uCS/frrr0lJSaLjw/wszZKwcMDCgZfGARjgypUrGfpFwsvL6/fffxdNVTa3VoYDvDSyj5I70IgsgKeEbwBuQFl6enpAQAA6fpwIVLFiRcwaxFuiTySWaUlbOGDhwMvkgCRJ9+7d46g2gMbZ2XnixIkwbUmSML3WjFTlDWi41y/7VvCdwsLCunbtCor536tXr/DwcBGV6ImZsQKWoiwcsHDAeA4QSmrXrs1+EyIeDRs2TE9PpzNhfJnG5Mwb0DD2IwINDrRs0qQJ6Ubis88+i4+PJ7ighli6bgxlljwWDlg4YF4OsFfxLO47e/Zs+gSYsFe5cuVr165haJjWai4C8gY0HIECHRyZ2rhxY/ny5Um3QqGwtrY+dOgQhtxlvTjZpblqYinHwgELBwxzAIGOrKyszMzMM2fOiOFUhULh6uq6YcMGTEYR+y6GyzTyaZ6BhuXSu3nWo5s1a5a42PLZNle1a9e+ePEiM9MDsqCMyBNL2sKBl8wBODVZWVnJycm+vr50DqysrGxsbIYMGVJA9OQNaMTxLfaJIiIiBgwYwLkzCDKNGjUK5znQ92GigGpiKdbCAQsHDHOAhwvCeGG2wBqEOxo0aPD48eOCmFibN6ABWHAzUfhg2BUd5HLR05dffvn06VN6PUXKkUEtKBIiYJEikuRZEsWRA9QxSZLS0tISX/ywo0IhVgdUYWKeTqfbtGkTPRokKleufOzYMRJvRlLzBjTY4lOcdCxJ0vbt22V7/Nna2v75558FgYv5qTlxBPAn9uYwVE+vsiAYnR/KLe8WfQ5AZ/iPaIhWqw0ODp4+fXqdOnVef/31Tz/99MGDB1SzQqmUGOsNDQ3lhnsAGg8Pj3nz5tE0zEhhnoGG8WCy8tNPP8WMZtCqVCrr1Klz8eJFGrYZyc1PUSCYqpCenp6cnIyjbRD6Sn/xAwwVNeLzU3HLuy+BA1AhuvBojENDQ3v37s2ZZTY2NgsWLIiMjCws7aLyY21BWlpanTp1RKfGzs7u3XffpWmbkW95BhqMNHGcLDk5ecyYMSKtCoVi4MCBd+7cKSxuGuAOiY+IiPj111+/++6748ePP3nyJCMjg4dpmT3eboAey6OSxAGYMeOYmZmZP/30U7169RC1xBBPjRo1zp8/j5wvv+4ibaBh9OjRMuP19/ePiYkxO4UmAg0cMI1Gc+PGjXfeeUdG6xdffBEbG2t2WvMpGLQ2Go3m7t273bp1e9a8KJVKJyenoUOHhoeHYxt2IFFR6/Tls+KW118OB9BEcfmPVqtduXKlOO1DpVK5uLicOnUKLsPLoUr2FUz5BZGSJO3ZswfGyz5UpUqVjh8/npmZKXsxn5d5AxpgB3FRo9H8+uuvWEtJrFGr1fv27eOi8nzSZ8bXEXJPSEhYvHgx2apUKkuXLr18+XIE6uCpYZ26GT9tKepV4ADtguuQV69eXaFCBXGlsa+v75kzZwoxTINGFIeya7XaiIgIzrOFCXt6ei5dulS20Cn/4ssb0ICVCAmDlPXr18vOsfT19T179iwgqUj1njBYFhkZ2aVLF54jrlAobG1tR44cKfaxi5ovln8xW0ooaA5Q4ZHA8MJXX32F8yHRb1Kr1WXLlj19+nQhejQkjwzhobJAHDs7u/fee6/wgQZgDMR5hovz5s2TbXbVrl274ODgQmQlOShLaLXalJSUqKioDh060P/C9J8+ffoQQwsi5C6jxHJZ8jjA8B80H/YMoBF38vfx8Tl79mwhejQcOCYy9uvXD+YAoMFue0+fPjWvjPLm0YA4uogJCQmjRo2STWQeMWIEQh5Fyp3B2XU6ne7Ro0edO3dm1wmBuoEDB4qHEKOa5mW0pbSSzQHqDA1YP0ajUCiqVauGYHBhcYPGC58rMzNz7dq1YrurUqmqVKly4cIF81KYN6CRjW3fv39fFglWqVSLFy+Oi4sj381Lbv5Le/z4ca9evUTOqtXqAQMGFFmC819lSwkvhwNQITr7kiStXLkSXSfqW+3atf/+++9CbIM50IFwLxY9kTw4DWXLlt26dat5e0+mAA2Gb7Ra7dmzZ9u2bUsqEfTatm1btmspX46wc/2KBWhyZZElgwkcoCMjJhijoY3UrVu3cKeYEWiYiIiIsLe3J4VYXTlnzhzzDjyZCDTAmj179tSqVUsksWzZskePHsXTQoRtA4piARoDzLE8MpkDIr4w/eWXX4oLFxUKRYMGDf75559CNA2GkJCQJCkxMbFp06ZiAMTKyqp3796F6dGQg0isW7fO09NTBJpWrVqdO3eOlSlEhuakMRagyYkzlvv54QBNg0EQSZKWLVvm7e0tGkjTpk3//fff/Hwo/+/CPBEGwQjJ+PHjxUXRCoWiRYsW0dHR+f8WS8ibRyNyU6PRLFy4UDzvTqFQDBo06MaNGxyZsgANGW1JlGwOwDTEMR2tVrtkyZIyZcqIQNOqVaurV68WFitEDwC2qdPpMjIyNmzYwJ094drUrl37xIkTZqQzb0DDoV+tVvvkyZNJkyaJTFQoFB999BGWchCSzEirWYqyeDRmYaOlkJw4IHo0ixcvlgFN+/btr1+/ntO7BX2fvgwj1hiVP3v2LA0ZA7IVK1bcvHmzGenJM9Bwtt7Nmzf79esndu0UCsW6deuSk5OJ7mYk1FxFWYDGXJy0lJMtB2DDaJI/++wzEWiUSmWnTp2Cg4OzffHl3BRxkA5OVFSUo6Mj59EoFAoPD485c+aYkSQTgUaSpJMnT3bs2JFAqFAoSpUqFRgYiH5TEew0Af5iYmI4QwnEW4a3zaJPGAHgBIicyiyCjRA1lr0Jai8a/JzqIruPqtGSdTqdftepc+fOwcHBLF9Wwku4JHn8lk6ni4uLq1evnrgWwdbWtl+/fqiR/j/fNT5hCtBAmfbv39+gQQMRaMqVK/f7778XIhMNVxv8evLkydChQ0WyLUBjmG/GPKWNiRNksaCGQ5C8xFr51CLzS09PT0pK4l65aOe5JAWDL6igYVaIBolCFi9eXLp0aVHZunfvfvPmzSJlIzqdLjExsW/fvuidsI/Stm1bHMpGx4cJw3zI9qmJQCNJ0ubNm7lKAqxs3LjxuXPnKBImsv3wy78JeixAUxCcJ5oAaHgwEC+1Wm1kZOTevXs/++yzKVOmjBo1anSR+Y0bN+6DDz4YM2bM1KlTFy1adOjQodjYWAANTIuHkBieWgIFE/8XLlwoG5Z955137ty5UxAiyE+ZaWlpc+fOFbtOGIm/ceMGptugUoUANFqtdvny5c7OziJa9+jR48aNG6CJYeP81N+874IwC9CYl6soTVREmCiWdOD/yZMnu3btGjFiRP369d3d3WUjlaIKFW5apVKVKVOmadOmw4cPP3ToUHp6OnpV3Fohr0Azf/58d3d3sVJ9+/a9e/duQYjA5DKxq8HWrVtBJztQNWrUOHr0qNivhJRNc8dM9GhSU1NnzZolrhhSKBRjx46NiIggHUQck1lg3hctQGNefspKw94IaPQQCADiPDsU8ZNPPqlZs6aVlRXdctH2ilQaKq1UKv39/RcsWJCWlgZL4wYuBrCGdojEMybMnTtX3HwSe8Ldu3dPxrrCvYTXeerUKZkgfH19N27cyLrArnFpAsF5Bhp86fHjx/ob682bN+/JkycEGhOoKdBXQLnFoykIJqPrBHyhM6vT6UJDQ6dPn16uXDm0k0qlUlzKLNPswr1kS46EWq0uXbr0/PnzU1JS2DHUaDS5zpelKT7blmT27Nmurq5ivYYOHcrTQQpCEKaVqdPpbt686eLiIpLq7u6+cOFCRvcLAWgkSbp582bv3r1FsqysrNasWcMNMU2rcIG+ZQGagmMvWkVwGHCj0WhiY2NXrlwpC1IUQadGKfyo0qDTx8fn22+/JdDk6s4QZJGYM2eODGhGjhwZGhpKMCo4ieSpZJ1OFxER4e/vz+orFAo7O7sPPvgAi7wZyDeZchM9mvPnz3fq1Emctuzg4PDDDz+gT140nRoL0ORJ+fKUGaaIWAbTQUFBsnFJUY+LVJruDKjipVqtrlOnzt27dxHeRmcwW87QApHAv37XacyYMWFhYcycbVEv/6ZOp3v8+HH37t3FzQCVSmWvXr3S0tK4/DI/ZOcNaMjE33//vVGjRmLrVLVq1QMHDnDD1PzQVECMhgE8efJEtiGzWq3u06cPq1ZAXy/ZxYJ7DBxKkhQVFbVgwYIiG/c1HuZsbGw++eQTuGxQ72xFSf1BAm7dRx99JBswmTBhQnh4eLYlFOJNnU735MmTgIAAsgWm3b59+/v375vFqE0BmqysrH379tWoUYNkKRSKxo0bHz9+nKoGdhci7/Q/DaB5+vTphAkTRMoVCkWvXr2oH/ovWu7kygGKGwmdTnfx4kXZToYynheXS2tra39/f2wjbdhVZ92haZIkTZs2zcHBQaxpQEBARERErvx8yRkwlWbZsmUiqQqFomnTpufPn4cfx9qZRpspQKPT6bZu3erl5SWS9eabb547dw5AYxopBf0WgWbixIki5QqFokePHmiC0BctaEpKXvki0GDg6dChQ7LojIznxejS1dU1JCQE9TIgOygYWAF1mjJlimyrlylTpjx8+NBAIYX1KC0t7aeffpIJpW7dugcPHuTmk5SyCUTmDWi40Onrr79+5lKKZA0cODA4OJhelhgVM4GsgngFbIqLi9NfC9q9e3dApAVoTOM8VZBdjJ9++omRDlFPimPa3t7+zz//ZB1zYpEMaHQ63eTJk0uVKiVWecaMGZGRkTmVUIj3NRqNuLQSNFepUmXDhg3Yxy6fFp1noNHpdGlpaUuWLBHZp1AoJk2aFBYWBiDP50hYAbEbemAYaAz7xgVEWAkolkYIoNFoNP/5z39kGlJ8L+3t7X/77TfWMSd5QcFoAtkCzezZs6OionIqobDuQ2p37tyxs7MTxVS2bNklS5aIrlyuTMipCqYATUxMzIcffigS9Gwzi08//fTJkyegqYgDjRj0Qi3o0YCPFrjJSV0M3yf3JEkKDAwsAZFgxEQdHBwuXbpkuO5s8EWgmTRpksx0582bZ94NpXKlypgMAJrw8HDZDsdOTk4BAQEAUJTzUoEmJCRk5MiRMqD5+uuvMYmGVmoyTcawxoQ89GhyApp8stIEkkrYKwQanU4XFBT02muvyZSkOF7iMKaEhAScV21AZKg+gAb/48ePt7W1FWu9YMGCx48fGyikUB7BNB49etS4cWORWisrq379+jFGQzA1gUhTPJorV67IdlpQqVRbtmxhJFj0tUygqYBegR7ExcXpA023bt044xPZCoiGElysyDdM6ZStkhc1uBilraysevbsiSlCxoTwwAeM1IwZM0bm1i1atCgmJqaoqQFofvz4cefOnUXRKJXKrl27pqamsqciSjlPtcgb0AD5zpw507lzZ3ESjYeHx86dO0mNGBLOEzUFmhk8wvC2SLxCobB0nfLJeSgGOIz2Ji0t7ccff3R0dBQVtzimnZycDh8+TN02wCgZE7Ra7dixY2VA88UXX5j9bDYDJBn/SKfTxcTEjBo1Siaj9u3bYwGjyRADGvIMNDqd7tixYy1bthQJqlChws8//ywyumg6NVlZWU+fPg0ICDAANMbLxpKTHIAW4p99h7t3744YMUI8fVipVBbZoShxhTDT9vb2/fv3z8zM1Gq1GHxJS0tjrWUJ0RSh/2PGjLGyshIt5csvvyyyQBMfHz9jxgyRWoVC0bJly5s3bxqDszJuyC7zBjTopO3bt69WrVpYIAKy6tWrd/z48aysLPaeZJ8pOpdxcXFTp061AI15JSLaGJZxo9W5cOECTv6SMVymzYV7KWKf+sWPa2vq1q0bFhYmdquZzomBIitGjhwpFq5QKFatWhUfH5/Tu4V7Pzk5+YsvvpDJomHDhqdPn841PpUr5XkGmqysrB9++MHX11cEmpYtW545cwazbMBohoRzpeAlZ4iPj//www9lei92nV4yPSXjcwAXsS6cTnr69Glu+UozlmlzoV/C7+DUMFz6+/vHxsaiccVAh4FFlaw7HDrYwuDBg2VVW7t2bUJCAjMXqUR6+v/X3nWHRXV0/buAIKKgFDtBlMArQVGJEgVUpKhIxIrG3hNLLGBF1Ng1tojlNcaGNRoFJUaNYi9YgqAUBaRIR0DaLm338nx+nCfnmXcWkL3LLhfd+WOfubNTzjlzzu+emTul5Pjx4xTBlpaWly9frgegYVn20KFD1CkbgwYNCg0NJYdOfAYaHx8fFdAoQsVxtR68bD6ckwD78ZKTk5ctW9a2bVswYDU1NUr+lHIr+ZFyOhiGadas2Zo1awoLC8vKyuB4PeCoBntDR4YEmokTJ1K8HDx4sLCwUBHCl7/O8vLyK1euUAR37Njx5MmT8puzzB6NWCzes2cPtbB61KhRUVFROJBDocvPfB3WAFTl5+evWrWKkqbKo5ECcNaMAAAgAElEQVRTziBbVEexWFxSUgJ1wutHIpEEBwfb2NiQUzZUL9T7I8Bfs2bNnjx5Ao4MqLRYLAaIqUGx8S8UBcuykydPppg6cuRIUVGRnNJWUHGJRPLw4UN064Dytm3b7tu3T/4WZQYaoVC4adMmnC0DaqZMmRIfH49AgxqGmic/ofLXABrwwXFdvXo11f0qoJFTvKR1AbLgkREwjSoWi+/cuQPfEMhBN9UR9fKI9KCfBadtAr4AazD5CC5bzbKC/ODNSXs0/v7+QqGw5hrq61+WZcPDw6nt5gYGBps3bwam5CFMZqB5//69j48PzpaBZnw43hnujUOswWGUPMTVbVkQ1keBRn6Z1i3ZDas2nKzBA1xAJSoqKq5du9a1a9d6gZLaNwoO18OHDysqKmDcB0AJDs5HZ4IhGwhBJBKNGzeOavrkyZP8PBwO1D4iIqJ169Ykzbq6ur6+vjge5KyNsgENy7Kpqamw+5kc2S5dupTcf4DwzyuPBmRU5dAJViWBrFVAw1mZqiyI8vzjjz9MTU1JJeZbHFUaPqFWyU4NiaT+fDgjoqioiFrXyjDM6dOn4WzQGuqpl7/AWYuOju7RowfZL40aNZo3bx74DfIQJjPQJCQkUAdHMQyzevVquKCS9GhQw+Shr87LVgk0bm5ueMEmP8muczkorUI0v5MnT1JvS1KheRW/dOkSB/lQmiMUCqWB5ty5czh7xaEJhRZhWTYuLs7e3p7sCzU1tenTp9dw4lctSZINaCQSSXR0tPTIc+vWrbCcCbdFoHrVkg6lZasSaAYPHlxQUIA089ARU5p8FNEQvA9/++03avxPKjSv4v7+/vLIARQJbmWj+AoMDCwtLZWncoWWTUxMHDJkCEXzd999JxQKa7P9ogbaZAMalmWfP38+cuRIkhQNDQ0/Pz9QJlywR6F7DRQo+a8qgWbQoEEf0nlLs5JFVOfNgW7s3buX+qJBahF/4gKBwM/PTx4hAL/Z2dmUpTAMExQUVJvFOPK0zrksy7LJycnS80qjRo2S/3YT2YCmoqLi4cOHAwcOJNWiadOmBw4cIN0BEDQ//YKagYZzJ6kK1iABmBzdsWMHftYh9YeH8S1bttTAzkf/Av3PysoaPnw4xV2dLH77KAGyZkDjTUtLmz17NkXz0KFD4Zxjed7EMgON9EYnQ0PDo0eP4scFiOCjrDwrOn91QFNQUKDopj/b+lmWFYlEGzZsoDSYt4+bNm2S5zUJBpmRkSENNNeuXZNzDKIILULPICMjY9myZVS/DBw48NWrV/hBjRsBMgPN5cuXu3XrRpJibGx86tQp3LHN509OFRUVVQKNao6Gm/bUvlSVYie1iFfxLVu2yA80qampHh4eFF/BwcHy1Fx7gcuUE4Hm3bt369evp2h2dHR89uwZoCdnlJQNaFiWvXjxoqWlJUmKmZnZH3/8AV/a4SMZD0WJeJyfn79mzRqSfoZhBg8eXFhYSH4yk6mfVJk/KoHs7Ozly5dTYufno5qa2vr16znoMA5AwBaSk5Pd3d0pHm/dusWh5o+KV84MCDQ5OTk7d+6kaLa3t79//z5yx60tmYHm7NmznTp1Iknp0qVLUFAQt+aVWQokVVBQIO3Du7m5FRYW1mY5ljIJ/pTayszM9Pb2JtWGt3ENDY3FixdzED7gC75xk5KSqgMaUEUOTSi0CMuyeXl5hw8fprrG1tb2xo0bnH0ZoFlmoDlx4kS7du1IUmxsbK5evapQEdRh5QUFBRs3biTpB4+moKBABTR1KGeqqgYENGpqakuWLOHgd5BAI5FIEhIS3NzcSE1TV1fH2xQ41E+JtM4f4XanEydOkDQzDPP1119fuXIF/X1u7coMNNJbt/v06RMcHMyteeWXKigo2Lx5MyVKnKNRPj2ffIvw9k5PT/fy8qLEzs9HgUCwbNkyDi9w4BQ9mjdv3lAnY2pqat65cwdH8XzrepZlhULh+fPnqX7p1q1bYGCgUoGmoqJi//791FU1jo6Od+/e5ZvUqqOnSqAZNGgQb48jqo6RhpIO4/+0tLRFixZRGszbRx8fnxpOhKhO8gA0+Pv69WtXV1eSxyZNmvDZUliWLSkpuXr1KkkzwzBfffXVmTNn5HTBZPNoKioq/Pz8qNMJXV1d4dSr6jqAV+lVAo2rqyssSZJTmrzilCfEoEfTgIDmp59+khNoJBJJZGQknvgFpqujo3Pv3j2e9Is0GbDc6e7duxTQmJubHz16VE7TkA1oJBKJ9LIrd3f3p0+fStPNz5SCggLp2++cnZ0zMjLAJHjr2fJTnrWkqgHN0TAMs3HjRg52hd9uIBIeHu7o6EgarZ6e3v3792spMeVnA7KfPHlC0swwjKmp6X//+18OAiFZkA1oysrKpCc4RowY8fz5c7JSPserBBonJyc45gKkiYjDZ0YaFm0NC2i2bt3KQbyk2kgkkrCwsP79+5NGq6+v/+DBAw41K60Iy7KhoaEkzQzDfPHFF7DHSB4yZAMakUi0bt06ig5PT88XL17IQ4TSysK8ujRWOjk58fPqdaVJRtEN5eTkrFixgtIc3j7u2rWLwwscgAZ/nz175uDggDwKBAJDQ0M46UbR0uZWP1AeHh5OXXpnbGy8c+dO5Itb5bIBzYdVbb6+vig7OP5q/PjxkZGR3JpXcqkP1yHn5+ergEbJYq+oqCgsLJReJ0kqEn/iAoGA20gBTRFAKiQkpE+fPshXQwGaFy9eUJvs27Vrt23bNjmnFGQDmry8PGorhEAgmDx5MmyFUL76ytpidUDj7OyclpYmpyhlJeazyl9cXCy9fAmNkFcRgUBw7NgxDr1DAc3Dhw979+5NsmZkZMR/j+bly5fU1QOtW7eGXabAIAfJVFRUyAY0OTk50us7p06dGhsby615JZdSAY2SBY7NicVi6c8IpBHyKh4QEICU1z5CAc29e/d69epF8tWqVSs+f58F+iMiIoyMjEiyjYyM1q9fL+drWDagycrKWrBgAUmEQCCYNWtWfHx87fujHnNWBzQuLi4qj0ah/cKy7P79+xs3bkwqD6/i5BEWN2/e5DxHgwZ5+/btr7/+muSxffv2ISEhCpWz/JVHRkZSS//19fXXrFkjZ82yAU16evrcuXNRdtA3c+bMefv2rZx0KKd4dUDj7OycmprKQbeUQ/an0Yq/v7+hoSEqD98iJNCEhYVxUAYcWUDkxo0b1Pm7HTp0gItc+NyhUVFRHTp0IHunRYsWvr6+ctIsG9Ckpqb+8MMPJBEMw8ybNy8lJUVOOpRTvDqgGTBgQHJyModV58oh+xNohWXZ8+fPd+zYkVIeHj6qq6snJCRwkDkFNNeuXaMOVOnYsSP/V5xFR0ebmZmR/aKnp+fj48NBIGQR2YDm7du306dPJ4lgGGbhwoXp6elkpbyNVwc0jo6OiYmJuBgUNYa3jDQ4wiQSyV9//dUgrlvR1NR89+6dPBIG/bly5Yq1tTVpLJ06deI/0Lx69crc3JwkW09Pb8WKFfIIRObJ4MTExGnTppFEMAzj5eWVmZkpJx1KKA4LH8kFe3i9Rr9+/d68eYPesgpo6qo7QJLwe/fuXTs7O3KEQikSTx719fXfv3/PQQLAJm6qvHjx4ldffUUyxVuPBrtJIpHExMRQ+Kijo+Pt7Y3WwUEyMgNNfHy89L3l3t7eWVlZ3JpXZqmPAo0yiflM2iI1ODQ0dNCgQby9EhffOlZWVtx22FJAc/78+c6dO5NAY2Zmxk+Phuym2NhYamqpSZMmixYtUirQxMXFSR+Svnjx4oYFNFu2bIH3KupWv3794MMZSPwzQQElsElqcEJCwoQJE0jD41Ucb3l2d3f/cJ0pB+FQQHPu3DkLCwuSRwsLi2fPnnGoWdFFyG7iBdDExMRI34m1ZMkSOce0ipYj1A/SLCgo2Lp1K3Q/uvEqoFFQF6AGw+yYt7c3gjtpgfyJCwSChQsXikQiDgKhgObMmTPUrKqlpeU///zDoWZFF8FukkgkfAGaMWPGUGrRgDwa2Ov0888/Uyz0799f5dEoSJslEgkcXQhb/w0MDPiMNWpqaufPny8rK+MwUiCBRiKRHD9+nPrK1qVLl9DQUAXJWZ5qVUAjj/SqKAtAs337dgpoqMngKkqqkrhKgFTi69ev29nZUcLn1WOrVq1SUlJKS0s5Aw3CzZEjR0xMTEjuunXr9vz5c8jAVZwKKUf2EX89moYyGQxLNgsLC3/55Rey+xmG6du3b0xMjGodTZ1rMUzAg+QlEglsYaEOTqP6QvmPOIJmGGb27NkikYjb9dhorsD1b7/9ZmxsTLLTvXv3sLAwHl55hpTzeujUUIAG3lFFRUV79+4ldYthGAcHh+joaNU6GkUAjVgsLi0thdu+xGLxpUuXqIX5pCnWb1xfX//58+fwfZqDKNBVgUuHfv311/bt25Mc9ejRQwU0tRJsTEyM9BzNkiVLGspXp4qKCgAasvsZhunTpw+56hw1plZCUWWqUQIwRyOuDBKJJD8/f8OGDbq6uhTWUz2inEekAaaN/Pz88vLyWJbldj02+gXg0ezZs6d169YkI9bW1qGhoTzULpLymJiY7t27k2Q3a9Zs2bJlcpIt28rg169fe3p6kkQwDNNQJoPBHKoEGjs7u7CwsBrtRfUndwkA1oCnIJFI0tLSJk2a1KhRIzjPiFInJTw2qgzQEM5ML1q0KDc3F6dmMCIr22CQEolk9+7dLVu2JNnp0aMHzNHIWqcy88fExFA7J3R1dXkBNA1l6AS9VQPQyInZytSGhtKWRCLBASnM1JRXhpSUlMmTJ+PSFYZhyDhpnB+No1fy0Zw1ZJg2bVpqaqpYLC6rDJxRBrduSySS7du3GxgYkI327NkzPDyct30H+h8TE0PtFIEtCHJah8qj+X9NAI9GTlHyVoHqlzCQqkQiKSsrgwva4ff9+/c+Pj7t27fX1NQkrbFO4mpqajUDkLq6upqamqamZuvWrbdv356ZmYn3FgHBnG8ThOIsy27evFlPT49k55tvvuHzobcw4nv16tV//vMfkuzmzZuvXLlSTuuQGWioORqBQNBQ5mjA3qr0aGCOpn4N8pNsHaZFcVkK7gOCSGlp6f3790eMGGFkZKSlpaWpqSmrXyOoDKRVVBfHnAKBQF1dvXHjxs2bN//uu++ePXsG5AmFQsSa8vJybtM0FRUVyOPatWt1dHRIeuzs7F6+fMnbjobOio6O/vLLL0my9fX1V69eLSfZ8gINwzDe3t4NYlMlSKpKoPnmm29glk5OaaqKUxIgP2/DtUGlpaXl5eUwpBKLxcWVISIiYteuXcOGDevataupqWm7du1atWplaGhoYGCgr6/fvHlzHR2dJk2aaGtrAx41atRIszLAbAs8amlpNW7cuEmTJjo6Ok2bNtXT02vevLm+vr6RkVHr1q3btm1rbGxsZWXl6Og4Y8aMY8eOJSUlASUlJSUAMfCILgnFSy0fAWg+II6vry911WLfvn0jIiJqWY/ysyHQUOsMDQ0N165dKyc9dQA0CxYsgOPp5CRFOcWrBBpbW9unT5+q1tEoogvAbsvKykpKStCGYfQEgykAoPLycpgZEQqFSUlJT548uXz5sr+//y+//LJp0yZvb+8FCxbMmjVrwoQJI0aMcHNzc3FxcXZ2Hjx4sJub27fffjt8+PAxY8ZMmjRp+vTpc+bMWbp06fr16/fu3fv7778HBweHhYW9efMmNze3tLQUehkpgQjQA3GAGzk9moqKiuXLl1Ojwn79+kVEREArihC1nHVCR0RFRVHrDFu2bLlhwwY5K5cNaKjP2zAMnjt3bkpKCtVzcpKliOKgx9UBzZMnTzgPyxVB7SdTJ8yw4pgCv0Ahg2Dk+FhDBPwj6n2AidXN4FZp2GQirqDDCLcFe0A5ejRLly6llibyFmjQeMvLy6Oioqh1hq1bt960aRMpsRr6qLq/ZAOahISEyZMnk+M3WEyZlJSEQ1OMVNdkfaWDggLQ4EdN4KVXr14hISEqoKmvrvn02v2wiXThwoWUpdjb2798+VJOi1WErACsYegUGRnZtm1bkvK2bdtu374d96xxI0A2oElMTJw6dSq1/GHmzJlv3rzBFVlAbnWvF25U1lUplmWLior27dtHfZLo2bPno0ePqFdlXTWqqudzkADCB0TEYvH8+fNJc2UYhudAA9/mX758Sd2C0L59e7hRD3nk0KGyAU16evqcOXMooBk7diyOPHHsDV4o3+CGZdnCwsL9+/dTGtCzZ8+HDx+qgIaDAqmKgATQCCFSUlIClkJqGm+BBpf/sCwbFhbWrFkz8vOfiYnJnj17YKTC2UZkA5qCgoKVK1cKBAJy6DFgwIB79+4BxOAvOmO8UkTYvX3gwAGy+xmGsbGxuXfvHt9gkVeiUxFTSwkA0BQVFc2aNYtSM54DDQyOHj58qK6uTrr8ZmZmhw4dAr6UBDRisXjnzp2ampoANEBNp06dzp07B58t0VZ5CzRFRUWHDh2iNKBHjx63b9+upSapsqkk8FEJ5OXlSR/jD5+3ccr5o5UoMwMYbGFh4blz5yjrsLa2DgwMRJeNG1WyeTQVFRUnT56EPam4AkpbW3v79u0ikQh26AJBEOdGk+JKsSwrFAqPHTtGibJbt27BwcGKa1dV8+cjAdD/7OzsKVOmUGrWv3//iIgIHgIN0MyybGZm5ooVK6TJhsUf8syHyAw0t2/fdnBwoEgZP358XFwcejEQ4aFAKyoqRCLRyZMnKfqtra2vX7/++RiDilPFSQCMNjMzc+LEiaSaCQSCAQMGREZG8tAu8APO69evpU8mGzlyJGzRUB7QsCwbHx9PDj7BrzEzMwsICMBzyXDeCJESh1SK6+CP1gw0iESiU6dOkRrAMIy1tfW1a9eA2o/Wo8qgkkANEgAtSk1NHT9+PKVmTk5OkZGR9ahm0DQiHeALzATDisqgoKBmzZqRZOvo6Hh5eZGDFW62LJtHw7JsSUnJnj17dHV1gRqYptHQ0Jg/f35iYiKQTn7qJnnjRmINnSrTX0AJeDTkZDbDMN26dbt69Wo9aoBMjKgy81kC8JZNSkqSPsbfyckpKiqqHokHiAGHAL7bwIJsSM/Kypo6dSp86sHJ4I4dO548eRIywC83K5YNaGB95927dwcMGACb0zQ0NMBoTUxMjh49KhQKccMIuXKPjHMjtE66h2VZkUh0+vRplCPAZdeuXf/66686aUJVyWcuAVD1+Pj40aNHk64BwzDOzs5RUVH1qP9lZWWwjR5/wZ2RSCTFxcVBQUFwdDyYNpzd4eLiEhsbC2tZ5XkTywY00FJOTg7sTCX9AoFA4OrqGhISAnthSQgEzYMUYKy+dBGA5uzZs5QGWFlZ/fnnn/WoAfUlEFW7dS4BAJqYmJgRI0ZQaubq6lq/QANbvfCtD0cFAehER0cPGjQIlsjhdx4jIyMfHx/wgNB+uUmMC9BIJJLbt2/D9aZIk0AgaNSo0cSJE8PCwtAfA5aQRMCperRnlmWLi4svXLhAaYCVldWlS5dgjYA8sM2tD1SlPiUJgP5ER0d7eHhQaubm5vbq1at6VDCwRzBPPLGUZdmMjIyZM2dqaWkxDAPeAwyg7O3tHz16BPMhaMvcOks2oMGtcbm5uT/99NOH/eM4BoGIrq7uzJkzo6KiqhtA1SPKgIBKSkqCgoIoDVABDTftUZVCCSB8gEFGRER8++23lJp5eHjExMRgTiyrtAg1zgBSs7Ky1qxZo62tTa4GZhjG0NBw3bp1cEwPvIPl2e4kM9DAUYwsyz579mzkyJGwPxXhhmEYPT29SZMm3blzp6ioCPf+41Cw3oGmtLT06tWrlAaogEZpuv6pNoTwAdb74sWLIUOGUGo2atSo2NhYdPDrRRQ42gCn4c2bN0uXLm3RogXeia6hoQGjExcXF7gaBD45oUfDzYRlAxpcIPPhuI3S0tKgoCAbGxsSZUCyGhoa9vb2W7dujYmJEYlEQBl+IeO8irlOOqa0tPTGjRuUBlhZWQUFBQGdwGOdtKWq5DOUABhkeHi4NNCMHTv2zZs39Qg0cN4YUCgUCn///feRI0dqa2vjBAhMAKupqXXu3PnChQtkfrRfJQENIDc0lpubu2/fPuqEURzmtW/f3tPTc9u2bY8fP87Pz6fcNlBBsjaZlBJfILKWKikpuXfvHgU0Xbp0CQoK+ugcTQ2NSv8lnfJRUqki+IgRcAzxEUSK+IgaABkohcZSFBmQjr/Uvw3xkWQfZVIDI9VJRrpIbXLCiyoiImLo0KGkmgkEgkmTJiUkJECGKquqjloyM8Sry0lpCMUCqERaWlpgYKCXl5eVlZW0l8AwjIGBwY4dO4qKirBdbLSGdqm2qEfZPBoojGcXicXi5OTkbdu2UYeMkvJt2bKlnZ3dxIkTfX199+/ff+HCheDg4NDQ0NjY2Hfv3sEnKmSDsg2SVugeWKGD+WViG0qVlZU9fvyYPJFIIBCARwNIj5WTrUMc/4IImaE2KWR+jJN1UgQgjpCVQ5zKSaqXdCmyCSonLKYgM5ByxqqQWpykQwLgL6oG8pEsq5w42TpoCDAFNCNTqDyQHyWD2TBC5cT8WARSUCYsy75+/XrkyJGkITAMs2jRIji5iaRQLBbDhCbUVqWIqmwRc6I9IrOQXywWC4XCjIyMly9f3rhx4+zZs35+fosXL/bw8LC0tITT/6RPcdfX1/f19c3Kyqrb45lkAxoEY+ANDk9LTEzcvXu3ubk5JVbyUV1dvXnz5h06dOjatautra2Tk9PgwYNHjhw5YcKE77//3tvbe926ddu3b//tt99OnDgRGBh4/fr1Bw8ehIeHx8TEpKSk5OTkCIVCsApQFFQXFDdGyF7BROxFiUQSHR1NAg3DMPh5G6tF3aKUiVQRqnIsglIiM1QXJyusIY5KTNIDiSAWMp2EDzKdqh8NCbnGzNgcFKHSyX+BL6pm8rE6xhWXjvKniCepwr+QNfJfacnAv7VhHPK8fft27Nix6pUBDEEgEKxZsyY9PR1WveJIBNv6qECQQqAZiSkuLs7KyoqNjQ0JCQkMDDxy5MiOHTt8fX3nzp07fvz44cOHu7i49O7d29ra2tTUtGnTpjg+Ii0U4gYGBitWrHj79i1U/lGSap+BI9BAX6LlZ2dnnz17tl+/fhxuBVNXV9fW1m7RokXLli2NjY1NTU0tLCw+uBg9evSwtbW1t7d3dHR0dXV1c3Pz8PAYPXr0pEmTZs+e7e3t7evru27duq1bt/r5+R0+fPj06dOBgYGXL1++efPm/fv3Hz9+HB4e/vr166SkpLS0tKysLJFIBCsCEhISqJsSbWxsbt68CS8W7HgSOLCPKSXGPGCrIHcqM/kXZkAtIbsK4Zu0fMoSyPyo/UgGmQJxqjhJG/CCbVGV4CPSjJVjv1N5SNqoUlS7ynysgSrsBZIeVAD8l5IhVkgJBNLha0l+fv4PP/wA5y3g8OTQoUOFhYUVFRXkN1l8K1DVwiM0UVxcnJqa+urVq0ePHl2+fPn48eO//PLL2rVrFyxYMG7cOA8PDxcXFwcHBxsbm86dO3fo0KFVq1a6urrUicUIK9SMDMMwsOy2Xbt2e/bsSUtLAz1EeuokIjPQUF2CM9L5+fl37tyZMWMGeTsfuaKPOi4L2ZYpAnfx6OjoNG/e3MDAoGXLlm3atDE2Nu7YsaO5ubmlpWWXLl26d+9uY2PTq1evPn36ODg4ODo6uri4DBw40M3Nzd3dfdSoUUOHDm3cuDHZromJyYIFC7Zs2bJjx47du3cfOnTo2LFjp06dOnfuHIDX33//fevWrXv37j1+/PjZs2fPnz+PjIyMjY0FFMvIyMjOzs7LyxMKhSUlJaQnjOIiewsTwVDxEVUcU6gMZCUwiqFMHQqiYUD+6mrDdKra6tKla6Nap+pBMrBCpUWkKSFTpMmokjXpbJCCVWEGAGscBEHkwIED7dq1AzUTCARmZmYPHjyAv/DTj0gkys3NTUlJiY6ODgkJCQ4OvnDhwqlTp/bt27dx48YlS5bMmDHD09PT3d3d2dnZwcGhZ8+eXbp0MTMzMzY2btmypa6uLnwkIpX5o3EEPsypoaHh4OBw/vz5nJwcuCgd6ERO5Y9wBBryNQjilkgkpaWlcXFxR48edXd3p7ZmUYiDHCo/IhAINDQ0wPPC1rW0tNq0adO2bdv27dt/8cUXH/Z3mJmZmZubd+7c+auvvurSpYu1tTXil62tbe/eve3s7Pr27evo6Ojk5OTs7Ozq6jpo0CA3N7chQ4bAofyjR48eM2bMd999N378+MmTJ8+YMeOHH36YN2/ewoULvby8li1btmLFilWrVq1du3bTpk0///zz9sqwc+dOPz+//fv3Hzx48PDhw8ePHz99+vSZM2fOnj174cKFwMDAS5cu/fnnn1euXPn777+vX78O8PegMoSEhDx9+vT58+cvK0NERMSrV6/i4uIS/g1JSUmpqanp6ekZleHdu3e5ubn5+fkFBQWFhYVFRUXg9JFePfW+JS0NHSJ886PhIQCRKcqMk4aB7ZKJAILw6kZqqQwikaioqKigoOD9+/fZ2dmZmZnp6elpaWmJiYnx8fGxsbFRUVEvXrz4559/njx5EhIScu/evevXr1+5ciUoKCggIGDXrl2Ojo5wtZOWlpadnZ2Xl9eKFSt+/PHH2bNnT5gwYdSoUe7u7gMHDnRycurbt6+trW337t0tLS3Nzc1NTExat27dokWLJk2aUMtbUGnrJNKoUSMTE5N169aFhIQUFxeXl5dDj8MvJRB5HjkCDXQeTg3CvRnQeUKhMDw8PCAgYPr06W3atEExkThKOm91Iq/aVIKUUAeI1YmrJU0ArK1UV1cHXNPS0tKuDHDrULNmzXR1dZs3b96iRQsDAwNDQ0OjytCyZctWrVoB6rVr187Y2PiLL74wMTHp0KGDqalpx8rQqVMnwEFzc3MLC4vOlcGyMlhZWXX9N1hbW3fr1q1Hjx5fVwYbG6v+BYwAAAhuSURBVJuvv/66Z8+evf4NgJh9iGBnZ2dvb+/g4ND339CvX78BAwYMHDhwyJAh7pVhcOUNJ4Cnw4YNGzFixKhRo0ZLBc/KMG7cuKn1EaZNmzZ16tRJkyaNGzfO09Nz5P+GESNGDBs2bOjQoe7u7kOGDHFzcxs8eLCrq6uTk5Ojo+O/rPe1s7MD2fTu3fubb76xtbXt1atXz549bSpD9+7du3Xr1rVrVysrq68qQ+fOnc3Nzb/88ksLCwszMzNTU1MDAwOcTNDV1TUwMNDT09PR0YHVcaRFSOuPglJQ+bW0tLp377569eqnT5/m5uYivuC64bpdhsIFaABQ8EWB0xb49isvLxcKhQkJCQ8ePDh48OCMGTP69OmDoFMv8iW7rQYCaviLrOFzi8MuO5jahJVdCKB4l5umVMAb3ZrUU9DW1m7cuDFFF9w5p1EZgCO4Hreuuh7qgTpRT8jKyThmUE5EXV29Xbt2/fv39/b2/uOPP8LCwjIyMtB+SRcVPQl5vBiyrGxAgyVJlEHPkyQOMwiFwrS0tDdv3kRGRj579uzatWunTp3aunWrj4/PzJkzhw8f3r9//y5durRp06Zp06b12AfK6WlVKyoJKEECOjo6HTp06NOnz6hRo+bMmbNu3brDhw//+eef//zzT2RkZEJCQnZ2dmlpKZgzmi3aLFo02rv8EY5AU/uGgXqc5iwuLn5fGbKyspKTk2G4+/r168jIyPDw8MePH9+6devixYvHjx/fu3fvpk2bVq5c+eGkm8mTJ3t6erq5uTk4OHTv3t3c3NzY2FhPT09LS4vDZJgSeloJTdQLKNdLo0oQZt02IagMdVgnDMPJCjU0NFq0aPHll1/a29sPGzbs+++/X7Nmzb59+wICAu7evRsaGhoVFRUXF/f27dv09PTs7OzCwkK4KbT2llu3ORULNDCtKD3UwhQEIIzA2pySkhKRSFRYWJiXl5ebm5uTk/Pu3busrKwP20zT0tJSU1OTk5OTkpISEhJiYmLCw8NDQkJu3bp1+fLlgIAAf3//AwcO7Ny5c8OGDb6+vt7e3rNnz542bZqnp+fw4cMHDx7cv39/W1vbrl27WlhYdOjQwcjIqEWLFk2bNtXU1FQZEqnNqri0BOpXQ9TU1ExMTLy8vO7cuZOQkACz+5mZmTk5Ofn5+UKhEL4ZkW93iOP4qG7ho/a1KRZokEl0xuDjFLnYXzoPUk/+hXH4Fx9BguXl5WVlZcXFxcJ/Q0FlyM/Pf//+fW5u7rvKkJWVlZmZmZGRkZ6enpqampKSkpyc/Pbt26SkJPCtYmJiIiMjX7x48fTp0zt37gQHB1+5ciUgIODMmTP+/v6HDx/et2/frl27fv755/Xr169evXr58uVeXl4//vjjzJkzp02bNnHixDFjxgwfPnzIkCGurq7Ozs4wudi7d28bGxsrKysLC4uOHTuamJi0bdu2VatWODuoqamJc9WkcitBreFtWcuGqiSSJJgn8VqyozhqNTQ0tLW1mzVrBusw2rRpY2pqamlpaWNj07t37759+8K6ME9Pz8mTJ8+ePdvLy8vHx2fVqlVbKsOmTZs2bNiwbt26tWvXrlmz5qefftq8efPBgwdv3rwZHx+fm5tbUlIi/eWXNAp8l6Ppwb9oXEqOKBZogFvcN4CPwDxwDr4M5CGlg+kUKpFAQwkLK0SJYwYUN6ZgPVSHwSdPQC44SLW4uBi+dBZVhsLCwoKCgvzKkJeXB0CWUxmys7PB8yIRLb0ygCOWUhnAHUv835BQGeLi4qKjo1++fBkaGvrkyZP79+/funXr7t27d+7cuXHjxtWrVy9fvnzx4sXz58+fOXPm5MmTJ06c8Pf3P3LkyKFDhw4ePPjrr78eOHBg879h48aN69evB2VdtWrVysqwYsWKpUuXent7e3l5LVq0aP78+XPnzp09e/asWbOmT58O32umTJkCH4umTJkyfvz40aNHe3h4fFsZPKoKQ4cOda4qOCkyuLi4uLu7A1VD/zdA4vDhw8eOHTtp0qRplWHq1KnTpk2bMWPG999/P2fOnHnz5v3444/z589fvHjx8uXLV65c6evru2rVqtWrV69du3bDhg0gxW3btu3evXv//v2//vrr4cOH/f39T5069fvvv58/fz4oKOjatWs3b968e/fu/fv3Hz169PTp0/Dw8Ojo6Li4uPj4+ISEhA+Xu76tDMnJyampqWlpabC8AH4zMzNhkcH79+/z8vJgqQG8I0kdy8vLKygoAIcFdRt2PJKDBlyXAHkoVa/fR4UDDYkdKCM0ckxB0VAp+CgtJvwLy1LVShchU8AVQpSh/kJgolohIRKKVLcWgywIObFFbJSknMxP5gQIhgVUEIe1pwiFZZWhtLS05GOh+H8DOH+ijwXIBiAr62+hIkNtiCF5FAqFRUVFQqGQ5Li4uBgSi4uLq5Rf6b8B5Ay/2AXYO/BepHqW7F9UMKqjq8wjnZmyoxoeqb9AYwGVUKuxfqVFFAs0IH1kD3oFBIHiwB4iv9tLdwZIhLRA6TzSKVg50oCSJTPXkA3bxfxYA/kXcooNSefHFJILrI38FyvBf1FcZAoZJ4tLEyNdnMwPcbK2Bh2vjh1kmeQOE6uUOZmzlnGsEPJTj9gR0uk11A+ZybJkZvwXElGZcblJdQXJShQdVyzQAIfIMEqE7FRMrI7V6jJUl15dPbVPr33NkLP2+aujAaCHFEt1OWtOl5+Smutv0P/W3FkfFV3NGar8t8rEGmQoqwIApkCF4FmTb2tMh/W+slZeA50c/lI40HCgSVVEJQGVBD4xCaiA5hPrUBU7KgnwUQIqoOFjr6hoUkngE5OACmg+sQ5VsaOSAB8loAIaPvaKiiaVBD4xCaiA5hPrUBU7KgnwUQL/B6t7yfUATKilAAAAAElFTkSuQmCC;container=0;" vertex="1" parent="yOlltbZVxZX-zZ10FpWM-31">
          <mxGeometry width="32.909999999999975" height="36.76068137391787" as="geometry" />
        </mxCell>
        <mxCell id="yOlltbZVxZX-zZ10FpWM-22" value="" style="shape=image;imageAspect=0;aspect=fixed;verticalLabelPosition=bottom;verticalAlign=top;image=data:image/png,iVBORw0KGgoAAAANSUhEUgAAAewAAAH/CAIAAAAaCnkCAAAACXBIWXMAAA7EAAAOxAGVKw4bAAAAEXRFWHRTb2Z0d2FyZQBTbmlwYXN0ZV0Xzt0AACAASURBVHic7J1ndxv5df/RgQEw6L0SAAn2LlJdKzm762Tt2HmQB8m7yVvJyck5cWKf2E52fbZJqy5K7CSI3nsHBsCgDcD/g+vFX1l7V42YAcD5POCRuFr9rkjiizv3d+/3Ms/Pzxk0NDQ0NOMJi+oAaGhoaGjeHw7VAdBMAt1ut9PpNJvNRqNRr9fr9Xq1Wi2VSuVyGcOwWq0GH+v1OoZhOI43m81Wq9Vut5vNZrvdbrVanU6n2+3C38Zms3k8HofD4XA4XC5XIBCIxWK5XK5SqeRyuUwmE4vFCILIZDKpVIqiqEQiQVFULpejKCoQCBAEYTKZLBadoNBMJli98fpvaRGneVv6/X6v1yMIotvtEgTRbre73S7INwhxq9VqNpug0aDj1Wq10WjgOF6v13Ecx3G80WjAn+x0OiDcBEH0er3Xy3rn5+dwFoPBYDKZnU6n1Wo1Gg0ul9vv97vdbr1eFwgEtVqtUqmIRCKRSCQUCiUSiUgk4vF4AoGAz+cLBAIej8flcuEjvB+w2Wz4Oyn7ItLQXDRMuiZO85Z0u10cxzEMq1Qq1Wo1n8+XSqVSqVQsFmu1WqPRaLfbA4kHZQeZBqGH/zRQ7R/Q7/df/1FksVgsFgsSajabDVoMujxI0uHX3O+BX0MWr1KptFqtQqFQKpVKpVIul0ulUplMJhAI4K+l8MtIQ/OB0Jk4zRsAMYV0GDJi+NhsNiuVSqFQyGQy2Ww2Go0mk8lUKhWLxSqVCoZhBEFcVAxw9Pv9v2w222w222w2k8lkNptNJpNer9doNN1uF0VRDofD/h54k2B+z0UFT0NDJnQmTvNDCILo9/uDunY2m81kMslkMpfLtdttKIk0Go3Xy9ztdrvdbo/Oz5JEIpHJZOj3iMVioVAoFovFYrFKpVIoFFqt1mAwSKVSuVyOIIhAIIBKCw3N6ENn4jRvAOrOtVotnU5HIhG32+1yuY6OjsLhMNWhvS0YhmEY9pefF4lEU1NTU1NT8/Pzy8vLJpMJtJvH49EiTjOm0CJOw+h0OpBQp1KpbDYLH6GlBOonuVyuXC5THeYF0Ol0crlcp9MplUqBQEAikUilUqib6/V6nU6n0WjkcrlYLIaqC9Xx0tC8GVrEaRgEQVSr1VQqtb+/73K5Tk9PvV5vp9P5QU2c6jAvgG63WygUSqVSNBod1MS1Wq1Wq11cXFxaWlpYWGAymTweDy5UqY6XhubN0CJ+6QBFbjQa1Wo1l8vlcrlMJlMul4vFYjgcjsfj8Xi8XC6/973iiHN+fg79MIPPMJnMVqvV7/crlUokEtFoNGq1WqfTqVQqlUoFPS1CoZDCmGlofgL6YvPSAX1+yWQyGAzu7++/evXK7XbD6A00BUI7INVhkgeTyYTGxEHDolKpXF5enp2dXVlZmZmZUSqVWq2W6jBpaP4MfbF56RjknsVisVKpFIvFXC6XSqUSiYTX63W73dFoFDpSqI6UGs7PzwmCIAgCx3H4TLVaZTKZGIaVy+VwOKzRaPR6vVKpVKlUKIoiCMLh0C8cmlGBzsQnn36/D9Pth4eH0GpyeHhYKpXa7TY0CzabTapjHC1YLBbyPSKRCKorm5ubm5ubdrtdq9XS1RUaCqEz8UsBDEC2221otstms4VC4fT01Ofz+Xy+09NTWrh/gn6/D29vDAaDyWRCmzxBEK1WK5PJGAwGaGIBqxYul0t1vDSXGlrEJ5Pz83NopPP7/YFAAOS7VCpVKpVKpdLpdKgOcGw4Pz/HcbzX6x0eHiYSCa1Wq1KpFhYWlpeXHQ6HRqOhRZyGWmgRnzRgqBKGLaPRqMvlglEdj8dDdWjjClz21mq1cDgMTlvJZLJarZbL5ampKa1WK5VKRSIRm82ma+U05EP/zE0a5XIZxiw9Ho/P5ysUCoVCIZ/PUx3XhNDpdDAM8/l8tVrN7XbbbLapqanV1dWZmRmRSCQWi6kOkObSQYv4JABTOeAdmEqlXC7XkydPXrx44fV6qQ5t0oA+lmg0Go1GhUKhxWKZmZlhsVgikUipVEIyPsjHaVMtGhKgRXwSgGY4r9d7eHgYiUQSiUQ0Gs3lclTHNeHAEH+32221Wvv7+zMzM4uLi1NTU9PT01wul1ZwGnKgRXwSaDQa6XR6Z2fnN7/5TSKRaLVal2pahyoIggBH9WAwyOPxtre3q9Vqv9+3Wq30bScNadAiPpbA/E673fb7/eFwOBQKeb1ev9+fz+fb7fZk+JyMF1BjYTAY4XD4+fPn8/PzS0tLJpMJ2hCpjo5mkqFFfCwBEW82m2dnZ48ePfJ4PMfHx81ms9Pp0NNblNDv95PJZDab3d/f53A4n3zyCZPJRBAEFhJRHR3NJEOL+JjR6XQajUa5XPZ4PMFg8OjoyO12p1IpDMMu7dz8iNDv96EZkcFgeL3eBw8eVCqVmZkZm82m0WhkMhnVAdJMJrSIjxmtViuXy3m93t/+9rffffcdjuOtVqvb7dIKPlIEAoFUKuX1ejc3N69fv765uUmLOM2QoEV8bKjVauVyORqN+v1+cP1OJBJUB0Xz12m1Wq1WKxwOs9ns8/Pzer2ezWYtFotWq6XXTdBcLLSIjw2FQuHk5GRnZ2d/f9/tdpdKJaojonkDxWKx2Wym0+nDw0On0/nrX//69u3b9D5PmouFFvGRBnysSqVSoVAA98H9/f2zs7N4PE51aDRvBkrkOI6Xy2UMw9RqNZPJtNlsZrOZx+Px+Xy6l5zmw2H/y7/8C9Ux0PwovV6PIAi32/3w4cOHDx8eHBwEg8FSqdTtdqkOjeZtgVaiVqtVLBYjkQiPx1MqleB2y2KxqI6OZvxod/7Py5/OxEeRwRqHXC6XTqefPXt2//59l8uVz+cHiwtoxoV+vw9bk0qlksfjEQgEAoHAZrM5nU6xWMzn82nbLJoPgf7pGUXOz89brRaO4zs7O19++WUwGIxGo6VSibaQHXc6nc7BwUGlUtne3u52u2az2WAw0CJO8yHQPz2jBawKAx+rTCbz8OHD//iP/4DtBJMBk8mEHfODXww+CQViGFY6Pz8/Pz+HKwH4LZh8URv8h9Pr9Twej8fjqdfrHA6nXq+zWCytVsvn8+lJfZr3gxbx0aLX61Wr1UKh8PDhwxcvXpydnU1S9s1ms/l8/mAlMfwCWu7A/A/EGm4C4M2MIAj4bbPZbDabvV5vAqScwWBEo9H79+/n8/lSqbS0tGSz2ZRKJdVB0YwltIiPFiDi8Xj8wYMH//mf/0l1OBcMh8MRvoZIJBIKhdCnAcBNAPgCwnYLMPNqNpvVarXX63U6nckQ8VgsFovF8vk8pOQKhYIWcZr3gxbxUQHH8Uqlkkqlnjx5sr+/f3p6SnVE74xQKFSpVGq1GkVRiUQCN3hCoVAgEECizePxQLW5rwFpOHyE+gmk3qDmBEH0+/1ut9tut0HZ2+12t9sFoYebg1qthmFYqVSqVqv1en2M7n7Ba+X8/LxWq62trdlsNp1OR3VQNGMGLeKjAszTezye+/fv379/fxyrKEKh0GQyzc7O6vV6g8EglUqlUqlcLpfJZAKBgPc9MOoCFfC//Dgw8BpUwxmvlchBxHEch9wcw7BisZhOp1OpVDAYTCQS/X5/jES8UChUKpVms9loNM7Pz1EUpUWc5l2hRZx6Go0GbPx69erV/v6+1+sdZRmCLTYikUitViuVShRFpVKpQCDg8/kymUyr1cLOSZlMhiAIgiBQOYGMG3jv5mi49YVaebfbhSp5vV632+2VSmVtba1cLsMm6FqtBi4F5XK5UCiMbGPP+fl5t9vN5XIul4vNZhMEUSwWp6enjUYj1aHRjA20iFMPjuOZTOb09PS777578eLFiPeisNlsiUSi0WgWFxdnZmaMRqPZbJbJZFKpFEGQ1yskrNd4vf/kA09ns9lcLhfy1sFeOqi9QNUFx/F0Op1MJkOhUDgcdrvdOI6PpogDGIaBjTA8XiAIQos4zdtDiziVtFqtZrMZCoUODw93dnb8fv9oOqIIhULIu0UikVQqVavVarXaZrNZLBa1Wq3RaFAUFYvFw26SG7wN/FguP2jQlEqlSqVSqVQajUaTyTQ3N1cqlXAcr9frkKc3Go1msznUaN8euM7NZrPwBdRqtQKBQKfTaTSan/4fB1UmuEWA0hP8Fm4XXu/U/IHRPJPJHDwYsdlsaPcE4PO0JcC4QIs4lYC53f7+/hdffLG3t1etVqmO6K+jVCo3Nzc3NjZMJpPZbJZIJBKJBEEQgUDA5XL5fD687KkOk8FgMNhstkAgAP9us9k8KKCXSqVEIhGLxc7OzkKhUCKRGB0RBxqNRiQSqdfrPB6vXC5/9NFHbxRxBoMBTyFQWYLnkm63C54t8Iwy6NH8wb4nLpcLFxXQ9MnhcLhcLnwEPwBaxMcFWsSpAXotIpHI2dnZ7u6u2+3OZDJUB/VnoINbIpHI5XJQaqvVurGxsbKyYjAYdDodFLupDvOvMEjVQcolEgnjexMxDMO0Wq1Op5NKpTqdLh6PR6PRer2OYVi9Xq/X65R3LvZ6PRzHc7mc2+3u9XrQ5yMSiVAUhd7KgTp3Op1Brw6oMzzSwb8U/hhYzMN/BRH/wT+Qw+EMevZBxAcgCDIw5+Lz+eANMOgmGjQXQRb/+qU0DSXQIk4N9Xo9n88fHh5+++23R0dH+Xye6oj+P2KxWCaTOZ3O1dVVg8Gg0WhUKpVKpYJyilAoHK8xcdAXoVCo1+uh/WN1dTWfz6fTadhNGolEwuFwq9WiOlIGg8HodDrJZLLdbiuVSjabPTU1NT093Ww2K5VKtVqtVqvQSVkoFHK5XKlUer0pc1A/eb2cAr8YzL4OGJRNflBOYTKZrzueq1SqqakplUoFN9goispkMolEIpVKobWfztkpZ5xejRPA4PWWSCROTk6eP3/+9OnTUdjtALmVRCJBUdRgMGi12uXl5WvXrlmtVoPBIBQKqQ7w/YH0HBRHoVBYLBaCIOr1OthRabVaaGwvFAo4jkOtnCAIqqLt9/ulUgnDMIlE0mw2Z2ZmyuUyjuOFQqFcLpdKJRjyzGQy6XS6UCgMOx6NRuN0OrVarUwmUygUUqlUoVAoFAp4SuPz+TAHAF/ewSwuvB8MOzYagEnv1SUT6GKu1+tfffXVH/7wB7/fD2VQaqMC+VYqlaurq/Pz8yDiGo3GYDBIJBISbixJBpZhtlot0MRMJpPJZEKhUCQS8fv90Wi0XC5TGyGTydRoNEqlUi6Xq1Qq6KccDDe1Wq1Go1Gv10l4ekAQRKFQiEQiPp8PYg0VNiiwsNlsnU4Hd7A6nW4w6gWaPuzYLi1Y/f80sNEiThLwbNvtdpPJZCQS+d3vfvev//qvlPeDwxy8QqHQ6XRms/lnP/vZjRs3oH4yIheVJAD66Ha7T05Odnd3j4+P4/E4juMwGkp5rXzEsVqtU1NTFovFbrfDvbdKpYJJArg1hfvS1wvoNB/ID0ScLqeQBHS/1ev1vb29//3f/3W73aPQuaxSqZaWlpaWlsxms8lkgr3sIpHoUr3YOByOQCCAbTtqtXp5eTkcDp+dnUUikVwuN7ItQyNCpVKJRCLlcjkWi0HbklgsFgqFcrkcNF2r1SqVSvjk5ckMyIQWcZKANLxWq+3t7f3bv/0b1eH8GZVKdfXq1U8//dRms5lMJqrDoQa4DzCbzWazeXFxsdFoBIPBzz//vN/vw/QN1QGONHDd+vpnYGmRRqPZ3Ny8cuXK3Nwc9KTTy0WHBC3iJFGv11+8eLG3t3d4eEhtJCqVyvw9c3Nz8/PzFosFuvFooL5kNBrv3bs3NTXl8/mCwaDX6x1HPzKqgCuHcrnscrnK5fLBwQF4NMrlcq1WCwNiKpVKLBbDZC/V8Y499FeQJHAc393d/Z//+Z9UKkVtJEqlcnl5eWtr6+rVq9PT09BRQPcSAFC91el0SqVyaWnJ7/f7fD4Gg0GL+DvR7XbBUTIUCkE1XC6Xy+Xyubm5a9euzc3NgaUlffl5IdAiPnTq9XosFvN4PC6XKxqNUmiNMj8/PzMzMzc3t7Ky4nA4IAG/EEuTiWGwbwjU3Gq1IggCvSKxWCwajWaz2UqlQi+qfiMDtzL4LUEQjUYDPrpcLo1Go9Fo9Hq9yWRSq9VarRY0nf5RfA9oER86jUbj7Ozs5cuXgUCgWCz+YPqZTBYWFn7xi19MT0/b7XYURQUCAf2a+Qk4HI5arZZKpVqtdmtr6/Hjx48fPz4+Pm42m7SIvyvQ6oPjeCqVgksItVq9sLCwvr6+uLiIIAiKojwej/6BfA9oER8i0NUbj8dPT08PDw8zmQzJUyRsNhtBELFYbDQadTrdrVu3lpeXoZ+Xx+ORGck4wmKxYHRFIBAoFAoMw8A6UaVSRSKRfD4/4n6TIwWMuYFDAHymVqtB9TyfzycSCY1GA2ZqCoVi4F1MbczjAt0nPkSKxWIymTw6OvrNb34DHrPtdpvMABAEMRgMFovl008/vXPnDjSAw2QdXQR/Swaz7OBR7vF4zs7Onj17trOzE4vFqI5ujIEmFpFIBGn41NSU1Wrd2tpaX1/X6/USiYTOM34Muk+cDMCqIp/Pw/xIOBwm2WOWx+OJxWKDwTA7Ozs/P7+1tbW2tgb2RvQT6zsxuDOQyWQymYzBYAgEArC+aTabGIaR/MY8MfT7/UajAU8zLBarWq3m83mYpYB5BYVCIZPJwKuHzsp/AlrEhwIYyIXD4a+//vrp06e5XI7kACQSidPp3NjY2N7eXltb02g0dMHxQlAqlQKBAJYxMZnMkbKfHF/6/X6hUKjX67lcbmdnx263OxyO2dnZtbU1s9mMoigt4j8BLeJDoVarFYtFv9/vcrmCwSCZRwsEAhRFHQ7H6urq9vY2XByRGcCkArausJe53W6zWCxweqI6rgkBLNHBtSafz+dyuXK5TBBEuVzW6/XgoCkSieAP0+nI69AiPhSSyeT+/v7+/j75m3pgcdrm5uby8vLCwoJWqyU5gEkF9ku4XK6jo6Pj42O/359IJOh5zmFQrVbD4XC1Wo1GoyaTCRYBAnRH7F9Ci/gF0+12CYKIRCJPnjw5ODgg0w+Px+MhCOJwOG7evHnz5k163+4HMrjSBPvAfD5fKBSeP3/+4MEDt9tdKpVGbTfQxABrOpLJ5MnJiUKhiMfj6XS60WjweDyRSAS2mrDElepIRwJaxC8YDMPy+Xw4HA6FQtlslszXuV6vX1pa2tjYWFtbs1qtKIqSdvSkAi1x4XDY6/WGw+FwOOz3+8PhMIZhdKs4OeA4HgwGG41GOBze29tbXl5eXl7W6/UKhYJuXwFoEb8YBp2axWLR7XZ7PJ5AIEDafSYsgLfb7T/72c/W1tbm5+d1Oh05R08ksGu42+02Go1KpXJ0dPTdd9+5XC6Xy0X3hpMMvImGw2EGg4EgyGeffQZdA2w2WyKRDPLxy1xjoUX8woBXvs/n++KLL05PT8mslloslrm5uStXrqyurloslsH9D8370Wq1kslkKpVyu93BYDAWi8Fz1Si4B19mut2u1+tlMBihUMhut8/NzTkcDplMBuvlqI6OMmgRvzAgd/P7/Z9//nmpVCLzcdtqtd67d291dXV1dVUikdD9WB9Is9mMRqMHBwdfffXVy5cvBzvj6QUR1EIQhMfjCQaDfr9/Zmam2WzK5XIURS95cZwW8YuBIAhY2RMMBjEMIydlY7FYVqvVaDRev359a2vLbDZP3io10oCFZ/F4PBwOR6PRwba2Wq1GdWg0/x94Q00mk51Op9frxWKxubm51dVVk8kkFosFAgHVAVIALeIXQ6/XS6VSr169isVipFlccTgcu92+vb29tbW1uLhIK/iHgON4Npvd29u7f/++y+UCJ1W6/2Q0qVQqjUYjm83u7Oysra2xWCyBQAAbmqgOjQJoEf9QwMSnUqn4/f7Hjx+HQiESXK44HA44eW5vb9++fdtqtUqlUlrB34nz8/NOp9PpdFKpVDqdjkQiiUTi+PgYdmy22226eDKyvO6lxeVyv/7662w2u7CwMDU1pVar1Wo11QGSCi3iHwossC+Xy6FQ6OXLlziOk5CJ83g8q9UKDYUbGxsIgtB18Hfl/Py83W5jGHZycrKzs+PxeOLxeC6XAzsUWsHHhVwud//+/WAwmM1m19bWlpeXaRGneTe63W46nfb7/WBPOuzjYFehRqNZWFi4evXqzMyMRqMZ9qETAwzvdLtdDMNKpVI2m00kEnt7e3t7e+FwOJ/PD4xSacaFVquVSqWazaZAIGi3251Oh8lkqlSqQZftxDeu0CL+oTSbTZfL9fTp01AoRMJxCIJotVqn03n9+vV79+7J5XISDp0YYN0MhmFnZ2eHh4dut/vw8LBcLpfL5UajQXcQji/1ev309DSTycB19O3btz/99NNLMqNPi/j7A43hsEjw6OgonU6TcKhYLHY4HDDRY7PZSDhxMuh2u81ms16vF4vFdDp9fHy8t7fndruPj4+pDo3mAuh2u/l8vlKp1Gq1arWKIAjYZikUCj6fP9mN5LSIvz+g4MViMR6Ph0IhDMNIOFSpVF65cuXevXsmk4mE4yYGHMdjsVgwGNzd3fX5fPl8PpPJFItFquOiuUh6vV6lUgmHww8ePMhkMjdu3Lhx44ZGo+Hz+RzOxGrdxP7DSKDT6RQKBdifm0gkhn0c7HmYnp7e2tq6ceMG3YvyRmBCB5bkpVIpl8t1eHj41VdfnZ2dUR3ahcFisdhsNpvNhgF0FosFi54HlYTXPwJwMcB4zeELgCdLGGrv9XqDPzZG9Pt9MM/K5/OHh4fNZhNF0YWFBY1GIxKJ4CtDdYwXDy3i7w+O4z6f7/DwsFAokHCcyWTa3Ny8c+eO1WqlLdzeBhzHMQzzeDxutzscDsfj8UQiQf6CjqGCoiiKohKJRCaTCQQCBEEEAoFAIIANfCDxrO8BXe71egRBgGQTBNHtdqHVstVq1et1sIsBz/TxveYlCKLZbB4cHDSbzY8++ujmzZtWqxVBkIl81dAi/j7Ai6Fer7vd7t3d3Ww2O9TjmEwmzPX8/Oc/v3PnjlqtptPwvwpkjpBLEgSRy+VSqdSTJ0+++uqrQCBA2iTthfMDLWZ+D5vN1uv1Go1Gq9UaDAapVCqRSEDWhUIh2KJxvofNZvf7/X6/D6oNnsmdTqfZbDYajWazWavVCoVCoVBIp9O5XK5Wq9XrdYIgBnn664x4kg6N5EdHR0dHR41GQy6Xi0QipVIpFovhC0h1gBcJLeLvA+Qv5XI5EokEAoFhe12pVCqj0bi0tGSxWGQyGZ/PH+px4wvM7+A4Dt+XaDQai8XcbncymcRxnIQhrAuHw+Hw+XylUqnT6aRSKQg0LBfmcrk8Hg9UWywWSyQSPp8vEAj4fD6fz4etQz9QfxBfeJMDLYafZAC2XjQaDZDvZrOJ4zh4qeM4Xq/Xq9VqtVotFoulUolMo/wPJBAI/OEPfygUCltbWw6HQyQSTdhgJy3i70Ov14NVUtFoNBgMDnu6R6VSLS4ugojL5fKJfCS8EGB6tlqtulyub775JhAIQALe7XbHdHiHy+UKhUKj0bi8vGwymXQ6nV6vV6lUCoUCKieQYr9eB/9BNZzxF43SgyR6UBln/N/6+CBhb7fbUF0plUq5XC4ej8fj8WAw2O/3x0vEY7EYhmESiUShUHC5XFrEaRjVajUSiXg8nkKhQEJ+B+P1KysrSqWSnsz8AaA7OI6DeWw0Gg0EAsFg0O125/N52NNIdYxvBZfLFYlEKIpqNBqlUgm1kcFnjEajXC6XSqVSqRS2TfJ4PLgaGVJxACrmKIpKpVKVSqXX6y0WS6lUyufzsAOzVqs1Go1SqVStVguFQiaTabfbw4jkA4Hamtfr/eKLL7LZ7PXr12dnZ4VCoVAopDq0i4EW8fehWq0Gg0Gv10tOW6FGo1ldXZ2bm6MLKX8VuJ/wer2Hh4f7+/u7u7utVqvZbELZl+ro3hYejyeXy6FuNjMzA/6UIOI8Hg8ke9CFAtn3UGu7sAmaw+EgCCKVSkHTX78ITaVS2Ww2GAxGo1Gv11utVkdTxIFEIlEulxOJBIqiSqVSpVLRIn5JgbyvWCyenJwcHh4Ou9HYYrFMT09vbm4ajUaxWDzUs8aOer2OYVgulwuFQtFo1OfzhUKhYDCYSqWoDu1tUSgUGo1GpVJJJBKVSqVWq7Va7dTUlMFggHwcytyUFNAGbxJwQTr4/KDqIpFIdDqdRqNxOBwzMzMLCwuFQqFWq1UqlVwuBx4Go3OT3G632+223+9/8OBBo9EA0yEejzcBpRVaxN8N+PEtlUoej4eEZV3T09O/+tWvVldXZTLZUA8aRzAMi8fj0Prt8XgajQbcy1Ed1zug0WjW19cXFhYsFgsUTCQSCRS7+Xw+tAmOYCsF6LtUKhUKhUqlst1uD6ZhE4lEMBg8Ojo6Pj4ul8ujI+JApVJ5/PhxKpViMpkOhwNFUVrELx1w1ZPL5bLZ7FDvdqDb12azbWxsWCyWiXn0+xCg+aTb7UKDRCQSiUQix8fH+/v70WiU6ujeCiaTqVQqoeNNLBbPzc2trKzMzs4ajUaNRjMWaw0GbyrQBgMPiHAdimGYVqtVKpVCoVAikeTz+UKhUKlUMAyDLkbKGxM7nU46ne50OhaLxWAwzMzMLC4uwrTUCL5ZviW0iL8b1Wo1kUhAy9rwTmGxWGDDZrfbp6am6MXeQL/fh6f1Fy9evHz5EvZeFgqFMZrf4XK5S0tLm5ubU1NT09PTCoVCJpNB9j3uo+EsFkskEplMJoVC4XA4bt++DSJ+dHQEw1aJRGJEEnMMwyAf//Wvf22xWODRZ3xbBsb4h4YSqtVqNBoF68vhncJmsw0Gw+LiIij4ZU7DB+axjUajWq1CC8qLFy+ePXsWj8ehfZDqGN8Al8sVi8VCoVAkEkml0q2tratXrzocjtnZWR6PNxlOe/BPgAtYqVSq1+thkKJSqQiFQpgpRVG0VCphDEaV2gAAIABJREFUGAa1cgqz8m63G4/Hi8Wi2WxeXl42m80mkwlBEKri+UBoEX83isUibEAf6upFDoczPz//d3/3d9PT02OdnX040LBcqVTOzs6Oj4/9fr/f74fp+UajMRbNJwqFYmFhYXZ21ul0Di4tJRIJl8udAPn+MdhsNoqifD7/6tWrTqczkUikUimv17u7uxuLxQqFAuUz/Z1OZ3d3t9lsfvbZZ5999hkt4pMPpITgkZZIJIZXTuFyuSiKQjVcKpWO71PeewM5Wq/XgxlCDMOSyeTBwcGzZ8+8Xq/P5xt97eZwODweD3pLHA7H+vr65ubm+vr69PQ0DE9SHeDQYbFYCIJAeyKDwbDZbKVSSavVEgQB9z3FYhHHcQq7EgmCCIVC6XTaYDCsrq6C88w4GlrQIv62gGEQCMrwVsBwOBy1Wm02m3U6nVwu5/P5E5ys/QTn5+cYhkWj0Ugk4vP5PB5PKpWKx+OFQoG0PdQfAnR8T09P22y26elps9lsNBpVKtVodpuQAIIgCoVifn5eIBAsLy+HQqFAIHB6eur3+ymMCnyyfD7fN998U6vVFhcXlUolhfG8H7SI/yivTyHDPsZ2u53P5xOJxPBsC7lcrsFgmJubM5lMl3BrD1ihwsA3ZN97e3vPnz8/PDykOrS3gsVicTgcLpdrsVhWVlZu3rx57do1u90OFlRUR0clkJWDjpdKpWAweHBw0Ov1MpkMDBDBrD/JUYFPltvtbrVaTCZTo9GgKDp2FqGX+gfrp+n3+2D9U6vVMAyDq/bj4+OhVsP5fP709PT29rZerx/eKSMLhmFQsDo+PgaX9kQiMWyTyIsCJtTtdvvc3JzNZpuamnI4HOCUMF6iMGwEAoFer+/3+3w+f2ZmJhwO+/1+GOWnxOKmWq2CUZrRaDw/Pwc/SPLDeG9oEf9R+v1+o9EAZ854PA6OHB6Pp1KpDO9QBEHm5+dv376t1WqHd8rIUqlUIpHIgwcP/v3f/z0SiVAdzjvAYrGkUqnZbL579+4//MM/6HQ6MPimOq5RBHxLjEbjlStXCoXC/fv3//SnP7lcrmKxSImIVyqVSqUik8ngJhaaiMgP472hRfzP+19gIQiGYdVqtVwug3cSWC1Xq9VKpQJWy/l8fki9rhwORygUajQatVqtVCrH9678nYDby0ajMXDIi0ajbrebHFOaC0EgEMzNzdntdpPJZLPZZmdn1Wo12HlTHdqow2QyhUKh0+kkCMJisdjtdo/HEwwGKWlcyWazBwcHKIrK5XKBQICi6Li8BmkR/7OOlEqldDqdTCaj0Wg4HHa5XIlEAi4zB9Y/A/PlYYTB4/FkMplWqwXTjEsiAf1+v9ls5vP5/f39Z8+e+Xy+eDxerVbHaHpeKBSur6/fvXsX5ncQBAEFp0sobwREfHZ21mAwOByOubk5LpebTqcpEfFcLletVsVisdVqhb0rtIiPInBRSRAErMSuVqtgb18qlQqFQqlUKhaL2Ww2m81Go9FSqURmbCiKTk9Pr6ysaDSayZ7PhCsscC+AnpNQKOR2u8/OzjKZzFiYx0qlUq1Wq1arwST2+vXry8vLMGRLdWhjw8BdSywWIwjCZDIlEkmz2RSLxaenp5FIBKxXSJsJgvwMHLJwHP/oo49EIhFM5JMTwHtzuUSc8b3/Rj6fD4fD4XAYUr9YLFar1QYem9CeTHJgKIo6HA7QApKPJhl4H4X5nd3d3bOzs9PT03q9DnsdR1/BGQyGUqlc+R673S6Xy6GcSnVc4wqLxZLL5UKhkMfjOZ3Ob7/99ssvv2y329CqRGYkqVTq4cOHlUplamrKbrfz+XxaxKlnsPIclk5B3p1KpWBLPTiXgicOtXEKhUKz2TwzMzPBhoXwXSiXy5lMJhqNwvr5QCAQCoWoDu3NIAgiEolkMplUKp2bm1tfX4d1S0ajkerQxh4mkznYKqdSqWDdhFQqjUQihUKh0WiQJuU4juM4jiCIy+UyGAxms3n0WwwmX8Q7nU6j0chkMn6/PxAIQO8a7A+EzYGwPYDqMBlwX+9wOCbYN7xSqfj9/tPT0ydPnsBu0kqlUq/XqY7rrdBoNDabbXV1dWlpyeFwaDQahUIxXm0Mow+Px2Oz2RsbG2az+fT09Jtvvjk5OYlEIiTXNqvV6vPnzwmC+PnPf06LOAXA0zpBEPV6HdZHlUqlRCLh8Xi8Xu/+/n48Hqc6xv8DLE9RqVSwO3HCJvqgQgU3ELFY7Ozs7Ojo6OnTp7FYjOrQ3gyXywUXBKlUOjs7Ozs7e+XKlbW1NYPBAGkj1QFOGlCDNhgMBoNBLBZjGMZisWDgrtlskjaj32g0fD4fm82en5+fnZ0F+wRyjn4PJlDEwbAUtuV6PJ5wOJxKpYrFYqVSgV3dVAf4Q2QymcVicTqdcrl8MjztXge6M8E8FhwLisXiCH4X/hI2my2TydRq9erq6tbWlslkMhqNOp1OoVCMRal03FGr1Xfv3jUajVDCCofDpLnGdzqdTCbD5XK9Xq/FYtHr9WazmZyj34MJEXFoeCAIotVq1et16DDZ3d3d29vz+XzDtv/+QFAUtVqtVqtVIpFMQF8a5E1wD9FsNiORSDwef/r06TfffJPNZrvdLuWbAd4Im82GtQYmk8lisVy7du3jjz9WKBRyuXyyG4dGColEIpFI5HI5juODjVrtdpuE6ytwSUqlUj6fT6fTMZlMo9EI2dUI5lgTIuIwrVMsFgOBgNfrTaVS0LuWTqeLxSLll5Y/jUgkMhqNBoNBJBJRHcsF0O/32+02lL/hHmKwSJcgiNFXcAaDIZFI1tbWZmdnHQ6HxWKxWCwqlQpBEDr7Jh+xWLy0tAQWgwwGIxaLxWIxckzQms3m0dFRq9Xi8XgrKysj2244xiI+cKeCjQGwMPfp06cPHz5MJpPJZJKSEd73QCwWm81mi8WCoijVsbwnIM2QgDebTQzDYrHY8+fPHz165Pf7I5HI6FsPwgp52ChvMplu3bp169at2dlZi8VCdWiXGhDxwdIGDocD/SokvLpbrdbx8XE4HLZarX/7t38LY1x0Jn6REAQBHd9+vz8ajSaTSaiaJZNJDMPGIuMDEARRq9VqtXqUL09+mvPz816vV6lU4LsQiUT8fj904pfL5bF4N1Wr1SaTyWq1Go3GqamppaWlqakpiURCdVw0DAaDwefzbTYbPMl1Op1IJJLJZMhpKiMIIhwO379/3+l0Li4ujmA9bYxFHBLwSCTy9ddf7+7uBoPBUWs7eUuEQqFOp9NqtePb7QAXEvl8/ujo6PHjxy9fvjw9PaU6qHdDp9NduXLlzp07V69etVqtl9b4ezRBEMTpdJpMJhaL1ev1zs/Py+UyOSLe7XZ9Pt/nn3/e7XadTict4hcD3FuGQqFwOBwMBs/OzmDdItVxvTN8Pl8oFMrlcgRBxs7FGIDmk3g87vV6o9FoLBYLBoPD81u/QJhMplQqVSgUJpPJbDbPzs5OT087nU6JRELL92jC4XCsVuutW7e63W6r1YpGo5VKZdhS3u/3C4WC2+12Op3ZbBZuR0Yq3xpXET85OXn69OnLly8TiUSz2ex0OqMwsPOuIAiiVCoVCgVcmo2jdlSr1UAgsLOz8+WXX0aj0U6n02q1KNy59fawWCzYy379+vXr169bLBa5XC4Wiy/tNqXRh8PhTE1N6XS6Wq0GWzpJmNTr9/v5fL5ara6srGQyGR6PB9MDQz30nRgPEQejwVqtFgqFQqEQ1FthYXG1WqU6uvdHIpFYrVboSxmXNByuLqF3MJFIQOoNg1Tlcpnq6N4Ak8mE3fNGo9Fms1mtVofDMT8/Pz8/D8vwLvn+nRGHxWKBF/ni4iJBEFwuF/bWt1qtod67wPBgMBh8/PjxxsbG2traSBkcjsePbL/fr9fr6XT6/v37X3zxRaFQgIn5cZnY/jEkEonFYjEYDCP1M/HTQAttoVB49OjRkydPMpkM5ClDXXh0UcD2Xo1Gc/Xq1bt37xoMBqvVKhaLxWIxl8sdzQYymr9kampKoVDgOB6LxSqVCiR5wz40Fos9ePCAz+c7HA61Wj3s496eURfxVqs18Etyu92PHz/e398fi6f1twFSQo1GM+J9KdA7CHuOUqlUIpGIx+PPnj3b29urVqswi0F1jG9AJBLp9XqNRqPX6y0Wy+bm5tbWllwun3jPyIlEKpVKpdKVlZV8Ps/n8/f39zOZzLAPLRaLbrd7eno6mUwqFArwXBz2oW/DqIs4juOwU/Xo6Ghvby+Xy41j7fvHgJq4TCYbkZ+GHwMynVwuB5uLoagFy4/IdHz+EBQKxfb29tLSErR+KxQKpVJJm8eONVNTUx9//DGCIPF4nAQRbzabvV4vnU7HYjHIBkbkZTuKIg4z9M1ms1wux2Kxg4ODnZ2d4+PjsetaeyMCgUAmk0kkkpG6JwFAmmF3GnjOBAKBV69evXz5MhaLJRIJqgN8MzCdIRKJYAfY1atXV1dXnU4nvbphMlAqlWKxuNFovHr1Ciymh+quAZXxdDrt8XhUKhWKoiMyRjCKIg55XzgcfvToEUxMhcNhkr0oyYHP58N61tEU8fPz80Kh4PV6PR7P6empx+PJ5/P5fH5cdqcZDIaZmZmFhYWZmRmLxWI2m1Uq1Yi88Gg+HA6Hw2Qyp6amfvnLX2o0mm+//dbj8Qz70Hg8/ujRI4FAAFaLwz7ubRgtEYcFDtVqNZ/Pn56ePnr06PDwsFAoDHXBPIXweDyxWCwSiUaqKaLT6RAEgeM4tAPt7+8fHBzs7u4GAgGqQ3szbDabx+OB1cbc3Nza2tr29vbq6qpGo6GvLicMMDPRaDRXrlzhcDjBYDCRSLTb7aFWXIvFYrvdttlsYMo0CoYqI6QdDAYDw7ByuXxycvLdd9+53e5QKFQoFJrNJtVxDQsOhyMSiUbNWalQKGSz2dPT052dHTCPBaiO681wOBylUmkwGObn51dXV81ms9lsNhgMcrkcsjaqA6S5eAQCgVarnZ6e3tzchCf4SCQyvOO63W69Xs/n88lkMpPJwGa+4R33NoyKiMNS+WKxGI1Gd3d3//jHPw71OzEKMJlMyBkpv16D8je4UnS73UQiEQwGHz169Pvf/34sjL8Z338xodtnbm7u9u3bP//5z8HLdKSecmguHB6Pp1AoOp3O8vIyjuMwwTC840CpYM9MOp3m8/m0iP8ZyPV2d3cPDg5OT08ntX4yAEEQsViMougoSAzsQmo2mycnJ16vNxgMRqNRv98/yibsr8Nms5VK5dLS0vT0tMVisdvtNptNKpXSs5eXB5FINDc31+v1UqnU4eEhXEIO77hisXh0dAQjvpTvb6NeQYBMJnN2dvb1119/9dVXE3mH+QOEQqFGo5FKpaNwpQl2vhiGPX369I9//GM8Hk+lUmNhPchgMFgsFpfL1Wq1H3/88d27d00mk8lkojooGrJBUXRlZUUmk52eniII0mq1hiri2Wz25cuXQqFwZmZmcXFxeAe9DRSLeKvVSqfTqVTq1atXR0dHXq+31WpRGxI5IAiiUCjEYjG11fBer9ftdjOZzOHh4eHh4d7eXiqVqtVqY9H6rdVqzWazXq8H89iNjQ2dTjfBa6Zp3ohQKFxZWfnlL395enp6cHAwvIM6nU6lUsnn87lcrlAowM3W8I77aagXcZ/P9/LlyydPnrx69aperw/1/XN0gEyc8g5xqKKEw+Hf//73//3f/w018XHJwU0m0+3btzc3Nzc2NgwGA4/HG1MnSJqLQiwWb25uisViFos1VBGHLXGZTCadTudyOZ1OdxlFvNFoZDKZQCDw8uXLly9fRiKRWq02+vtfLgoOhyMQCHg8HrVF20KhAA7gHo9n9M1PmEymXC6Xy+UwQL+4uLi0tORwOLRaLd39TcNgMDgcjkKhAF8zp9MJE0BDUpXz8/N6vZ5IJEKhEDxYD+OUt4EyEa/X6x6P59mzZ/v7+/v7+41G4/IoOIPBYLPZ4JlHbeaYyWQePHjwpz/9KZvNUhjGW8Jms7Va7czMzNbW1urqKkzPoygqFAqpDo1mJGCxWGKxWKfT2e32lZUVn89Xr9eH16PcaDQSiYTf7zcajUM64m2gQMQxDMtms263e2dn5/nz5+FweCx6kC8WLpcrEokEAgFVIo7jOIZhoVDI4/EEAoGRrWKxWCyBQICiqEajMRqN09PTMzMzy8vLc3NzMpls4ud3wDK7VquVy+VarVar1V53f2OxWDKZTCqVisViiUSCIMiozRyQDIvF4vF4KIo6HI5bt24RBBGPx4cn4rVaLRAIDKxxWSwWJS9nCkS8WCzu7u4+e/bs9PTU7XaPu53s+wEizufzqRJxDMNgL1KpVOp2uyN7k8nlcmUymdVqvXLlyrVr13Q6nU6nUygUcJ0w8RXwRqORz+cjkYjH44lEIrFY7PXeLS6XOzc3Z7fbzWaz3W5Xq9U8Hu8yizgAq66ZTGYkEnnx4sXwDqrX6+FwmM1m5/N5giDYbPbkizjsQQdXwlevXsVisVwuR2YAbwOHw+HxeEKhkM1m1+v1IfmEcDgcPp/P5XKpqomDiIdCoUqlMpoKzufzwSrWaDTOzs5eu3bt5s2b4Do0wdoNPfsEQVSrVfDQj8fjgUDA5XIFg0FYPD34wxwOJ5/PZ7PZVCpVKpWMRqPFYgE3Hlj4dzkFHXY2IQhitVr1ej2O40Oq1na73XK5nEqlCoVCtVoVCoWU9CmQKuKZTGZvb29vb293dzcUCo1gDs7lciUSiVqtdjqdIpHo5ORkeNaJsIqXKhGvVCo+n8/n843sXJVWq71z587S0pLFYpmamtJoNHK5nPKr4GHT6/Xq9XqlUtnd3T0+Pk4mk9FotFwuVyoVDMN+kFL0er14PF6tVt1u97Nnz3Q6ncVimZubW15ettvtEonkct4WwP4mFotlt9tv3LjB5XK9Xu/wVoARBAErfw0GAyXTmySJOOxdjMViu7u7e3t7fr9/dHbpstlsLpfL4/FgglalUplMprW1NaFQWCgUhiTiTCaTqn3qkHfX6/V4PB6Px0fqrRR8CODj3Nzc9evXr1y5YjKZ9Ho91aENETCMJAii1Wo1Gg3IrHd2dp4+fZpOpxOJxI81fcLS90FurlAo9Hp9oVCAffBarVapVIKvA4XpAvkwmUwOh8PhcIxG4+rqKizyHp6Id7vdXC4XDoch9x/SKT8BSSIOj4S7u7s7OzvBYHCksj+FQqHVau12O6y71Ov1SqVSLpdXKpW9vb0hHQpzhlS5MvX7fRzHC4UCbJslP4Afw2q1Op1Om802PT1ttVrtdrtGo5n4+Z1+v08QRC6X8/v9gUAAlseCNUej0Xj7tv1Go5FOp8H9Zm9vD9aHwtdz1Hb7koNOp1tfXw+Hw7u7u8M7pdPpRKPRo6MjmUy2trY2vIN+jKGLOEEQ/X4/Ho9DFcXlco1CDs5kMtls9uDt2uFwbG5urq6u2mw2WFvcbrdDoZBUKh1SACwWC65ByBdxyPva7XalUhmF3nD4UsD3wm63b29vb2xsbG9vj9QawyEBbkrQghKNRg8PDwePqu/xt7Xb7Xa7XSqVfD6f2+2en5+H9BNcekQiEfimXp6UHLZGWCwWiUTCZrOH1MTc7XaTyaRQKFxYWBhcL5H5RR66iMNk6tHR0e7u7oh4KsFEgFarBbMkMHeHAW6FQsHn88/Pz3u9Hrz9UB3sxQN5HzxxUx0Lg8PhqNVqnU5ntVqtVuvs7Oz09LTJZLokxdxKpZLL5QKBQCAQ8Pl88Xg8kUhciHdQo9GIxWL9fj+dTu/v78/Pz8/MzBgMBq1WOwqea+QA5vJarXZxcREeU4aRtRAEUSwW+Xx+qVSixGF86N/OdDoNztRPnjwZEWcrLper0+mWl5dv3br1ySefSCSSHxhRdbvdCRZxKL+OiIjzeDyDwbC+vn7nzp3bt2/D/tnL01MBu3e//fbbb7755v2y7x+j0WjASqzHjx8LBIJf/OIXP/vZz65cuaJSqS6PiA8etdfX1zEMgz0nF35Kr9fL5/Ptdjufz3c6HfJnF4b17QRXPAzD9vb2nj596vP5qN3twGazBQKBQqFwOByQ9E1PT8MNPoIgf9myxvweSqKdbDgcjlAoVCgUFovF4XDYbLaZmRmHw4Gi6MQ3n/T7fQzD6vV6MBj0er2JRCKZTHq93tcbBy8cgiDgHSIUCj1//txms83OzkKv/Yis+h0qcrnc4XBEIhGv1zu8U+A7m0wmoS+WTB0flogTBJHP52Ox2PPnzz///PNqtUrtTCCXy5VKpXa7/bPPPtve3oYLTHij/kuxnmwdoRxw8Xc6nffu3bt9+zbM7wy+F1RHN1z6/X6pVEqlUl9++eXvfve7crkMjVtDfXUQBHF2dubz+RAEEQgEd+/e/cd//MfZ2VloBBreuSOCUqmcn58Ph8NDvSHv9/vVajUajTIYDIVCMd4iDu6mhULh+Pj4xYsXbre7VqtRqOAqlUqn04Fbqd1uX19ft1qtUqlUJBJRFdKlRalUTk1NwUyK3W5fXFyES6fJroATBNHtdsFnI5VKhcPheDx+cHCQzWZxHCfnpQEDRBCG2+3++uuvg8EgfC/0ej2Mek5q+4pAIIDsWKlUoijabDaH8TXv9/vlcjkUConFYpvNduF//08wFBHHcTybze7t7f3+978vl8tD3Vv6RnQ63fb29srKysrKitlslkqlVA1W0Wi12tu3by8vLzudTr1ej6KoWCye+BLt4BXx4sWL/f19WJwEkzskm771er1+vw9eC3q9fmpqamlp6erVq7BnalJfFGBFoFAooHUYrrsu/BR4xgoGgwaDgeS7tIt//dTrdTC3Ojw8pGpPJgzvQNvJ+vr62toatD0olUpK4rnMwCsHPi4sLNy6dWtmZsZkMg2vfXMUgD7Oer1eKpXS6XQymYxEIru7u2dnZ5lMhsIu2/PzczDSKpVKhUKhXC5jGJbJZAwGg9FoVCgUcrmc2lniCwfaRZRKpcPhyGaznU5nGD1ycL3pcrlmZmZIfm++eBGHieE//elPoVDowv/ytwRBEBRFt7e379y5Mzs7q9frYRseVfFcZkwm08LCwsrKytzcHLS4wWUy1XENFxDxQqFwdnYGa2MDgUCxWKxWq9Te8A9otVpQz0kkEicnJ/Pz82trawsLC/BsNHmPR1KpFBzGU6lUJpO58L+/3+8Xi8V+v5/P58c4E8dxvFwuw0/twcEB+S3hLBYLRVG5XG4ymcxm8927d2/fvq3X68EMiORgLi0sFksoFIrFYplMJpPJNjc3l5eXV1dX5+bmYOXKxKR4f5VGo9FoNEqlUrFY9Pl8Lpfr6OjI4/Ekk0mqQ/s/EARRr9fBYyuZTMIbDOwr12q1arVaLBZPUrFLKpU6HI5yuTyk6U14xGm1WqVSCcdxgUBA2raAi/wOlcvlo6Oj58+fh0KhRqNB/mUmj8eDvG91dXVtbQ1ckyi0e72c8Pl8sDGAzTswRaVWqyk0TyeTcrkciUSOjo4ODg5CoVC5XIaqBdVx/RQ4jsNqLbfb/eDBg6tXr66trdlsNrvdPjEiLhQKtVotpHRDOgIWjoNTP4IgQqFwnEQc7gry+fzp6ene3l48Hn/dup4EWCwWgiAajWZ2dnZ7e3t7e3tra0sgEJAZwyUHrONgd6jD4VhdXb169eq1a9dEIhFpP82UMDCPbbVaOI77/X6Xy/X06dNHjx6l02mqo3srut0u5ODwW+jfwHEc7gOFQiHcDY71EBafz1cqlWq1GkVRLpcLd7wXewRMejebzUqlIhaLwWv6Yo/4q1yMiIObkt/vPzk5cbvd5PtbSaXS5eXljY2N5eXltbU1jUYzMRnEWMBisfh8vtlsXltbg8VpNptNp9PBC2ay6ycEQUC67XK59vf3U6lULBZLJpPDs80bNj6fr1arHR4ePnr0aHZ2dnNz02w2j/utEmy1lUqlOp1Or9eDte8wDgIfShRFURQlJ4/8UKV73dc0EAj4/f54PH4Rgb0tsJBJq9WurKzcu3fP6XTOzs6SGcAlB+wY4SZ5enr65s2bd+7cgUXGVIc2RODeElxocBxPp9PRaPTp06eff/55pVIplUqjYGnw3iQSiUQigSCIRCK5cuUKn89nMBj9fp/FYv3YfNzoA08SYrEYvHoIghiSiENGq9VqSasnf6iIw89xKBT6wx/+sLu7S7KCMxgMvV5/48aN1dXVxcXF+fl5CndOX07MZvPS0pLVarXZbPBRr9dP/CAVQRCdTgecT4LBYCAQiEajsVisWCy2Wq2xVvABnU4HquTdbndvb89qtYI7gs1mEwgEY9pfxOfzTSbT9PQ0juOpVGoYRzQajUwmYzQax0nEu91uLBb7+uuvh7cE5yfQarV/8zd/c+vWLY1Go1KpyA/gkmMwGG7evLm5ubmxsXF52vAJgmg2m5lMZmdn58WLF2dnZ7FYjOqgLhiYUQqFQqFQSKFQ2O32zc3NXq+nUqngCorqAN8HPp8PlpnD+341m81CoYBh2NiIeDabBRv7Ie2i/AnsdvvCwsLGxsbc3Bys1CM5gEvOysrKwsLC0tLSxsaGxWKZ+GvkQet3JpOJRCLRaDQcDrvdbhi/pDq64dJsNrPZ7PHxMci6zWaz2WxGo1Gr1cLd3bhUV7hcrkql0uv1w6vv12o18BPudDpDOuIHfKiIp1KpJ0+eHB0dkb9eYH5+/p/+6Z82NjbgAm1cfowmhu3t7X/+53+2WCxarZbP549168LbACKeTqf39vaePHny6tWrSCQCfSkkT+iRT7PZTCaTmUzm8PBQqVRubW1tbW3duHEDnJ7GqPWIx+NpNBqTySSRSIZ0RLVaDYfDuVyOtA699xdxHMdbrVY8Hj85OQmHw2TOodnt9unp6du3bzudTo1Gc6kcqEcHoVCoVCqlUinMNVAdzrAAi9FKpQIrSf1+fygU8nq9mUyG/KdPCun3+1A7LRaLfr8f/J7cbrfdbjebzQr0+OWwAAAgAElEQVSFQiaTjb4nIofDQVFUJpMN78Gx0WjkcrlKpdLtduF2ZNj55fu/9mAsLRKJuFyuWCxGpogvLCz8/d//PfgRTtJQ2XjB4XB4PN7Ef/F7vV6pVAqFQo8fP3706FEqlcJxvF6vj8KOKkpot9uRSCSfz5+cnAiFwo8++ujOnTtOpxNBkNEXcWhQgcxjSEfgON7tdqvVKog4CRWC938FRqPRk5OTk5OTTCZDzsZ0NpsN8/Q3b97c3t62WCwTbL02+sCe0okco+/1eu12G9oMstlsJBLx+/27u7v7+/ujsJWUWvr9Pszrw295PB60NkxPTxsMBp1OJ5PJ+Hz+aAo6DDTAABqfzx9GKWywN7XVanW7XQ6HM+w6wfuLeCAQ+Pbbb91uN2k5OJfLXVlZ+fjjj9fX12GdMV1FoRkG0EScSqWePXt2eHgI8zvFYnFEvKtGinA4jGGYy+UymUxzc3M3b96cnp6Wy+WjKeJMJhOeIIVCIYqiOI4P6Ymq1+t1Op1utwt7wIdxxIB3FvF+v4/jeLPZDAQCBwcHmUyGhPo9h8NRqVRWq3V7e/ujjz4yGAw/2IpJQ/OBQM23Xq9Xq9VisRiLxcLh8NOnT4+Pj0ulEmnrYdlstkwmE4vFMJxSLpeLxeIoN56Xy2WwBoxEIplMptvtZrNZo9FoNBplMplUKh2pxzUYU+LxeHK53Gg0go/jMA6CJtRWq0WCTL2PiOfz+XQ6nUqlisVio9EgwXdRKBQuLS3duXMHelHoHJzmwoGNVKlUyu12ezwet9sdiUTS6XSxWCTTCIjP5zscDrvdDqvUjo6OXr16Re1albeh3W6Xy2WY1z85OXE4HAvfIxAIYOZzdOByuWq12uFwEAQxDFtaxvci3m63Sdha9Q4iDulAr9dLpVLHx8exWAzDsGH3QkINC5bTf/TRRyaTSS6X0zk4zQXSbrc7nQ7s9Xa5XK9evTo+Pj49PR3SRN9fAs/4fD5fIBCo1erl5eXl5WWxWCwUCplMZqFQABfyTqfT6XRI9qp+S2AyCBwIAoFAIpGAlV48Hg9amODaE5oRKc/KORyOQqEwm83ZbHZIRwwycRLaT98tEz8/P2+32wcHB7/73e8ikQgJCQKKok6nc2Nj48qVK3a7HUVROgenuVjA+QS828LhcDabLRQKZJq4iUQilUplt9vn5+edTqfD4TAajVwul8PhaDSa9fX1QCBwdnYWiUTi8Tj57nLvSrPZjMfjzWYzEok8fPhwdXV1fn5+ZmZmamoKQRDKFZzxvenpUBsNO51Oo9FoNpujJeJgudloNDwez8OHD4cX0wAWiyWVSmdnZ69duzY/P280Gkk4lGbiAe8q8E/udDrRaBQc+549eza81OyvwmazYYbQarVubGzcuXNnbW0NauLwB2w227Vr1w4PD1EU5fP58NDQ7XYJghjZQjnsSS8UCh6Ph8FgZLNZmGgVCoUKhYLP58O2BApHhEDEh9poOKKZOJhFhMNhcjYEgjP1/Pw8+HJMtiseDZl0u91SqZTJZNxu9+HhYTqdTqfTsViMzPZBaFpwOp1LS0tzc3Nms9lms5nNZolE8npfB5hEWq3We/fuTU9Pb29vezwer9cbCoVg1TJpAb83wWCw1Wp5vV6NRjMzM7O+vm6xWHQ6HYXGtiwWSyQSKZXK4RWswV++3W6Ploi32+10Ou3z+ci5qUcQxGg0Op1OKBGScCLNJYEgiFKp5Pf7v/7669/+9rdQayY5BrBQdjgcn3zyyfb2tslkkslkf/nHoEcFmj2Wl5fL5fLBwcFXX31Vq9W63e5YiDgY28Kvr1y5cn5+zmazpVIphSLOZrNFIpFcLh+e4RKMGnS7XRLuMN5BxDEMOz09vX//PjmGbQqF4tq1a9evXzeZTCQcd3k4/x6qAyGVbrfbarXK5XIwGIzFYmB/73a7O50Omc4nbDYb5tRhVdj8/Pzi4qJSqXyb/g0ulysWi+12+7179/R6PdgAeDyecDhMQuQXQjabffz4cTqddrlcFovFYrGYTCYEQch3r4NC1vAu2GDep91uj5yI7+/vf/HFF+Q0PGk0mrt373700UejOTUwvkBFuN/vXyodh/mdUCj0xRdfvHz5ErYDEwRBcvcel8tdXFy8e/fu/Pz86uqqSCSCNQtvUyDm8XgDHb9+/XokEvH5fP/1X/81RiKeTCZzudzLly+NRuPCwsLdu3cFAoFSqSRZxGHYGHbODemIkauJt1otDMPAX7HVag07JrVaPTMzc/36daPRiCDIGHmk0YwU8F5VKBRyuVw6nQ6Hw8Fg8ODgIBqNVioV0sYvEQRRKBRKpVKv1+v1elgiaDQaFQrFOznPwKAKVMmZTGav1+NwOJ9++qlKpSqVSvl8PpvNplKpUW4q7/f77XZ70GDDZDJLpRLcB2i1Wo1GA22Iw+5gGfR0Ds/5BzYmj1B3SqPRSCQS4XCYnLWBVqv1V7/61dbWlsFgoBWc5r2B/pNYLLa7u3t0dLS/vx+Px3EcJ+e6aQCKojMzM0tLSzdv3lxeXpbJZLB69EPSQD6fr9VqFQqFxWL55S9/6XK5Dg4Odnd3oTv7AoMfBu12G9YmhMPhFy9eLC4uQg+xWCwevEUNNQBY6j1U903Yi4TjOAmrId7q31Cr1QKBgMvlGnZfilgslkgkDodjfn7eZrOJRKJR6CqdMJjfQ3Ugw2JgHpvJZNLp9NnZmcfjCQQCoVCoXC6TEwOPx0MQRKlUQgM4rH5dXFy02WzQAP6Bfz/ci8J2U7jhYLPZCIKIRKJkMlkoFIrFYr1eJ+G5+f2ArfAAi8Xq9Xr1ej2bzVosFr1er1QqJRLJ8OY8SRBxGAAeoYtNDMM8Hs/R0VE+nx9qNEql0mazOZ1Oi8WiUqlGbVp3YphsHe/1erlczu/3v3r1and3FxbP12o1crw2AZFIBLOXGxsbCwsLer1erVbDsPHFPlzC91Gr1SIIYjKZVldXPR7P4eHh6elpNBodWREf0Ol0UqlUvV4PBoOPHz/e2tra2NhYWlpyOBwkiPjwZr/Pz8/BzpCEm6c3iDhBEPDsEwqFgsHgsBtpDQbDlStXVlZWqG0jnWwmUsGhGQA87rPZbDAYdLvde3t7e3t7JJvHKhQKrVYLnsnr6+sbGxsOhwNF0WHc3Q2+iSiKoiiq0WgcDgeYwcrlcr1eHw6HS6US1FhGc/1Qv9+v1Wq1Wi2ZTDIYjGazWavVSqVSKpUyGAwajQZGci5WbUm42IQN8uS0D7xBxNvtNtyZlEolDMOGXW4zGo1bW1vz8/MTvy6d5mLpdDqFQiGRSBwcHLx69Qo82vL5PPmpqMPhuHPnjsPhsFqtJpNJrVZDBZyEo9lsNp/PNxqNfD7fbDYnk0mPx7O3t3dycjIuk0HxeLzVagUCAYVCMTs7e/v27dnZWY1Gc+FfwGHnMYMesOEdMeANIl6v12OxWDQaLRQKQ309iMVikUjkcDiWlpasVitdSBkeE9MnPnDfxzCsWCyGw2G/3//06dMnT55AsZWcMFgslkQiEYvFAoFAKBTeuHHjk08+mZqaMhgMJD9Nwiy7SqVSqVQWi6VSqVgsFth+AG9plUoFw7BR/tYXi8Visejz+bhcbigUYjAYtVrNZrPBozmKojDpelH6OzwdJ7OR9w0iXq1WvV6v3+8fdl+KxWKZ/X/snVdzG2eatpFzauScA3MSJZGigxzWuzsztT9g/9xW7flW7cnszOeoGVkiRUmMIAAi59SNDDRCI3wHj82RNZKsgG6CUF8HrrJE9vsK4e63n3A/Pp/H45HJZBSkpz9y5kPHoYorl8udnp5Go9FYLJbJZHK5HMzHomwbAoFgcXHR5/NBqZzVanU6nS91z1MPl8uVyWQOh4PH43m93ng8nslkDg8PT09PZ798BYZ5FgqFn376KRaLOZ1Oh8MBjVHQGUTrw4u8VsThGw4iHovFKBDxu3fvejweyp49P1puroJf7RmmatXrdfCw/vvf/356ehqPxyuVCmWbgYZ4sK9aXV3d29uDUjnKNvBmuFwudAZZrVaCIMBuBWqFW60WvIAUVL+9N1Dgj2FYIBBwOBw+n28wGCC/AsNdQcppQX+tiIPNW6VSoUbEzWbz9vY2HUiheTOj0Wg8HqdSqXQ6DYWDyWQykUiUy2UqY74KhcJgMJjNZp/P53Q6PR6PzWbTaDSUbeCdYLFYOp2Oz+ezWKytra1UKhWLxVKpVDQapbJi5/3o9/vFYnEwGNRqNb/f73K5XC4XvOBQV06L+JtEfDgc1ut1eBAjex96vX5tbQ1BELq7h+YNwIN2Npt9/vz5w4cPDw8PyS57fSUQqdja2vqXf/mXtbW1GRxe8yJsNluj0cAsm/F4fHp6+vDhwydPnhQKhdkX8eFwCEfycDj8888/g6cpk8lUq9V0XAV4rYi3Wq1isQj3QPKWFwgETqfT6XQuLCzw+Xz6LaF5JYPBAApOwuFwOBxOJpO5XC6dTlN5+haJRBKJxG63Q/OO3W632WxWq5XP59+UQSXQtW8wGHZ2dvR6/cLCQjKZTCaTMAYaXL9nmeFwmMlkhsNhuVx+/PjxwsKC1+s1m806nW7WKpIhATvFHOwbeK2It9ttcKshVcSFQqHX671//77L5aLzmTSvA8bvnp+f//DDDz/88EOr1YKQLpW1zyKRSK1Wb25u3r9/f3l5WaPRQBL+pig4wGQytVqtSqXyeDy3b98OhUKPHj2aTCYEQcy+iI/H43w+XyqV/H4/h8O5d+/eV199NRqNpFLprIk43C+pifa8VsQbjUYsFsvlcqRWFnK5XKPRuLa2ptPprjIVNDQMBmMwGOA4fjVJPZVKXV5eBoPBarVKWX0FWHmYzWabzQam3isrKz6fDyreyJsLQxLw/QLfROhaHA6Hw+FQKpUmk0mYjZnL5QaDwczmPKFuDz4AsVhMJBKhKBqNRi0Wi91u12q1QqHwd0c9QDslqQ1Q4ItAjaa9VsRrtRqMHCS13pbH45lMpo2NDYFAcLNONDRk0+/3URS9vLx8+PDh48ePwYyw1+tRWSHH4XAkEsnGxsYf/vAHm81ms9kQBBEIBFczf28uHA5HLBbbbDadTre2tpbP54PB4E8//dRutym2KHhv0uk0iqJPnz6FB4s//OEPt2/f1mg0byPi0ItO3r0KOkKp+Zy8QsThXlev15PJZKFQICmcwuPxlEqlx+MxGAxSqZQ+g9Mwfq0dbDabYB4bj8cjkcjJyUkkEmm32ziOU7kZgUDg9Xo9Hs/Ozs7a2ppWq9VqtbOcwHwnQFzYbLbgV+BgLhKJCoVCuVyGt2CWi8phJFOn02k2m4PBQC6XNxoNi8Vis9nUarVWq+VwOGw2+59ldDKZDAaDbrdL3r8OumenbpXzSl4h4tAIV6/XU6lUqVTq9/tkLAz9mZubmwaD4aYfamimBZyPMpnMs2fPgsFgIBAAF/tGo0H9A75YLN7Z2fnqq69sNpvdbifV9O564XK5CoUC/ru+vh4Oh+Px+PPnz+v1+iyLODAcDqHn68GDB8FgEKokNjY2xGKxUCh8ZcgLRJzUpjAOhwM1SxQEGF7xoex2u+12G/pfyXuqEolELpdra2vLaDTSx/CPFujfARekdrtdLBbL5XIoFHr27FkkEonFYlcDBK4FKLTt9XqtVmsymUCIc/7sw8DGVigUqtVqBoOh1WotFotEImEymYVCodFoNJvNVqs1s56IMLap2WxmMhmoqavX6ziOw6AJpVJ51UALbxwkckk9iXM4HLiFXI+IN5vNUqlUq9VITf2Dc6bP51OpVOStQjP7wDcqn8/D2B2/35/P58vlMnwPr3Fj7Xb70aNHuVwOWjGhzUQqlVJTN3aNgAu0XC73eDzxeDwQCEQikWg0WigUrntrv8NwOERRFApSz87OlpaWlpaWVlZWPB4PgiBX7xokNkkdrwoiDg1WJC3xj7X++Y/q9Xo6ncYwjKQHWMj4KxQKk8lkt9upn5FKMwvAOHAcx+v1OoqiwWAwFAo9efLk+Ph4RrJq/X4/GAxGo9FyudxqteC+AmPVpFIpqcO9rhe5XC6Xy/V6/fLycjKZ1Ov1Go1GIpEIhUJIexIEMZvlK1fGttlslsFgwGkADulWq1Uul0NNEQXhFJjXcZ0n8VwuV61WSXqf+Hw+mB0rlUqRSDSv3wSaN9Pv90ulUiKRODk5OTo6qlQq4CJNUg7mvRmNRtlsdjgcgkXi+vr65uamx+PR6XRSqfS6d0ciLBaLw+FoNJqNjQ2dTufz+UKhUCAQCAQC1Wr1esNcb0mxWByNRvl8HobAra+vezweo9HI4/G63W6j0SAvQASJzWurTmk0GtlstlKpkCfiWq3WbDYrlUr6GP5RAf6cUKJbrVZTqdTJycn/+3//77vvvrvurb2W8XhcKpVKpRL8bz6fH4/HV/Ppr2qB5y85D70qKpVKpVI5nc5ms+l2uyUSSbfb5XK5g8EAxo9d9zbfBPTrB4NBBoMRi8V6vR5Ux8tkskajQeqw7GsW8XK5DFUBJL1DMpnM4/EsLy9DFoXm4wEyhNls9vT0NBaLQRdPIpG47n29A8lk8ttvvw2FQnq93mazbW5uOp1OuVw+32NMoKjcbrd/+eWXdrs9m81ms9mTk5NAINDpdGZcygEoX0kmkx6PR6lUQhlrtVolaTkulwvlMRREGl6xAIZhkUikWCyS9N6AAYXX60UQhIzr08wsg8GgXq+Hw+E///nPR0dHMC7qujf1buRyuVwuJxAIpFLpwsICm82Wy+U8Hm/uRRx03Gw2b21tgYiPx+NMJgPtnbPvbAyV736/326363Q6iFaTZ87K5XJFIpFQKKQ0Jg5FAgRBQO6i1+uRNFuIz+drNBqDwTBrdgc0ZADNzWAeC73dsVgsEAjUarWZLVn7XQiC6HQ6qVTqz3/+czgcdrvd0M8JFkDz7QLE4XCUSiWHw/njH//o8XiSyWQ2m02lUpFIhOJxpu/BYDAA12IIiJF3EudwOCKRiOrEJmRse70ejuOdToe8/BKfz1epVFqt9ne7Y2nmAKhCicfj+/v7Z2dnJycnKIqCss/+8e11jEYjHMez2Wy5XD46OlpdXV1aWrp3757RaLwqJ7/uPZIFPHzIZDKtVvvJJ5/4/f6Li4v9/f1CoTD7Ik4QBIZhV9pN3gzMqxJDqkW82+3WajUcx0kqn4QeX7lcLpVKRSIRPcFnjoHUZa1WSyQS6XQ6GAyGw2EY1krZ9EuyGY/H8MCaSCSgjbtUKpnNZofDoVarVSoVtAvOmaDDqHgGgwHRXqvVCtlCqVSaSqUKhQKo5MwGyqBInOxVrjo2KU1sTiaTdruNoiiO4yQdkaC4EMpsBQLB/CX0aa6A7vlQKPTDDz88fvy4Xq/3ej0wu7jurU2ZwWAAjYIXFxd/+ctf7ty58/nnn6+urvL5/I/BIl+n0yEI4nK59vb2YrHY48ePT09PA4HAzIo4NYCICwQCSl0MJ5NJp9OpVqvdbpckEYfEiMlkgrY3MpaguUaglRnKvVOpFPjHnp+fJ5NJKs1jeTwexOsqlQqGYeRld664cmJiMBjQB4SiaCKRcDgcRqNRrVZDeJTUPVwX4NUnFAohwUsQhEwm0+l0RqOxXC6jKNrtdm9u8uM94PP5YrEYGv2pOaf+Q8TH43Gn00FRtNPpkPShl8vlPp/P7XbL5XIyrk9zvfR6vXK5fHZ29sMPPzx8+BC+vc1mkzIFZzKZPB5PJpOtrq7eu3fv6Ojo+fPnGIb1+32ydfyKVCpVrVYPDg6EQuHW1tb9+/e3t7dNJtO8ijgA906dTrezs7O4uFgqlWKx2P7+/sHBQbFY7Pf7Nzf/8a7I5XK4c1NmePmbkzj0Fnc6HZJecZFIZDQa9Xo9ndKcA6DDZTwe9/v9TqeDYVipVIIa8KdPn/r9fio3A87GEKwzGAzr6+u3b9+GM1Emk4HofKVSoeBIiOP4leXLZDIRCATD4dBqtZpMJrVarVAoOBzO/GWDwBQMXLQUCoVKpVIoFJDjTaVSuVyuWCyS5+QxU0gkEqPRqFQqKXuXf3MSbzabMDuVpGOLQCDQaDRKpXK+TyUfCdCWPRqNWq1WPB4/PDyMRqOZTCaVSuXzeYo3I5FIoEQERqFDOEWj0WxubsZisVgsBs6IxWKRyl0VCoVHjx5lMhmTyeR0Ou/cubO8vCyVSudPxF+EzWaLRCKY5Ol0OmOxWDqdfvTo0eHh4ccQKAcRRxDkGkR8MpnU6/VMJtNoNEg6iYOIq9VqWsTnAHCOZTKZ1WrV7/f/7W9/i0QipVKJvAaKl+DxeAKBQCQSSaVSq9X6ySefbG1teTwer9cLP2C1WhkMhtvtDofDGo1mPB5Ho1EYLtHtdikwaanX6+DLr9FootEolPAajUatVisWi6VSKcxgnLPkJwwIFggEKpVqYWHBZrPl83kWizUcDguFQqfTwXEcXLSue6ekIJVKwVMEzG8p4Dcn8Xq9ns1mm80mSSdxHo8HFaaU/fNoyCORSDx8+LDRaCQSiVwul8lkarUaleWDCIJYLBaHw7G4uOh0OiGL+M9twAiCeL1eqVRqMpmSyWQgEIjH45lMJpfLUbPPwWBQrVZhsnMwGFxcXHS73R6PZ3FxEQZNzJmIvwSCIBwO58svv3S73alUCrq9Li4uMAy77q2Rgkgk0mq1crmcMmu/34h4o9HI5XKtVosMEWcymQKBQKFQ0CI+H8TjcRaLlc/nQ6EQZdrNYrFgggHMTgNrur29PZvNBgPG/vlXwFjVbDavrq4WCoXHjx8fHx+LxWKY9gBdEaSmPYfD4ZU/KofDSSQSS0tLtVqNw+GoVKqrnol5tfOUyWQymQyiK8lk8ujo6Pj4mCAIDofT7/dhaOo8xcrFYrFer4dJSdSs+JtwCvgTkfGYyeVyeTweFFrNwZBZGgaDgWEY2DdT+VwMUYjFxUWv1+v1em02m9ls1mq1v/uhgvIJpVK5vr6uVqs9Hs/Kysrl5aXf7weFpaZ8ZTQawTh58PHwer2Li4sul0uv1893yRY8bSAIsrS0BPfURCIRi8Wi0WipVEJR9Lo3ODVEIpFarZZKpddwEmcwGP1+nyQ/frCDAUcY+hg+H8AAPypXZLFYEolEq9Xevn3766+/9ng8arX6Ld2Mr+rHVSrV0tIShmHpdPr777+Hh3ocx6kR8clkUigUCoXC2dkZg8HY3d396quvwBx17kWcyWQqlUoYj3779u1kMvnw4UMGg0EQxDyJuFAohAcsSkUconWkWkrC3Qnqq0hagmaOEQqFXq93aWnJarVaLBafz+dwOGQy2ft9nNhsNmSfPvvsM51Ol06nwRggEolQlpUFMpnM3/72t0wmYzQaISVrs9lgAA2V26AYSHvq9fq7d++q1eorW7R4PN5oNMgrcSYbyLTLZDKKO9I5jF+tr7rdLnmRKYFAgCAI3ahJ836IRKKlpaU//elPLpfL7XaDTfN7z7pksVjg9axWqzc3N0FBeDwelaU1AMwPOz8/F4vF6+vr//qv/8rn87lc7nyLOIvFAitTpVLp9XqLxWIymfzpp59Agnq93g0NkfP5fKlUKpFIJBIJlY4LHAaDMR6PCYLo9/vk+cJIJBK9Xq9SqehYCs1bIhaLjUajRqNRqVRWq3V9fX1hYUGn0733AfwKeLSHOneBQGA0Gtlsdrfblclk8Xi8Wq2iKApT3qf1b3kd4/EY/Lh7vV40GpVIJLVazel0WiwWs9lsMBigM2jOyldefP3ZbPZkMmGxWL1eTyaTJRIJGBWSzWbBxuCmwGKxEASx2WxqtZrNZlOZ9vvlJA4iTt4NUC6XWywWnU5HizjNW4IgyK1btzY3N1dWVhYXF8VisVgshq/9dBcCRzaj0fjZZ59Fo1G/3396evrzzz9TdioHN8RkMlkulw8PD30+n9fr/eKLLyQSCQyhnTMRfxE2my2TyaAsb2dnJxqNxuPxH3/8sd1u3ywRZ7PZGo1meXlZr9dTHG/4RcSHw+FgMCAvt8Pj8WBaNl2XQvMGoPgEQRCtVut0Ore2thYWFlwuF/idkqRlMMYBIn5sNhuS8Hw+32q1wgQvKF8hY+kXuXLRYjKZnU4HRhbo9XqTyaRUKtVqNVTgzJmgM5lMGBt01QAoFov7/T6fz08mkxiG1Wo1DMNmX9DhJO50OlUqFcUq90s4BUScvHAKvEl0cSHNm9FoNA6HY3V1dXd31263a7VaOKZRoFxwk1Cr1WKxGIZnZrPZ/f39k5OTRCJB2bgDgiAKhQJMkf72229XVlY2NzfX1ta2t7ehf2S+s0pKpVIsFms0mnv37kFR+fn5+bNnz2ZfxNlstkql8ng8Wq32ek7iBEGQmk+4mnNBizjNS3A4HD6fD8VnYHK5vLx869YtvV4PDY3UbAPuE+ABLZPJ1Gq1Tqcbj8fwpC+TySqVSrVaheYUUnfS6/V6vR4Ec4bDIUxMxHHcZDJBMnCOjW3BhB3aa2EInFgs5nK5arW6Xq+DUfZsGtsymUy5XG61WhUKBcVPS7+cxMmuToFHVHoQBM1LsFgskUikVCq3tra2trZcLhc072g0mmu85YOlrUKhWF9fN5lM2Wx2Y2Pj6Ojo6OioWCx2Oh3KyidKpRJBEOl0+tmzZwsLC5ubm6urqxaLZV5F/ArQxKWlJY1G43K5wJj++Pi4WCyWSiXKjIXfHhaLBZkVkUh0PeGUfr+P4zh5RwxaxGlegsPhSKVSpVKp1WotFsve3t7e3h54eF579pvFYrFYLBg5ZrfbnU7n4uIi2EXEYrFyuVypVFqtFgVTiprNZrPZTCaTDAYjlUo1Gg0cxyuVit1uh3pkCOiTvQ2KgZMspLKNRqPb7S6Xy+DQnUgkksnk1es/O2rOZDL5fD6UTl3PSZyCcAoUwNIiTgNIpdLV1dX19XW73e5yuUwmk8lkkkgksxbzZTKZYrGYyWTeuXPHZDLFYrFkMnl+fu73+yk2ti2Xy/2MC2EAACAASURBVM+ePSuVSnq93uPxrK2tLS0tIQiiUCio3AbFsFgsgUAAFf1qtTqdTmcymePj4/Pzc2rGNr0lk8mk3+83m02RSAQfGMqW/k2JIXmJTTabzefzeTzenOXWad6Jq/y2QCCw2Wy7u7uff/652+12u93XvbXXAgEfaDleX18HHz6ZTDYajVgsVr/fBxcnCgIstVqtVquFw2GJROJyuer1+mg0slqtRqNRIBBA6df8la9AZxCM5/V6vaVSqVgsSqVSBoORSCRqtRokDCiYffxmxuMxhmGXl5dGo9FqtcJ5nJr34pes0WQyIbXV9aqwf84+YTTvBIIgbrfbZrM5nU6bzWa32x0Oh1KpvO59vQNyudzhcLBYLLPZnEwm4/F4Op2OxWKUncpHo1G3283lco8ePcrlcvB6ut3uxcVFiFjO8VcM4s5MJvPevXvwVAQvvt/vv3Zj28FgcHJy8l//9V9ffPEFdKdTFlf5jYsheToODqK0iH/kKJXKtbW1O3fufPbZZzabDU6O172pd0OhUCgUCqvVurOzUygUHj58eHh42Gg0KBNx6AwCF63Dw8OlpSWPx/P5558bDAY2mz3fVbwsFguMbY1G497eXjgc9vv9+/v7uVzu2kWcIIjT09PT01OBQPDZZ59B/o+6QcmTyWQ8Ho/H4xvqO0Mzy6hUKgRBXC6Xw+FwOBw+n89isSAIcqMf/OHJEkGQ9fV1lUrldrsh4RaJRKrVKoZh1HyVRqNRsVgkCKLT6YTDYafT6fV6oWVfLpfP38ygl1CpVPD8odfro9FoOBxOp9MwT/Uad+X3+//7v//79u3bt27d0mq1FKz4j3AKLeI0ZIAgiMPhuH///qeffmoymRQKxRyMs4E+Q5lMBlM919fXURR9+PDheDyGTktqQrSTyQRF0Wq1mkgkfv7557W1tU8//XR7e1sqlcpkshv9Cr8NCoUC3CjX1tYSicRf/vIXmNx9vSIeDodhTLHT6aRUxJm/QsGSNPMNFFnLZDKbzQbhWrvdvri4aLfb5XK5QCCYtfqT9wC+KRAhhGSPUCi8c+eORCKBzGcymUylUrVajewyOPDMgLRqMpnkcDi5XO7k5MTtdkPiAWZpkbeBa4T9K1Bk+dlnnxkMhng8HgqFYrFYOBy+ll3BCKeLi4tHjx71+3147iR1xX+I+I1+vKWZHaAmDEY3fP7553a73Ww2SyQSkO/5i9hCgTCXy11ZWXG5XNlsNplMPn78GLwJyZ799iIoirZarYuLCz6fv7S09OWXX8L3el5FHIBxH2q1+s6dOz6fL5FIOJ3O77777rpEvN/vEwQRi8UODg6g+5QKEafgGE6H3T8GwPXCYDCAfRUYEEKn+Bycvl8Hk8m8Og+CY75IJBqNRjwez2azlUqlQqGAomiz2SR7JwRBXPXrwRSk0WiUSqWsVqvBYIAmWCp9rqkBtIvH4/F4PKiz5HA4OI73+/1isVgoFGDkJGW30slkMhqNyuXyxcWFWq02GAxSqRT860lakaKT+Gg0gnGotIjPMSqV6vbt2zs7O16v1+12Q0vhfNdL/DMw1QVBkI2NjUQiEQ6Hnz59+uTJEwpE/EVQFH306FE4HDYYDFar9f79+3fv3lWpVFwud45vqFwuV6PRiMVitVp969atBw8ePHjwIBaLVatVMkYHvwEMw9rttkwmg+mpFouFXBEHBSe1/g/uTjPSW0UzRYRCIaTRoAZ8e3t7e3vbbrdbLJbr3tr1AEdCsVis0+mkUimczaGUpVarQRs9juNkb6Pf76Mo2mg0KpUKiqJ8Pn8wGEBnEIIgCILMpbEthPLgSK7T6cBKRCqVJhKJUqnUbrcpG+oNxsLJZPL4+FgqlfL5fIVCAU9sU1/rl5P4VX5m6gsA4HY7Go3ok/icoVarFxcXl5aWbt26ZbVaYRCPWCy+7n3NBAqFwuv1QqtnLpd7/vz5xcVFMBiMx+PUbIAgiHq93u122+3206dPl5eXvV7vysrK9vY26PhcnsohusJms7e2tmw2m9frPTw8PDk5iUajFI/2zuVyDx48IAgCQRDwxiJLxCGKROpj72g0GgwGBEHQh/G5QalUKhQKsNZbW1u7e/euTqebe8PrdwKMbaE5yOVy8fl8MFZls9m1Wq1SqZB9pgFDD/D0YDAY7Xa7UqngOM5iscDYFoI/fD6f1G1QzFWWwmg0Go1G+EN4qTkcTqPRoMzMtt1ut9ttBEGCwaDZbCbJfvKXcApMNiHPuxlGlnS7XVrE54aVlZWdnR2Xy+XxeAwGAzwtztnj+VSAonKJRLK0tKRUKi0Wy9ra2sHBwYMHDyjwQXyRcrlMEASGYcFg0Ov1gvevxWLRaDRUboNi9Hr99va2SCTSaDR+v//4+DidTlO5AQzDnj59ymKxvv76a51ON/Xr/3ISB08i8kQcmspmx3KM5sNZXFz805/+ZLVa9Xr9tZvHzjLwgCsWi91uN7StYhiG4/jjx48pFnGw0IJgzsLCQrPZrNfrnU6n3++LxWJ42KdsCgdlaDQaKJHS6/VKpbLdbrdaLSqHS1Sr1aOjo06nY7fbvV4vWAFO8fq/nMShQIrUcApdnTJngHsy9Rb4NxomkykUCqHp6Xp3gqLo06dPM5nM/v6+0+lcX19fXV0FZ5jr3RhJSKVSm802mUy63a5CoQgEAsFgkJqlB4NBvV7P5/ORSOTi4gLSy1O8/i8iDn7f5EUz6Zj4/AGNDEKhkA6hvBMg39duN1ipVK6yfHa7/T/+4z+EQqHZbOZwOFwu98pJdW7eXHDOQhBEJBLpdLrJZJJMJuFkSfbSw+Gw2Wzmcjm/369QKLhcrl6vhxd2Ki/vP0Sc1ALSwWDQarVwHKdFfJ4g28F4LplBn6J6vf7s2bNer2e1Wq1Wq8fjcTgcYrF4PjwSXoTP5xsMhuFw2Gg0RqNRJBIJBALULN3r9YLB4Hg81mg0Xq+Xy+VOK59MUTil3++3Wq1Op3Pt3u0002IGxehGMIOty41G49mzZ5eXl2B3880338hkMpjGcN1bmzIg4hKJBGZ9MBgMikW8VCptbGy0222xWDytITkcBoPBZrMFAoFEIiEvPdVut4vFYqVSoazYnoYaZkqMaN6PyWQCcVsWi9VutxkMRiKRsNvtbrfbaDSaTCaxWHwTzd//GYg6iMViaEaDbqBEIpFIJCjIcw6Hw1arFQgEvv/++8XFxbW1talI7i/VKQKBACpYP/yKr6TT6ZTL5VqtRos4Dc1sMhqNqtVqs9lEUfTg4GB5efnu3bvr6+sSiYTP53M4nDkQcYDD4Wg0GpFINB6PhULhjz/+WCwWqSlWGQ6HkUgEsg5LS0tTE3G4O5HavtXpdEqlUrVaHQwGcHabm4QJDc3cMBqNRqMR2IyA0DSbzUqlAhZaer0evJyue5sfChRVs1gsOI9jGIaiKPRzkm2xAnM8JpOJ1+uFbq8PTzz8IyZOasdmq9Xq9XoYhoGd2DxlvWlo5pJSqdTpdC4uLr777juv13vv3r2dnR1IeF731qYDm82GntVWqwVienR0RLaIj8fjcrlcr9djsVgmk2EwGDqdbjoiDh5YYGbU7/en3oMAd3jwhyQIgry4DQ0NzVSAfn0oQ+x0OhwOZzweF4vFcrmsVCpVKhU0rdzc0xiTyQRfBIfDQRBEo9FAUXQwGOA4TmrdIbyw2Wz2/PycwWCAic2HXPAf3VksFgtBEIvFUi6XSXJ1gEHdvV4Pzv5Tvz4NDQ0ZYBh2cHAQj8fVarXD4bh79+7Ozs7cOMVDvUq73Ya6w3Q6Xa/XyV40mUx+9913k8nE4/FIJJIPudRvRFwqler1ehzHa7UaGbWABEG02+1OpzPFGkkamo8QNpstFov5fH673e52u2Qv1+12u91uqVQSi8XZbHYymXA4HJvNZjKZ5HK5RCKBLpMbeioHx2Cv14thWOtXyC6GRlH04uLC5XLV63WoDHzv2+E/RJzJZEqlUq1WWyqVSHozBoNBrVZrNBpCoXBuIms0NNQjFotdLpfBYAiFQpQZ247H416vVy6Xnzx5ksvlPB6P3W5fWVlZWFi4mn9NzU7IwGg07u7udrtdKIYmO6iC43i5XC4UCtlsVigUKpVKqFt/D35zEpfJZEajMZlMkpThhNwmhmHz6s9AQ0MNYrHY5/Otr69zOJzBYNDr9brdLkEQpDpqQTl5tVqtVqvn5+fhcNhutzebzdFoZDab1Wr1i02eN+5UrtPpNBpNs9mMxWKVSiWXyzUaDfKWg8h4JpMJhUIwNm8KIs5kMiUSiVarFYvFJL0BvV4PRdFKpWI2m8m4Pg3NR4JIJHI6nbu7u+CzGovFLi8vC4VCPp+nrBWjWq3CsJdIJOJyuVZXV+12u8PhUCgUN07BASaTaTQaP/30Ux6P98MPP5Aq4kChUHj8+DGLxVKr1e9tCPzySVyv10NP6pQ2+Rs6nU42m7VYLB6Ph4zr07wldJvlTUckEjkcjp2dnY2NjcFg8Pjx4x9//DEQCPR6vUajMRwOKfB1AmPbRCLBYDB8Pl+pVLp16xaXy2UymXw+H2w8blDaE4r0TCaTRCJRKBTxeDwej5Pt2ZfP5x8+fCgWi1dXV10uF1QJvutFfnMShwGjIpGIpBtpvV6/uLhAEGR1dZWM69O8DZNfue6N0HwQ4/F4NBrBKCW3281kMt1u99LSUiwWi0ajhUIBAizUbKZSqRwfH5fLZb/fb7fbFxYWfD6fQqFAEISaDUwLHo8nkUgMBsPW1haO45FIJJfLkbfcYDBoNpsYhhUKBRRFwdv5XS9CqYjXarVWq6VWq2u1GhnXp3lLwICJ1vGbC0weH41GXC6Xy+W63W673Y6iaC6XOzw8ZDAY7XYbTPyp2U+lUmk0Gufn52w22+l0/uEPfwC7lRsn4tCnajQat7a2xuNxq9UiW8QJgkBRNJ/PoyjK5XKnIOIqlYo8EZ9MJgRBwNjWVqs19QkX0+JjULeP4d8490wmE3gA5/F4PB5PrVZDG51MJlteXs7n88lkMpFIkCpDVzshCALuGdls9vHjx+1222KxmM1mp9NptVrBen72oysQVJFIJD6fbzKZRCKRRCIBFZYkrTiZTKrVaigU0ul0QqFQpVK96xV+I+IwpYVsu/rhcNjpdNrtNgylJm+hD4GOOdDcOAQCAZfLlUqlbre7UCjE4/Fnz54RBEGBiL9Io9E4Pj6Ox+N6vd5gMHz99ddg6UGqO9N0EQqFNpuNxWJZrVaVSlWtVkktxq/X65FIxGg0ulyu9/j134g4JCXkcrlarR6PxziOk6FiUKNSKBRYLNYHtiqRB9ljTeAAdUOT+DSzCYx45/F4cOyFgj+pVOpyuSDkWiqVMAwj+2gyGo1gAkyn08EwjM1ml8tlmMhsMBigPZLNZs+yJyKbzRaJRGq1emNjo9VqnZycXE1BIoNWq5VIJMxmc6lUarfbkBZ++1//TXE+vLIymUyr1fZ6vX6/T0aO+0rE5XI5GbOfPxwKtPVKxGkdpyEDoVBoMBhAwT/77LOnT5+en58fHR3V63VqAuUg5d1ud39/3+/3Ly4uQmE7BFH5fP4sizggEonW19eFQmGn04FMA0l0Oh2CINLpNIqirVYLztNv/+u/OYmDoICDCjTfkyHiOI6n0+lYLKbX66d+8WkBFvjkKSxkpbvdLj3qiIYMOBwOh8MRiUQajQbaMmCUjEQiwTAMOhK73S6p9XNQ6djr9UqlEkEQcDwnCMJutxsMBgRBJBLJe3e4UACXyzUajWw2+/T01Gg0ttvtZrNJxkJgKlWtVqHSHzwV3v7XX9Emq9FofD5fq9VKJpNkGKU3Go1gMCiTydxu99QvPhUomFfXbDYzmYzD4SC1xY6GBjJPXq9Xr9d7vd5isXh2dnZwcJBKpXK5HDWTEBgMRrlc7nQ66XT68PDQ5XLt7e2trKxAzpOaDbwHEO8dj8cej+fOnTvRaDQUCpFXgN9ut5PJZCgUgqbLt//FV4i4QqGw2WzJZJIkJ4Rut1soFNLpdLVa7fV6cGQgY6H35krEod5oNBpNPYzYbDZTqdTl5aVKpcJxHFyEeDwebdJLM0XgUZLD4ah/pd1uSySS0WikUCgkEgmKos1mk4IJ5lDggWFYPB4vlUpsNhvH8Xq93mq1lEoluCHOmoUWJGMlEonNZtve3u73+5FIhDwR73Q6yWRSpVI5nc53+sVXi7jFYlGr1SRp63A4hFgN+KjIZDKZTEbGQu/N1agjsVgsk8nIKDAC5+JyuXx4eLixsXH37t3l5WWdTke7ytCQB3hUra6uarXaXC6XSCQCgcDz588vLy8HgwEFTZ5ApVI5ODgIh8Mymcxms33xxRdfffWVWCyWSCQzJeIAh8Ox2+2Qnv373/9O3tSIer3u9/sJgtje3n63Hf7zH0mlUoPBoFAoSKoHgpLSVqsF6U0mkzmDIg5ZfplMptFoKpXK1EW80+l0Op18Ps9gMFAUZTAYbDa71+sNBgORSARpn5tSj0VzU4BycpFIZLFYnE6nw+FQKpUEQfT7/Var1Ww2oZyB7G3gOA5N7QwGQ6vVCgQCq9VqNBqvhkTOlJTDACC43yiVyvF4DOPJpr4QHBbZbDaGYe8UonjFD4F3CnkiDnS73XQ6HQwGeTyeyWQib6H3Bja2srJyeXmJYRh5CxUKhUePHpXLZavVarfbl5eXYQjWLOd8aG46QqFQp9Otr69DZ1A6nY5Go5FIJBaLUbmNdrv99OnT0Wi0t7d37949sEKctfgq7MdsNm9vb0cikWQy2W63SVprNBrVarVCoYAgyFs+l7/6JC6VShEEgQ4rkson4G58cnKi1WpXV1fh3jtTd2A+n2+1Wm/dutVut/1+P3kLlUqlUqnk9/uNRqPH4+n1elwuFyzN4G48gy8OzU1HKBRe6XilUrm4uHjy5AmHw0FRlCCI0a+QvQ0cx589exYMBgeDgUajAfOsmTKzheAqBFU++eQTFouFYRh5Ij4cDjEMS6fTbDb7/UUcQBDE6/WORqNCoUBGCrvX6+VyucvLy/X19X6/P4PpTR6PZzab19bWwuEwBcvBPEMmk/ntt99GIhG32+1wOMxms91u5/P5V1JOQzN1hEKhxWKZTCZKpXJlZSUej2cymWKxmM1mqSkqHwwGMHDy3/7t37744ovZHN2p0WhWV1ez2ezR0RF5qxAEUSwWo9GoQqF4y9Kd1+omvJ39fr9er5Mk4ul0ejwe7+3t9Xo98JKfqXeOz+fb7Xa5XH5wcEDBcv1+H0VRFEWDwSCXy7179+7GxsbOzo5KpWL9CgXboPkIAWNbm8129+5dgiB++OGHx48fHx8fw6mcgg0QBPH8+fPnz59LJJKtrS2lUjlTUgDo9XqFQnF5eUlqnJMgiGw2GwgEHA7HW/7Ka0VcLpe7XK5SqRQIBKa0vVcwGAxyudzx8TGcOmdNp+Dhbn19/T//8z9DoVAoFMJxnIJ1R6MR+F3U6/VoNOpwOOx2O5QMzaxRAc1N52p8ucvlYrFYRqPR7XanUimYdNNutynoaahUKpeXlxBOnLWcEJvN5vP5Go3G4/GAfywZhiqDwSCTyfB4vLt3777lr/yOiKdSKVInGoOIn5ycQJfwrFVJM5lMgUCwtrYmEon+93//N5PJUCPi4/E4l8vBqVwgENy6dWtvb280GgmFQlrEacgD3MldLpfJZFpaWtre3j4+Pv7222/D4fBwOKRGxMPhMIIgUql01kQcXhwQcRRFSbI2HAwG2WwWJlm+7cZe9xdSqdRqter1elJFvN/vx+NxJpOp0+kWFhbgZZqRJynYBpvNhiooDMNGo9Hp6WkikajX62Q3RwwGg8FgAPkTPp8/Go1KpdL5+Tk0ucEAJqFQSOoeaD4qrvLnIpFIJBIJhUK5XA79bj6fL5vNJpPJdDpdLBbJ20OxWDw9PdVoNFarValUkrfQewDGJFqtdmVlBWYck1S01u/3m80mdNJA/vnNIYrXirhIJNLpdEqlktTTcb/fTyaTKIpub293Oh3Y7oyIOACfaR6Pd/v2bZ1OJ5fLwUeXIAjKjGoLhUKr1bq8vJRKpSsrK59//vn29rbRaKRFnIY8oE/C6/XqdLpSqZRKpY6Ojh48eECqiKMoGggEfD4fqdavH4JSqfT5fIlE4vj4mLxVJpNJu90ul8tKpVIgELz5h18r4nAHViqVJpOpVCq1Wi0y0pvj8bjdbrfb7Uwmk0gkmEymRqOZKZNxcBTjcrkmk0kul9fr9Xa7rdFo6vV6vV4HIyGy9wAPbpVKhcPh9Pt9Pp8/GAzsdrvRaFSpVAiCcDgcsBEmeyc0Hw/QB8/n8xEEUSqVCoWCy+USBMFmsyuVypWF1nQXhUk6KIr2er3RaDRrRzoGgwHD2/R6vVQqJcmTg8FgjMfjRqNRKBQ4HI5KpXpzy86bqvqYTKZard7a2hoOh6FQiFRr+XQ6vb+/P5lMpFLpTIn4FdCyvLu763K5otFoLBYLBAIHBwfQeEYB4/GYIIhMJvP999+fnZ1BOcHu7u7W1pZEIpHL5bP2caeZG4RCodFolEgkTqfzk08+2d/f39/fT6fTuVxuunFFmAvaaDR6vd5wOIT46hSv/+EIBAKVSqXRaBAEEYvF3W6XjFTBeDyuVqvJZFIsFttstjf/8GtFHBRBoVAsLCxABxGpIp7P54+Pj/V6vcvlgiajWatUgfO4xWKxWCx6vV6n00ml0l6vx+PxWq1Wp9Pp9Xpke8JNJpNWqwWnlXK5nM1m4SOu0+ngOyaRSKCinBZ0mikCH36pVGoymcCUNZ/Pw1FxuiIOHUb9fh8ajmZNwRm/vhQIguj1eo1GUy6XSRLxWq2WTCYNBsPvvsK/018jl8sXFhYwDDs7O5veDl9BJpNpNpvQdC4UCqVS6ayJ+IsoFAqfz6dWq10uVzqdPj09DYVC6XQ6kUhQs4HhcIiiKI7jrVbryZMnCwsLa2trPp9vZWUFnvJoEachCQ6HgyCI1WpNpVIkfUnH4/FoNCK7duBDQBBkcXGxXC4Ph0MyTMbH43GpVAoGg06n80NFXCwWm81mi8WCIAiPxxsOhyS9srVarVarxWKxRCIBicRZKzd8EbFYLBaLtVqtw+GoVCowDUsoFPb7/W63i+P4cDgktWV5MpmAhVa5XGYwGDDVCcdxPp8P0TowoJi1JliaOYDFYonFYqVSKRQKyTsrzPiQW5lM5nQ6yTu3jcfjSqUC6YfhcAivw+te7d/5knO5XIlEolKpjEajwWCoVqutVmv6W/6VZDL5008/9Xo98Ncmb6GpADlPuVy+urqqUqkWFxc3NzdDoZDf769Wq81mk5puNwaDUS6XT05OisWi3++H87jH49FoNHK5nJoN0HxUzLK8UoNYLDYajSaT6Z1G8Lw94/G42WyORqN6vT4YDN4cWfp9EedyuWq12maz2Ww2mJs37Q3/g3g83mg0WCzW+vq6RqOZwcj4i4BnPI/HW1tbW15ebjQa1Wr1p59+Go1GqVQKgobUVCJCvz6EvDY3N7/55pvJZAJvPJzH6a59miky48dkCpBIJBaLxWw2k3fWhOwXTM4hCOINhTpv9bgtk8k8Hk8+n282m9lsdqpb/Q0waC6bzYZCIT6fD5NeyVtuikBvJ4IgMAo2nU5nMhno1Ae7cMooFosHBweVSsVoNLpcLpfLZbPZZDLZTXklaWhmHw6HAzFVsqO+MIwXFnrdOeytRFwuly8vL7daLbK9hqEgOplMnp+fi0QiMMUldcVpwWKxoM9NpVLduXMnm80mEolvv/22VqtRLOKFQqFQKDx58gRBkOXl5W+++Qbe/pvyStLQzD7wCC6VSskW8V6vV6vVZDLZG478byXifD5fqVQaDAaYcAEDaKa3z5dBUfTJkycMBkOj0UgkEj6fP5uV429AIpGYTKbd3V2JRBKLxQqFAvS8USbow+Gw0+mkUqmHDx+WSiWHw2GxWK5cxmZwniENzY1DKpV6PJ7V1dV8Pl+pVMhYArr8lEqlWq1+3c+8s4grFIparUaNiG9sbFgsFhjXTd5yZCCRSAQCgUKhWF1dLRaLx8fHZ2dnvV6PShFvt9tgb3t8fOzz+RwOx5dffimVSiUSCZfLpUWchuYDAREvlUqDwYBUEdfr9W8oC3wrEYcMnlKpXFxc3NvbOzk5CQaD09vnyxAEQRBEIpF4+PDhcDhcW1tbWFggbzkygHQin89XKBQymYzNZkPjss/nK5VKuVyu0WjUajVSU0MwDBDMdCaTSbVaJQginU7r9Xqj0RiPx8mbTkJD8zEgEokMBoPD4bi8vCRpCRzHy+WyxWJ5Q8nyO9QRSySSpaWl0WhUqVRIFXEARdG//e1vnU4HGo7IXo4kwD/L5XJptVqn01kqlY6Ojvb39xOJRKPRoGD8FYPBGI/HGIa1Wq1yufzkyRO32726uppOpxuNBgWr09DMK3C01Wq15FnRwUm81WpNR8SFQqHVamUymc+fP5fL5WQPxu50OvF4nMfjOZ1Oo9Go1Wp1Oh15y5EBxCugllwqlSqVSrPZLBQKxWJxLBYzGo3FYrFcLkNFOan9aVdHcgaD0Wq12u12s9mkRZyG5kOAOLNOpyPP+hzHcRRFoWb8dT/zDiIOt53JZGIwGHQ6HYZhg8GAvIDAcDjEcRwCylKpFJxgSVqLAiCyL5PJFhcXdTpdLpfb2Ng4Pj4+PDxMJpPNZpMCx32gWq0GAgGCIOhwCg3Nh8DlcmUy2du4xb43UHXdbrc/NCYOsNlskUg0mUysVuvi4mIoFGo2m8PhcBpbfTXD4bBWq11eXgqFQgRBwBtLIBDcxL6Vq5nZAoFAp9NptVqLxcLn88fjsUQiQVEUw7Bms0mBjTJJE0loaD42oFpcJpORV3mB43ipVKrX69M5if/yCxzO4uLiaDQaDoepVIpUEWcwGN1uN5PJgCmuVqu12Wx2u/0mivhLgN3gzs6O0+lMpVKpVOr09PTZs2dkV+LT0NBMR2sKWQAAIABJREFUCzabLRAIRCIReSZF9XqdIIhyufwGD493XpvNZlutVqFQeHZ2JpVKR6MRqQ4hcBgfj8eBQADCKSqVChTwRks5n8/n8/lyudztdrtcrmQyKRQKwc+23+8PBgOyi/FpaGg+EBaLxeVy4bvM5XLJcF4Eg2uIib/OBuudRZzFYikUCj6f73Q6vV4vzNwj2+mp2+0GAoFer9ftdnk8nt1u1+l0pA7/pBKpVGqz2Xg8ntVq/fLLL6PRaDKZDIVClI2boKGheT/ABQ9BEIPB0Gg0SCoWmEwm4/F4Mpm8srfjfUQchg9YrVaPxzMYDDAMI1vEB4NBOp1GUVQul2u1Wj6fL5PJ4DA+Bx0r0K+v0WgWFxfr9fqTJ09OTk6gM2g4HELhyix7K9PQfJzA9BUul6tQKLRa7Wg0Ik/EYVzGK3v03j+U43A4Pvvss/F4HIvFqEmUEQQRiUQYDEav12MymVarFUGQuTmPQ+ZTLBZ7PB6RSKRWq9fX15PJZDQaxTCsUqnQ0RUamhmEzWYjCGI0GjudDknjzwiC6HQ63W4XRsm/9LfvL+Jer9doNNbr9R9++OHDdvi2DIfDQCAQCAQmk4lcLufz+SKRaG5EHNxipVLp0tLSwsLCnTt3Op3OgwcP/vrXvwaDwU6nQ4s4Dc0MwuFw1Gq1xWIhz1RjMBi0Wi0cx8Eb/OUNvPd1uVwuDPHc29sLBAKJRKLT6XzYVt+WWCz23Xffwa3JZrMpFAryOqauhSu7GJ/PNx6PvV5vIpGIRCLxeBxiLDNi5Twf4SyKYTKZ9Os2T7BYLKFQKJPJyDtQwpD0q9zmS7y/iPN4PA6HY7fb9/b22Gw2iqJUinihUBgOh2KxmM/nCwSCORNxBoMB+W6fz2e1WguFQjabffToEZgLTyYTsis73wYICN7oGqFrAR65aBGfG6gR8eFw+LrpmO8v4vBZ1Ov1t27d6nQ68Mjf6/Uo0Bcou7m4uODxeJVK5c6dOw6HQy6Xy2Qyspemhit9hBwyj8eTy+VMJlMqlcJ41nK5DJnea9zkYDCAd3xuIlrU0O/3wWDyujdCMx3guVkgEJDnLQ5mdq8bE/ahNeqQWiwWi0ajEUVRuGN84DXfErBwQlEUKu0dDsfciPhLiEQiLpd769Ytj8eTyWSi0WgwGPzpp5+uV8TBjEWhUNDjJt6eyWTS7XYbjUav15uRmBjNB8JkMtls9hsm73w40I7zOoelDxVxgUAgEAicTufu7i6LxTo/P0+lUh94zbcExr0zGAypVNpqtTAMw3FcpVK9wT39hgLZDJFIpNVqVSoV/Bu5XK7BYMAwrFar1ev1arVKsSjEYrEff/zR5XI5nU6tVqvRaGD8OR1geQko8h0MBmCuEIvF0ul0KBSibI42DakwmUw+ny8Wi8lrvofPz/TDKS9iMBju37/P5XIxDKNMxIFarfb06dNyuYyiKI7ja2tr8yfiLyIWiy0Wi1wuNxqNu7u7p6enwWDw8vKy0WhQHCg/Pz8vlUo+n299fX1lZWVra4vL5ZLXf3xzGY/Ho9Go3W4HAgG/3w9vWalUokV8PmCxWAKBAMKeJC0Bic3XVTRM5yunUCgWFxdbrZbf708kElANM5Ur/y5grvKi365IJIL4+Nx0A70IDPeTy+V6vd7r9YL/DhiT1Wq1RqMBsTMKmoOKxWKxWATTLngkgsp9uVwOz2dkb2D2GQwG3W632WzW6/V8Pn94eHh2dnZ+fg7tDjTzAcTEhUIhqTFx0kUculSsVusnn3wyGo2Oj49DodBUrvyWdDqdaDTabrez2WwoFLp79+6dO3cgXzxnIg5AZ5BIJFpaWjIYDEtLSzs7OxcXF0+fPs3lcpVKhbKbKIqiJycn6XT68PDQ5XJtbGxsbGxYrVaj0UjNBmaZer2eTqfPz89PTk5CoRCKotVqtVarXfe+aKYJfBl5PB6bzSZpCcg1vs6bZToiDoN3NRrN2toajuPVajWVSsGtYyrX/10IgkBRtFarYRhWKBTA4MVsNiuVSqFQeNPdsv4ZyKWw2WyTyWQymSwWi8/nUyqVBEGIRCKBQFAul3Ecp+CBHTIT2WyWwWDEYjEcx5lMJpReCIVCePE/qnmeUAoGPj/ggbO/v//o0SMKhmHRXBdsNhs+5yRdHyJy068T/2ckEondbu92u+VyuVqt5nK5fD4/xev/LuBdkEwm//rXvwYCgd3d3du3bzscDrVaPX+F5C8iEAiUSuXGxoZKpUqlUolE4uzs7PT0NJlMUrmNSqVyeHhYKBQMBoPT6VxdXV1ZWVGpVAiCkPf5njVarRbML4SwSbFYzGQyxWLxuvdFQxaQzCf1pHKV2CRdxOHkNRwO8/l8oVAgCIJiEZ9MJjiOg436s2fPut2uQCCAUQzwyANSMn+nQjDDlMlkbre7UCjE43GRSNRsNiuVCtzAqYmSt1qtVqsVj8fBH63VasHngcvlwhvB/BWyd0Ilk1+BM3i5XE6lUoeHh99//30kEmm327RfwtxD9gf7KiZOYjjlRcD9o9/v4zgej8ev0RcbuvNzuZzH43E6nW63W61Wk/rUMwtIJBKTyXT37l0EQTY3NwuFQj6fj8ViEPGggNFo1Ov1yuXy06dPa7Way+Wy2Wwej8dut8MMlDl7/SeTSb/f73a7YI2QSqVisVgsFsvn891udxZ6a2luOlcHhVf+7fRFXC6Xb25uqtXqTCZzcHDAYDCuS8TD4XA4HD4/P19cXLxz545QKJRKpRBNvpb9UINUKgWD8k8//bRcLh8dHT179owgCMpEfDKZ9Ho9qF35+eeffT6fy+X65ptvoGVp/m6i4/G41+tVq9Wjo6P/+7//i8VioVCI1m6a6QJ+4q/8K7KqeiUSya1bt/r9/sOHD58+fXqNT5SNRiORSIxGo3q97nK5fD6fxWKZy56gl2AymWKx2G63s9lssVi8tLSUTqehdgXDMMpUplqtslisBw8e5HI5u93udDqNRqPRaJTL5eDcQM02pgs4vIP1KMSvUqlUJBKJxWIYhr1hHCINzXsAR8/XfVnIEnGpVLq3t7e2ttbtds/Ozq5RxKF6Oh6P//zzz1ar9d///d93d3cXFxc/BhGXSCRer9fhcGxsbLRarR9//HF/fz8YDFLZGYRhWLVaTSQS33//vcfjuXfv3tbW1r179+BgfnNFHAYHnp6ePn/+/PHjx36/H2LiryshoKF5b65EfDqTfd4SFosFfai3bt3CMOzs7CwajV7LkPWroRj9fr9YLB4fH3e73Xg8fnl5aTKZbDYbDNaZs2d8eLMhbw4VliKRaHV1lc/nWywWq9WayWTy+TzMmiD15Hj1+jMYjFwud3p62mq1CoWC3W6HncjlcoVCQd4Gpkuz2Ww0GtlsNpPJpFKpcDgcj8czmUy73b7urdFcG2+OWX848C1+XQEMWSIO1SAsFmt7e1uj0fzP//xPsVi8FhF/kVarBYV3KpXKZDLdu3fvq6++0mq185dtewkul8tmsxcWFiwWy9LS0urq6snJyf7+PnjbUvb4X6/XLy4uEonEkydPrFbr3t7e3t6ew+G4QSIO0bmDg4PHjx+Hw+FOp4PjOK3gHzPgjfOGmPWHc9UXQrWIwzHQZDIhCPLkyRPyjAXenuFwCC1zpVIpn89D7Z3FYrFYLEajUaPRiESi+cu8XX0ClEqlUqmUyWRqtRryn2azuVgs5nK5UqlEQSfhYDAYDAawEIZhYOnndDpTqZROp9NqtWAQP1MxFig+6fV6pVKpVCrFYrFEInF8fHx8fExxBS3NbDKZTAiCINWF+3pO4lfAd1IgEMzONxO+lrVa7fj4OJPJ2O12h8Nx69atra0to9E4f6GVlxAKhRqNBuIq6+vrsVjs5OQEygGp3AY47ZTLZZ1OZ7Va79y5c/fuXb1eP2vttePxuN1uQx/T4eFhLBYDNae752mAyWQCJjnkNUhfs4gPh8N+vz87E8WA0WjU7XZzuRwcQsFCq9lsOp1Og8GgVCoVCoVYLGbMY2cQWGhJpVKTyXRVKAKjSer1eqvVajQazWaT7G0MBoNisQitMfF4vNvtwqncZDKpVCqlUgk3/msRdIjjDwYDeG7L5XLpdPrJkyeHh4f5fL7VatEVhDRXwKGQ1Cm4bDabz+fzeLxXfh1IF3Fw+m40GjNbdwWlGt1uNxwO2+32tbW1hYWFlZUVcMeePxF/EZFIZDabBQKB2Wy+e/duIBCIRCKBQADHcWp0ajwe4ziOoujh4WEqlfJ6vS6Xa2FhYXNzU6vVXldoBbqca7XayclJMBiE0u9yuVwqlTqdzsx+kmmuBfi0kHoSZ7PZQqHwdak70kW80WjkcrlarTazhxc4A2IYxmAwotFos9lstVocDmc8HotEIolEwuVyZyGgTwbgGatUKh0OB47jOp1OqVQyGAxIeHa73cFgQLaLFowsaTab0Wi0UCjkcrlmsykQCLrdrlKphCg5mHySekOFJ0V4cAQTt3w+/+zZs+fPn0ej0cvLS/KWprnRXIVTyJM4DocD1hrXcxLHMOzy8vKmWOA3Go2zs7N8Pn9ycmIymVZXVzc3Nw0Gg9Vqve6tkciVse3CwoJarXa73ffv3w+FQqenp7lcrlgs9no9anaCYRhBEBiGBQIBp9O5trYG/fomk4mCR6LJZAJTTaLR6OnpaSwWy+Vy5XK50WiQvTTNzQXCKTiOkxdOYbFYMJj+ekS8Wq3G43H4cpK91oeD43gikUgkEgwGA0EQFEV5PN5wOEQQBIy0ILcwZzGWq/IVq9VqtVo9Hg+O40+ePJlMJlwuF5LABEFQEEZoNpvNZjOTyRwdHdlstkaj0e12ofWUx+PBSWTqgz7AphkqZ7LZrN/vf/78+YMHD+jTN83bAFOMSY2Js1gssKy4nsRmqVQKBoNgakj2WtMFx/GzszMcxy0Wi9Pp9Hq9Pp9Pq9WSOodpFgCtXFxcFAgEW1tbsVgsEolcXFwkk0lqpByoVqvPnj3L5XL7+/s2m215eRlm72k0mumWD1WrVQzDLi4uLi4u4vF4uVyGjOsUl6CZY0ajUa1WKxQKrVaLpCXYbLZAILi2xGalUolEIuVy+caJeL/fD4fDkUhEo9Ho9fqvv/5a8CvzLeJQvuLxeDweD4ZhUJiB43ihUABzemq20Wq1QFgZDIZarf7jH/8okUhYLJZSqZyuiNfr9WQy+eDBgz//+c8UT4ilmQNGo1Gz2SyXyzCkkAzYbDaPx3udTQVZIg4GuARB4DgOeduZKjF8e8CjHEXRo6Ojdrvt8XhsNpvNZjMajQiCQKDquvdIIkKhUKvVrq2tsdlsr9cLIw7S6TRlnohAt9sNBAJcLtdqtdpsNqfTabVaFQoFTA5616tBgWmr1Uqn0/F4PJ1Op1Kp8/NzCgoraeYPmEVTLpfJa9zlcDhwdqS0OuUqTtRut6mZE0Ye7Xa70+lAuwcUwO3s7Ozs7EDYYe5FnM/nazSa9fV1FEUDgcDTp08fPHhAsYh3Oh0YU6nX6/V6/VdffXX//n2XywWJine92mg0arVa2Wz273//+1/+8hdwze10OjNbQEUzy1yFU8g7BHA4HKFQ+Lrh4ySKOAgfjuMUzJQhG6giGgwGhUKByWSOx2MURZ1OJzSnaDQahUIxfwlPBoMBiUSocGIwGC6XazKZCAQCk8lUKBRgDh81xrYw2aRcLvf7/cPDw06n4/V6wS/BYDBIpdI3t3pCIKjT6RQKhWKxmE6no9EoBPobjUar1aImTMRkMlUqlUKhqNfrlUrlhj6e0gBgmTIYDDqdTrPZhNGy04XH4wmFQrFY/LqsJoM8ER+NRu12G0XR+RDxKxqNRr/fL5fLJycnZrP53r17Gxsb6+vrMpls6lUTswb0BCkUCqfT+emnnx4eHp6enoZCoWazSc0ZdjKZtNvtfr//9OnTUCjk8/kWFxdXV1fv3LnD5/PBq+d1vwtftkqlcnJycn5+HgwGLy4uoD0V/GMp2D+DwWCz2Xq93u12R6PRer1On/1vNDCTD+oL2+02GZ8ioVCoUqmkUukbPtskiniz2YQe5Xk6bkCgH9LQlUoF/pvL5RwOh16vt1gsYrH4za/4zYXD4UgkEpFIpFQqR6MRh8NRKpUmk0mn0+Xz+VKpBP1BpIbOwNW21+uhKNrr9er1OoZhGIY5nU6LxaLT6WQymVwuf/FXwFABRdFMJpNMJs/OziKRSDKZTKfT5O3zRSCgKZVK9Xq9Tqfzer1Op5PBYESjUVrEbzTD4bDT6TQaDfI6nMVisV6vVygUbwgbkijirVarVCq12+15Oom/SKfTCQaDuVzu+fPnSqVyd3f3iy++MJlMYrF4LkUcuDIZdrlcarXa4/Gsr68HAoH9/f14PI6iKGX5j2q1CgYsfr/farXeu3dvfX3d6XS+JOK1Wi0ej/v9/kePHsVisVqt1mw2ySsk+Gf4fL5arb7aoUajUalU2Wx2vrMpHwNwnqvX62QEUgCRSKTVauFB/3U/Q9bHCExfk8lkvV6fVxEnCKJcLkNBMZ/PHwwGLBbL4XBgGKZWqxEEEYvFYOR93TudJlcmw2q1Wq1W6/V6h8Oh0Wh4PJ7RaMxkMplMBkXRer1O9k56vV6v18MwLJFIpNNpGLUDPZYKhQJBkEajUa/Xo9FoNBr1+/0HBwe5XI7sXb2IVCrVaDRms9lisbhcrnv37q2urkKtmFKpnOM7/UcCGOyUy2XyJiVIJJJrO4kPh8NKpZJIJOZYxF+EIAgYEWA2m20228rKyvr6utVqlclkcybiL8Hj8WQymdfrlclka2tr2Wz2/Px8f3//5OSEym20Wq3z8/NCoXB8fGw0GpeXlzc3N6HMPJ1OQ8iFevNYk8m0u7u7ublpNpuvErCj0Wg4HJI6Q4CGGvr9frVaLZVKOI6TtIRQKFSr1dd2Eq/Vaul0utFofAwiPh6PC4VCoVBIJBLhcLjRaDCZzOFwqNPpEASBGs+5LF/hcrlcLlcsFptMpmazWSgUFAoFGHBDPU+326XAeqXf76dSqXQ6zefzFQoFTJwAB/BSqdTv9yn7EPL5fDCc4/F4y8vLe3t7Ozs7er0enMXAtXEwGHwMX4q5p9/vYxiWz+fJi86JRCIY4fKGsyCJMXHwL8Rx/KM6cUAO4ODgIJ1Oezwet9vtdruXlpZMJtPcdwYJBAKtVru1taVSqXZ3dyG0cnp6GgwGKStfIQii0Wicn59XKpVSqQT3EioV0+FwrK2t2Ww2cGuw2+16vV4kElG2ARrK6HQ66XQ6HA6TFzyEES5vfqCfvqZcWXq22+1qtTr16884/X4fHKNCoVAkElleXq5UKtCsD6UdbDZ7XqUcjp8Igni93p2dHYhmwGCzdrsNlXxkF/NBN+aVixk1sFgseFs5HI7L5frkk0/W1taWl5dVKhVle6ChElC5brdbKBRSqdT/Z++8utu6r7QPoreDctB7rwQJdlKUbMktcVYyzppyN19wZk0uJsk4fhPbikZWIyV2kCB677134L3YYyzFTZTEgwOQ+F14ucg8GwTOg//Z5dnYjfkwGAwURcFw4uf+zPWrCQzcY+quOyuUy2WPx1Mqlfx+v1qtXl5eNpvNcrn8ZhvbAjQaTa1WM5lMLpe7ubnp8XiCwWAikYjH47jvy75eqFQqpLzBJU2n05nNZrFYPD9932Bgdqxer+fzeaxz4jicxCew52JWqNVqtVoNlrvz+fzf/va3vV4PHF/xDg1zoFlFLpebTKZOp/P48eMnT56QSKR8Pn/DRJxCoSgUiuXl5Q8++OCzzz6j0WhTtVF2DhYMh8N+vw/LQ2BeBCNwO4l3Oh1MT+I8Hg9F0fFCjVqtNv1fGO122+1293q9y8vLly9farVak8nE4/E4HA5MtN9UIHcE4y2g6eFwGIwt2+329L9xPwmFQoG7y2g0ajQai8Wi0+n0ej2NRvuF8eg5N4ZWqwVFF+xOJNAyAOZFFArlFz5UWIk4pqZXIpHIbDYPh8NqtZrP5yewQuz9abVaJycnFxcXdDqdyWR+9tlnX3zxhdFohK1LeEeHIZAptlgsBoOhVCql0+mjo6M//vGPvV4Pdk3gHeC7QKPRUBS1WCy/+93vtra2pFKpQCCAVzpX8NtAo9FIJpOY9qXQaDQWi8VisRgMBqwn/DmuX8QHg0Gz2cTIDgaATe1CoZBKpVar1WAwGIvF4vF4JpPB6IrXQr/f7/f73W632Wyen58zGAyfzwfeqnK5XCAQwBgI3mFeMyBqcKwgEAhEIhFKJjqdLpVKwRs34Rmc90EqlcL+I5lMBo0oCoWCy+XOM+C3ilqtFg6Hw+EwRiVNIpEIY2JisRi2if3CH8ZExBuNRrlcxq47mMPhKJXK1dVVg8EACYrj4+OHDx9OuYgD0KHhcrlCoZBUKpXL5dvb2/fu3XM4HBwO5+aJ+OvQaDRw84G51mAwCG/cDIm4Xq//7LPPNjY2NBqNSCRiMpk0Gu1mz3PN+THlctnr9cJECBY/n0QiKRSKlZUVhULxxk8XVt0pnU4Hu5w4nU7n8XgikUgikYBXKuSMYNIaSg1T7vPZarVarVan06nVaiQSCSb45XK5VCoFY1t4XXiHec2M3yx4ToTG+dFoxGKxSqVSqVSCucqp6msC81h4U7hc7sbGxsbGhtVqFYvFCILgHd2cSQOdsqVSKR6PY5dOIRKJAoFAp9MJBAIcRJxAIIwHi7H44QQCgUajIQjCYDBg9ZxCoUAQRK1Wb21t+Xw+l8t1dnZWqVSmP9/aarVyudzx8XE0GnW5XOCtura2xmQyf24V042BRqNJJBIGgyGTyTY2Ni4vL91u98nJCXaGcO8GmUxWq9Xr6+tms9lkMqlUKpFIxOVyf86hf87Npt/vt9vtUqkEzp0Y5RuIRCKfz1er1Xw+/41VFkzSKVh3p8BRDhbrwIAJl8tVKpVGoxGSy9D1kclkwO+/2WxOzDD6rYAsOayvTKfTuVwum82C+6NUKoVe4xtsbIsgCJvNlslkZrNZIpFIJBI2m40gSDQaTSQSOHYikkgkFovFZrNRFBUKhU6nc2try2Qymc1mNpt9I+0T5lyRRqORy+WSyWQul8NuHxuIuEaj4fP5b7z9MUmnQNsfdoXNn1wburCwQKfT1Wo1i8WCo9PZ2dn5+bnf74/H49h1418X9Xo9FAqBb6pYLN7e3l5dXYV5mRsp4mMWFhYoFIpKpWKz2SKRyOFw7O3tffnllziKOI1GUyqVWq12dXXVYrHI5XKVSgWn77l833IqlUooFMJaUohEIoIgcKzBQcTHW2i73e61/3Bg3D45fnlwa1GpVLFYLBQKtVptu92Gxi9IZabTafBuHwwG05krh4VB2WzW6/VSqdR6vV6v181mc6PR4PP5HA6HyWT+3KbU2QXeOBKJBP3y8PQWCASoVOrkIyGTybDTQyqV2u12m812584dh8NBp9MZDMaE45kzbYBu5HI5l8vl8/mwG7WHmh+KopAQxyGdMoHCJoVCAUX7ye8ouBsZDIbRaEQQRKvVxmIxj8dzcHAQiUTq9Tp23y7XRb/f93q99Xr97Ozs2bNni4uLy8vLOp0ORdEb2co2HA6hqrm3t/fq1avz8/PJ28ZCW67JZFpaWoLpeYVCoVAooPQy4WDmTCGj0Wg0GmUymaOjI7fbjVFfCoVCkUgkWq0WJg+u8hSOiQEWiDh2aWjYd/ULIg5dyVqtFgYjc7mcUqkEC9BcLjfhtYrvwHA4jEQikUgEfE0/+OADeFHwX8dDJTP9aA+3xNhpJ5VKhcPhFy9efP3115lMZpJftCQSCbY0CASCpaWljz/+eGVlRSqV/mBD0JxbzmAw6PV6sEkqGAxidBUQcYPBgKLoFRuOMRFxrLtToE3titNx4Kq+vLzMZDJ3dnYCgUAoFLq8vPR6vRiFd41Ag83FxUWr1To7O1Or1eMeCQaDMdMNEv1+H2aX3W63y+VKJBKJRMLv98MY5yRTXmaz2W63G41GMI/VaDRCoXCmf7dzsADWtEajUUyrNRQKRalU2u32q1tgYiLiYPGFqYiTyeQrPuQyGAzYGG2z2YrF4unp6eHhYavVmgkRBw+DQCAQCAROTk40Gs329jaRSIR1TTMtNDDZm0wmnz9//uWXX2YymUwmg8uqBJ1O9/HHH29ubhqNRh6PN/kA5swExWLR4/EkEgnsWjYIBAKFQpFKpUajkc/nX/F/waRPHER8CuuHdDpdqVSORiMajabT6TKZTCKRyGQy6XR6+pvKm81mOp0+OTmBBc1gvQTzQTBEM/3ZFXhEK5fL0Wg0Ho/H43G/3395eZnNZie5UBvuE/jVyeXypaUlh8MhFotvtonNnHcDdGw0GkUikUePHl1cXNRqNewuRyaThUKhSqXicDhX/V+uPYgJnMTfGTqdrtVqFQqF0+n8zW9+c3h4+Pz588PDw3K5PP0i3mg0Wq1WJpM5ODhAUXR3d3d9ff3OnTuQO5uJNkSwKU4mk0+ePDk4OLi4uPD5fL1eD9Pk24+h0+l6vf7OnTtra2t37txhMBhMJvPqz3ZzbhugaYFA4KuvvioWi5hqBZlMFovFer3+6s/ZmJzEp/AMDsCJFQpZVCrVYrEQCAQURdVqdSgUSqfTxWJxmo1th8MhVAILhYLH4+n1esVi8eLiQq1WQ+8Kn8+fTveVYrEIQ26hUCgYDJ6fnweDQUxN4H4ALHRGUVShUCiVSrPZ7HA49Hq9UCgkkUhXaeSaczsZDoew+SEejzcaDezEgUajcblc6Euh0+lXP1LczD1hb4REIkEPolKpdDqdhUJhb2/v2bNnl5eXkUhkakV8TLvd9nq9kUjk2bNnNBrt/v37v/71r61WK4vFmk4Rz2QyYKT+7bffxmKxVqsFa5QnFgCTyVSr1Var9f79+0tLS2CH8kan5jlz+v1+PB6HBmVMDSHYbLZWq7XZbCKR6K0+lrdRxMcDJlDzpFKpPB6v0+mQSCSZTAZbxBKJRLFYnM7VSY+sAAAgAElEQVTMPtBut8e+DWdnZywWK5lMxmIxhUIBu9XxNbYFM8tmsxmPx1OpVCAQiEQiFxcXgUBgYptXYe+lUCiUSCQKhQL2Vi8vL+v1eiaTyWKxJhPGnBkFGu3a7XY4HH7+/Hk4HMa0L5nFYoGIoyj6VtnR2yjiPwCsRK1Wq1QqXV5eDofDl5eXDx8+bDabnU5n+k/lBAIhEok0Go2TkxOJRLKysrK7u7u4uMjlcnEU8X6/XywW0+n0N9988/Tp03w+X6/XK5UKdnYTPwaGwqxW69bWFizfkUgksOzqpu6qnnONjEajfr/faDSCweB3331XLpcxPYkjCKLX6xcXF1EUfav/8fo/ygsLC5B3nolSG+H72Rk6nQ7nNYVCIZFIhsMhiqJjc9SJHR7fjXK5XC6XY7EYi8WCIm2lUpHL5TKZjMvlcjicyRjbglV6s9mEDT6RSCQcDj969Ojp06eYdmX9ADAlhoSJSCTa2NjY2trS6/XgRDGxMObMOr1eL5lMhsNhr9eL3XQP4fueaXC8MhgMbztlhomIw2PsrIj469BoNKFQSKFQOBzO5uYmjAWdnp5OuYgDvV6v0Wh4vd5arebz+YxGo8PhsNlsJpMJCrlYBwAplEQicXJycnR0BJMR8Xh8wk8zZDJZr9dvbm7q9Xq9Xq9SqSQSyY3fZTrn2mm32x6P5+XLl5FIBNMLUSgUBEHg2PEOg2aYiDiZTMa06Q06frBoSqNQKFwul8vlqtXqRqMRCATkcjmTyWy3243vabVaU9g9Sfh+MiiVSqVSKZjaz+fzkMEQCoXgu8JkMqEkcF3VPHgv2u12vV4vlUq5XM7j8ezt7e3v72cymWw2ey1XeSMkEgleHYvFQlF0Z2fnwYMHRqPRYDDMc99z3hbw087n82dnZ0+fPg2Hw5hejs1mg2umWCy+env4mJk8iQ+HQzA/wbTqSKVSpVIpVMYWFxd9Pp/P5/P7/dFodGKNce9Mo9GIRqPtdjsUCr148cLpdNpsNoPBoFarr7cfA+Z30um02+32+/2BQMDn88EXySR/SwwGw2Aw6HQ6g8FgsVhUKpVWq+XxeJN3Q5xzA+h2u9lsNhQK+Xw+7HawjUFRdHFx8R2y4QBWIk6hULAbnYBeaaxFnEKhiMVikUhkNBrv3r27t7f34sULAoEAJ3HY5zDNvSvpdDqdThMIBBqNls1mQVJh1wHUct8zUQ4TOq1Wq9FohEKh/f39o6Ojs7OzaDR6bS/jTYy7/kUikdVqXVtb29zc3NzcJJPJc/me8w7AHd1utxOJhMfj8fl8WOdSCAQCn8+3Wq02m+3qo/avM5PplF6v12w22+32ZMxDYBLEYDAwGAytVnvnzh232315eRmPx8vlMo67C65Ir9fzeDz1ev309FQsFttsto2NDblcjqLo+6QaYBuRx+M5PT2NRqOxWCyTyUzSQpbNZvN4PKVSubi4aDAYjEajWq2WSqWzMr86ZwqBafNsNvv3v//98ePHmNYzx4BjtkajebetrTN5EgcR73a7E8hNw8shkUgajUaj0djt9nK5/Pz5cxKJ1Ol02u329Iv4cDgMhUKhUAj+8eOPP4Yp8/fslc7lcm63++9///uf//xnXAq/LBZLIpEsLy//7ne/g/mdefPJnPcEHrLz+fyLFy+++eabyVyUxWLBIPG7/e/XL+KwnxDTZoB+v9/pdCYj4j8ARmMdDgeDwXA6naFQKBwOn56eYl36uEaCweAf//jHk5MTlUoFpT+lUkmn09/4WNPtdqvVKpy+vV5vLBZLp9OhUGiSq+8gf2IymWByB/wGzGYzl8ud50/mvD/JZPL8/Hx/fz+RSEzgciqVymq17uzsCIXCd/4hmIg4g8FAEAS7mwpqxxN2nQZoNBqVSjWbzXq9vlwu+3w+l8tVLpdnSMRBfIVCoVwu39jY6Pf7XC6XSCReRcSLxaLP5/vrX//61VdfQUar3+9PsoMQHvLMZvNnn33mdDqhegmPffPp+TnvTzqdfvHixdOnTzOZzAQuJ5fLP/zww9XV1XcraQJY5cQx3QbZ7Xbr9Xq73Z78dh7Yp0OlUqlU6sLCgkajIRKJjUZDqVQWi8VcLpfJZJLJ5HT2IAIwklMsFofDIZVKHQwGqVRKpVIpFAqZTCYWi183toWHnnK5nMlkotFoNBq9vLw8OzvL5/OT3I4E607kcrlEIhGLxaurq0tLSyqVis/nz7dfzrkW4P51uVyXl5fRaHQyo8VQ0tRoNO+T2JzJFsNOp1OtVmHrMUaXuAo0Gk0mkwkEAoPBUKlUzs/Pj46O9vf3s9ns9K/xBAuqSqXidrufPn3qcDiWlpbu3r0LPojj9w5SKIFAYH9/f39/PxQKRSIRMCSYZLQMBsNisdy7d29paWlpaYnL5cKS1fn0/JzrIp1OHx0d7e3tnZ+fx2KxyTxfoihqtVq1Wu37OGRc/z1AJBKpVCqdTsfuBmu325VKpdFo4CviRCIRsissFgt2KcH4PovFymazxWKxWCxWq9XpFHTwhQBriG63u7Cw0Gq1Op1OMplUKpUymYxAIPT7/VwuFw6H/X7/+fm52+3OZDKFQmEyEYIxGY/HEwgEKpXK4XCsrq4aDIb3/MTPmfMD6vV6o9Hw+XyHh4dutzufz0/gnhWLxQqFwmw28/n89+yyw0TE6XQ6m83GLicOuxlrtRqmfjRXB7YYq1QqgUBgsVg+/PDD8/Pz4+Pj09PTQCAwMdV7Z8DiJ51On56eslisBw8e7OzswL/3+Xx7e3vgpFyv1yf5hYQgiMlkstvtq6urTqcT7FCYTOZ8dcOc66VYLEaj0cPDwydPnni93skU6s1m869+9av19fX3nyjGSsRZLBZ2It5oNLLZ7JSs4xlPsbPZbDabzeVy5XI5bDFmMpkoisZisXw+D0dyfB8dfo7hcAiOArlcjkAgIAgCFeNmsxkOh10u18S6v6GawuFwxqdvm822tLRktVqhDjGZMObcBkajEZjah0Kho6MjGHfAejiTQCBAy7JCoVhbW9Pr9e/fxYdJdwrWJ/FqtZpIJAqFwjSI+A+AjAr07atUqpWVFTjMejyecrk8/fP6BAIhGAzCFsF+v1+tVicZM5PJ5PF4ZrN5a2sLlohKpVKBQECj0ebzO3OuFzi7FIvFs7Ozr7/+2u12V6vVCVyXRqMxGAyJRGIwGMRi8funnTE5iTMYDExXzNRqtWQyWSgUOp0OnBmnp70MvmYlEolEIlGpVKVSSafTUSgUNpudSCSy2Wy1Wp3At/37AIvnJ3nFhYUFDofD4XAUCoVcLnc6nffv39fpdJA/mWQkE2N6PrG3ECgItdvtSCTidruhaD+ZtCeRSJRKpQqFwmAwyOXydxvR/AFYFTYZDAZ2It5qtUajUbVahVbxqb0foDSn1+tJJJLNZgsEAqFQ6OTk5NWrV3iHNl2QyWSTyeR0Os1mM2yyVqlU0ACOd2jXDxjuT+2H9jYAnj/5fP7ly5d//vOfQ6HQxB43KRTK4uLivXv3FhcXr+vjjYmIUygUOp0OreLD4fDaR3Igk1Wr1VqtVq/Xm9o95ZDGhbxKs9n0+/0+n49KpWazWRjZ73a7nU5nmpvKsQN6ewAej7e5ufnxxx/b7XaNRnNTT9/A6HvwDuQ2AhbWzWYzmUz6fL6nT59++eWXE7s6jUbj8/nLy8uff/65QCCYXhEnfD/vw2Kx+Hw+GHBjcZVOp1OpVKrVKofDmU4Rfx0YVyGTyTQazWAwRCKRYDAIu28mubFsemAymVqt1mAwwDYTvV6v0+lgIwfeoWFLr9eDwwfegdxGBoNBrVZLpVJPnz599OjRxcXFxC5NpVLVajV8zsVi8djZ//3BZNgHRBx6M2BjABbnjrGIMxiM6V/aAiIuFoutVuvnn3++v7//+PFjMpmcy+Vup4izWCyDwXD//v2tra3t7e2F78E7LmwZjUZjEZ8fxicP1Oqj0ejjx4//4z/+Y5KXBhGHPd0SieQafzJW8ziwS8FgMAyHw0qlgkVrXbPZzGaz+Xyex+PNkH0dpERVKtW9e/cUCsXKyorX6w2FQvF4vFQqzUT7yjvDZrNFIpFcLjcajVqtVq/Xm0wmhUJxG+S72+2m0+lUKnV0dHR+fn5ycjLhqddbTqvVqtfrIN8HBwenp6cTDoDBYDgcjo8//lij0VzvT8ZQxPl8vlqtzmazRCIRCxGHkZ9isTidI5G/wMLCgkwmE4lEFoulWq0eHh4+fvwYXL1utoizWCyVSrW6uvrpp59arVboSLkl3lXdbjeRSJyfn/+///f/Hj582O125xmVSdJutwuFgtfr/dvf/vbdd99NXjTodLrFYtnd3b32tAFWIk4ikcCw3+v1YtThC49FcrncYrFg8fOxYKxWZDKZTCYvLCzQaDSLxTIYDFAUjUQi0Wg0Eomk0+mpnQx6W6C6q1AoFAqFWq0GC1mj0SgSiaCqiXeAGNJut+F5MR6Px2IxqIL4/f7bmUDDC2jq9fv9FxcXJycnwWBwkubJBAKBz+frdLqlpSW9Xn+NqfAx2J7EwSkUIxEvlUo+n08sFsOM+CxCoVDIZLLRaFQqlWtra/F43Ov1/vWvf202m7VabcIfNYxgMpkcDmd7e/uDDz4AB3AejwcdqDf+AN5qtTKZzMHBwbfffntwcABLq2/G2zpDlEolv9//3Xff/f3vf7+4uIBBtkkik8k+/fTTjz76yGKxYCGGGJ7EEQQRi8UsFguje7Ver8OGsEaj0e/333NjJC5AwLCmHea4GAxGq9Xi8/nJZDKbzWaz2XQ6PYs9iLChVCwWg53W+vr68vKyXC4XCASTWaqHF2ArViwWC4UCmPeenJycnZ2FQqFOpzMlbj+3hHw+n8/nz8/Pz8/PDw4OJm9kxGKxUBS12Wx2u91kMvF4PCzEEEMRZ7PZIOIYaWu9XgfXvVqt1uv1Zn2zIp1OF4lECILI5fKPPvro4uLC7/c/f/4cBlPxju6tYTKZy8vLd+7csdvtRqMRRVEEQcD0Ee/QsKXb7TabzcvLy4ODg5OTk0AgEI/HK5UK7NfGO7rbRTgcfvXq1d7eHviiTP4MLhQKl5eXt7e3LRaLVCrF6MOPlYgTiURoMWQwGBidxGG5QbVaLRaL5XIZQZAZ6lH5MTCvT6fTeTyeXC6n0Wiw7KPf7xcKhWq1Wi6XJ+wj+LbAZBOPx+NwOEqlcnNzc2try2AwqNXqG9z9DZ2Cw+EQcq+wFcTlcp2cnMA27ck4cswhfL8hs9PpZLPZZDJ5dHR0eHjocrkCgcCE3wVYQSWXyx0Oh8PhkMlk2I2wYSviMLqJaeqz3W5nMplUKkUkEmdaxF+HRCJJpVIWi8Xj8ex2u8/n83q9FxcXgUAAl5XEVwTMYxcXFy0Wi9VqBQMZLpc7/aNY7wn44cVisYuLi4uLi+Pj40wmk8/ny+Xy9O/RvkmM5+kfP378t7/9LZ1Op9PpQqEw+XeBTqdzOByNRuN0Ou12O5/Px+5aGIo49B5wuVw+nw/z5VhMNzQajVAoBF9019tCjyNEIpHP5/P5fHCD8ng8CoWCw+Gw2exwOFyr1WCTwzS0r5BIJBqNBquxNRrN8vLy5ubm8vKy1WqFjni8A8SQwWDQbrdbrVaxWMzn8y6XCxxNX716NW8fnDC9Xq/ZbFar1VQq5ff7//73v//pT3/q9Xp4FSEEAoHRaAQFV6vVmF4L8+1WQqHQbDYTCIRUKoVFKqBer/t8Pj6fr1Aorv2H4w4Y0chkMjKZLBKJHA6H2+2GdDl4lOMdIAEqHwaDwel06vV6tVqtVqtFItFtmN/pdDqpVCoaje7v77tcrnw+n8lkcrncNHy53jZarVYgEAgEAmdnZ0dHR6FQqNvt4liE0Gg0n3766e7urkgkwvpamIu4WCy22+21Wg2jpUe1Ws3n8yEIsry8PKM9Kr8AvBzIS+j1+lqtZjKZoNIQDoeTyWSj0cCrZY3FYjGZTKVSaTAY1tbWPvroI61WiyDIzbavgkpMp9OBWTOPx+Nyub788su9vT28Q7t1DAYDyIA3Go10Og2V5P39fXxdQplMJpvNXlxcfPDgwdLS0gQmITAXcRRFtVptIBDAqLTV7XYLhQJkvmq1Gp1Ov6nrzykUCovF0mq1RCJRq9WGw2HYKeVyuUBZJhYJ1GCXlpYcDodGo9Hr9SqVSqFQYGoiPyW02+1arRYKhbxebzAYDIfDsVgsHo/jHddtpNFolMvlSCRyfHwcCAQikUgikUgkEvhGZbFY7ty5c+fOHYlEMpmWOcxFHKaVBAIBRnuTe71esVjMZDLFYrFWq8FKCiwuhDsUCgWWS2i12na7DfuLG42G1+udcH6cRCJRqdSlpaV/+qd/AheUm936/TqQAXe5XN98883x8XE6nZ5849ocAKZhT09P//CHP5yenjabzWkoRVgsln/7t3/TarVisXgyDbWTEHGNRoOdiAOtVisSibhcLpPJxOVysbvQlAD+YkQi8V/+5V8cDkcymYxGo+Fw2OfztdttjC6KIIherzcajTKZTCaTORwOs9mMoiim7yzugO9gr9eLRCKRSCQQCITDYTiG497Cf+OrDj8ALFHb7XYoFAqHw4FAYGxm0G638S1FkMlkg8Fgs9l2dnYmvNIE89uPw+FQKBQej4fprd5utxOJhM/nQ1HUZDJhd6EpgUQi8fl8LperUCg++eST8/Pzw8PDp0+fxmIxTEXcbrd/8sknNpvNZrNRqVR4WrxJRYgfAyLebDZ9Pt/z588PDw8vLy/z+Xy/3x8MBjjayd4S897XGY1G7Xa7XC6fnZ09efLk/Pw8EomUy2V8a5gAiPivfvUr6ArHurX6Hy6N9QWoVCqRSERRVCKR1Ov1Wq2GxRdmvV73er0sFksul6+trZFIpJu9AWthYQES0/Btr9PpwHFMrVZHo9FUKpVIJHK53Ps/6SMIIpVKJRKJTCYzGAx2u91ut8tkMh6Pdx2vY6qB5pNMJhMKhfx+fyAQCAaD0Wg0n89j9015RaB9ExcDyNFoBDM1mOrm+Cuq1+vV6/VqtQrzO6lUKplMejwev9+fTCZLpRLu429UKlWj0Wi12p2dnfX1dYlEAqI3sQAwF3HQGi6XK5VKi8UiRk89zWYzFAotLCxsbGxAXuxmHw9/gFAoRBBEo9Fsbm7CwPfLly9hg917/mQul2uxWJaXl1dXV+12O5fL5XK5N756CXS73Ugkcnp6ure39/jxY3iQnx4LWbxEnPD9YCR2Iv76GtJer1cqleLxOLThB4PBYDBYq9XgvZgGLxo6nW42m7e2ttbX1202G4VCmfB0G+YiDmIqFApNJlO9Xi+VSlicYuA5q1gsJhKJQCAgEolEItHNztW+Dti9MhgMPp8P+Q06nS6RSPx+P+zNaLVaVz+w0Ol0Go0mFAplMplOp4Pct8Vigen5m63gYB5bLpdjsVgikbi8vAwEAhcXF9PTfzL2ZqDT6bg8bsJJHFJJGGWTGo1GJpPxeDyVSqVcLsNIdjAY9Hq9cBjHPXkCwB2nUqlWVlbW1tZ0Oh0uQ+MTkjmZTLa2tgbLgsvlMkZX6XQ64XB4f3/f6XTe+ILbj4FzmUKh4PF4JpMpm81eXl4+f/784OAAWjCv+HM4HI5IJFpfX4fWb7lczuVyWSwWjUa7wRkqoNFoJBKJi4uLv/zlL8fHx9CGP1WbOuD7VSKRsNlsvB43QcSxU9JSqeT1eiORyNHRUTQaLZfLsBW90WhM1WJxHo/ncDhWV1fv3bu3traG14TEhGSOz+fr9fpQKIRp63u324XWaRRFLRYLmUy+2ZnxHwCJchaLBUPwIpGIzWaPRiM6nR6LxZLJZLVardfrcDO8foYikUhgh4sgCCzfkcvlKysr6+vrUqmUw+HcbOtBGM6uVCqlUikWi4XDYXAudbvdeIf2EzCZTJlMptFoOBwOLp9tOIn3ej3sxBQ8DIbD4cnJSSKRmMK90nQ6nc1mw6Dy+vq6wWCYwGTmzzEhEedyuUQiUSqVYiri7Xbb7/e3Wi0oMkCS4faI+OtQKBToCOTxeGtra9FoNJlMut1uv98POvV6doXBYKhUKo1GYzabdTqdWq0G42+hUEin02/8A0273a7X6ycnJ4eHhxcXF/CFl81m8Y7rp0EQxGg02u12oVCIVwz9fh/T0YR4PF6v10ejEVj4TqGNAYqiZrN5Z2fn7t27TqcT3zr/hO5PBoNBJpMFAoFAIEAQpNVqYVGRGAwGpVKp1+tFo9F4PE4ikVAUvVUVzjFQT6bRaNCnL5fLs9ksmJGJxWI+n/+6rxuHw9Hr9TqdzmazQRv4za4oQDJ3MBg0Go16vZ7NZjOZDBhPezyeTCYztevTiEQiGI0ZDAa8hAN+dSDiGOXEa7Xa1I5Q0el0JpOp0+mcTufq6qrFYlEqlfiGNKEbFYycUBQ1Go2VSiWRSGBnqToYDBKJxOHh4cLCwm0YBH8jRCIRWkqoVKpOpwNr8te/RKlUKo/H43K5AoGAz+djt8djShiNRv1+v9lsBgIBeDrx+/2RSCSVSuE+v/MLkMlkGo0mEAi0Wq1Op8NrqA1+e7d2S5FIJDIYDOCVv7i4KBAI8I5oUiIOB0OBQABmWI1GAzsR7/f70Wj0xYsXXC5XpVIxGIxblRn/MUQiEUEQBEFujFXvOwPeVe12u1Kp5HK5w8PDFy9egAn49K++ZDKZYrFYr9cbDAaVSoVXGGCeDjPuOM46TR5YoGgwGLa3t3d3d1dXV3E/gwMTfWRGEMRgMGQyGb/fj91VBoNBKpUaDAYGg8HhcDCZTFjLi90V58wKrVYrFotFo9HLy0uXy5VKpeLxeC6Xw31g5CooFIq7d+8+ePBALpfjGMZwOOx2u7Bk6laJuFKpXFxchG5Cs9nM4XDwjuj/mKiIczgcg8GQSqUwff3D4RA2ejidzlwuJxKJYEAcuyvOmRXAOOzg4ODhw4ePHj3CO5y3Q6FQPHjw4MGDB/i6A41Go06nM+WbArFApVJ98MEHq6ury8vLOFaVf8xERZzBYEgkErlcDlu73moC5R3w+Xx/+ctfGo3G5uamVCrF7kJzphkY2o7FYi6XKxgMgnNsKBTCO64rAX2f8Ey5trZmt9sRBMH3RAJLX0OhULlcnp6Wbewgk8lWq3VpaWl1dXV7e1uhUEybY/5ERXw8pyAUCrlcLjyXYXe5cDjc6XR4PB6smsbuQnOmGRj/Ozk5+cMf/nB2dtZqtWaoKAd58I2NjX/913/VarV8Pp/JZOJb4On3++VyOR6PD4fD25BOoVAoFovl97//vcFgsFgsNBpt2nbGTlTEoecBRVGHw5HNZs/OzjBtJKpWq8Ph0Ov1np6eEggEmUyGIAh2l5szJcDzfqfTicVisVgsFArFYjGv1+vz+QqFAr7Wg1eERCJZrVaDwaBQKDQajc1mg5Z/Go2GY+MQtGbCuOYU9m5fO0wmc2VlZXFxcWNjw+FwwEataVNwwoRFHODxeIuLi6VSKZvN+nw+7C4E6ZpwOHx2dgYTVnMRvw2AiFcqFZfL9fz58/Pz82g0WigUGo3GrBzAKRTK0tLSZ599ptFojEYjTNKCNye+gWHnlzKFsNnsu3fv/va3v5VKpUqlEibA8Q7qJ8BBxMeLGWFTBHYnI2hoTaVSx8fHVCpVJpNxOBwajTYvct484ITY7XbL5XIul0skEpFI5Ozs7OzsLBKJ5HI53M1j3wiDwRAIBCiKoigqEonu3bu3vLwsFothTTbe0REI3zdo3uySJpVKZbFYPB5PLpdDP7jJZIJ1sniH9rPg8OFgMBhg/iAUChkMRqfTwfQzkUgkKpVKv983mUxCoVAgEMxF/OYBX9i1Wu3y8vLw8PD09PTly5fgXw+epXgH+Gb4fL7T6VxeXnY6nbAOm8/nU6nU6Xl+h99woVCY/p76d4bNZiuVSpvN9umnn66srMhkMhRFp+ct+ElwEHEymQzbxXQ6ndlsBm9J7C4HNtCBQODVq1cUCmVlZYXBYIBhMXYXnTMxoGe5Uqmk02kwjz09Pb28vLy8vMQ7tDdDpVKZTCaXywXjSafTubS0ZLfbdTrdFH5EwaigUqlM7VDr+4AgCI/HA1FyOBzr6+tWqxXECu/Q3gBu8XG5XDCnffz4MaYiDiSTyT/96U+xWIzFYsHz6bTdIXPejXq9DtPzjx8/vri4qFarlUplap03fgCPx1MqlbBzw2azicVioVDI4XCm88M5GAzq9Xq5XJ7+3NQ7oFQqV1dXNzY2FhcXtVqtSCSiUCgzMemNm4gzmUy9Xl+v18GfFjYWYnc52N9GIBB2dnZgcfNUtevPeSvAPLZWq1UqFXBnPDs7e/bs2UycvmFrB4fDAW8yvV6/sbGxublpMBjodPo0u/72+33Y6/K6e9pMQyKRyGQyl8vlcDhOpxO285hMJrFYjHdobwFuIk6lUoVCoUajAc+8yZyeKpXK/v4+iUTa2tqai/js0mq1qtXq2dnZ8fFxMBiEjFwmk8E7ritBo9HodDpIhkajUSgUarUaXJqnPPfa6/UqlUo2m52qLRnvA+SynE4ntBLq9Xq5XI7Ldp73AU8RR1G02+3q9XqTyRQKhZrNJtbNp9Vq9eDgoNFosFgso9EIrpKYXnHOtTA2j4UKRyqVSqfT33333bfffhsIBGq12rQtDfgxCwsLsHkDrCJ3d3d/97vfKRQKgUDAYDDwju5KdLvdfD4fj8er1SresbwXCwsLDAaDzWZLJBKFQnH//v1PPvlErVYjCDLNT0I/B845ewaDYTabP/vss2+++QZcqzC9XK/Xy+fzoVDo6OhIKBTC+nZMrzjnWoDW70ajAbaxgUAgEon4fL5EIjGB7/5rgcFgOBwOi8Wi1WpVKpVOp1MoFBwOZ/rrZmM6nQ7suiyVSnjH8l4wGAyr1epwOLRarclk0ul0Uql0Ogd5rgL+Im6z2YRCYSwWOzo6wnTnE4FA6Pf7xWKx0+mAZXa/39fr9ZAXmwNvj4YAACAASURBVIkKxi0E5gNheCebzb58+fLp06fn5+eBQGD6y2uwMI9MJpNIJLFYvLW1df/+/cXFRYvFgndobwc8CbVarWQy6ff7ZzGdAt0+0G0iFovX1tY+//xzaETBO7T3BWcRJxKJbDZ7YWFBq9VaLBaYy8B6rK7b7SYSiePjYzabzefzlUqlUqmk0+mYXnTOu9FsNuPxeDAYDIVCHo8nEomEw+EJfEiuBT6fL5fLYbOSWq12OBwGgwFFUbzjemsGg0Gv14NFSOAkjndEbw2HwwH3Pb1eD2pjNptvRmEMZxEnkUgwUqzRaKxWa7vd/sHSGSzo9XqJRKJcLsMs/ubmpkgkmov4dNJoNAKBwJMnT16+fLm/v9/v96GRaSaGv3k8ntVqvXPnzvr6utlsZjKZdDp9Fp/ZoRpRr9cbjcaMTvrADsLV1dUHDx4sLi5CfWIW34sfg7OILywswGOOyWTq9XqtVisajU6ggWk4HMJ2roWFBThWGAwGsVg8r3NOA/V6vVgsJpNJn88XDofD4XAgEAiHw1O7+vJ1EATh8/kKhUKlUpnNZoPBYDKZ1Go1DP7NqGp0u91CoTBzfSkwRaVQKOAArtPpdDqdyWQSCASQ5sI7wOthWl6GTqcTCAQej+e7776bzBUHg0E8Hs/n87C6kEwmIwgyF/FpoNFoRKPRg4ODL7/80u12d74H77iuBJfL1Wq1W1tbu7u7JpOJx+NxOBwqlTrTdZdut1sqlfL5/Gx1iPN4PHgvNjY2jEajQCDgcDiw52t234sfMy0izmKx6HQ6PHuC7dwEntpAGmAIqNfrtdttg8EglUpnrlF01hkOh7D6MplMJpPJaDTq9/svLy/Pz88nMM37/hCJRCqVCj0nWq3WaDRarVa73S4Wi2+G4Vq9Xod2oCnvSyGRSFwuFxzEJBKJSqVSqVQ2m81kMkkkEgaDMYsdhG9kWkQcbDb1ev2HH35IpVJLpdLEUm+QHx8MBrDDm8lkzkV8woxGo2azWSqVYHMx7N8pFArlchnv0K4EiURiMpkOh+M3v/kNSDmXy2Wz2fjaf18j8GwUCASmXMQpFIpEIrFYLGB+IhQKRSIRl8tlsVjTP0v1zkyLiMNnXSaTOZ3OarV6fn5er9fb7fYEWoCbzWaz2fT5fBQKZTgcMpnMfr+PouhcyjFlbB5bqVQKhQKcwff29g4ODhKJRD6fn37rQSqVCpM7fD5fJBLt7u5ubGyIRCKpVHpj9ALW9zQaDXhCmsIxHxqNxufzEQSBZjOdTmexWGw22/LyMqwQuDG5759jul6eUChkMpmFQsFoNDYajXQ6PbFCSjqdbjabxWKx1Wrlcrmtra25iGPKcDjs9XqlUuns7Ozg4MDr9Xq93mw2C9YcM9HExuFwNjc3nU4njPAIBAKJRHJjTt/AcDjs9/vVajWRSMRisSnszefz+RsbGxaLxWg0KhQKFEUh983lcm+Jz910iTiLxYJ2Q7vdDmbQExPxRqMBm1+oVGqv14NpIC6Xy+Vyp9AUdKbpdruNRqNWq5VKJRjy2t/fhznM6e/+plKpMLHNYrHUavXW1tba2prNZtNoNHiHhgndbrdarRYKhWKxOA3ekHQ6nU6nMxgMGo0G9QZ4F+x2u8ViUSgU8AfwDnOiTJeIAzKZ7JNPPqHT6YlEIpvNTvLS1WrV7XaXy+V8Pn9xcbG1tbW9vU2hUG5kPQQvqtXq5eWlx+NxuVwul6tYLOZyuWq1Ov0KTiAQRCKRVqtdXFy0Wq16vV6pVIrFYh6Ph3dcWFGr1fx+fygUmoZEColEkslkarVaq9UqFAqpVAprXkQiEY/H43K5szs6/z5Mo4jz+XyHw1Gr1Z4+fZpIJGA9+WQu3el00ul0uVwul8vZbJZMJotEIhRFhUIhNPnepM6kSQLmse12G0pkx8fHx8fH+/v7LpcL79DeDPQUwxHPaDQ6HI7t7e319XWNRgO9g3gHiCHVajUQCIRCockfw4lEIo1Gg98wQKfTYdLSZrMZDAaNRiOVSlks1oQDmzam8fNHJpMZDIZCobh79y6ZTL64uAgEApMMAHK1gUBgNBrF4/GNjY179+5xOJzZsiuaKqrVarFY9Pl8BwcH4XAYbAhnwjx2YWGBw+GgKGoymcxms9Fo1Gg0sFyQQqHc+DxbsVg8Pj52uVyFQmHCl0YQRKvVglU1n8+H3kHh96AoyuVyb0D75vszjZIE37oqler+/ftsNrvdbkej0cFggKk31usMBgM4jAeDwWfPnhWLRXBdIBKJTCbzllRL3pPR98AZPJlMhsPhx48f/9d//Vc0GsU7uqtCpVLpdLpcLtdqtffv3//www81Gg2Px6PRaHiHhjnD4XA4HGaz2cPDw7OzM+zGfIhEInQYAwvfo1AoVldXrVar0WhUqVRSqVQmk43/AEbBzCLTKOIAHMbr9XosFsvn83B2m3wYvV7P5XL953/+p8VigQq4SqVCEGTykcwWw+EQvL+9Xm8wGAwEAtFo1OfzVSoVvEO7Kkwmc2lpyWw2azQag8Gg0+lkMhmLxbolWddmswlJxVqt1ul0MDpCQcZSLBbDYmhwUmIwGHQ6HUVRlUolEokEAgGXy0UQBBQcizBmmqkWcaVSSSAQMplMLpcbDAZ4ifj5+bnP59vY2IDHfxRF5yL+RsCdplKpHB4e/u///q/P54vFYvV6fSZ6BwEmk7m2tvbpp5+C6zQ8IN4eHWk0GqlUKpvN1ut17Hr2YTwHdkND8gRSJRwOB8wwfnBIxyiMmWZ6RRzeNj6fv7S0BN510DY+eQueXq/X6/WCwWC/369UKh6PB/qCpVIpgiCzspZlAsADeL1eTyaTkUgkGo1Go9Hz83Ov15vL5SqVyvRvb0BRVC6Xy2QyqVSqUqnW19dtNptAILiFQwOpVOrp06enp6eYljRhP8Ovf/1rOI/DpCuYcMzrT1dk2n9NLBbLbDbT6fRUKuVyubLZbKvVmlhy/HXS6XSpVIpGoy9fvtzc3Hzw4AGRSKRQKHMRHwMb1Mrl8sXFxfPnz10u1/n5ebPZbLfbvV5v+hWcQCAIBALYPb+6uqrX68ET7XaqSTqd3tvbc7lcmJpHMhgMk8n04MED6P6GZx04fWN30RvGtH864RlWJpOtr6/XarUXL14Ui0VcBrLhPN7pdEqlEpFI7PV60WjUYDAolUoooFMolNtQ7/oB4OtdrVZzuVw2m00mk4FAwOfzXV5eRqPRZDKJd4BvBgxLpVIp2G6AXxJYE9/OGhpsfkgkEsFgMJ1OY9TgSyaTORyOWq1WKBRisXjewvvOTLuIA0wmc3l5GUEQyLHi6KoBJ8pAIJDL5Vwul9VqNZvNOzs7NBoNDI/wCgxHhsNhuVx2u92np6cHBweXl5f1er1er8+KbalAIDAajRsbG6urqzqdDhKyTCbz1gpKrVbLZrOpVArTISwajSaRSMCDet4p+D7MhohDCZtCoTidTp/P5/f7U6kUXiWy4XBYq9VgahxWEQ2Hw1KpBG2ICIJwOBwKhXJTOxHHK3VgzwvYTIfD4YuLi4uLi9PT00gkgm+EVwFM5MGz1Gw2m83mtbW1paUlqVQK7x3eAeJJOp0+Pz+HKU3s7jI6na5QKGBFw428UybGbHxYYeEsm83e3d0VCoV/+tOfvvrqq8lPH/yAdrsdi8WKxWIoFEJRFJauwl/B/fKmfjShARxav4+Pj58+fZrJZKrVarVanQnzWNjsKhKJNjc3P/zwQ4VCoVQqwbOUSqXe2gP4GJ/P9/XXX19cXGD6LMVkMnU6ndPplEql2F3lNjAzIr6wsECj0bRarVAoTCaTsVjM4/HglR8HxkfydDpNJpPBIahcLnc6Heh75fF4sFaRQqHMdHMxrJyHkkCr1QJvMo/HEwgEXr169fjx42kw1rgKFAqFx+PxeDyRSKRWq3d2du7du4eiKIqic3ucwWAAqznC4bDL5UokEpjeXHQ6XSqV6vV6Pp+P3VVuA7Mh4sDCwgI0Ht25c4fH433zzTcPHz6cktLZYDBIJpPgS/7kyRM43IHPg1KpRFF0ph0e+v1+o9EoFoupVCoYDLrd7ouLi0qlUqvVZmtlF4/Hu3v37tLSkkaj0ev1YrFYLpdDPzLeoeFPr9dLJpPxeDwQCKRSqWq1imlDEZVKFQqFSqVy3t/1nszSZ3dhYYFKpVKpVLPZLJFIarVaJBJpt9u1Wg33EZLRaFSpVCqVCmSEpVKpWq0uFArNZrNer0skEh6PR6fTqVQqhUIBz42prcVDuzesOoLTN+S+U6lUOBw+Pz9/9erVwcEB3mFeFegaggF62Li4s7Oj1Wq1Wi3eoU0LUOfodDrxePzw8DAcDpdKJexc50gkEoPBAONvFEUxusrtYZZEfAyNRuNyuQ6Ho9FoSKXSZ8+eJRIJvIP6B2q1Wjwe7/f7iUQCjuE8Hs9oNKrVaqFQKJFIWCwWgiDTKeLdbrfb7YIfbzabjcVi2WwWOgjL5XIul5uSp58rIhKJwLJKr9drtVqLxaJSqW6weey7ARvy3G73X//6V6yN3blcrtVqXV1dlUgk2F3l9jCTIg6moNBLIBKJUqkUJMenZ5wEJktfFzsOh3Pv3j1oYjObzQKBQCwWQ64cjuQwVfz6bDGmEj/6R8an78FgALs4kslkKBTyer0nJyfhcDidTs+Q7QlUwmHIAE7f6+vru7u7KpUKJoHxDnC6gD15hULh7Ozs66+/xvpyfD5/bW1te3tbLpdjfa3bwEyKOAAWORaL5fPPPxeJRC6Xy+fz4R3Uz9LpdAKBQKvVury8fPnyJaxjhn2MQqEQfG7H1j8T6JGAQmW73YZCZbVarVQq49bger1eqVSKxSJYj2H6cH3tLCwswKIAjUaj1WrNZrNer1epVFwud+6/8ZPU63WoUcdisQlcjsViabVag8Ewfx66FmZYxJlMJvR+CAQCrVbb7XanXMQ9Ho/H43n9X1oslpWVFavVqlQqoctNIBAsLCzA7AOmcjMYDKDJHcqV8Xg8Go0eHR1BxXJWuk1+EhKJJBKJ7Hb7/fv379+/r1Qq2Wz2fJzkF6hUKicnJw8fPgyFQhO4HJvNNplMVqv1dg7HXTszLOIAhULh8/lGo/Hjjz8mk8mw9wvvoK5KsVj0eDzlchkmv8H6Bw7jLBaLyWQiCALNy5AZgBQBZGDgUDnOxowVHzbbAmDCPhgMIM3daDSazWaj0YBxyna7Df8Ix/BSqRSPx6vV6gwdusdAByqsETCZTBqNxmg0Go1GoVB4wzYXXy+tVqtarQaDwcvLS6/Xi/XsBYIgUqnUbDZDT+dM991ODzMv4lQqlc/nk0gkKpWKouh///d/z5CIl0qlRqMRCoVAncfWP2QyGZYHyuVytVrNZrPHaRZotABZh1cNvS7jRAH0k4CXd6fT6ff73W4Xpiuz2SzUKlOpVKPR6Ha7vV5v3Igy1npc/MXeEyKRyGAwxGLx9vb2p59+Cr83qJ3M3ZR+gXa7nc1mA4EAPCZi3eXF5XItFovJZOLz+fO5quti5kUc9AtBELVavbCwALaZwWAwGAy22+3pKXX+JHBe/sn/VCwWEQRJpVLRaJTBYIyFGzoUxz7LcEKHiuj4Z4JXF2g0CDTsKS2XyzBUWSwWO53OYDAYz9DPLvDWy2QypVKpVquXl5eXlpZglRfeoU018MFIpVJ7e3uPHj3y+XwT6PcXCAQrKytLS0s8Hm/+zXpdzLyIA2Qymc1mq9Xqjz76SKlU/uUvf8nn85BMmFGdqtfr7Xa7UqnE4/GxLz6kTV5fYTVOpIwPNdBqMm44GTefjPu+4Ww+i8ftnwRF0Y2NjZWVFbvdrlarORwOl8udD++8EZjPTCQSz549e/To0WRaj3g8nt1ut1gs87Uq18gN+awTiURIsVGpVB6PB4sj3G53JBIplUp4WZC/D9DtN4vp6QnA4XB4PJ5QKIRyyM7Ojs1m0+l0IpEI79Bmhnw+73a7nz9/fn5+PoHGfzabzeFwoGFfIpHQ6XSsr3h7uCEiDhCJRBqNxufzYSTv4cOHjx498vv9uVyu3W7jHd2ca0MikZjNZqfTCadvqVQKZWG845olEonE119/vb+/P5lBOYFAoNPpwCmFwWDMS5rXyI0S8YWFBUgW63Q6jUYDEzcUCoVKpebz+Uajgekc2hxMgbl5NpvNZrOXl5cdDsfGxsbS0pJYLIY3He8AZwYYAvB6va9evbq4uJhMO6lYLHY4HEajkcvlzts9r5cbJeJjIHG8uLjI5/N1Ot3BwcHFxcXl5WWxWMQ7tDnvAoVCAbOkpaWlpaUlnU4nl8vBKvKm+rZjRzQaffHixd7eXiQSqVark/EBValUu7u7Dodjng2/dm6giI8LfQqFQqFQgEcdmUxutVqj0Qha6/COcc5VgS2mfD5fo9FYLJY7d+7s7u6KRCIEQebVy7cFhgOCweDz58/Pzs4mk2ak0Wg0Gk2lUtlsNuj7xPqKt42bfxtIJJLV1VUulysQCC4uLg4ODqLRKN5BzXkzYFoJs5cOh0OtVut0OpVKJRAI6HT6/PT9DkQikWAwuL+/f35+Ho/HJ1MoUiqVGo3GYDBwudz54BUW3AoRl0gkWq1Wo9GoVKpqtVosFqHZbnYbEG82YDxAp9MRBDEYDPfv34f5HYVCgXdoM8loNIJhLp/P99133x0eHmK9w/51NBrNvXv3rFYrn8+fz9ljwc0XcYBOp8tkMuiVtlqtfr8f5t1nYp3YbUMkEplMJrVaDQ5WJpNJJpPNc6nvzGAwiMViqVTq4OAAnkQnmVFUKpXr6+sajWa+OwkjbouIg1uWVCp1OBzJZPKrr77qdruRSGQu4lOIRCL54IMPtre3NzY25qfv96ff74dCoYODg6dPnz579mzCwwcajWZ3d5fP58+H7DHitog4QCQSYcviysoKkUgEv+xQKBQKheaN5DiysLAgFApFIpFKpVIoFAaDATaozVu/35NGo5FOp2Ox2LNnz16+fBmNRifWZctgMEwmk9FotNvtc5sUTLldIg7JVj6fv7q6qtfrA4GA2+1++PBhOp2eiziOkEgkiURis9nu3r27ubkplUo5HA44xuAd2mzTbDYDgcDh4eGzZ8/29vZardbE3ISYTKbT6fzNb35jt9vnqXBMuXUiDi3kFAqFyWSSSCQ2m00mk0UiUTAYTKfThUKhUCjMBX0CEIlEOp3O4XCUSqVOpzMYDAaDYXFx0Ww2Iwgytx58T+r1ei6X83g8L168ePXqlc/nm1jmkEKhcLlcOIOvrKwIhcKpXSd7M7hdIv46JBIJRVEmk4mi6Orq6tHR0cHBwfn5OZi44h3dzWfsWXbv3r0HDx6IxWKxWMzlclks1vyef3+q1arX633x4sWLFy+Ojo4m1otCIBDodLpcLrdYLDqdTqlUUqnU+fcxptxeEV9YWAC/aTabDTNBCILIZDKFQhGPx2EpcKPRmIA/520DljFJJBKdTme329fX19fX11ksFpvNnt/t7wP0y5ZKpXQ67Xa7j46OXr165fV6c7ncJMNgs9lWq3V3d9dgMMyrGhPg9or4GHB2VSqV0JW8srISCoVevXp1eXmZTCbnIn7tIAhitVodDsfq6qrT6URRlMfjgSs63qHNPKPRKJVKwQH88vIyGAxOftMem8222WwwWDvhS99O5iJOgNMfn8/n8/lSqVSlUsnlchKJxGKxBAIBm81uNBq1Wg223uAd7E0AfIPZbLZEIlGpVAwGg8Fg4B3UbAPGxZVKpVAoHB8f7+3tvXr1Kh6PY71u7QfA7nKTyWSxWAwGw9wXYTLMf8v/ANRkQMGXl5fT6XQkEnG73cfHx7lcLpfLYb2/6jZQqVROT09brRaZTKbRaFqtVqvV4h3UbNNutxuNxsHBwbfffuvxeEKhEGzgm3AYUqn0k08+2d7etlqtc2OyiTEX8X+ARCLBwVAkEnW73VKplEql+Hz+cDiMRqN0Oh1c3zqdDkzt4x3vTNJutxOJRL/f5/P5PB5vMBjAemgGgwG3/TyvckVGoxEs4YO9qa9evfrmm29isVi9Xp/waYNMJtPpdJVKtb29vbOzI5FI5sfwiTH/Rf8sJBIJQRDYY6nVajOZTDabDYVC4XA4GAwmEonJZxtvEtVq9eTkpFKp+Hy+YDDocDgWFxeh7xPv0GaGwWCQTCaTyeTR0dHz58/hY4mLb75QKLRarZubmxaLRSaTMZnMCQdwm5mL+M9CIpFgWF8kEjkcDjBaOTs7Oz4+JpFI/X4fFlcOh0NwF8I73hmj1WoFg8FkMpnJZAqFwmg0EolEAoGAwWDAkof5efwnGS9N7ff7zWYzEolcXl4+fvz4f/7nf/BqjSUSiUKhcHl52el0ajQagUCASxi3lrmIXxUajQYjDEwmU6lUbmxsZDKZXC6Xz+ej0Wgmk+l0OvPK59vS7/dzuZzb7e52u36/HzauSSQSgUAwH/P7SQaDQa/XKxQKgUAARo4DgYDf78draxWCIBwOx2Qyra2t2e12DoeDSxi3mbmIXxVI2vL5fJvN1ul0ms1mLpeDhUFPnjxptVrQwYJ3mDNGv9/PZrPZbPb09JRAIHzxxRe///3vl5eX2Wz2XMR/ksFg0Gq14vH448ePHz16FAgE8PXHh5lbu92+u7trNBpxjOTWMhfxd4FEItFoNB6PB+MMKIqur6+XSqVisVgul0ulUiaTSaVS8x7ztyUQCHz99dfhcNhisWg0Gp1OBwvY5lUyAoFQqVTy+XwkEvH7/W632+PxxGIx3Aszer3+/v37m5ubXC4X30huLfN7410gkUh0Op1Go/H5fJPJtLOz0+v18vl8JpMBZ8Sjo6NarTYX8bfl8vIyEAjAyW5tbe1Xv/oVPADNRZxAIJTLZY/H8+TJk//93/89PT3t9/vTUIyxWCxffPGF0WhksVj4RnJrmd8b7wIYaREIBBKJBKu7h8MhODoxGAwejycSiQwGQ6FQ6PV60MPbaDQqlUq1Wq3VarVaDe9XMKXA0Eoul/P5fP1+v9PpnJ+fy+VypVKJoqhAILhtNc9arVatVhOJRDAYjMVi8Xj88vIyFotNvgf8x9hsNrPZvL29LZVKwfEG74huKXMRvx4WFhaYTCaVSkUQRKlUOhwOmPOs1+vlcjmdTmcymUAgAPfhXMR/mXq9Ho1G8/m8x+NRKBRLS0tra2tWq5XFYsGSxtsj4tVqNRqNPn369KuvvkqlUu12u16vT8nnZ319/Z//+Z9tNhufz79V36zTxlzErwdwKofV7ON/2W63m81mrVaDJhaNRpNKpdLpNIy69Hq9Xq8Ho0OdTqfdbne73Xa7XavVJrODnMViMZlMCoVCo9GoVCqNRoMcUalUqlar5XK5WCzi8rQ+GAzg2QWmZOEhBpb8gtmhQCCArbs3byxwMBjU6/VGowGdl/F4PBKJwFo13NPfAJVKVSqVSqXyzp07GxsbKIrO91bjy1zEMYRCobBYLPAJkcvlBoOh1Wo1m81GowF/hdRK8XtgiXM4HJ6AiLNYLKVSKZFI2Gw2j8fj8Xh8Ph+8qDweTyAQ8Pl89Xod97R+s9kMhULFYvHk5ARFUavVarVaFxcXTSYTiqJEIvGGyUe/38/n8/F4/OXLl6enp7lcLp1O5/P5ZrOJd2j/B5vNXl9f/+STT5xOJ4/Hmy+wx525iGMIiUSCPpaxIefoe5rNZr1eh0fj10W8UChotdp0Og1/fjxPBPMdo58B/vA4U094bf0FJB/gb17ftCAUCpVKpVgsRhDkByIuk8lUKhWbza5Wq5lMplar4Vg96/f78MshEAhkMjmXy2UymXw+n0wmZTIZn8/ncrmwBohOp0N9Yoae66Ey2W63W61WtVqtVCrFYjEejycSif39/dPT01qtVqlU8A7z/6DRaCKRyGKx7Ozs3L9/XyAQzCdsp4G5iE8akBg4v4yroON0SqfTqdVq42MXZFog8QIzonDbg7iPgT8M3xnw88EtYAyVSqVQKHQ6fbztEIzUGQwGpFNex2QySSQSEolUKpXgVD4NZTQCgTAYDFKpVLPZjEajz58/VyqVCoVCo9GYzWaFQiESiRAEef2bbPrp9XrNZhOcT7xe78XFRSgUajQa9Xo9m82WSqWpmjzg8Xibm5sffvih0+mUSCTzLMqUMBfxiQL6srCwQKVSr7JAEtIv4ILb6/UGg8G4sWz81/GoHolEGueIYQUdaPdYvuG4+sYbD3rFWq1WNpsdjUblchky+Lgbfo1Go1KpVCqVwuEwgUCQyWRqtdpsNkPSXKFQoCgKmX147a9/q+Gu7KPRCL5x4S2DcgjUHiDxfXR09PLlS5/Ph2+cPwmZTGaxWFqtdn19/cMPP5RKpTweD++g5vwfcxGfaiCrTqfTf5BUGf8V/gb+MKRNxppF/B7S97zV4gWVSvXpp5/y+fzRaOR2u1OpVKlUwup1vhOVSiUcDpfL5VAoxOFw2Gw2l8tVKpUajQYyQpAmmpJV64PBoFwuw8BOqVRKJBKRSKRQKMB0GFS/s9ks3mH+NFKpdHNzc3d3d3V1ValUzv2tpoq5iE81OA4rQh8IiUTKZrPjPM9gMBh/Z+BOs9lsNpuZTMbj8cC/YTKZNpvN6XSaTKZOpyOVSgeDAeRtia+x8I/A//vOQj/+hcDfjAsV4y9a+ALudDrpdDqbzUaj0WQy6Xa7T09PQdCnKmfyA2CDh1Kp3N7e/vjjj+Vy+Xxfz7QxF/E5v4RYLN7d3WWz2Ww2m0qlZjIZqDFOJ71eD2rCiUTC7XYjCAJlWwRBuFwun8/ncDgIgsDDDaSYxlmX97nu2NISjE3GVCqVcrlcKBRKpVKlUqnVao1Go1wuV6vVbDYL3ZN4GVddEblcvrKysra2try8LJFI5mOZU8hcxOf8EnK5HAYm6XQ6JOWnXMQTiUQikXj9XwqFQngJBoNBoVBACRS6cVgsFoIgFArlfQaIRqPROMcNi0QKhQJ01ESj0Ugk4vV6g8FgJpO5b4Nn+gAACeVJREFUjpc4adRq9RdffLGxsaFUKoVCId7hzPkJ5iI+583weLylpaXBYADmgrAfA++grkqr1YK9erVaLRQKcblcaMthMBjQjQNVUPh7qAxD/QBG/KE0SiQSIT0Cx+2xZENPEQBFy1arBXMAzWYTyrDZbHZK2nveCp1Ot7y8vL6+brVaRSIRnU7HO6I5P81cxOe8GZiQlMlksID08PBwhkQcJDWbzfr9/p/MiYOIczgc6DeHjkwmkwmyPs63gHyDXo97/Mvlcr1eh96h13Pir9efISeO96/hrbFYLP/+7/9ut9sVCgWbzZ6G4vCcn2Qu4nPeDKgYDEx2u11o44vFYslkcibkaXyC/sn/Cj31zWazUqmAZI876ykUCpzN4SQOffr9fr/dbsOETqPR6HQ6kBOf8IvCAnjmsNlsBoNhd3fXZDKJxWIGgzGf6Jlm5iI+56qwWP+/vXv7SaNbwwAuMgdggGE4MxyUgwgCSklN7SEx6WWTpr3t/1ovetHe2LSx2CY1sYqCgKAoI8NJcF+8u/O5v4tvt9ZPHH1+V1RNXPXwsFy8632FRCJBO1an0/nu3TsqXJn0uv7UeDym4/5ut6vt07WbrpcrWLTKk8v3rS5XeeoddeVcXl5++fJlNBqNRCKCIKAP8C2Hbw/8KpZlqVfGxcWFKIqj0Yhl2b29vb29Pb1H+T9v1e88o9FIU6uCwWAoFFpdXX348KHD4cAeXBcQ4vB7WJb1+/00SlGW5ffv3zebTb2H+D3Hsqzb7U4kEk+fPn3y5MnMzIwkSRzH4Va9LiDE4fcwDCOKoiiKBoPB7/dPT0+32+0fP35Uq9VOp3OrbgPB/0Xjv2VZTiQS+Xx+ZWXl8ePHVJmDVzL1AiEOV2S321mWffTokSRJ6+vrb9++LZVK3W53OBxOemnwq0RRTKfTDx48yOVydJ2HquYnvS74DQhxuCLLT5FIxGKx1Go1g8FAtxMHg8Etv4gINIUqGo3m8/knT57kcrn5+flJLwquAiEOf4RadGWzWZ7nt7a2vn79WiwWS6XSwcHBpJcG/2RmZmZ1dTWbzSaTyUQi4XK5Jr0iuCKEOPwROj+NxWKxWCyZTFIWnJ+ft1ot6oE+6QXCX6hokurf4/H48+fP8/m8z+eTJGnSS4OrQ4jDtZEkKZ/PW63WRCKRSqU2Nja+fPky6UXBXzwej8fjmZuby+VyqVRqcXHR4/FcngoLeoQQh2tD/btpUEMoFOp0OgjxW8XlcsVisdXV1devX9NrmCgDvwMQ4nDNWJaVJCmZTL548UKW5VKpVKlUqtVqo9HA6cpEMAyzsLCQSCSSyWQ0Gk0mkzabTZt5BHpnQFUvXC9tEgINCF1bW/vw4cP6+nqxWNRjM787wGKxvHnz5tWrV7Ozs+FwmMbX3ZKpdXAF7bP/+T3CThyumcFgoEk6DMNYLJZUKmUwGCRJisVi5XK5XC63Wq2zszOUk/+rBEHw+Xx+v9/lcvn9/mfPniUSCbfbbbVacYRyx2AnDv8K7eeq2+32er1Go9FoNDY2NtbW1r5//14ulxVFmewK77ZQKLS8vLyyspLNZlOplM1ms1qt1CEdu2+9w04cboKWFHQhiOM4h8NhMBiGw2EwGNzZ2alWq81ms9lsohLxugiCIEmSJElOpzMej2cymcXFxXg8HolELvdihDsGIQ43ged5o9E4NzfndDrr9fru7u7W1tbnz583NjYURUGIXwun05lOp1OpVCaTocMTt9tts9kQ33cbQhxuAl0wMZvNXq83HA6HQiFZlu12uyiKjUajVqudnJzQ/aB72w/2akRRpKMSu90ej8ez2Ww6nc5kMsFgkOM4tAK/D/A9hpvG87zH4+F53u12Z7PZSqWyvb1dLBaLxeLJyUm328XrNL/IaDTSAOhYLDY/P+/3+2VZdrlcTqcTjWTvD4Q43DSWZamZbTgcTqfT5XI5HA7zPD8YDOr1ervd7na72vRhBPrfMAxjMplovjN1rcnlcplMplAo2O12FJ/cQwhxmCSWZT0eD90PKhQKtVqt2WxWKpWdnZ1KpbK/v48iFo3BYGAYxufzzc3NJZPJQCAQCARkWfZ6vS6Xy+FwcByH4+97CCEOk8QwDF3Wn52dnZqaqtfr9Xp9a2vr06dPgiD0+326OkQTiu/hxAkK7unpaaPRyHEcz/MzMzOFQmFlZYWuX3Icx3HcpJcJk4QQh1vEarUaDAY6NC8UCnRZ/+joqFqt7u/vl0olVVVVVZ30Mm+Oz+eLRCI+ny8YDDqdTofDQbtvWZbp4BuHJ4AQh1tEEARBELxe7/z8/HA47PV6R0dH29vbm5ubHz9+bLfbFxcX9+qVT7fbnclkFhYWlpaWwuFwIBCg6aYAGoQ43FLU+dput4fDYYZhXC5XKpU6Pj5utVqnp6eKotAmvd1uq6p6ByrN6dnL7XZLkmS32202myAIwWAwEolQ2QkNL570MuHWwbV7uKXoJ/Pi4mI0GtGZ+HA4bLVarVZrb2+vUqlsbm5++/Ztf3//8PDwDpyxyLK8tLSUyWTojmUoFAoEAgzDUMNYakczPT2Nly4B1+5BH7Q2e1TvzPP8eDymplo8z7tcLkmSotFoo9FotVqKonQ6HVVV+/1+t9s9OzvT3jIejyf9X/kvKg2kLbYgCFar1Ww2m81mqhd0u92zs7OhUMjv97vdbio4Mfw06bXD7YWdOOjG5UoV2pgPBoN+v9/r9U5PTw8ODg4PD1utVqPRqFQqu7u71Wq1VqsNBoNJL3xqamrKaDQ6nU5JkiKRiCzLfr8/FAp5vV6v1+twOCwWi5bmLMvS0DvtRUuEOFz2t504Qhz0bTQanZ+fq6qqbckpx7UGW71eTwt9ejAajYbD4XA4vPyUMBgMtI+hWkbqin75F2T6J+MlzCV09EEPiPYBPM87HA673a5ttL1eL/Wrstls1ON7gl9G0BGEONwplLbn5+f9fn8wGND2vNfrUQtc7UG321UURVVVetzpdKin+WAwUFWV3ktvpPuilOz0BECfSEtnSmRiNptNJpMgCLSVFgTBZDJZLBar1Wq1WrV/mn8ymUy04+Z53mQyUZU3ZT1uycMvwpk43Ck0g8JoNPI8/7d3jcdjKklUVVVRlOPjY0rqTqdzenp6cnJCs4cURVEUhY4ytDNoitTLwUqfiGEYjuMoiymsBUEQRdFqtdpsNrvdLggCNfZyOByiKAqCQA2qLBYL7c1v9KsD9wB24gAAOoa/4AAAdAwhDgCgYwhxAAAdQ4gDAOgYQhwAQMcQ4gAAOoYQBwDQMYQ4AICOIcQBAHQMIQ4AoGMIcQAAHUOIAwDoGEIcAEDHEOIAADqGEAcA0DGEOACAjiHEAQB0DCEOAKBjCHEAAB1DiAMA6BhCHABAx/4DEYG+STHaHj0AAAAASUVORK5CYII=;container=0;" vertex="1" parent="yOlltbZVxZX-zZ10FpWM-31">
          <mxGeometry x="16.459999999999923" y="25.67999999999995" width="8.74" height="9.08" as="geometry" />
        </mxCell>
        <mxCell id="yOlltbZVxZX-zZ10FpWM-37" value="" style="rounded=0;whiteSpace=wrap;html=1;" vertex="1" parent="WIyWlLk6GJQsqaUBKTNV-1">
          <mxGeometry x="547.09" y="550" width="120" height="65" as="geometry" />
        </mxCell>
        <mxCell id="yOlltbZVxZX-zZ10FpWM-38" value="" style="group" vertex="1" connectable="0" parent="WIyWlLk6GJQsqaUBKTNV-1">
          <mxGeometry x="558.09" y="574" width="111.91" height="36" as="geometry" />
        </mxCell>
        <mxCell id="yOlltbZVxZX-zZ10FpWM-33" value="" style="rounded=1;whiteSpace=wrap;html=1;" vertex="1" parent="yOlltbZVxZX-zZ10FpWM-38">
          <mxGeometry width="100.719" height="36" as="geometry" />
        </mxCell>
        <mxCell id="yOlltbZVxZX-zZ10FpWM-18" value="" style="dashed=0;outlineConnect=0;html=1;align=center;labelPosition=center;verticalLabelPosition=bottom;verticalAlign=top;shape=mxgraph.weblogos.android;fillColor=#A4CA39;strokeColor=none" vertex="1" parent="yOlltbZVxZX-zZ10FpWM-38">
          <mxGeometry x="11.190999999999999" y="2.79" width="22.381999999999998" height="29.25" as="geometry" />
        </mxCell>
        <mxCell id="yOlltbZVxZX-zZ10FpWM-26" value="聊天&lt;span style=&quot;background-color: transparent; color: light-dark(rgb(0, 0, 0), rgb(255, 255, 255));&quot;&gt;机器人&lt;/span&gt;" style="text;html=1;align=center;verticalAlign=middle;whiteSpace=wrap;rounded=0;" vertex="1" parent="yOlltbZVxZX-zZ10FpWM-38">
          <mxGeometry x="26.984245216367377" y="4" width="78.33699999999999" height="27" as="geometry" />
        </mxCell>
        <mxCell id="yOlltbZVxZX-zZ10FpWM-39" value="" style="group" vertex="1" connectable="0" parent="WIyWlLk6GJQsqaUBKTNV-1">
          <mxGeometry x="597.0099999999999" y="547" width="72.99000000000012" height="34" as="geometry" />
        </mxCell>
        <mxCell id="yOlltbZVxZX-zZ10FpWM-34" value="Icenter" style="text;html=1;align=center;verticalAlign=middle;whiteSpace=wrap;rounded=0;" vertex="1" parent="yOlltbZVxZX-zZ10FpWM-39">
          <mxGeometry x="12.990000000000123" width="60" height="30" as="geometry" />
        </mxCell>
        <mxCell id="yOlltbZVxZX-zZ10FpWM-36" value="" style="group" vertex="1" connectable="0" parent="yOlltbZVxZX-zZ10FpWM-39">
          <mxGeometry y="7" width="33" height="27" as="geometry" />
        </mxCell>
        <mxCell id="yOlltbZVxZX-zZ10FpWM-35" value="" style="shape=image;verticalLabelPosition=bottom;labelBackgroundColor=default;verticalAlign=top;aspect=fixed;imageAspect=0;image=data:image/png,iVBORw0KGgoAAAANSUhEUgAAAFAAAABPCAIAAADz89W0AAAOoElEQVR4Ae3aeXBV1R0H8JsExAgJg4pARcEdNaPWdZhBHZeKjnbEVh2Xia1jq7E2xYq24qAgWwgQErKvLxshCTthCbusCWRhCXsghEAiARIMgUAgId/OOefde3/33OW9hPYPKpkzd86588K8T76/8zs3Lyj4lX0pvzIvroP/3xO/nvD1hOlPoPES0g4juAhBSxCQC58sKNLIhGI3MqBYjnR+Px2K5XBBccE3A6tOYWwFArIRtBDBG5BWicZW+ta8nXtb0rUtCNkG/9kmoQB3FinkDlTuVMQ1Dd9XYN1p+KZDSdOHfwZCtqC2xVuqeJ1XYFcVAnNVaiaf2AnFfcskM2wyFMFSIZ2n4YXVqG3FwDmcmgrFOAIz4KrshNkDuL0DoaWqsMthWtZqOqtV60FiHDQPda14YZXsVFJAR2gx2ju8YnsA61rLSC2TtOM5J+nSa9Vdt6nomY0dTfhnOdemqFcjVUmGGKFFVw12VZk6kKWQ3rTTehGmVKt+LiyqQ/oRD04NrCTDddCz2TbhDiC6EqMqEFKOT4vwygY8VYhbF+KGWWpTFU47oXcVy8I07km25GFGVWL1SXR3kdJVw6RINk/iISchMB215z2YbcHZR/DDbozdj+gqzD2KRSexswnVl3C+A/vOo+AEwg/gwyIELYVvFulG3iQptqjkNBbquAqU/YKbs7nWwZnEteQasqlL4MZW+IsktXLliflk4MbZeHgJRmzE6F2YfQwHWtDYjuUn8f0uPLMSN2SSPkR6j7Yt5TyNTpZtMkLLUXke/XLdm9OQJ7GxYOlIhJII/zQP57N1wmmH1IcEu4p18VR5nn3y8Pv1iDiAHc043YacY3hrI3rO4rVqGaYoWomqxvh5GY62YFA+0VKVNOdIxXhNO+AUsjU4eDOpUmq2rFiS5IC5+OtWFNbjVBtyajB8DfxcNl1HA6tUJRnf7sTh8xicb4xOQiaxJG1HAoLXdR4ctIiASZj6sUmQFuWagr65+KIEpU2ouoBvtuOWHA+9xycF4fuwqxkDc620DsJEKAmGETSn8+CAWWQr0lSpM1U9OR3bzxNLkHEEDW2YWYlBc0ihasEm4cZ0zKlBUQP6ZBm1nXG62fEISOk82IcipUcCiSeWWn3SiUZKRv9cTN7L6jzxEG43ZvibXJScweyj6JHGtQ5IY5KGYOOhqMMnvvNgVro0TPNpSWHSnDilBnvrLITtYY1t0h4EZDLeyyvZc/LX2+HjsDO9c2pgJa4LYKH1Pkx+nBh4gm3uN0m4I5cVec1FZFbh2EW8VGjqQM7CBD1MNzIOShy7+dBcjCrFhpNdAEtUKUNtaRmm+txjOCSpPBGPLkL1BTRcxqbTuCtPBTs71YrVkxR34vDAHIzfib3NOHoRsfsxfHnXwJrKPLFzUpU0V3dmQDqm7UP9JQRvQvcUfF2GU5cRUgwf3mx7pZ76qHBqZPH7M7e9/u+1YwZnl5l5LEw+Al34bAu2NrJNMX0Pnl4Ev3gosWw4fFmfw/Q3L4tClcCSTSxVoXZgdkvBJ1tYDbuq0C9bP0genIuSRhTU4YMVKSeOBqBO0calWmXKpk/9EloZW3Uqcbg/HzEH2E9qbg1eLYRfgtvJtDFsOHzZgCUSXVry6E0zNRnvrceeZvx0Cs8U6FStzfZIxsJD6fhZp2pm1CkJxW8rcR0C/NsF7AA7cQkTdmJANufxSIVTu/43wJQkzU1Cd6oJ6J2BL7bicAs2NeB3KwhVbD+1/fRMbqir7k2R0vz5uQvuz2N5Hr+IL7fipmQ1Up6n5lSiIUaXwPa9p5tLbTOW1AT4JeG5ZXAdZs8bc2owdIlKtWk87y6Jl4TS8kjt8FOX8U0pbkpyF60ZqWmVaAevzV8erBtsIl4pxKEWtHRgZT36ZxM2b7CBmRixBgmVON6K7U0YVYJ+s0xHCDWr23LSpmBJKC1PHBvcN12lRvOJGiZ1KjMhhoPYZg+L6LTS5cs+mTjbpv9T846jVyaeWIyPNiL2AMqbcOYK1tTjy1Lck2/j5KclbT9iHr75HUkoLSsP36FEd7BUHZ1dB28/gyX1mF2NzIOYsR/j9+LHvcg6pmsBdID9JryzGVlHMHIbhhXwZ0MaIJ2rYepa0Wz49dPCcEkoLQt2DJWpapga0j2JghJleJ/SwjrhZwrw0mr8eSNGFmFkCUaWYWQ5RpWjlXwyuLoe3ZPdjzjyaWk8RXRknNpsiFaJQb/UyvPHu0lIunyvINYNtnRypEKuEpIurcHa4amdHGLywUacbWffvq8Zd+cZ69amXN1ao1BvOaLNRuOr1f+iQjpfv/sxv5hWPUBhjuLblSCvDmx+ylPr09/FtqhvItGay1XcoUj1kcBANWzIy+PW/6WDPHUI87qKx29J/FmvWxsh00bqg0YqzW0S1sCqUy5auzwlpNlpQJImNJM1v+qzaxKK/1i6//6ygwMXlL/41qJ4v+jLNDp5TpBXB3ZwmvP0iLTrrgLPS3T4MtRdxJAcp0LVtTZOZQbEkFKlS5uEJbAZaW4/0kOPujm96a53Z6O+Fc8uYg3WetgJxX3VeXVgb5CdqVgmt+qx3WOxtQFfFpuokfyOJdUk1KhsEkETlec2CVOtNxVrV7RWQsYmPfa7Uiyvg6+4KRK2pM7gPcmBGsGoYshKsrYB/y+QlKSW7l1Z7Le8wRl6g6W9h829E2pUNplOfKapI9i8Le16rGW5qirrbckPkvxqjCk1aR2QvGINPDVVQVWmdw1MqeaHdbtCFfednWRPPpKH2ou4Ka4TtSpTOU8g9es0U6zkhk3CdnvSMkmPToLUK3YGsg9jVLFN0dLcpLkZOY2lqkzTBwHKUxuwVLp2kZLeQ+r2ihJ3SofZaG9LZbu3T5IRLNno0uw0IjXwk7kykq4dwWantdB9ovjEnLundOSLF/q8dsV32NmB/dfEKpEdbrlpW47cjMxDel+Va5X3Hrot9YoVcpKnMhXaGJDI/hbn8GUDtqTabU53hlcerX75DSh0DNryg3WbjcDm0xheYAJPV++Y86RCbU6oylT0isb2RozZ5uC1+8TDeVtanZN9Fi6kVDF/tb27b0KtblZL9OZk9umPfwznmW30jmYTE6NQCefZhkMJh/9MrDmBxL3wCe8CWAqTZ9gtBoEpeCQPzy7G+6vxxU/4ezG+K0P4dszcgZATX5nBb0C5fekCn0jeVFStEoF3VmBhDb9JbWIuCafp5arVLZtwpHbtG4stJ5G6D35ToUzpErh3CobOx8frMb0CBcdReQ5n2tlHHLubsPYk8o8gcz8m78boMozeitFFCD462hJc3rGk/jL7uDztIEZuxvPz0TsBURX4toiAzUiz0yh0U6cw3oPpqGzGhHKWrcLvOIit93DlefzSjm1nkHqQnRxvLsMjuezDUd8o3lQjjK2VN6SeOZtfN27gN6C8dDGwe0xTv1QMnYuP1yJmN7acRlM7LlzB/Br2z/aK1c8S1malijUlqUUqYEo4PlyJU5fwp9VuqhIGJczBa7OHH8jBDTFc5fHhjjz63FsaSkN+7YrvLQXZhu7KSTfOxJP5+HYLCuvQ1MauIT+hXyKvUgG2D9Pt5DEOSMCcKuz5BY9mMSQdDmLrhO3OEvG7iMUR4t6fHX2XZjxe8+zQhgffPf36tGPrpOcB7ajUkgyMwR+WIecQO5OXHcPby9BjBtmfHEaRYu4/A19vxolWTC6Df4SBytiTHbw2Cet9lZ6fpOsYzOIs0doPj7FnDPuF/rHZjhWrJTkFPWcieCXW/sy+a+w29E/AsDysr8e5NtZ7n8pxq3pF4R8b2Em7sBpDXBZUZfLVgMVedXBqSG1C2s/nG7D0uHFbklNE341qpxHpDclA4h6cvoxLV/Sgmtvw5mJEV7C/sM6pwpOzmEqEKYTSVf9O08ympLuKdBct34o9IlHdgqdy9aPSgBTxWhZtGCJ3yu/0eAvGFOPOJE7lMUpItpzkHvI3k7V3YC1AOiFh2jXY0A2YV032pANyiqE+M/aQ98inUeX2VNXZdbAPhdG5hPR0kPhHstYyJIObLcM0OrVOO6JABjdexpgiBEaqMZI8NaeY+EyUv5eurRMOiLZ/KjAflXanJReOL0HcbvWQ1MzGU0Rz6tsyDOE7IP6S1daBH0twXwqyDrLP+n7Yij5RKltkO5EvJ0LhI6ALj5ZBGcbuapmk2TnFIskBiezI6R3NzR6ddHNOwqAkPDcPdyTovHtTkbaPPWlEbMediW6hcGrXoCSaqDy3Tjh4OQebw9QOEjrRcjNPuDD/MP62zrBF3ZFSnjQ3bUt33fIMB8VjajlOXkL+IQybTdgToExA8GIZSdfW4LTdpuOECrW5WWi1J1+Zj5IGApZsYmkn1IpWrVh3khMQGIHP12LfWVScQeha9IlkWmUC0kwd3jO48SL86ROPs1Cw7cvVNxw1LXgo3dRmO4uc6CYJmLj6TsQLecg+gMY25FXizUVovECB8tw6YQAhq8hx4l2SFr1HDXNqOSaWcHDXkFZUZTzouDkSn61C1VlZKK1twbXn+BkgUcM633u4+ekc7G2yB0vlSpe8SmmkbG6kKj9CjMBw1DZLQHlpCwbgEseJfa3qp4iapPvpR8RIjkq/MPZ/De9LVfstJUlzb4Tj3UKNKiYux90r6E5gAKGrSbOR5BJSW9oUbcoehK4jHZU67ZBSmGqSBuc4KHyEFsphWq49gNuvELNGspxYOolqxGIUHOVdR9y0RIqbNhWrO1WkoCrjEFqIdvLLhiXVq4TFi1wVCJxh6rGkYqWHO7YkVDG/LYY9MHQPs+i0DtvSASm0gWHwppK1H4GHhLXX1TYjZAX8p6qb0JynSagdmGzCo9t7Fg+nE3Dnk2TIse7hPxEhSz13KY0gJt6CxasbLyBtF4KXICgFAVPh44A0V+x49rnfJytNPdayA0lFO5ZtVJ9xCJiMoHgEL0TaDg/nreTUlp0Da9927U6ug6/d7Lx759cT9u7ndO2+6nrC12523r3z6wl793O6dl/1Hwhibbp5lQVXAAAAAElFTkSuQmCC;" vertex="1" parent="yOlltbZVxZX-zZ10FpWM-36">
          <mxGeometry x="5.360943396226415" width="17.98632330443651" height="17.76134625191229" as="geometry" />
        </mxCell>
      </root>
    </mxGraphModel>
  </diagram>
</mxfile>
